<svg id="Layer_1" data-name="Layer 1" xmlns="http://www.w3.org/2000/svg" viewBox="0 0 330.59 54.93">
	<defs>
		<style>.cls-1{fill:#68ACE5;}.cls-2{fill:#787878;}</style>
	</defs>
	<title>Accurence_R_W</title>
	<path d="M314.53,295.81h2L325.2,315h-2.32l-2.22-5H310.31l-2.25,5h-2.19ZM319.82,308l-4.32-9.69L311.16,308h8.66Z" transform="translate(-230.36 -278.46)"/>
	<path id="_Path_" data-name="&lt;Path&gt;" d="M335.41,305.51v-0.06a9.58,9.58,0,0,1,9.62-9.84,9.88,9.88,0,0,1,7.41,3L351,300.21a8.26,8.26,0,0,0-6-2.61,7.46,7.46,0,0,0-7.37,7.79v0.06c0,4.4,3.18,7.84,7.37,7.84a8.26,8.26,0,0,0,6.13-2.74l1.42,1.38a9.93,9.93,0,0,1-7.6,3.35,9.48,9.48,0,0,1-9.53-9.77" transform="translate(-230.36 -278.46)"/>
	<path id="_Path_2" data-name="&lt;Path&gt;" d="M363.32,305.51v-0.06a9.58,9.58,0,0,1,9.61-9.84,9.9,9.9,0,0,1,7.42,3l-1.47,1.57a8.31,8.31,0,0,0-6-2.61c-4.2,0-7.36,3.42-7.36,7.79v0.06c0,4.4,3.18,7.84,7.36,7.84a8.26,8.26,0,0,0,6.14-2.74l1.41,1.38a9.91,9.91,0,0,1-7.61,3.35,9.49,9.49,0,0,1-9.53-9.77" transform="translate(-230.36 -278.46)"/>
	<path id="_Path_3" data-name="&lt;Path&gt;" d="M392.86,307V295.95H395v10.92c0,4.1,2.17,6.41,5.81,6.41s5.73-2.12,5.73-6.27V295.95h2.14v10.89c0,5.54-3.17,8.42-7.93,8.42s-7.9-2.88-7.9-8.25" transform="translate(-230.36 -278.46)"/>
	<path d="M422.72,295.95h8.18a7.53,7.53,0,0,1,5.41,1.9,5.26,5.26,0,0,1,1.46,3.75v0.06c0,3.16-2.17,5-5.15,5.54l5.83,7.77h-2.63l-5.52-7.39h-5.43V315h-2.14v-19Zm8,9.69c2.85,0,4.89-1.47,4.89-3.91v-0.05c0-2.34-1.8-3.75-4.87-3.75h-5.86v7.71h5.84Z" transform="translate(-230.36 -278.46)"/>
	<polygon id="_Path_4" data-name="&lt;Path&gt;" points="221.5 17.49 235.23 17.49 235.23 19.45 223.64 19.45 223.64 25.93 234.01 25.93 234.01 27.89 223.64 27.89 223.64 34.54 235.38 34.54 235.38 36.5 221.5 36.5 221.5 17.49"/>
	<polygon id="_Path_5" data-name="&lt;Path&gt;" points="249.19 17.49 251.2 17.49 263.17 32.72 263.17 17.49 265.26 17.49 265.26 36.5 263.56 36.5 251.28 20.91 251.28 36.5 249.19 36.5 249.19 17.49"/>
	<path id="_Path_6" data-name="&lt;Path&gt;" d="M508,305.51v-0.06a9.59,9.59,0,0,1,9.61-9.84,9.88,9.88,0,0,1,7.41,3l-1.47,1.57a8.27,8.27,0,0,0-6-2.61c-4.2,0-7.36,3.42-7.36,7.79v0.06c0,4.4,3.17,7.84,7.36,7.84a8.31,8.31,0,0,0,6.14-2.74l1.4,1.38a9.9,9.9,0,0,1-7.61,3.35,9.49,9.49,0,0,1-9.53-9.77" transform="translate(-230.36 -278.46)"/>
	<polygon id="_Path_7" data-name="&lt;Path&gt;" points="306.42 17.49 320.16 17.49 320.16 19.45 308.57 19.45 308.57 25.93 318.94 25.93 318.94 27.89 308.57 27.89 308.57 34.54 320.3 34.54 320.3 36.5 306.42 36.5 306.42 17.49"/>
	<path id="_Path_8" data-name="&lt;Path&gt;" class="cls-1" d="M269.86,302.75h4.79A15.38,15.38,0,0,0,263,291.05v4.8a10.76,10.76,0,0,1,6.87,6.9" transform="translate(-230.36 -278.46)"/>
	<path id="_Path_9" data-name="&lt;Path&gt;" class="cls-1" d="M263,316.24V321a15.37,15.37,0,0,0,11.64-11.58h-4.81a10.77,10.77,0,0,1-6.84,6.79" transform="translate(-230.36 -278.46)"/>
	<path id="_Path_10" data-name="&lt;Path&gt;" class="cls-1" d="M256.28,295.86v-4.8a15.36,15.36,0,0,0-11.63,11.65h4.8a10.76,10.76,0,0,1,6.83-6.85" transform="translate(-230.36 -278.46)"/>
	<path id="_Path_11" data-name="&lt;Path&gt;" class="cls-1" d="M249.47,309.43h-4.8A15.39,15.39,0,0,0,256.27,321v-4.8a10.82,10.82,0,0,1-6.81-6.81" transform="translate(-230.36 -278.46)"/>
	<line id="_Path_12" data-name="&lt;Path&gt;" x1="32.63" y1="17.39" x2="32.63" y2="12.59"/>
	<line id="_Path_13" data-name="&lt;Path&gt;" x1="25.92" y1="12.6" x2="25.92" y2="17.4"/>
	<line id="_Path_14" data-name="&lt;Path&gt;" x1="32.62" y1="42.58" x2="32.62" y2="37.78"/>
	<line id="_Path_15" data-name="&lt;Path&gt;" x1="25.91" y1="37.77" x2="25.91" y2="42.57"/>
	<line id="_Path_16" data-name="&lt;Path&gt;" x1="19.1" y1="24.25" x2="14.3" y2="24.25"/>
	<line id="_Path_17" data-name="&lt;Path&gt;" x1="14.31" y1="30.97" x2="19.11" y2="30.97"/>
	<line id="_Path_18" data-name="&lt;Path&gt;" x1="39.46" y1="31" x2="44.26" y2="31"/>
	<line id="_Path_19" data-name="&lt;Path&gt;" x1="44.29" y1="24.29" x2="39.5" y2="24.29"/>
	<path id="_Path_20" data-name="&lt;Path&gt;" class="cls-2" d="M258.22,299.87v-20a1.43,1.43,0,0,1,2.86,0v20a1.43,1.43,0,1,1-2.86,0" transform="translate(-230.36 -278.46)"/>
	<path id="_Path_21" data-name="&lt;Path&gt;" class="cls-2" d="M258.22,332V312a1.43,1.43,0,1,1,2.86,0v20a1.43,1.43,0,0,1-2.86,0" transform="translate(-230.36 -278.46)"/>
	<path id="_Path_22" data-name="&lt;Path&gt;" class="cls-2" d="M231.79,307.5a1.43,1.43,0,0,1,0-2.86h21.67a1.43,1.43,0,0,1,0,2.86H231.79Z" transform="translate(-230.36 -278.46)"/>
	<path id="_Path_23" data-name="&lt;Path&gt;" class="cls-2" d="M265.55,307.5a1.43,1.43,0,0,1,0-2.86h20.83a1.43,1.43,0,1,1,0,2.86H265.55Z" transform="translate(-230.36 -278.46)"/>
	<path class="cls-2" d="M238.79,306a20.86,20.86,0,1,1,20.85,20.86A20.85,20.85,0,0,1,238.79,306m2.86,0a18,18,0,1,0,18-18,18,18,0,0,0-18,18" transform="translate(-230.36 -278.46)"/>
	<path d="M557.49,302.32a3.58,3.58,0,1,1,3.46-3.58A3.33,3.33,0,0,1,557.49,302.32Zm0-6.79a3.22,3.22,0,1,0,3,3.22A2.92,2.92,0,0,0,557.5,295.53Zm-0.13,3.72H557v1.39h-0.87v-3.93h1.28A1.28,1.28,0,0,1,559,298a1.15,1.15,0,0,1-.72,1.11l1.15,1.58h-1.06Zm-0.33-.66h0.36a0.6,0.6,0,1,0,0-1.2H557v1.2Z" transform="translate(-230.36 -278.46)"/>
</svg>