<svg width="37" height="56" viewBox="0 0 37 56" fill="none" xmlns="http://www.w3.org/2000/svg">
<path d="M34.8811 24.2263C34.096 23.5533 2.13094 1.23389 0.672875 0.336609L0.224365 0V5.4957C0.224365 7.29026 1.1215 7.85106 2.24311 8.74833L2.46743 8.86062C4.03766 9.98223 26.8057 25.7965 29.834 27.9275C26.8057 30.0585 3.70113 46.0972 2.24311 46.9944C0.448555 48.116 0.336396 48.9012 0.336396 50.4714V55.7428C0.336396 55.7428 34.3203 32.0774 34.9933 31.5166C36.5635 30.395 36.9 28.937 36.9 28.0397V27.3667C36.9 26.2452 36.227 25.1235 34.8811 24.2263Z" fill="#356AE6"/>
<path d="M14.917 30.395C15.8142 30.395 16.7116 30.0585 17.6088 29.3857C18.7304 28.6006 19.7397 27.9276 19.7397 27.9276L20.0763 27.7033L19.7397 27.4791C19.6274 27.3668 4.71057 17.0484 3.14034 16.039C2.4674 15.4782 1.57013 15.366 1.00931 15.7024C0.448525 16.0389 0 16.5996 0 17.4969V20.9739L0.112289 21.0862C0.224624 21.1985 10.4308 28.2643 12.4496 29.6102C13.3469 30.171 14.1319 30.395 14.917 30.395Z" fill="#356AE6"/>
</svg>
