<svg width="39" height="52" viewBox="0 0 39 52" fill="none" xmlns="http://www.w3.org/2000/svg">
<path d="M33.15 52.0002H4.4625C1.9125 52.0002 0 50.0502 0 47.6127C0 45.1753 1.9125 43.0627 4.4625 43.0627H33.15C33.7875 43.0627 34.425 43.5502 34.425 44.3627V50.8627C34.2656 51.5127 33.7875 52.0002 33.15 52.0002ZM4.4625 45.5002C3.34691 45.5002 2.39059 46.4752 2.39059 47.6127C2.39059 48.7503 3.34684 49.7253 4.4625 49.7253H31.875V45.5003L4.4625 45.5002Z" fill="#1C1917"/>
<path d="M37.1349 52.0004H33.1505C32.513 52.0004 31.8755 51.5129 31.8755 50.7004C31.8755 49.8879 32.3536 49.4004 33.1505 49.4004H37.1349C37.7724 49.4004 38.4099 49.8879 38.4099 50.7004C38.4099 51.5129 37.7724 52.0004 37.1349 52.0004Z" fill="#1C1917"/>
<path d="M1.27504 49.075C0.956287 49.075 0.796912 48.9125 0.478125 48.75C0.159339 48.5875 0 48.2625 0 47.9375V47.6125C0 46.9625 0.478125 46.3125 1.275 46.3125C2.07188 46.3125 2.55 46.8 2.55 47.6125V47.775C2.55 48.425 2.23125 48.9125 1.59375 49.075H1.275L1.27504 49.075Z" fill="#1C1917"/>
<path d="M37.1347 0.000297143H6.21559C2.70934 0.000297143 0 2.76283 0 6.33776V47.6124C0 48.2624 0.478125 48.7499 1.275 48.7499C2.07187 48.7499 2.55 48.2624 2.55 47.4499C2.55 46.3124 3.50625 45.3373 4.62191 45.3373H37.294C37.9315 45.3373 38.569 44.8498 38.569 44.0373V1.3C38.2502 0.487463 37.7721 0 37.1346 0L37.1347 0.000297143ZM27.0943 16.413H20.2412V37.213C20.2412 37.863 19.763 38.513 18.9662 38.513C18.1693 38.513 17.6912 38.0255 17.6912 37.213V16.413H11.1568C10.5193 16.413 9.88176 15.9255 9.88176 15.113C9.88176 14.3005 10.3599 13.813 11.1568 13.813H18.0098V7.96298C18.0098 7.31298 18.488 6.66298 19.2848 6.66298C20.0817 6.66298 20.5598 7.15048 20.5598 7.96298V13.9755H27.0943C27.7318 13.9755 28.3693 14.463 28.3693 15.2755C28.3693 16.088 27.8911 16.413 27.0943 16.413V16.413Z" fill="#1C1917"/>
</svg>
