<svg width="321" height="49" viewBox="0 0 321 49" fill="none" xmlns="http://www.w3.org/2000/svg">
  <path
    d="M22.9945 12.9427C22.9945 11.7978 22.2254 10.8239 20.6873 10.0209C19.2005 9.26925 17.1626 8.79921 14.5734 8.61135C16.9831 8.37223 18.8416 7.89373 20.149 7.17612C21.4564 6.44133 22.1101 5.53585 22.1101 4.45943C22.1101 3.07546 21.3026 2.05029 19.6876 1.38394C18.0726 0.717578 15.7783 0.384399 12.8046 0.384399H0V1.02513H3.80678V16.8639H0V17.5047H13.6121C16.5601 17.5047 18.8545 17.1118 20.4951 16.3257C22.1614 15.5227 22.9945 14.3951 22.9945 12.9427ZM16.8806 4.45943C16.8806 5.68963 16.5089 6.64636 15.7655 7.32989C15.022 7.99625 13.8813 8.32943 12.3432 8.32943H8.69022V1.02513H12.5739C14.0864 1.02513 15.1887 1.30705 15.8808 1.87089C16.5473 2.41756 16.8806 3.28049 16.8806 4.45943ZM17.4958 12.917C17.4958 14.1644 17.1754 15.1296 16.5345 15.8131C15.9193 16.5136 14.9964 16.8639 13.7659 16.8639H8.69022V8.97015H12.3432C14.0864 8.97015 15.3809 9.29488 16.2269 9.94406C17.0728 10.5932 17.4958 11.5843 17.4958 12.917Z"
    fill="#343232" />
  <path
    d="M50.5265 17.5046V16.9152C49.86 16.9664 49.3216 16.9921 48.9115 16.9921C48.3219 16.9921 47.9117 16.9493 47.681 16.8639C47.2196 16.7101 46.912 16.4367 46.7582 16.0438L46.7197 14.788C46.6941 14.0191 46.5851 13.3015 46.3929 12.6351C46.2006 11.9688 45.8866 11.3537 45.4508 10.7898C44.6048 9.67931 42.5797 8.90172 39.3753 8.45757C42.0926 8.18411 44.1306 7.69715 45.4892 6.99671C46.8222 6.31318 47.4887 5.40771 47.4887 4.28003C47.4887 2.89605 46.771 1.90498 45.3354 1.30705C43.9511 0.69195 41.8363 0.384399 38.9908 0.384399H25.4556V1.02513H29.2623V16.8639H25.4556V17.5046H37.9526V16.8639H34.1458V8.68823H36.1453C38.0167 8.68823 39.3625 9.1411 40.1828 10.0466C40.5673 10.4907 40.8365 11.0289 40.9903 11.6612C41.1441 12.2935 41.2595 13.0196 41.3364 13.8397L41.4517 14.9417C41.8363 16.1548 42.7719 16.9921 44.2588 17.4534C45.0534 17.6925 45.9891 17.8122 47.0658 17.8122C48.0912 17.8122 49.2447 17.7097 50.5265 17.5046ZM42.2208 4.56195C42.2208 5.75806 41.8363 6.6379 41.0672 7.20175C40.2982 7.76559 39.0805 8.0475 37.4142 8.0475H34.1458V1.02513H37.9141C39.5035 1.02513 40.6314 1.30705 41.2979 1.87089C41.9132 2.41756 42.2208 3.31458 42.2208 4.56195Z"
    fill="#343232" />
  <path
    d="M76.1741 8.94457C76.1741 6.53543 74.9692 4.4423 72.5596 2.66543C70.1242 0.888563 67.33 0 64.1769 0C60.9982 0 58.204 0.89702 55.7943 2.69106C53.4103 4.46793 52.2183 6.5526 52.2183 8.94457C52.2183 11.3537 53.4231 13.4468 55.8328 15.2237C58.2168 17.0006 60.9982 17.8891 64.1769 17.8891C67.33 17.8891 70.1242 16.9921 72.5596 15.1981C74.9692 13.4381 76.1741 11.3537 76.1741 8.94457ZM70.5216 11.9944C70.5216 13.7031 69.9961 15.0102 68.945 15.9157C67.9196 16.8043 66.3303 17.2484 64.1769 17.2484C62.0236 17.2484 60.4342 16.8043 59.4088 15.9157C58.3834 15.0271 57.8708 13.72 57.8708 11.9944V5.8947C57.8708 4.16909 58.3834 2.86201 59.4088 1.97345C60.4342 1.08488 62.0236 0.640729 64.1769 0.640729C66.3046 0.640729 67.9068 1.08488 68.9835 1.97345C70.0089 2.89609 70.5216 4.20318 70.5216 5.8947V11.9944Z"
    fill="#343232" />
  <path
    d="M105.244 17.5047V16.8639H103.514L91.2475 6.8942L99.6301 1.02513H103.398V0.384399H93.7469V1.02513H98.1305L87.4023 8.63698L97.323 16.8639H93.3239V17.5047H105.244ZM90.7861 17.5047V16.8639H86.9793V1.02513H90.7861V0.384399H78.2891V1.02513H82.0958V16.8639H78.2891V17.5047H90.7861Z"
    fill="#343232" />
  <path
    d="M131.584 11.9944H130.469C130.084 13.6347 129.405 14.8564 128.431 15.6594C127.457 16.4623 125.726 16.8639 123.24 16.8639H118.087V9.02141H119.125C121.074 9.02141 122.368 9.36305 123.009 10.0466C123.624 10.7129 123.932 11.499 123.932 12.4045H125.009V5.25393H123.932C123.932 6.09124 123.612 6.82577 122.971 7.45804C122.355 8.07314 121.074 8.38069 119.125 8.38069H118.087V1.02513H122.509C124.637 1.02513 126.239 1.28142 127.316 1.794C128.392 2.28941 129.213 3.35738 129.777 4.99764H130.853L130.584 0.384399H109.397V1.02513H113.204V16.8639H109.397V17.5047H131.238L131.584 11.9944Z"
    fill="#343232" />
  <path
    d="M163.576 1.02513V0.384399H154.848V1.02513H158.539V11.5843L147.157 0.384399H137.313V1.02513H141.082V16.8639H137.313V17.5046H146.081V16.8639H142.312V1.51208L158.616 17.8378H159.77V1.02513H163.576Z"
    fill="#343232" />
  <path
    d="M208.527 17.5047V16.8639H204.72V1.02513H208.527V0.384399H196.03V1.02513H199.837V8.40631H189.493V1.02513H193.3V0.384399H180.803V1.02513H184.61V16.8639H180.803V17.5047H193.3V16.8639H189.493V9.02141H199.837V16.8639H196.03V17.5047H208.527Z"
    fill="#343232" />
  <path
    d="M236.059 11.9944H234.944C234.559 13.6347 233.88 14.8564 232.906 15.6594C231.932 16.4623 230.202 16.8639 227.715 16.8639H222.562V9.02141H223.601C225.549 9.02141 226.843 9.36305 227.484 10.0466C228.099 10.7129 228.407 11.499 228.407 12.4045H229.484V5.25393H228.407C228.407 6.09124 228.087 6.82577 227.446 7.45804C226.831 8.07314 225.549 8.38069 223.601 8.38069H222.562V1.02513H226.984C229.112 1.02513 230.714 1.28142 231.791 1.794C232.868 2.28941 233.688 3.35738 234.252 4.99764H235.329L235.059 0.384399H213.872V1.02513H217.679V16.8639H213.872V17.5047H235.713L236.059 11.9944Z"
    fill="#343232" />
  <path
    d="M266.59 17.5047V16.864H263.552L254.785 0H253.439L244.249 16.864H241.173V17.5047H249.325V16.864H245.403L247.787 12.3276H256.131L258.4 16.864H254.439V17.5047H266.59ZM255.669 11.6869H248.21L252.093 4.53636L255.669 11.6869Z"
    fill="#343232" />
  <path
    d="M296.39 17.5046V16.9152C295.724 16.9664 295.185 16.9921 294.775 16.9921C294.186 16.9921 293.775 16.9493 293.545 16.8639C293.083 16.7101 292.776 16.4367 292.622 16.0438L292.583 14.788C292.558 14.0191 292.45 13.3015 292.258 12.6351C292.066 11.9688 291.75 11.3537 291.315 10.7898C290.469 9.67931 288.443 8.90172 285.239 8.45757C287.956 8.18411 289.994 7.69715 291.353 6.99671C292.686 6.31318 293.352 5.40771 293.352 4.28003C293.352 2.89605 292.635 1.90498 291.199 1.30705C289.815 0.69195 287.7 0.384399 284.855 0.384399H271.319V1.02513H275.126V16.8639H271.319V17.5046H283.816V16.8639H280.01V8.68823H282.009C283.88 8.68823 285.226 9.1411 286.047 10.0466C286.431 10.4907 286.7 11.0289 286.854 11.6612C287.008 12.2935 287.123 13.0196 287.2 13.8397L287.315 14.9417C287.7 16.1548 288.636 16.9921 290.123 17.4534C290.917 17.6925 291.853 17.8122 292.93 17.8122C293.955 17.8122 295.108 17.7097 296.39 17.5046ZM288.085 4.56195C288.085 5.75806 287.7 6.6379 286.931 7.20175C286.162 7.76559 284.944 8.0475 283.278 8.0475H280.01V1.02513H283.778C285.367 1.02513 286.495 1.30705 287.162 1.87089C287.777 2.41756 288.085 3.31458 288.085 4.56195Z"
    fill="#343232" />
  <path
    d="M321 5.86903L320.577 0.384399H298.544L298.121 5.86903H299.352C299.787 3.88713 300.582 2.58005 301.736 1.94778C302.915 1.33268 304.363 1.02513 306.081 1.02513H307.157V16.8639H303.12V17.5047H316.078V16.8639H312.041V1.02513H313.041C314.758 1.02513 316.206 1.34114 317.386 1.97341C318.539 2.57133 319.334 3.86996 319.77 5.86903H321Z"
    fill="#343232" />
  <path
    d="M84.6511 37.7945V37.5274H83.0646V30.9264H84.6511V30.6593H79.4428V30.9264H81.0294V34.0026H76.7184V30.9264H78.3049V30.6593H73.0967V30.9264H74.6832V37.5274H73.0967V37.7945H78.3049V37.5274H76.7184V34.2589H81.0294V37.5274H79.4428V37.7945H84.6511Z"
    fill="#343232" />
  <path
    d="M103.93 34.2269C103.93 33.2228 103.428 32.3506 102.424 31.6099C101.408 30.8692 100.244 30.4991 98.9297 30.4991C97.6052 30.4991 96.4406 30.8728 95.4362 31.6207C94.4426 32.3611 93.9458 33.2299 93.9458 34.2269C93.9458 35.2308 94.448 36.1032 95.4524 36.8436C96.446 37.5843 97.6052 37.9547 98.9297 37.9547C100.244 37.9547 101.408 37.5807 102.424 36.8331C103.428 36.0996 103.93 35.2308 103.93 34.2269ZM101.574 35.4978C101.574 36.2101 101.355 36.7547 100.917 37.1322C100.49 37.5026 99.8272 37.6876 98.9297 37.6876C98.0325 37.6876 97.3701 37.5026 96.9428 37.1322C96.5155 36.7619 96.3016 36.217 96.3016 35.4978V32.9557C96.3016 32.2365 96.5155 31.6919 96.9428 31.3216C97.3701 30.9512 98.0325 30.7662 98.9297 30.7662C99.8167 30.7662 100.484 30.9512 100.933 31.3216C101.36 31.706 101.574 32.2509 101.574 32.9557V35.4978Z"
    fill="#343232" />
  <path
    d="M123.625 37.7945V37.5487C123.347 37.5699 123.123 37.5807 122.952 37.5807C122.706 37.5807 122.535 37.563 122.439 37.5274C122.247 37.4633 122.118 37.3493 122.054 37.1855L122.039 36.6622C122.028 36.3418 121.982 36.0427 121.902 35.7649C121.822 35.4873 121.691 35.2308 121.51 34.9957C121.157 34.5329 120.313 34.2089 118.977 34.0239C120.11 33.9098 120.959 33.7069 121.526 33.4149C122.081 33.1302 122.359 32.7527 122.359 32.2829C122.359 31.706 122.06 31.2931 121.461 31.0437C120.885 30.7874 120.003 30.6593 118.817 30.6593H113.176V30.9264H114.763V37.5274H113.176V37.7945H118.385V37.5274H116.798V34.12H117.631C118.411 34.12 118.972 34.3086 119.314 34.6862C119.474 34.8712 119.587 35.0954 119.651 35.3589C119.715 35.6224 119.763 35.9251 119.795 36.267L119.843 36.7262C120.003 37.2319 120.393 37.5807 121.013 37.7729C121.344 37.8726 121.734 37.9226 122.183 37.9226C122.61 37.9226 123.091 37.8798 123.625 37.7945ZM120.163 32.4003C120.163 32.8988 120.003 33.2655 119.683 33.5005C119.362 33.7356 118.855 33.8529 118.16 33.8529H116.798V30.9264H118.369C119.031 30.9264 119.501 31.0437 119.779 31.2788C120.035 31.5066 120.163 31.8805 120.163 32.4003Z"
    fill="#343232" />
  <path
    d="M140.805 35.5619C140.805 34.9068 140.564 34.3978 140.083 34.0347C139.613 33.6856 138.753 33.4045 137.503 33.1907C136.713 33.0554 136.109 32.9201 135.692 32.7847C135.286 32.6638 135.084 32.4003 135.084 31.9943C135.084 31.6596 135.281 31.3713 135.677 31.1294C136.072 30.8872 136.542 30.7662 137.087 30.7662C137.845 30.7662 138.47 30.9405 138.962 31.2895C139.453 31.6527 139.747 32.0976 139.843 32.6246H140.356V30.6058H140.051L139.442 31.0225C139.111 30.8444 138.753 30.7126 138.369 30.6273C137.984 30.5417 137.567 30.4991 137.119 30.4991C136.285 30.4991 135.586 30.6878 135.019 31.065C134.475 31.4426 134.202 31.9234 134.202 32.5072C134.202 33.0697 134.426 33.5254 134.875 33.8742C135.324 34.2161 136.05 34.476 137.055 34.6541C137.888 34.8036 138.583 34.9889 139.138 35.2095C139.661 35.423 139.923 35.7541 139.923 36.2029C139.923 36.6158 139.688 36.9684 139.218 37.2604C138.759 37.5451 138.187 37.6876 137.503 37.6876C136.702 37.6876 136.056 37.4954 135.564 37.1107C135.073 36.7262 134.747 36.267 134.587 35.7329H134.122V37.8585H134.394L135.164 37.4098C135.463 37.5807 135.815 37.716 136.221 37.8157C136.574 37.9083 136.985 37.9547 137.455 37.9547C138.438 37.9547 139.245 37.7337 139.875 37.2924C140.495 36.858 140.805 36.2811 140.805 35.5619Z"
    fill="#343232" />
  <path
    d="M160.292 35.4978H159.826C159.667 36.1816 159.382 36.6906 158.977 37.0253C158.572 37.36 157.849 37.5274 156.814 37.5274H154.667V34.2589H155.099C155.911 34.2589 156.45 34.4012 156.719 34.6861C156.975 34.9637 157.103 35.2913 157.103 35.6688H157.552V32.6886H157.103C157.103 33.0377 156.97 33.3437 156.701 33.6072C156.445 33.8637 155.911 33.9919 155.099 33.9919H154.667V30.9264H156.509C157.396 30.9264 158.065 31.033 158.513 31.2467C158.962 31.4533 159.303 31.8982 159.539 32.582H159.987L159.875 30.6593H151.045V30.9264H152.631V37.5274H151.045V37.7945H160.146L160.292 35.4978Z"
    fill="#343232" />
  <path
    d="M187.391 32.8383L187.278 30.6593H178.401V30.9264H179.988V37.5274H178.401V37.7945H183.61V37.5274H182.023V34.2589H182.454C183.277 34.2589 183.823 34.4012 184.089 34.6861C184.346 34.9637 184.474 35.2913 184.474 35.6688H184.922V32.6886H184.474C184.474 33.0377 184.34 33.3437 184.074 33.6072C183.818 33.8637 183.277 33.9919 182.454 33.9919H182.023V30.9264H183.912C184.812 30.9264 185.479 31.0473 185.917 31.2895C186.366 31.5458 186.707 32.062 186.942 32.8383H187.391Z"
    fill="#343232" />
  <path
    d="M204.922 37.7945V37.5274H203.656L200.003 30.4991H199.442L195.612 37.5274H194.33V37.7945H197.727V37.5274H196.094L197.086 35.6368H200.565L201.51 37.5274H199.86V37.7945H204.922ZM200.372 35.3697H197.263L198.88 32.3896L200.372 35.3697Z"
    fill="#343232" />
  <path
    d="M225.756 37.7945V37.5487C225.479 37.5699 225.254 37.5807 225.082 37.5807C224.839 37.5807 224.667 37.563 224.569 37.5274C224.377 37.4633 224.249 37.3493 224.185 37.1855L224.17 36.6622C224.159 36.3418 224.113 36.0427 224.034 35.7649C223.954 35.4873 223.823 35.2308 223.641 34.9957C223.288 34.5329 222.444 34.2089 221.109 34.0239C222.242 33.9098 223.09 33.7069 223.657 33.4149C224.213 33.1302 224.49 32.7527 224.49 32.2829C224.49 31.706 224.19 31.2931 223.593 31.0437C223.016 30.7874 222.134 30.6593 220.95 30.6593H215.308V30.9264H216.894V37.5274H215.308V37.7945H220.517V37.5274H218.93V34.12H219.763C220.542 34.12 221.104 34.3086 221.445 34.6862C221.606 34.8712 221.719 35.0954 221.783 35.3589C221.847 35.6224 221.893 35.9251 221.926 36.267L221.975 36.7262C222.134 37.2319 222.524 37.5807 223.144 37.7729C223.475 37.8726 223.864 37.9226 224.313 37.9226C224.741 37.9226 225.223 37.8798 225.756 37.7945ZM222.296 32.4003C222.296 32.8988 222.134 33.2655 221.814 33.5005C221.493 33.7356 220.986 33.8529 220.291 33.8529H218.93V30.9264H220.501C221.163 30.9264 221.632 31.0437 221.911 31.2788C222.167 31.5066 222.296 31.8805 222.296 32.4003Z"
    fill="#343232" />
  <path
    d="M248.817 37.7945V37.5274H247.231V30.9264H248.817V30.6593H244.762L242.44 35.5514L240.194 30.6593H236.062V30.9264H237.646V37.5274H236.062V37.7945H239.73V37.5274H238.143V31.0009L241.381 37.7945H241.927L245.195 31.0009V37.5274H243.608V37.7945H248.817Z"
    fill="#343232" />
  <path
    d="M126.598 45.8078C126.598 45.7281 126.566 45.6684 126.502 45.6284C126.438 45.5887 126.359 45.5687 126.265 45.5687C126.085 45.5687 125.891 45.6156 125.682 45.7097C125.472 45.8037 125.265 45.9203 125.06 46.06C124.855 46.1994 124.669 46.3488 124.502 46.5085C124.336 46.6679 124.21 46.8102 124.124 46.9355C124.312 46.9127 124.547 46.8686 124.829 46.8032C125.111 46.7376 125.382 46.6564 125.643 46.5598C125.904 46.4629 126.128 46.3504 126.316 46.2222C126.504 46.0941 126.598 45.956 126.598 45.8078ZM128.674 46.2607C128.546 46.4032 128.386 46.5598 128.194 46.7305C128.002 46.9014 127.784 47.0708 127.54 47.2389C127.297 47.4068 127.036 47.5693 126.758 47.7259C126.481 47.8825 126.192 48.0219 125.893 48.1444C125.594 48.2669 125.293 48.3638 124.989 48.4348C124.686 48.506 124.389 48.5417 124.099 48.5417C123.74 48.5417 123.462 48.4804 123.266 48.3579C123.069 48.2357 122.971 48.0604 122.971 47.8325C122.971 47.5821 123.084 47.3187 123.31 47.0424C123.537 46.7661 123.825 46.5113 124.176 46.2779C124.526 46.0444 124.91 45.8506 125.329 45.6968C125.748 45.5431 126.149 45.4662 126.534 45.4662C126.747 45.4662 126.914 45.4962 127.034 45.5559C127.154 45.6156 127.213 45.7025 127.213 45.8165C127.213 45.9531 127.102 46.0856 126.88 46.2138C126.658 46.3419 126.387 46.4585 126.066 46.5639C125.746 46.6692 125.402 46.7633 125.034 46.8458C124.667 46.9286 124.342 46.9896 124.06 47.0296C123.966 47.1434 123.889 47.2715 123.829 47.414C123.77 47.5565 123.74 47.6987 123.74 47.8412C123.74 47.9094 123.751 47.9763 123.772 48.0419C123.793 48.1075 123.827 48.1672 123.874 48.2213C123.921 48.2754 123.985 48.3195 124.067 48.3538C124.148 48.3879 124.248 48.4051 124.368 48.4051C124.65 48.4051 124.981 48.3438 125.361 48.2213C125.741 48.0988 126.128 47.935 126.521 47.73C126.914 47.525 127.29 47.2915 127.649 47.0296C128.008 46.7676 128.316 46.497 128.572 46.2179L128.674 46.2607Z"
    fill="#343232" />
  <path
    d="M132.904 46.2691C132.648 46.5426 132.351 46.8145 132.013 47.0852C131.676 47.3556 131.306 47.599 130.904 47.8156C130.503 48.0319 130.065 48.207 129.591 48.341C129.116 48.4748 128.61 48.5417 128.072 48.5417C127.867 48.5417 127.674 48.5245 127.495 48.4904C127.316 48.4563 127.16 48.4051 127.027 48.3366C126.895 48.2682 126.788 48.1813 126.707 48.076C126.625 47.9707 126.585 47.8469 126.585 47.7044C126.585 47.5565 126.658 47.4224 126.803 47.303C126.948 47.1833 127.145 47.1236 127.392 47.1236C127.521 47.1236 127.625 47.1449 127.706 47.1877C127.788 47.2302 127.828 47.2943 127.828 47.3799C127.828 47.4596 127.798 47.5278 127.739 47.5849C127.679 47.6418 127.589 47.6703 127.469 47.6703C127.375 47.6703 127.301 47.6531 127.245 47.619C127.189 47.5849 127.153 47.5421 127.136 47.4909C127.042 47.525 126.978 47.5749 126.944 47.6403C126.91 47.7059 126.893 47.7728 126.893 47.8412C126.893 48.0404 127.006 48.19 127.232 48.2897C127.459 48.3894 127.713 48.4392 127.995 48.4392C128.174 48.4392 128.33 48.4151 128.463 48.3666C128.595 48.3182 128.706 48.2554 128.796 48.1785C128.886 48.1016 128.952 48.0119 128.995 47.9094C129.037 47.8069 129.059 47.7044 129.059 47.6019C129.059 47.4937 129.031 47.3812 128.975 47.2646C128.92 47.1477 128.858 47.0324 128.79 46.9186C128.721 46.8045 128.657 46.692 128.597 46.5811C128.538 46.4701 128.508 46.366 128.508 46.2691C128.508 46.1438 128.546 46.0316 128.623 45.9319C128.7 45.8322 128.804 45.7481 128.937 45.6797C129.069 45.6115 129.221 45.5587 129.392 45.5218C129.563 45.4846 129.742 45.4662 129.93 45.4662C130.272 45.4662 130.55 45.5159 130.763 45.6156C130.977 45.7153 131.084 45.8478 131.084 46.0129C131.084 46.161 131.001 46.2691 130.834 46.3376C130.667 46.406 130.481 46.4401 130.276 46.4401C130.328 46.3776 130.373 46.3019 130.411 46.2138C130.449 46.1254 130.469 46.0444 130.469 45.9703C130.469 45.8563 130.415 45.7609 130.308 45.684C130.202 45.6071 130.05 45.5687 129.853 45.5687C129.606 45.5687 129.422 45.6184 129.302 45.7181C129.183 45.8178 129.123 45.9388 129.123 46.0813C129.123 46.2066 129.155 46.3263 129.219 46.4401C129.283 46.5539 129.358 46.6679 129.443 46.7817C129.52 46.8958 129.591 47.0124 129.655 47.1321C129.719 47.2518 129.751 47.3855 129.751 47.5337C129.751 47.6418 129.714 47.7456 129.642 47.8453C129.569 47.945 129.473 48.0363 129.354 48.1188C129.234 48.2013 129.099 48.271 128.95 48.3282C128.8 48.3851 128.649 48.422 128.495 48.4392L128.52 48.4563C128.982 48.422 129.422 48.3323 129.841 48.1872C130.259 48.0419 130.65 47.8653 131.013 47.6575C131.377 47.4496 131.712 47.2218 132.02 46.9739C132.327 46.7264 132.596 46.4829 132.827 46.2435L132.904 46.2691Z"
    fill="#343232" />
  <path
    d="M135.083 44.5435L134.07 45.5345H135.762L135.685 45.637H133.968C133.626 46.0071 133.321 46.3275 133.051 46.5981C132.782 46.8685 132.556 47.102 132.372 47.2986C132.188 47.4952 132.05 47.6602 131.955 47.794C131.861 47.928 131.814 48.0462 131.814 48.1487C131.814 48.2569 131.87 48.3322 131.981 48.375C132.092 48.4178 132.22 48.4391 132.366 48.4391C132.673 48.4391 133.013 48.3606 133.385 48.2041C133.756 48.0475 134.126 47.8552 134.493 47.6274C134.861 47.3996 135.211 47.1576 135.544 46.9013C135.878 46.645 136.16 46.4144 136.39 46.2093L136.467 46.2434C136.177 46.4884 135.858 46.746 135.512 47.0167C135.166 47.2873 134.809 47.5349 134.442 47.7599C134.075 47.9849 133.705 48.1715 133.333 48.3194C132.962 48.4675 132.609 48.5416 132.276 48.5416C132.011 48.5416 131.782 48.4875 131.59 48.3794C131.398 48.271 131.302 48.1203 131.302 47.9265C131.302 47.7955 131.357 47.6489 131.468 47.4864C131.579 47.3242 131.725 47.1492 131.904 46.9611C132.084 46.7732 132.287 46.5682 132.513 46.3459C132.739 46.124 132.972 45.8874 133.212 45.637H132.519L132.596 45.5345H133.314L134.314 44.5435H135.083Z"
    fill="#343232" />
  <path
    d="M139.813 45.5346H140.646C140.33 45.8306 140.026 46.1182 139.736 46.3973C139.446 46.6764 139.187 46.9342 138.961 47.1705C138.734 47.4068 138.552 47.6147 138.416 47.7941C138.279 47.9735 138.211 48.1144 138.211 48.217C138.211 48.3651 138.326 48.4392 138.557 48.4392C138.736 48.4392 138.965 48.3807 139.243 48.2641C139.52 48.1472 139.821 47.9863 140.146 47.7813C140.471 47.5762 140.804 47.3371 141.146 47.0636C141.488 46.7904 141.812 46.4998 142.12 46.1923L142.197 46.2094C141.966 46.4429 141.695 46.6948 141.383 46.9655C141.071 47.2361 140.744 47.4881 140.402 47.7215C140.061 47.955 139.719 48.1501 139.377 48.3067C139.035 48.4632 138.715 48.5417 138.416 48.5417C138.168 48.5417 137.986 48.5004 137.871 48.4179C137.756 48.3351 137.698 48.2369 137.698 48.1231C137.698 48.0434 137.717 47.965 137.756 47.8881C137.794 47.8112 137.835 47.7328 137.877 47.6531L137.852 47.6447C137.741 47.7244 137.602 47.8169 137.435 47.9222C137.269 48.0276 137.089 48.126 136.897 48.217C136.705 48.3082 136.506 48.3851 136.301 48.4476C136.096 48.5104 135.899 48.5417 135.711 48.5417C135.395 48.5417 135.173 48.4761 135.045 48.3451C134.917 48.2141 134.853 48.066 134.853 47.9009C134.853 47.6675 134.964 47.4096 135.186 47.1277C135.408 46.8458 135.69 46.581 136.032 46.3332C136.373 46.0856 136.745 45.8791 137.147 45.714C137.549 45.5487 137.929 45.4662 138.288 45.4662C138.459 45.4662 138.608 45.4818 138.736 45.5131C138.864 45.5446 138.971 45.5872 139.057 45.6412C139.142 45.6953 139.208 45.7566 139.255 45.825C139.302 45.8934 139.339 45.9644 139.364 46.0385H139.39L139.813 45.5346ZM135.622 47.9266C135.622 48.0575 135.662 48.1588 135.743 48.2298C135.825 48.301 135.938 48.3366 136.083 48.3366C136.228 48.3366 136.399 48.301 136.596 48.2298C136.792 48.1588 136.997 48.0632 137.211 47.9437C137.424 47.8241 137.636 47.6859 137.845 47.5293C138.055 47.3727 138.241 47.2061 138.403 47.0296C138.565 46.853 138.698 46.6736 138.8 46.4913C138.903 46.3091 138.954 46.1354 138.954 45.9703C138.954 45.8393 138.898 45.7396 138.787 45.6712C138.676 45.6028 138.54 45.5687 138.377 45.5687C138.121 45.5687 137.835 45.6428 137.519 45.7909C137.202 45.9388 136.903 46.1282 136.621 46.3588C136.339 46.5895 136.102 46.8445 135.91 47.1236C135.718 47.4027 135.622 47.6703 135.622 47.9266Z"
    fill="#343232" />
  <path
    d="M146.311 42.5615C145.576 43.3189 144.942 43.9696 144.408 44.5134C143.874 45.0575 143.421 45.5189 143.049 45.8974C142.677 46.2762 142.378 46.5853 142.152 46.8244C141.926 47.0635 141.753 47.2601 141.633 47.4139C141.513 47.5677 141.432 47.6914 141.389 47.7855C141.346 47.8796 141.325 47.9693 141.325 48.0546C141.325 48.1684 141.376 48.2612 141.479 48.3322C141.582 48.4034 141.714 48.439 141.876 48.439C142.184 48.439 142.515 48.3537 142.87 48.1827C143.224 48.0118 143.551 47.8039 143.85 47.5592C144.149 47.3142 144.399 47.0607 144.6 46.7988C144.801 46.5368 144.901 46.3118 144.901 46.124C144.901 46.0612 144.88 45.9999 144.837 45.9402C144.794 45.8805 144.773 45.8164 144.773 45.748C144.773 45.6683 144.801 45.6014 144.856 45.5473C144.912 45.4932 145.004 45.4661 145.132 45.4661C145.277 45.4661 145.39 45.5173 145.472 45.6198C145.553 45.7224 145.593 45.8561 145.593 46.0214C145.593 46.158 145.576 46.2834 145.542 46.3972C145.619 46.4656 145.747 46.5312 145.927 46.5937C146.106 46.6563 146.307 46.6878 146.529 46.6878C146.777 46.6878 147.005 46.645 147.215 46.5597C147.424 46.4741 147.601 46.3687 147.747 46.2434L147.836 46.3034C147.7 46.4172 147.516 46.524 147.285 46.6237C147.055 46.7234 146.798 46.7731 146.516 46.7731C146.32 46.7731 146.136 46.7491 145.965 46.7006C145.794 46.6522 145.636 46.5881 145.491 46.5084C145.38 46.7419 145.194 46.9797 144.933 47.2217C144.673 47.4636 144.369 47.683 144.023 47.8796C143.677 48.0759 143.31 48.2355 142.921 48.3578C142.532 48.4803 142.154 48.5416 141.787 48.5416C141.487 48.5416 141.233 48.4831 141.024 48.3665C140.815 48.2496 140.71 48.0831 140.71 47.8667C140.71 47.7755 140.736 47.6745 140.787 47.5633C140.838 47.4523 140.928 47.3142 141.056 47.1491C141.184 46.9838 141.362 46.7788 141.588 46.534C141.814 46.289 142.103 45.9858 142.453 45.6242C142.804 45.2626 143.227 44.8325 143.722 44.334C144.218 43.8358 144.799 43.2507 145.465 42.5784L146.311 42.5615Z"
    fill="#343232" />
  <path
    d="M152.066 42.5271C151.306 43.296 150.643 43.961 150.079 44.5221C149.516 45.0831 149.033 45.5629 148.631 45.9614C148.229 46.3602 147.901 46.689 147.644 46.9481C147.388 47.2072 147.187 47.4194 147.042 47.5847C146.896 47.7498 146.796 47.8808 146.741 47.9776C146.685 48.0745 146.657 48.157 146.657 48.2255C146.657 48.3677 146.751 48.439 146.939 48.439C147.153 48.439 147.403 48.3805 147.689 48.2639C147.975 48.1471 148.283 47.9876 148.612 47.7854C148.941 47.5832 149.276 47.3469 149.618 47.0763C149.96 46.8059 150.293 46.5168 150.618 46.2092L150.759 46.2433C150.451 46.534 150.126 46.8143 149.785 47.085C149.443 47.3554 149.114 47.5904 148.798 47.7898C148.379 48.0517 148.018 48.2424 147.715 48.3621C147.411 48.4818 147.136 48.5415 146.888 48.5415C146.623 48.5415 146.433 48.5015 146.318 48.4218C146.202 48.3421 146.145 48.2368 146.145 48.1058C146.145 47.9861 146.177 47.8623 146.241 47.7342C146.305 47.606 146.414 47.4522 146.567 47.2728C146.721 47.0934 146.924 46.8756 147.176 46.6193C147.428 46.363 147.74 46.0483 148.112 45.6754C148.484 45.3022 148.922 44.8581 149.426 44.3427C149.93 43.8273 150.511 43.2219 151.169 42.5271H152.066Z"
    fill="#343232" />
  <path
    d="M152.053 45.5346C151.583 45.9843 151.186 46.3631 150.861 46.6707C150.536 46.9782 150.274 47.2345 150.073 47.4396C149.872 47.6446 149.727 47.8068 149.637 47.9265C149.547 48.0462 149.502 48.1428 149.502 48.2169C149.502 48.365 149.592 48.4391 149.772 48.4391C149.943 48.4391 150.141 48.3978 150.368 48.3153C150.594 48.2325 150.831 48.1259 151.079 47.9949C151.327 47.864 151.575 47.7158 151.822 47.5505C152.07 47.3855 152.303 47.2217 152.521 47.0595C152.739 46.897 152.931 46.7404 153.098 46.5895C153.264 46.4385 153.386 46.3147 153.463 46.2178L153.566 46.2606C153.463 46.3744 153.324 46.5113 153.149 46.6707C152.974 46.8301 152.775 46.9939 152.553 47.162C152.331 47.3299 152.096 47.4965 151.848 47.6618C151.6 47.8268 151.348 47.975 151.092 48.1059C150.835 48.2369 150.586 48.3422 150.342 48.4219C150.098 48.5016 149.874 48.5416 149.669 48.5416C149.438 48.5416 149.267 48.4988 149.156 48.4135C149.045 48.3281 148.99 48.2341 148.99 48.1315C148.99 48.0119 149.03 47.8853 149.112 47.7515C149.193 47.6174 149.323 47.4539 149.502 47.2602C149.682 47.0664 149.915 46.8316 150.201 46.5554C150.487 46.2791 150.831 45.9387 151.233 45.5346H152.053ZM152.797 43.9456C152.916 43.9456 153.014 43.9725 153.091 44.0265C153.168 44.0806 153.207 44.1478 153.207 44.2275C153.207 44.3072 153.168 44.3741 153.091 44.4282C153.014 44.4822 152.916 44.5094 152.797 44.5094C152.677 44.5094 152.579 44.4822 152.502 44.4282C152.425 44.3741 152.386 44.3072 152.386 44.2275C152.386 44.1478 152.425 44.0806 152.502 44.0265C152.579 43.9725 152.677 43.9456 152.797 43.9456Z"
    fill="#343232" />
  <path
    d="M157.808 46.2691C157.552 46.5426 157.255 46.8145 156.916 47.0852C156.58 47.3556 156.211 47.599 155.809 47.8156C155.407 48.0319 154.969 48.207 154.495 48.341C154.021 48.4748 153.514 48.5417 152.976 48.5417C152.771 48.5417 152.579 48.5245 152.399 48.4904C152.22 48.4563 152.064 48.4051 151.931 48.3366C151.799 48.2682 151.692 48.1813 151.611 48.076C151.53 47.9707 151.489 47.8469 151.489 47.7044C151.489 47.5565 151.562 47.4224 151.707 47.303C151.853 47.1833 152.049 47.1236 152.297 47.1236C152.425 47.1236 152.53 47.1449 152.611 47.1877C152.692 47.2302 152.733 47.2943 152.733 47.3799C152.733 47.4596 152.703 47.5278 152.643 47.5849C152.583 47.6418 152.493 47.6703 152.374 47.6703C152.28 47.6703 152.205 47.6531 152.149 47.619C152.094 47.5849 152.058 47.5421 152.04 47.4909C151.946 47.525 151.882 47.5749 151.848 47.6403C151.814 47.7059 151.797 47.7728 151.797 47.8412C151.797 48.0404 151.91 48.19 152.137 48.2897C152.363 48.3894 152.617 48.4392 152.899 48.4392C153.079 48.4392 153.234 48.4151 153.367 48.3666C153.5 48.3182 153.611 48.2554 153.7 48.1785C153.79 48.1016 153.856 48.0119 153.899 47.9094C153.942 47.8069 153.963 47.7044 153.963 47.6019C153.963 47.4937 153.935 47.3812 153.88 47.2646C153.824 47.1477 153.762 47.0324 153.694 46.9186C153.625 46.8045 153.561 46.692 153.502 46.5811C153.442 46.4701 153.412 46.366 153.412 46.2691C153.412 46.1438 153.45 46.0316 153.527 45.9319C153.604 45.8322 153.709 45.7481 153.841 45.6797C153.974 45.6115 154.125 45.5587 154.296 45.5218C154.467 45.4846 154.647 45.4662 154.835 45.4662C155.176 45.4662 155.454 45.5159 155.668 45.6156C155.881 45.7153 155.988 45.8478 155.988 46.0129C155.988 46.161 155.906 46.2691 155.74 46.3376C155.57 46.406 155.386 46.4401 155.181 46.4401C155.232 46.3776 155.277 46.3019 155.315 46.2138C155.354 46.1254 155.373 46.0444 155.373 45.9703C155.373 45.8563 155.32 45.7609 155.213 45.684C155.106 45.6071 154.954 45.5687 154.758 45.5687C154.51 45.5687 154.326 45.6184 154.207 45.7181C154.087 45.8178 154.027 45.9388 154.027 46.0813C154.027 46.2066 154.059 46.3263 154.123 46.4401C154.187 46.5539 154.262 46.6679 154.348 46.7817C154.424 46.8958 154.495 47.0124 154.559 47.1321C154.623 47.2518 154.655 47.3855 154.655 47.5337C154.655 47.6418 154.619 47.7456 154.546 47.8453C154.474 47.945 154.378 48.0363 154.258 48.1188C154.138 48.2013 154.004 48.271 153.854 48.3282C153.705 48.3851 153.553 48.422 153.399 48.4392L153.425 48.4563C153.886 48.422 154.326 48.3323 154.745 48.1872C155.164 48.0419 155.555 47.8653 155.916 47.6575C156.28 47.4496 156.616 47.2218 156.924 46.9739C157.231 46.7264 157.501 46.4829 157.731 46.2435L157.808 46.2691Z"
    fill="#343232" />
  <path
    d="M162.013 42.5615L157.475 47.0551L157.501 47.0722C157.673 46.9297 157.873 46.766 158.103 46.5809C158.334 46.3959 158.583 46.2206 158.855 46.0555C159.121 45.8905 159.406 45.7508 159.706 45.637C160.006 45.523 160.303 45.4661 160.603 45.4661C161.123 45.4661 161.385 45.6398 161.385 45.9871C161.385 46.0783 161.336 46.1865 161.236 46.3118C161.139 46.4371 161.016 46.5697 160.867 46.7091C160.716 46.8485 160.557 46.9895 160.385 47.132C160.213 47.2745 160.054 47.4123 159.906 47.5464C159.754 47.6802 159.631 47.8055 159.534 47.9221C159.434 48.039 159.385 48.1371 159.385 48.2168C159.385 48.2796 159.413 48.3322 159.47 48.375C159.524 48.4178 159.598 48.439 159.693 48.439C159.89 48.439 160.105 48.3978 160.339 48.3152C160.575 48.2325 160.818 48.1243 161.072 47.9905C161.323 47.8567 161.572 47.7071 161.82 47.542C162.069 47.377 162.297 47.2132 162.507 47.0507C162.715 46.8885 162.902 46.7347 163.071 46.5894C163.236 46.4443 163.359 46.3262 163.435 46.2349L163.512 46.2521C163.418 46.3603 163.287 46.4912 163.115 46.645C162.943 46.7988 162.751 46.961 162.531 47.132C162.315 47.3029 162.079 47.4723 161.826 47.6402C161.574 47.8083 161.323 47.9593 161.072 48.093C160.818 48.2268 160.569 48.335 160.321 48.4178C160.072 48.5003 159.841 48.5416 159.629 48.5416C159.406 48.5416 159.224 48.4959 159.085 48.4049C158.944 48.3137 158.872 48.1884 158.872 48.029C158.872 47.9152 158.921 47.7899 159.021 47.653C159.119 47.5164 159.242 47.3782 159.393 47.2388C159.542 47.0991 159.7 46.9597 159.872 46.82C160.044 46.6806 160.203 46.5481 160.354 46.4228C160.503 46.2975 160.626 46.1821 160.723 46.0768C160.823 45.9715 160.872 45.8818 160.872 45.8077C160.872 45.7167 160.834 45.6539 160.757 45.6198C160.68 45.5858 160.585 45.5686 160.475 45.5686C160.262 45.5686 160.023 45.6214 159.762 45.7267C159.503 45.832 159.234 45.9702 158.957 46.1409C158.678 46.3118 158.403 46.504 158.129 46.7175C157.855 46.9313 157.598 47.1463 157.355 47.3626C157.109 47.5789 156.896 47.784 156.714 47.9777C156.529 48.1715 156.386 48.3365 156.283 48.4731H155.45C155.919 47.9834 156.404 47.4851 156.899 46.9782C157.393 46.4712 157.888 45.9674 158.38 45.4661C158.87 44.9648 159.352 44.4709 159.821 43.9839C160.29 43.497 160.736 43.0313 161.154 42.5872L162.013 42.5615Z"
    fill="#343232" />
  <path
    d="M165.729 45.8078C165.729 45.7281 165.699 45.6684 165.635 45.6284C165.57 45.5887 165.491 45.5687 165.396 45.5687C165.217 45.5687 165.022 45.6156 164.814 45.7097C164.604 45.8037 164.396 45.9203 164.191 46.06C163.986 46.1994 163.799 46.3488 163.635 46.5085C163.468 46.6679 163.34 46.8102 163.256 46.9355C163.443 46.9127 163.679 46.8686 163.961 46.8032C164.243 46.7376 164.514 46.6564 164.773 46.5598C165.035 46.4629 165.26 46.3504 165.447 46.2222C165.635 46.0941 165.729 45.956 165.729 45.8078ZM167.806 46.2607C167.678 46.4032 167.516 46.5598 167.324 46.7305C167.132 46.9014 166.916 47.0708 166.673 47.2389C166.427 47.4068 166.168 47.5693 165.891 47.7259C165.611 47.8825 165.324 48.0219 165.024 48.1444C164.725 48.2669 164.425 48.3638 164.12 48.4348C163.817 48.506 163.52 48.5417 163.23 48.5417C162.871 48.5417 162.594 48.4804 162.397 48.3579C162.199 48.2357 162.102 48.0604 162.102 47.8325C162.102 47.5821 162.215 47.3187 162.443 47.0424C162.669 46.7661 162.956 46.5113 163.307 46.2779C163.658 46.0444 164.043 45.8506 164.46 45.6968C164.878 45.5431 165.281 45.4662 165.665 45.4662C165.878 45.4662 166.045 45.4962 166.165 45.5559C166.286 45.6156 166.345 45.7025 166.345 45.8165C166.345 45.9531 166.234 46.0856 166.011 46.2138C165.788 46.3419 165.519 46.4585 165.199 46.5639C164.878 46.6692 164.532 46.7633 164.166 46.8458C163.799 46.9286 163.474 46.9896 163.192 47.0296C163.097 47.1434 163.02 47.2715 162.961 47.414C162.902 47.5565 162.871 47.6987 162.871 47.8412C162.871 47.9094 162.881 47.9763 162.902 48.0419C162.925 48.1075 162.958 48.1672 163.007 48.2213C163.053 48.2754 163.117 48.3195 163.199 48.3538C163.279 48.3879 163.379 48.4051 163.499 48.4051C163.781 48.4051 164.112 48.3438 164.494 48.2213C164.873 48.0988 165.26 47.935 165.652 47.73C166.045 47.525 166.422 47.2915 166.78 47.0296C167.139 46.7676 167.447 46.497 167.703 46.2179L167.806 46.2607Z"
    fill="#343232" />
  <path
    d="M174.83 42.5615C174.497 42.9144 174.133 43.2876 173.741 43.6805C173.348 44.0736 172.954 44.4637 172.561 44.851C172.169 45.2382 171.79 45.6127 171.426 45.9743C171.064 46.3359 170.741 46.6678 170.459 46.9697C170.177 47.2714 169.952 47.532 169.788 47.7514C169.621 47.9705 169.537 48.1315 169.537 48.234C169.537 48.2965 169.56 48.3465 169.608 48.3834C169.654 48.4206 169.724 48.439 169.819 48.439C170.031 48.439 170.275 48.3821 170.549 48.2681C170.823 48.1543 171.152 47.9749 171.536 47.7299C171.869 47.5136 172.195 47.2729 172.51 47.0082C172.825 46.7432 173.1 46.4828 173.33 46.2265L173.433 46.2606C173.356 46.3518 173.256 46.4584 173.133 46.5809C173.007 46.7034 172.872 46.83 172.72 46.961C172.572 47.092 172.413 47.2245 172.241 47.3583C172.069 47.4923 171.895 47.6189 171.715 47.7386C171.375 47.9721 171.036 48.1643 170.703 48.3152C170.37 48.4662 170.062 48.5416 169.78 48.5416C169.506 48.5416 169.303 48.5031 169.172 48.4262C169.039 48.3493 168.973 48.2512 168.973 48.1315C168.973 48.0233 169.006 47.918 169.075 47.8155C169.144 47.713 169.211 47.6217 169.28 47.542L169.255 47.5336C169.119 47.6361 168.967 47.7455 168.798 47.8624C168.634 47.9793 168.455 48.0887 168.268 48.1912C168.08 48.2937 167.881 48.3778 167.673 48.4434C167.463 48.5087 167.247 48.5416 167.024 48.5416C166.717 48.5416 166.481 48.479 166.312 48.3537C166.148 48.2284 166.063 48.0802 166.063 47.9093C166.063 47.6702 166.186 47.4082 166.435 47.1235C166.683 46.8388 166.994 46.5738 167.365 46.329C167.737 46.084 168.134 45.8789 168.562 45.7139C168.99 45.5486 169.388 45.4661 169.754 45.4661C170.029 45.4661 170.247 45.523 170.408 45.637C170.57 45.7508 170.647 45.8961 170.639 46.0727H170.677L173.984 42.5615H174.83ZM170.28 46.0812C170.28 45.9446 170.247 45.8249 170.177 45.7224C170.108 45.6198 169.952 45.5686 169.703 45.5686C169.531 45.5686 169.342 45.6086 169.132 45.6883C168.924 45.768 168.711 45.8733 168.498 46.0043C168.286 46.1352 168.078 46.2847 167.878 46.4528C167.675 46.6209 167.499 46.7916 167.345 46.9654C167.191 47.1391 167.068 47.3085 166.973 47.4736C166.878 47.6389 166.832 47.787 166.832 47.918C166.832 48.0374 166.865 48.1371 166.935 48.2168C167.004 48.2965 167.127 48.3365 167.306 48.3365C167.46 48.3365 167.637 48.2965 167.837 48.2168C168.039 48.1371 168.25 48.0333 168.473 47.9052C168.696 47.777 168.914 47.6302 169.126 47.4651C169.339 47.3001 169.531 47.1348 169.703 46.9697C169.875 46.8044 170.013 46.6435 170.121 46.4869C170.226 46.3303 170.28 46.195 170.28 46.0812Z"
    fill="#343232" />
  <path
    d="M181.508 47.0721C181.38 47.2372 181.231 47.4066 181.067 47.5804C180.901 47.7541 180.708 47.912 180.495 48.0545C180.283 48.197 180.042 48.3136 179.778 48.4049C179.514 48.4958 179.221 48.5415 178.906 48.5415C178.734 48.5415 178.563 48.5115 178.388 48.4518C178.211 48.3921 178.029 48.3308 177.842 48.268C177.655 48.2055 177.463 48.1458 177.265 48.0886C177.068 48.0317 176.86 48.0033 176.637 48.0033C176.389 48.0033 176.181 48.0304 176.017 48.0845C175.848 48.1386 175.715 48.1998 175.612 48.268C175.509 48.3364 175.427 48.399 175.363 48.4561C175.299 48.513 175.245 48.5415 175.202 48.5415C175.158 48.5415 175.135 48.533 175.133 48.5158C175.128 48.4987 175.125 48.4789 175.125 48.4561C175.125 48.3649 175.422 48.1955 176.017 47.9476C176.609 47.7001 177.517 47.391 178.739 47.0209C179.321 46.8443 179.796 46.6734 180.162 46.5083C180.529 46.343 180.816 46.1764 181.021 46.0085C181.226 45.8404 181.367 45.6738 181.444 45.5088C181.521 45.3435 181.559 45.1728 181.559 44.9962C181.559 44.7055 181.447 44.4692 181.221 44.287C180.993 44.1048 180.662 44.0136 180.226 44.0136C180.039 44.0136 179.844 44.0364 179.642 44.082C179.442 44.1276 179.26 44.1945 179.098 44.2827C178.937 44.3711 178.801 44.4777 178.696 44.603C178.588 44.7284 178.534 44.8709 178.534 45.0303C178.534 45.1784 178.604 45.3107 178.745 45.4275C178.888 45.5444 179.068 45.6026 179.291 45.6026C179.393 45.6026 179.478 45.5941 179.542 45.5769C179.606 45.56 179.683 45.5372 179.778 45.5088L179.829 45.5344C179.734 45.6482 179.606 45.7394 179.444 45.8076C179.283 45.876 179.098 45.9101 178.893 45.9101C178.629 45.9101 178.417 45.8519 178.26 45.7351C178.101 45.6182 178.022 45.4603 178.022 45.2609C178.022 45.1128 178.076 44.9577 178.183 44.7952C178.288 44.633 178.445 44.4836 178.65 44.3467C178.855 44.2101 179.106 44.0976 179.406 44.0095C179.706 43.921 180.047 43.877 180.431 43.877C180.765 43.877 181.052 43.9082 181.295 43.971C181.541 44.0335 181.744 44.1148 181.905 44.2145C182.067 44.3142 182.187 44.428 182.264 44.5561C182.341 44.6843 182.38 44.814 182.38 44.9449C182.38 45.224 182.285 45.4703 182.093 45.6838C181.9 45.8973 181.644 46.0882 181.323 46.2561C181.003 46.4242 180.634 46.5752 180.219 46.709C179.806 46.8428 179.38 46.9709 178.945 47.0934C178.509 47.2159 178.081 47.3397 177.655 47.465C177.235 47.5904 176.85 47.7298 176.509 47.8836L176.535 47.9179C176.663 47.8723 176.796 47.8295 176.932 47.7898C177.068 47.7498 177.219 47.7298 177.381 47.7298C177.527 47.7298 177.699 47.7541 177.899 47.8026C178.101 47.851 178.309 47.9036 178.522 47.9605C178.727 48.0176 178.927 48.0717 179.124 48.1229C179.321 48.1742 179.488 48.1998 179.624 48.1998C179.821 48.1998 180.011 48.1598 180.196 48.0801C180.378 48.0004 180.547 47.9036 180.701 47.7898C180.854 47.6757 180.993 47.5519 181.116 47.4181C181.241 47.2841 181.341 47.166 181.418 47.0634L181.508 47.0721Z"
    fill="#343232" />
  <path
    d="M182.866 47.4311C182.866 47.1748 182.935 46.9114 183.071 46.6407C183.207 46.3703 183.394 46.1053 183.63 45.8462C183.863 45.5871 184.135 45.3423 184.443 45.1117C184.75 44.881 185.079 44.6788 185.43 44.505C185.781 44.3313 186.137 44.1947 186.499 44.095C186.863 43.9953 187.216 43.9456 187.557 43.9456C187.832 43.9456 188.065 43.974 188.257 44.0309C188.449 44.0878 188.603 44.1675 188.724 44.27C188.844 44.3725 188.931 44.4938 188.985 44.6332C189.042 44.7726 189.07 44.9251 189.07 45.0902C189.07 45.3236 188.998 45.5715 188.857 45.8334C188.719 46.0956 188.529 46.3547 188.293 46.611C188.06 46.8673 187.783 47.1107 187.468 47.3414C187.152 47.5721 186.819 47.7771 186.468 47.9565C186.117 48.1359 185.76 48.2781 185.396 48.3835C185.035 48.4888 184.681 48.5416 184.34 48.5416C183.835 48.5416 183.464 48.4376 183.225 48.2297C182.987 48.0219 182.866 47.7556 182.866 47.4311ZM183.635 47.4652C183.635 47.5905 183.651 47.7102 183.679 47.824C183.71 47.9378 183.761 48.0375 183.835 48.1231C183.907 48.2084 183.999 48.2769 184.115 48.3281C184.233 48.3794 184.379 48.405 184.558 48.405C184.976 48.405 185.407 48.3066 185.845 48.1103C186.286 47.9137 186.688 47.6559 187.052 47.337C187.414 47.0182 187.714 46.6563 187.95 46.2522C188.183 45.8477 188.301 45.4405 188.301 45.0304C188.301 44.9051 188.28 44.7854 188.244 44.6716C188.206 44.5578 188.142 44.4566 188.052 44.3684C187.96 44.28 187.847 44.2103 187.711 44.159C187.575 44.1078 187.404 44.0822 187.199 44.0822C186.822 44.0822 186.424 44.1847 186.006 44.3897C185.589 44.5947 185.204 44.8595 184.853 45.1842C184.502 45.5089 184.212 45.8718 183.981 46.2734C183.751 46.6751 183.635 47.0723 183.635 47.4652Z"
    fill="#343232" />
  <path
    d="M192.992 44.7313L192.967 44.7144C192.787 44.7941 192.59 44.8723 192.377 44.9492C192.164 45.0261 191.939 45.0989 191.705 45.167C191.469 45.2355 191.231 45.298 190.993 45.3552C190.754 45.4121 190.524 45.4605 190.301 45.5002L190.249 45.4064C191.026 45.2867 191.767 45.0917 192.467 44.821C193.166 44.5507 193.82 44.2587 194.428 43.9456L194.479 43.9796C194.197 44.2644 193.864 44.6004 193.479 44.9876C193.095 45.3749 192.705 45.7721 192.313 46.1794C191.921 46.5866 191.544 46.9854 191.185 47.3755C190.826 47.7656 190.531 48.1087 190.301 48.405L189.25 48.5416L192.992 44.7313Z"
    fill="#343232" />
  <path
    d="M198.914 45.8761C199.434 45.7964 199.826 45.6427 200.085 45.4148C200.347 45.187 200.478 44.8966 200.478 44.5434C200.478 44.1675 200.342 43.8627 200.073 43.6292C199.806 43.3958 199.447 43.2792 199.004 43.2792C198.568 43.2792 198.214 43.3886 197.94 43.608C197.665 43.8274 197.53 44.1162 197.53 44.475C197.53 44.7257 197.586 44.955 197.701 45.1629C197.819 45.3707 197.942 45.5729 198.076 45.7693C198.206 45.9658 198.332 46.1637 198.447 46.3631C198.563 46.5625 198.619 46.7816 198.619 47.021C198.619 47.2429 198.555 47.4467 198.427 47.6317C198.299 47.8168 198.122 47.9762 197.894 48.1102C197.668 48.244 197.407 48.3493 197.107 48.4262C196.807 48.5031 196.486 48.5416 196.145 48.5416C195.856 48.5416 195.584 48.5075 195.33 48.439C195.079 48.3706 194.858 48.2768 194.671 48.1571C194.484 48.0374 194.335 47.8937 194.23 47.7258C194.123 47.5577 194.069 47.377 194.069 47.1832C194.069 46.9156 194.156 46.6763 194.333 46.4656C194.507 46.2549 194.74 46.0755 195.03 45.9274C195.32 45.7793 195.648 45.6655 196.012 45.5858C196.373 45.5061 196.743 45.4661 197.119 45.4661C197.042 45.3295 196.976 45.1926 196.922 45.056C196.866 44.9194 196.837 44.7769 196.837 44.6288C196.837 44.4125 196.904 44.2146 197.037 44.0352C197.168 43.8558 197.348 43.702 197.573 43.5739C197.801 43.4457 198.058 43.3473 198.342 43.2792C198.629 43.2107 198.927 43.1766 199.234 43.1766C199.824 43.1766 200.28 43.292 200.606 43.5226C200.931 43.7533 201.093 44.0621 201.093 44.4494C201.093 44.6488 201.031 44.831 200.906 44.9963C200.783 45.1613 200.619 45.3067 200.413 45.432C200.208 45.5573 199.978 45.6639 199.721 45.7524C199.465 45.8405 199.203 45.9074 198.939 45.953L198.914 45.8761ZM194.761 47.0807C194.761 47.2516 194.799 47.4167 194.876 47.5761C194.953 47.7358 195.066 47.8767 195.215 47.999C195.366 48.1215 195.551 48.2197 195.768 48.2937C195.984 48.3678 196.23 48.4049 196.504 48.4049C196.794 48.4049 197.032 48.3693 197.217 48.2981C197.399 48.2268 197.545 48.1315 197.65 48.0118C197.758 47.8924 197.829 47.7555 197.871 47.6017C197.906 47.448 197.927 47.2914 197.927 47.132C197.927 46.8472 197.842 46.5766 197.678 46.3203C197.509 46.064 197.342 45.8136 197.171 45.5686C196.376 45.5742 195.776 45.6952 195.371 45.9318C194.964 46.1681 194.761 46.5509 194.761 47.0807Z"
    fill="#343232" />
  <path d="M258.138 26.0363H63.6372V40.6526H258.138V26.0363Z" stroke="#343232"
    stroke-miterlimit="10" />
</svg>
