<svg width="50" height="50" viewBox="0 0 50 50" fill="none" xmlns="http://www.w3.org/2000/svg">
<g clip-path="url(#clip0_772_258)">
<path fill-rule="evenodd" clip-rule="evenodd" d="M27.9335 0.203401C28.0421 0.223295 28.3488 0.272698 28.6059 0.302208C28.873 0.341664 29.1598 0.391067 29.2485 0.401014C29.3475 0.420576 29.5946 0.460033 29.8122 0.499489C30.4451 0.608242 31.4338 0.854927 32.2843 1.11156C37.4358 2.69047 41.8458 5.78895 45.1584 10.1805C46.0976 11.4338 47.2448 13.4076 47.9963 15.085C48.3621 15.9143 49.084 17.9471 49.1827 18.47C49.2026 18.5787 49.2521 18.7366 49.2817 18.8155C49.3112 18.8944 49.3607 19.0721 49.3807 19.21C49.4102 19.3483 49.4598 19.5655 49.4893 19.7037C49.5189 19.8417 49.5684 20.1082 49.598 20.2956C49.6279 20.4832 49.687 20.8188 49.7365 21.036C50.0531 22.5061 50.0827 27.2432 49.796 28.7332C49.776 28.8417 49.687 29.3254 49.5883 29.8188C49.2126 31.842 48.4016 34.2399 47.4029 36.2233C45.7714 39.4703 43.5269 42.2236 40.4913 44.7004C39.8784 45.1938 37.9897 46.4372 37.0897 46.9309C33.9159 48.6676 30.4946 49.6742 26.8458 49.9604C26.2229 50.0098 23.4245 50.0098 23.0388 49.9504C22.8511 49.9309 22.4458 49.8914 22.1491 49.8616C21.6448 49.8122 21.4372 49.7826 20.7647 49.6543C20.6262 49.6248 20.3594 49.5854 20.1714 49.5559C18.8664 49.3486 16.5325 48.6182 15.0299 47.9471C13.9518 47.4736 13.774 47.3848 12.696 46.7826C10.2342 45.411 7.74215 43.3682 5.98235 41.276C5.76474 41.0098 5.5272 40.7432 5.45809 40.6643C5.21092 40.4076 3.8365 38.3944 3.43118 37.7137C1.85876 35.0293 0.721881 31.8715 0.296631 29.0293C0.108592 27.7167 0.098957 27.6676 0.0494553 26.9571C-4.63112e-05 26.2266 -4.63112e-05 23.5128 0.0494553 22.9998C0.523874 18.2233 1.92819 14.3844 4.57803 10.6049C5.24049 9.65765 5.51756 9.31215 6.41723 8.30552C10.0066 4.30884 14.8813 1.54558 20.1714 0.519383C21.5558 0.252805 22.0006 0.193786 23.3455 0.104927C23.8598 0.0750857 24.285 0.0356295 24.2946 0.0260141C24.3541 -0.0233891 27.5578 0.134436 27.9335 0.203401ZM25.1551 3.66726C25.0365 3.63775 24.9275 3.63775 24.9079 3.65731C24.888 3.67721 24.4036 3.71666 23.8299 3.74617C20.9229 3.91395 18.3421 4.58503 15.6724 5.8778C14.298 6.53895 12.5083 7.67389 11.4701 8.53265C10.2833 9.50944 8.65178 11.2661 7.5345 12.7462C6.76341 13.7727 5.56673 16.0522 5.00328 17.5622C3.7674 20.8682 3.32221 24.9832 3.85643 28.1905C4.11324 29.7004 4.13318 29.8088 4.39032 30.5887C5.23085 33.1344 6.4468 34.5065 8.49364 35.207C10.1152 35.7694 12.2215 35.6315 13.9322 34.842C16.2063 33.786 18.1544 31.2694 18.876 28.4372C19.074 27.6576 19.1232 27.4405 19.2322 26.661C19.2717 26.4438 19.3112 26.1971 19.3308 26.1182C19.3508 26.0393 19.4003 25.7727 19.4299 25.526C19.4594 25.2793 19.5089 25.0128 19.5289 24.9338C19.5485 24.8549 19.598 24.6477 19.6176 24.4899C19.6475 24.3221 19.8747 22.9504 20.1219 21.4305C20.3691 19.911 20.5966 18.5588 20.6166 18.4206C20.6461 18.2826 20.7548 17.6215 20.8637 16.9405C21.1109 15.47 21.1109 15.46 21.2986 14.3254C21.3777 13.8317 21.4767 13.21 21.5162 12.9438C21.5458 12.6673 21.5853 12.401 21.5953 12.3516C21.5953 12.2923 20.7352 12.2528 19.1827 12.2432C16.681 12.2332 16.3348 12.1838 16.3053 11.8287C16.2458 11.1182 16.5425 9.34166 16.7897 8.92721C16.8787 8.77933 17.0568 8.64107 17.1953 8.61156C17.5611 8.54226 23.5136 8.54226 23.9684 8.61156C24.4232 8.68052 24.9966 9.2233 25.3132 9.91395C25.5009 10.3088 25.5308 10.4866 25.4813 11.1182C25.4418 11.5227 25.3528 12.1938 25.2737 12.5983C25.1451 13.2889 25.076 13.6639 24.9571 14.4239C24.878 14.8682 24.8485 15.0555 24.7299 15.7067C24.6704 16.0326 24.6013 16.4471 24.5717 16.6149C24.5418 16.7923 24.4926 17.0883 24.4627 17.2561C24.3342 17.9766 24.1465 19.161 24.1564 19.1706C24.1661 19.1805 24.4827 19.0423 24.8485 18.8549C25.9461 18.3221 27.0534 18.085 28.4279 18.0754C29.7431 18.0754 29.9408 18.1049 30.8009 18.4206C32.8973 19.21 34.6079 21.2037 35.4385 23.8383C35.5867 24.2926 35.7252 24.8055 35.7451 24.9733C35.7747 25.1411 35.8342 25.5459 35.8833 25.8715C35.9823 26.4733 35.9528 28.9998 35.8438 29.72C35.5176 31.7727 34.5584 34.151 33.4807 35.5821C31.3548 38.4043 28.7345 39.6182 25.7186 39.2037C23.5827 38.9076 21.3086 37.2104 20.2309 35.1281L20.0727 34.8122L19.1531 35.72C17.0172 37.8516 14.4661 39.0161 11.7667 39.0854C10.6099 39.1248 9.05743 38.9176 8.68168 38.6905C8.4046 38.5131 9.03749 39.2332 10.0857 40.2498C13.2797 43.3881 17.0172 45.2826 21.6053 46.092C21.9315 46.151 22.6235 46.2299 23.385 46.2992C24.0179 46.3582 26.0053 46.3582 26.6481 46.2992C27.2415 46.2498 28.1611 46.1414 28.3883 46.1016C28.4774 46.0821 28.7049 46.0426 28.8827 46.0131C31.9382 45.5293 35.5966 43.8715 38.3059 41.7399C39.275 40.9703 41.2624 38.957 41.9744 38.0098C43.2598 36.3122 44.3378 34.3781 45.0398 32.4832C45.4451 31.3977 46.0186 29.2366 46.1275 28.3977C46.1671 28.1016 46.2066 27.786 46.2262 27.6971C46.2461 27.6082 46.2857 27.1344 46.3252 26.651C47.0272 17.2956 41.5691 8.64107 32.7787 5.16726C31.4239 4.63444 29.6242 4.14107 28.3093 3.96335C28.1016 3.93384 27.8445 3.89438 27.7358 3.86487C27.6269 3.84498 27.0534 3.79558 26.4504 3.76607C25.8571 3.73656 25.2737 3.68715 25.1551 3.66726ZM24.2056 24.1838C23.1279 25.7531 22.5544 27.786 22.5644 30.1149C22.5644 32.0094 22.9302 33.2233 23.8299 34.3483C24.898 35.6905 26.8458 36.1348 28.4279 35.3944C29.6541 34.8221 30.8504 33.4209 31.5524 31.7332C32.1162 30.3616 32.3634 29.0887 32.3734 27.4504C32.383 26.5031 32.3634 26.276 32.1162 25.1805C31.7996 23.7399 30.8405 22.4176 29.7431 21.9239C27.8544 21.0754 25.7581 21.9338 24.2056 24.1838Z" fill="black"/>
</g>
<defs>
<clipPath id="clip0_772_258">
<rect width="50" height="50" fill="white"/>
</clipPath>
</defs>
</svg>
