<svg width="65" height="65" viewBox="0 0 65 65" fill="none" xmlns="http://www.w3.org/2000/svg">
<circle cx="32.5" cy="32.5" r="32.5" fill="white"/>
<g clip-path="url(#clip0_774_304)">
<path fill-rule="evenodd" clip-rule="evenodd" d="M36.079 2.2484C36.2115 2.27267 36.5856 2.33295 36.8993 2.36895C37.2252 2.41708 37.575 2.47736 37.6832 2.48949C37.804 2.51336 38.1056 2.56149 38.371 2.60963C39.1432 2.74231 40.3494 3.04326 41.387 3.35635C47.6718 5.28263 53.052 9.06277 57.0934 14.4205C58.2392 15.9495 59.6388 18.3576 60.5556 20.404C61.0018 21.4157 61.8826 23.8957 62.003 24.5336C62.0273 24.6663 62.0877 24.8589 62.1237 24.9551C62.1598 25.0514 62.2202 25.2682 62.2445 25.4365C62.2806 25.6052 62.341 25.8701 62.3771 26.0388C62.4131 26.2071 62.4735 26.5323 62.5096 26.7609C62.5461 26.9898 62.6182 27.3992 62.6786 27.6641C63.0649 29.4577 63.101 35.2369 62.7512 37.0548C62.7269 37.1871 62.6182 37.7773 62.4978 38.3792C62.0394 40.8475 61.0501 43.7729 59.8317 46.1927C57.8412 50.154 55.1029 53.5131 51.3995 56.5348C50.6517 57.1367 48.3475 58.6536 47.2495 59.2559C43.3775 61.3747 39.2036 62.6028 34.752 62.9519C33.992 63.0122 30.578 63.0122 30.1075 62.9398C29.8785 62.9159 29.384 62.8678 29.022 62.8314C28.4068 62.7711 28.1534 62.7351 27.3331 62.5785C27.1641 62.5425 26.8386 62.4944 26.6092 62.4584C25.0171 62.2056 22.1698 61.3144 20.3365 60.4957C19.0213 59.9181 18.8044 59.8097 17.4892 59.0751C14.4858 57.4016 11.4455 54.9094 9.29856 52.357C9.03308 52.0322 8.74327 51.7069 8.65897 51.6107C8.35741 51.2976 6.68062 48.8414 6.18614 48.0109C4.26778 44.736 2.88079 40.8835 2.36199 37.416C2.13258 35.8146 2.12082 35.7547 2.06043 34.8879C2.00004 33.9967 2.00004 30.6858 2.06043 30.06C2.63922 24.2327 4.35249 19.5493 7.58529 14.9383C8.39349 13.7826 8.73152 13.3611 9.82912 12.133C14.2081 7.25704 20.1553 3.88586 26.6092 2.6339C28.2981 2.30868 28.8408 2.23667 30.4816 2.12826C31.109 2.09186 31.6278 2.04372 31.6396 2.03199C31.7121 1.97172 35.6206 2.16427 36.079 2.2484ZM32.6893 6.47431C32.5446 6.43831 32.4117 6.43831 32.3878 6.46218C32.3634 6.48645 31.7725 6.53458 31.0725 6.57058C27.526 6.77527 24.3775 7.59399 21.1204 9.17118C19.4436 9.97777 17.2602 11.3624 15.9936 12.4101C14.5458 13.6018 12.5553 15.7449 11.1922 17.5506C10.2515 18.8029 8.79151 21.5839 8.10409 23.4261C6.59632 27.4594 6.05319 32.4798 6.70494 36.3926C7.01825 38.2348 7.04257 38.367 7.35628 39.3184C8.38173 42.4243 9.86519 44.0981 12.3623 44.9529C14.3407 45.6389 16.9104 45.4706 18.9974 44.5075C21.7717 43.2191 24.1485 40.1489 25.0289 36.6936C25.2704 35.7426 25.3304 35.4776 25.4634 34.5266C25.5116 34.2617 25.5598 33.9607 25.5837 33.8644C25.6081 33.7682 25.6684 33.4429 25.7045 33.142C25.7406 32.841 25.801 32.5158 25.8253 32.4195C25.8492 32.3233 25.9096 32.0704 25.9335 31.8779C25.97 31.6732 26.2472 29.9998 26.5488 28.1455C26.8503 26.2916 27.128 24.642 27.1523 24.4734C27.1884 24.3051 27.3209 23.4985 27.4539 22.6676C27.7554 20.8736 27.7554 20.8615 27.9844 19.4773C28.0809 18.8749 28.2017 18.1165 28.2499 17.7917C28.286 17.4543 28.3342 17.1295 28.3464 17.0692C28.3464 16.9968 27.297 16.9487 25.403 16.9369C22.3509 16.9248 21.9286 16.8645 21.8925 16.4313C21.82 15.5644 22.1819 13.3971 22.4835 12.8914C22.5921 12.711 22.8093 12.5424 22.9784 12.5064C23.4246 12.4218 30.6867 12.4218 31.2415 12.5064C31.7964 12.5905 32.496 13.2527 32.8823 14.0953C33.1113 14.577 33.1477 14.7939 33.0873 15.5644C33.0391 16.0579 32.9305 16.8767 32.834 17.3702C32.6772 18.2128 32.5929 18.6703 32.4478 19.5974C32.3513 20.1394 32.3152 20.368 32.1705 21.1624C32.098 21.5601 32.0137 22.0657 31.9776 22.2704C31.9411 22.4868 31.8811 22.848 31.8446 23.0527C31.6878 23.9317 31.4588 25.3766 31.4709 25.3884C31.4827 25.4005 31.869 25.2318 32.3152 25.0033C33.6544 24.3532 35.0053 24.064 36.6821 24.0523C38.2867 24.0523 38.5279 24.0883 39.5773 24.4734C42.1348 25.4365 44.2218 27.8688 45.2351 31.083C45.4158 31.6372 45.5848 32.263 45.6092 32.4677C45.6452 32.6724 45.7178 33.1663 45.7778 33.5635C45.8986 34.2977 45.8625 37.38 45.7295 38.2586C45.3315 40.7629 44.1614 43.6645 42.8465 45.4104C40.2529 48.8535 37.0562 50.3344 33.3767 49.8288C30.771 49.4676 27.9966 47.3969 26.6817 44.8566L26.4888 44.4711L25.3669 45.5786C22.7611 48.1792 19.6487 49.5999 16.3555 49.6844C14.9442 49.7325 13.0502 49.4797 12.5917 49.2026C12.2537 48.9862 13.0258 49.8648 14.3046 51.105C18.2013 54.9337 22.7611 57.2451 28.3585 58.2325C28.7565 58.3045 29.6008 58.4008 30.5298 58.4853C31.3019 58.5573 33.7265 58.5573 34.5108 58.4853C35.2347 58.425 36.3566 58.2928 36.6339 58.2442C36.7425 58.2204 37.0201 58.1722 37.237 58.1362C40.9646 57.546 45.428 55.5235 48.7333 52.9229C49.9156 51.984 52.3402 49.5279 53.2088 48.3722C54.777 46.3011 56.0922 43.9416 56.9487 41.6298C57.4432 40.3054 58.1427 37.6689 58.2757 36.6454C58.3239 36.2842 58.3721 35.8991 58.3961 35.7907C58.4204 35.6823 58.4686 35.1043 58.5168 34.5145C59.3733 23.1009 52.7143 12.5424 41.9901 8.30431C40.3372 7.65427 38.1416 7.05236 36.5374 6.83554C36.2841 6.79954 35.9703 6.7514 35.8378 6.7154C35.7049 6.69113 35.0053 6.63086 34.2696 6.59486C33.5458 6.55885 32.834 6.49858 32.6893 6.47431ZM31.5309 31.5045C30.2161 33.4191 29.5165 35.8991 29.5287 38.7404C29.5287 41.0518 29.9749 42.5327 31.0725 43.9052C32.3756 45.5426 34.752 46.0847 36.6821 45.1814C38.1781 44.4832 39.6376 42.7738 40.4941 40.7148C41.1819 39.0414 41.4835 37.4884 41.4956 35.4898C41.5074 34.3341 41.4835 34.057 41.1819 32.7205C40.7956 30.9629 39.6255 29.3497 38.2867 28.7474C35.9825 27.7123 33.425 28.7595 31.5309 31.5045Z" fill="black"/>
</g>
<defs>
<clipPath id="clip0_774_304">
<rect width="61" height="61" fill="white" transform="translate(2 2)"/>
</clipPath>
</defs>
</svg>
