<?xml version="1.0" encoding="UTF-8" standalone="no"?>
<!DOCTYPE svg PUBLIC "-//W3C//DTD SVG 1.1//EN" "http://www.w3.org/Graphics/SVG/1.1/DTD/svg11.dtd">
<svg width="100%" height="100%" viewBox="0 0 950 993" version="1.1" xmlns="http://www.w3.org/2000/svg" xmlns:xlink="http://www.w3.org/1999/xlink" xml:space="preserve" xmlns:serif="http://www.serif.com/" style="fill-rule:evenodd;clip-rule:evenodd;stroke-linejoin:round;stroke-miterlimit:2;">
    <g transform="matrix(1,0,0,1,-179.797,-103.295)">
        <path d="M599.83,599.61L599.83,599.758L599.752,599.825C599.748,599.61 599.83,599.837 599.83,599.61L599.83,599.61Z"/>
    </g>
    <g transform="matrix(1,0,0,1,-179.797,-103.295)">
        <path d="M1068.1,359.27C1061.85,359.418 1055.53,360.391 1049.27,362.325C1032.69,367.54 1016.85,379.766 1005.39,400.606L861.783,658.856L832.689,711.137L835.529,711.137C868.994,711.352 896.291,714.27 914.767,718.922C934.275,723.695 938.369,732.883 922.821,749.817C909.821,763.989 887.274,779.95 858.446,797.032C800.821,831.27 715.936,868.22 614.566,895.38C513.176,922.528 421.236,933.021 354.216,932.181C320.736,931.767 293.31,928.794 274.829,923.435C253.177,917.181 255.454,896.49 274.431,885.583L230.138,846.755C196.177,866.423 173.31,900.22 181.447,935.368C188.115,964.329 212.154,1027.02 282.087,1064.18C352.915,1101.8 467.417,1112.57 659.007,1061.19C850.677,1009.86 944.417,943.27 987.007,875.28C1028.95,808.108 1018.26,741.88 1009.71,713.4C1005.21,698.201 996.929,683.666 980.835,674.228L1115.48,457.348C1150.03,401.637 1111.56,358.715 1068.1,359.262L1068.1,359.27Z"/>
    </g>
    <g transform="matrix(1,0,0,1,-179.797,-103.295)">
        <path d="M565.21,670.19C558.901,666.51 556.745,658.51 560.448,652.19L639.741,514.81C643.409,508.501 651.409,506.357 657.663,509.958C663.995,513.638 666.128,521.626 662.531,527.88L583.156,665.31C579.531,671.642 571.543,673.803 565.211,670.189L565.21,670.19ZM627.101,705.881C620.769,702.256 618.687,694.268 622.316,687.959L709.195,537.469C712.863,531.137 720.863,528.989 727.117,532.657C733.425,536.27 735.582,544.27 731.957,550.591L645.078,701.071C641.394,707.391 633.41,709.563 627.101,705.883L627.101,705.881ZM689.035,741.643C682.726,738.03 680.57,729.975 684.195,723.655L763.57,586.275C767.172,579.943 775.156,577.795 781.492,581.474C787.801,585.099 789.957,593.087 786.277,599.396L706.957,736.836C703.278,743.09 695.277,745.235 689.035,741.637L689.035,741.643ZM695.648,817.881C708.621,825.389 725.156,820.936 732.648,807.959L824.394,649.069C846.113,611.362 850.355,555.257 817.156,512.059C802.101,492.407 797.57,478.164 803.355,457.684C809.035,437.192 816.82,424.137 826.527,407.336L991.067,178.096C1009.95,150.67 988.692,121.295 970.653,110.881C952.587,100.467 916.481,96.709 902.239,126.776L785.989,383.856C776.27,400.723 768.911,413.934 753.989,429.204C739.044,444.403 724.454,447.602 699.95,444.352C645.911,437.258 599.46,468.993 577.72,506.618L486.001,665.508C478.493,678.481 482.895,695.016 495.868,702.52L595.802,760.161L695.648,817.881Z"/>
    </g>
    <g transform="matrix(1,0,0,1,-179.797,-103.295)">
        <path d="M496.21,868.72C501.409,858.56 497.597,841.986 489.542,824.052C486.487,817.318 480.304,813.56 473.769,820.45C470.234,824.13 467.663,827.118 465.156,830.716L450.863,820.517C445.222,816.478 437.172,819.396 433.769,825.439L426.327,838.998C422.913,845.104 424.808,853.506 431.261,856.076L447.366,862.596C445.206,867.596 444.112,871.276 443.421,875.448C441.686,884.807 447.593,888.288 454.874,886.889C474.116,883.229 490.354,878.576 496.21,868.721L496.21,868.72Z"/>
    </g>
    <g transform="matrix(1,0,0,1,-179.797,-103.295)">
        <path d="M401.07,854.2C334.125,843.305 289.06,810.255 261.35,751.36C242.389,792.813 271.014,925.04 401.07,854.2Z" style="fill-rule:nonzero;"/>
    </g>
    <g transform="matrix(1,0,0,1,-179.797,-103.295)">
        <path d="M462.45,437.55C380.29,462.402 378.837,513.445 390.423,552.34C402.036,591.141 390.501,627.672 363.357,662.18C420.435,656.153 452.65,606.141 429.744,547.89C415.717,512.265 436.838,473.652 462.451,437.56L462.45,437.55Z" style="fill-rule:nonzero;"/>
    </g>
    <g transform="matrix(1,0,0,1,-179.797,-103.295)">
        <path d="M456.55,741.48C471.417,766.839 493.71,730.105 509.058,760.601C527.191,796.429 551.285,773.175 559.003,811.574C565.175,842.187 518.23,834.281 509.269,812.746C489.761,767.348 467.667,817.812 443.015,767.465C434.413,749.774 373.242,765.399 396.562,730.453C413.23,705.453 439.136,711.773 456.55,741.48L456.55,741.48Z" style="fill-rule:nonzero;"/>
    </g>
    <g transform="matrix(1,0,0,1,-179.797,-103.295)">
        <path d="M336.69,776.01C338.143,746.69 299.463,764.678 303.756,730.795C308.822,691.01 275.85,696.768 290.928,660.58C302.873,631.752 337.448,664.592 332.795,687.432C323.623,735.991 358.01,706.123 362.381,762.034C365.225,799.147 334.252,823.651 336.69,776.011L336.69,776.01Z" style="fill-rule:nonzero;"/>
    </g>
</svg>
