<svg width="86" height="46" viewBox="0 0 86 46" fill="none" xmlns="http://www.w3.org/2000/svg">
<path d="M50.5806 3.45487L60.6205 18.1158L82.7124 25.5231H85.085L66.9109 9.27553L64.4054 11.6747L50.5451 1.16797L39.8138 11.137L41.1464 11.5831L50.5806 3.45487ZM66.8696 11.004L67.0764 13.7223L65.3331 12.3897L66.8696 11.004Z" fill="#6A86B8"/>
<path d="M31.8813 11.4768L17.8733 24.4182C17.7758 24.6752 17.6812 24.9352 17.5837 25.1982L31.9049 12.9039C31.8961 12.4282 31.8872 11.9525 31.8813 11.4768Z" fill="#001E51"/>
<path d="M36.7862 12.2304L65.6915 25.547H82.7103L60.6184 18.1397L41.1414 11.6099L39.8088 11.1638L36.801 10.1562C36.7892 10.2656 36.7833 10.3778 36.7833 10.4901C36.7714 11.0692 36.7921 11.6513 36.7862 12.2304Z" fill="#001E51"/>
<path d="M73.6099 38.4011H74.6676V41.2376H74.9542V38.4011H76.009V38.1382H73.6099V38.4011Z" fill="#6A86B8"/>
<path d="M71.942 38.1382L70.5947 41.2347H70.8961L71.2448 40.4133H72.8787L73.2155 41.2347H73.5375L72.2375 38.1382H71.942ZM71.36 40.1533L72.078 38.4543L72.7753 40.1533H71.36Z" fill="#6A86B8"/>
<path d="M76.7721 38.1382H76.4855V41.2347H76.7721V38.1382Z" fill="#6A86B8"/>
<path d="M83.5135 40.8505H83.5046L81.6255 38.1382H81.2532V41.2376H81.5427V38.5252H81.5516L83.4307 41.2376H83.8001V38.1382H83.5135V40.8505Z" fill="#6A86B8"/>
<path d="M80.1641 38.5755C80.0252 38.4366 79.8568 38.3302 79.6618 38.2534C79.4668 38.1766 79.2511 38.1382 79.0147 38.1382C78.7783 38.1382 78.5626 38.1766 78.3676 38.2534C78.1726 38.3302 78.0042 38.4366 77.8653 38.5755C77.7265 38.7143 77.6171 38.8768 77.5374 39.0659C77.4576 39.255 77.4192 39.4648 77.4192 39.6894C77.4192 39.9139 77.4576 40.1208 77.5374 40.3099C77.6171 40.4989 77.7235 40.6614 77.8653 40.8003C78.0042 40.9392 78.1726 41.0456 78.3676 41.1224C78.5626 41.1992 78.7783 41.2376 79.0147 41.2376C79.2511 41.2376 79.4668 41.1992 79.6618 41.1224C79.8568 41.0456 80.0252 40.9362 80.1641 40.8003C80.3029 40.6614 80.4122 40.4989 80.492 40.3099C80.5718 40.1208 80.6102 39.9139 80.6102 39.6894C80.6102 39.4648 80.5718 39.258 80.492 39.0659C80.4122 38.8768 80.3059 38.7114 80.1641 38.5755ZM80.2291 40.1946C80.167 40.3512 80.0813 40.4871 79.9661 40.6024C79.8538 40.7176 79.715 40.8092 79.5554 40.8742C79.3929 40.9392 79.2127 40.9717 79.0117 40.9717C78.8108 40.9717 78.6306 40.9392 78.4681 40.8742C78.3056 40.8092 78.1697 40.7176 78.0574 40.6024C77.9451 40.4871 77.8565 40.3512 77.7944 40.1946C77.7324 40.038 77.7028 39.8696 77.7028 39.6864C77.7028 39.5062 77.7324 39.3348 77.7944 39.1782C77.8565 39.0216 77.9422 38.8857 78.0574 38.7705C78.1697 38.6552 78.3085 38.5637 78.4681 38.4987C78.6306 38.4336 78.8108 38.4011 79.0117 38.4011C79.2127 38.4011 79.3929 38.4336 79.5554 38.4987C79.7179 38.5637 79.8538 38.6552 79.9661 38.7705C80.0784 38.8857 80.167 39.0216 80.2291 39.1782C80.2911 39.3348 80.3207 39.5032 80.3207 39.6864C80.3236 39.8696 80.2911 40.038 80.2291 40.1946Z" fill="#6A86B8"/>
<path d="M19.5579 40.7058C19.484 40.7678 19.4101 40.8181 19.3303 40.8565C19.2506 40.8949 19.1678 40.9244 19.0851 40.9451C18.9994 40.9628 18.9196 40.9747 18.8399 40.9747C18.639 40.9747 18.4587 40.9421 18.2962 40.8771C18.1337 40.8121 17.9978 40.7206 17.8855 40.6053C17.7732 40.4901 17.6846 40.3542 17.6226 40.1976C17.5605 40.041 17.531 39.8726 17.531 39.6894C17.531 39.5091 17.5605 39.3378 17.6226 39.1812C17.6846 39.0246 17.7703 38.8887 17.8855 38.7734C17.9978 38.6582 18.1367 38.5666 18.2962 38.5016C18.4587 38.4366 18.639 38.4041 18.8399 38.4041C18.9965 38.4041 19.1501 38.4366 19.3008 38.5046C19.4515 38.5725 19.5726 38.6789 19.6701 38.8237L19.9065 38.6257C19.7706 38.4514 19.611 38.3273 19.4278 38.2505C19.2476 38.1766 19.0497 38.1382 18.8428 38.1382C18.6065 38.1382 18.3908 38.1766 18.1958 38.2534C18.0008 38.3302 17.8323 38.4366 17.6935 38.5755C17.5546 38.7143 17.4453 38.8768 17.3655 39.0659C17.2857 39.255 17.2473 39.4648 17.2473 39.6894C17.2473 39.9139 17.2857 40.1208 17.3655 40.3099C17.4453 40.499 17.5516 40.6615 17.6935 40.8003C17.8323 40.9392 18.0008 41.0456 18.1958 41.1224C18.3908 41.1992 18.6065 41.2376 18.8428 41.2376C19.0703 41.2376 19.2801 41.1933 19.4751 41.1076C19.6701 41.019 19.8415 40.8742 19.9892 40.6733L19.7529 40.493C19.6938 40.5728 19.6288 40.6437 19.5579 40.7058Z" fill="#6A86B8"/>
<path d="M43.8966 38.1382H43.61V41.2347H43.8966V38.1382Z" fill="#6A86B8"/>
<path d="M43.1307 38.1382H40.7345V38.4011H41.7893V41.2376H42.0759V38.4011H43.1307V38.1382Z" fill="#6A86B8"/>
<path d="M23.0582 38.5755C22.9193 38.4366 22.7509 38.3302 22.5559 38.2534C22.3609 38.1766 22.1452 38.1382 21.9089 38.1382C21.6725 38.1382 21.4568 38.1766 21.2618 38.2534C21.0668 38.3302 20.8984 38.4366 20.7595 38.5755C20.6206 38.7143 20.5113 38.8768 20.4315 39.0659C20.3518 39.255 20.3134 39.4648 20.3134 39.6894C20.3134 39.9139 20.3518 40.1208 20.4315 40.3099C20.5113 40.4989 20.6177 40.6614 20.7595 40.8003C20.8984 40.9392 21.0668 41.0456 21.2618 41.1224C21.4568 41.1992 21.6725 41.2376 21.9089 41.2376C22.1452 41.2376 22.3609 41.1992 22.5559 41.1224C22.7509 41.0456 22.9193 40.9362 23.0582 40.8003C23.1971 40.6614 23.3064 40.4989 23.3862 40.3099C23.466 40.1208 23.5044 39.9139 23.5044 39.6894C23.5044 39.4648 23.466 39.258 23.3862 39.0659C23.3064 38.8768 23.1971 38.7114 23.0582 38.5755ZM23.1232 40.1946C23.0612 40.3512 22.9755 40.4871 22.8603 40.6024C22.748 40.7176 22.6091 40.8092 22.4496 40.8742C22.2871 40.9392 22.1068 40.9717 21.9059 40.9717C21.705 40.9717 21.5248 40.9392 21.3623 40.8742C21.1997 40.8092 21.0638 40.7176 20.9516 40.6024C20.8393 40.4871 20.7506 40.3512 20.6886 40.1946C20.6265 40.038 20.597 39.8696 20.597 39.6864C20.597 39.5062 20.6265 39.3348 20.6886 39.1782C20.7506 39.0216 20.8363 38.8857 20.9516 38.7705C21.0638 38.6552 21.2027 38.5637 21.3623 38.4987C21.5248 38.4336 21.705 38.4011 21.9059 38.4011C22.1068 38.4011 22.2871 38.4336 22.4496 38.4987C22.6121 38.5637 22.748 38.6552 22.8603 38.7705C22.9725 38.8857 23.0612 39.0216 23.1232 39.1782C23.1853 39.3348 23.2148 39.5032 23.2148 39.6864C23.2148 39.8696 23.1823 40.038 23.1232 40.1946Z" fill="#6A86B8"/>
<path d="M40.5788 40.6703L40.3424 40.4901C40.2863 40.5728 40.2242 40.6437 40.1504 40.7058C40.0765 40.7678 40.0026 40.8181 39.9229 40.8565C39.8431 40.8949 39.7604 40.9244 39.6776 40.9451C39.5919 40.9628 39.5122 40.9747 39.4324 40.9747C39.2315 40.9747 39.0512 40.9421 38.8887 40.8771C38.7262 40.8121 38.5903 40.7206 38.478 40.6053C38.3658 40.4901 38.2771 40.3542 38.2151 40.1976C38.153 40.041 38.1235 39.8726 38.1235 39.6894C38.1235 39.5091 38.153 39.3378 38.2151 39.1812C38.2771 39.0246 38.3628 38.8887 38.478 38.7734C38.5903 38.6582 38.7292 38.5666 38.8887 38.5016C39.0512 38.4366 39.2315 38.4041 39.4324 38.4041C39.589 38.4041 39.7426 38.4366 39.8933 38.5046C40.044 38.5725 40.1652 38.6789 40.2627 38.8237L40.499 38.6257C40.3631 38.4514 40.2036 38.3273 40.0204 38.2505C39.8401 38.1766 39.6422 38.1382 39.4354 38.1382C39.199 38.1382 38.9833 38.1766 38.7883 38.2534C38.5933 38.3302 38.4249 38.4366 38.286 38.5755C38.1471 38.7143 38.0378 38.8768 37.958 39.0659C37.8783 39.255 37.8398 39.4648 37.8398 39.6894C37.8398 39.9139 37.8783 40.1208 37.958 40.3099C38.0378 40.499 38.1442 40.6615 38.286 40.8003C38.4249 40.9392 38.5933 41.0456 38.7883 41.1224C38.9833 41.1992 39.199 41.2376 39.4354 41.2376C39.6629 41.2376 39.8726 41.1933 40.0676 41.1076C40.2567 41.016 40.4281 40.8712 40.5788 40.6703Z" fill="#6A86B8"/>
<path d="M64.4691 40.7058C64.3952 40.7678 64.3214 40.8181 64.2416 40.8565C64.1618 40.8949 64.0791 40.9244 63.9964 40.9451C63.9107 40.9628 63.8309 40.9747 63.7511 40.9747C63.5502 40.9747 63.37 40.9421 63.2075 40.8771C63.045 40.8121 62.909 40.7206 62.7968 40.6053C62.6845 40.4901 62.5959 40.3542 62.5338 40.1976C62.4718 40.041 62.4422 39.8726 62.4422 39.6894C62.4422 39.5091 62.4718 39.3378 62.5338 39.1812C62.5959 39.0246 62.6815 38.8887 62.7968 38.7734C62.909 38.6582 63.0479 38.5666 63.2075 38.5016C63.37 38.4366 63.5502 38.4041 63.7511 38.4041C63.9077 38.4041 64.0614 38.4366 64.212 38.5046C64.3627 38.5725 64.4839 38.6789 64.5814 38.8237L64.8177 38.6257C64.6818 38.4514 64.5223 38.3273 64.3391 38.2505C64.1589 38.1766 63.9609 38.1382 63.7541 38.1382C63.5177 38.1382 63.302 38.1766 63.107 38.2534C62.912 38.3302 62.7436 38.4366 62.6047 38.5755C62.4659 38.7143 62.3565 38.8768 62.2768 39.0659C62.197 39.255 62.1586 39.4648 62.1586 39.6894C62.1586 39.9139 62.197 40.1208 62.2768 40.3099C62.3565 40.499 62.4629 40.6615 62.6047 40.8003C62.7436 40.9392 62.912 41.0456 63.107 41.1224C63.302 41.1992 63.5177 41.2376 63.7541 41.2376C63.9816 41.2376 64.1914 41.1933 64.3864 41.1076C64.5814 41.019 64.7527 40.8742 64.9005 40.6733L64.6641 40.493C64.605 40.5728 64.543 40.6437 64.4691 40.7058Z" fill="#6A86B8"/>
<path d="M50.9213 38.1382H50.6347V40.8505H50.6258L48.7467 38.1382H48.3773V41.2376H48.6639V38.5252H48.6728L50.5519 41.2376H50.9213V38.1382Z" fill="#6A86B8"/>
<path d="M67.642 41.2347H67.9641L66.664 38.1382H66.3686L65.0212 41.2347H65.3226L65.6713 40.4133H67.3052L67.642 41.2347ZM65.7865 40.1503L66.5045 38.4514L67.2018 40.1503H65.7865Z" fill="#6A86B8"/>
<path d="M26.408 40.8505H26.3992L24.52 38.1382H24.1477V41.2376H24.4373V38.5252H24.4461L26.3253 41.2376H26.6946V38.1382H26.408V40.8505Z" fill="#6A86B8"/>
<path d="M28.3545 41.279C28.4786 41.279 28.5998 41.2613 28.715 41.2259C28.8302 41.1904 28.9336 41.1372 29.0223 41.0663C29.1109 40.9954 29.1818 40.9097 29.235 40.8063C29.2882 40.7029 29.3148 40.5876 29.3148 40.4547C29.3148 40.3158 29.2912 40.2006 29.2468 40.1119C29.2025 40.0204 29.1405 39.9465 29.0666 39.8874C28.9898 39.8283 28.9071 39.781 28.8125 39.7456C28.718 39.7101 28.6205 39.6776 28.52 39.6481C28.4195 39.6185 28.322 39.589 28.2275 39.5624C28.1329 39.5328 28.0472 39.4974 27.9734 39.4501C27.8966 39.4058 27.8375 39.3467 27.7931 39.2758C27.7488 39.2049 27.7252 39.1162 27.7252 39.004C27.7252 38.9094 27.7429 38.8296 27.7813 38.7587C27.8197 38.6908 27.87 38.6317 27.932 38.5874C27.9941 38.543 28.0679 38.5076 28.1536 38.4839C28.2393 38.4603 28.3279 38.4485 28.4195 38.4485C28.5525 38.4485 28.6677 38.4751 28.7652 38.5253C28.8627 38.5755 28.9484 38.6524 29.0193 38.7558L29.2675 38.5755C29.1641 38.4367 29.04 38.3362 28.8952 38.2771C28.7505 38.218 28.5939 38.1885 28.4254 38.1885C28.2954 38.1885 28.1684 38.2062 28.0502 38.2417C27.932 38.2771 27.8256 38.3273 27.7341 38.3953C27.6425 38.4633 27.5686 38.546 27.5154 38.6494C27.4622 38.7499 27.4356 38.8651 27.4356 38.9951C27.4356 39.134 27.4593 39.2492 27.5036 39.3437C27.5479 39.4383 27.61 39.5151 27.6838 39.5772C27.7606 39.6392 27.8434 39.6894 27.9379 39.7278C28.0325 39.7663 28.13 39.8017 28.2304 39.8313C28.3309 39.8608 28.4284 39.8933 28.5229 39.9229C28.6175 39.9524 28.7032 39.9908 28.777 40.0322C28.8539 40.0765 28.913 40.1297 28.9573 40.1947C29.0016 40.2597 29.0252 40.3454 29.0252 40.4488C29.0252 40.5374 29.0075 40.6172 28.9721 40.6881C28.9366 40.759 28.8864 40.8181 28.8243 40.8683C28.7623 40.9186 28.6884 40.957 28.6027 40.9836C28.517 41.0102 28.4284 41.0249 28.3338 41.0249C28.1802 41.0249 28.0413 40.9924 27.9232 40.9274C27.802 40.8624 27.7045 40.7649 27.6277 40.6349L27.3529 40.8181C27.474 40.9865 27.6218 41.1077 27.7931 41.1786C27.9645 41.2436 28.1507 41.279 28.3545 41.279Z" fill="#6A86B8"/>
<path d="M36.6533 41.1312C36.7981 41.0633 36.9133 40.9717 37.0019 40.8594C37.0906 40.7442 37.1526 40.6142 37.191 40.4664C37.2294 40.3187 37.2472 40.1621 37.2472 40.0026V38.1382H36.9606V39.9257C36.9606 40.0351 36.9517 40.1473 36.931 40.2714C36.9103 40.3926 36.8719 40.5078 36.8099 40.6112C36.7508 40.7176 36.6651 40.8033 36.5558 40.8712C36.4465 40.9392 36.3017 40.9746 36.1214 40.9746C35.9412 40.9746 35.7964 40.9392 35.6871 40.8712C35.5778 40.8033 35.4951 40.7176 35.433 40.6112C35.3739 40.5049 35.3326 40.3926 35.3119 40.2714C35.2912 40.1503 35.2823 40.0351 35.2823 39.9257V38.1382H34.9957V40.0026C34.9957 40.1651 35.0135 40.3187 35.0519 40.4664C35.0903 40.6142 35.1523 40.7442 35.241 40.8594C35.3296 40.9717 35.4448 41.0633 35.5896 41.1312C35.7344 41.1992 35.9087 41.2347 36.1185 41.2347C36.3312 41.2347 36.5085 41.1992 36.6533 41.1312Z" fill="#6A86B8"/>
<path d="M60.7802 39.6096L61.8262 38.1382H61.4805L60.6059 39.3998L59.7165 38.1382H59.3768L60.4316 39.6096L59.2704 41.2376H59.6161L60.5911 39.8371L61.5691 41.2376H61.9266L60.7802 39.6096Z" fill="#6A86B8"/>
<path d="M31.99 38.1382H29.5938V38.4011H30.6486V41.2376H30.9352V38.4011H31.99V38.1382Z" fill="#6A86B8"/>
<path d="M34.1092 39.5505C34.186 39.4914 34.251 39.4116 34.3012 39.3171C34.3515 39.2196 34.3781 39.0984 34.3781 38.9507C34.3781 38.8148 34.3574 38.6996 34.3131 38.608C34.2687 38.5164 34.2156 38.4396 34.1476 38.3775C34.0796 38.3155 34.0058 38.2682 33.9201 38.2386C33.8344 38.2061 33.7517 38.1825 33.6719 38.1677C33.5892 38.153 33.5153 38.1441 33.4444 38.1411C33.3735 38.1382 33.3203 38.1382 33.2789 38.1382H32.4694V41.2347H32.756V39.7632H33.2937L34.1624 41.2347H34.4903L33.5921 39.7455C33.6778 39.7337 33.7665 39.713 33.858 39.6835C33.9467 39.6569 34.0294 39.6125 34.1092 39.5505ZM33.3646 39.5003H32.753V38.3982H33.3646C33.5153 38.3982 33.6394 38.4159 33.7339 38.4543C33.8285 38.4927 33.9024 38.54 33.9555 38.5932C34.0087 38.6493 34.0442 38.7084 34.0619 38.7734C34.0796 38.8384 34.0915 38.8946 34.0915 38.9478C34.0915 39.0009 34.0826 39.06 34.0619 39.1221C34.0442 39.1871 34.0087 39.2462 33.9555 39.3023C33.9024 39.3585 33.8285 39.4057 33.7339 39.4412C33.6394 39.4825 33.5153 39.5003 33.3646 39.5003Z" fill="#6A86B8"/>
<path d="M70.2841 38.1382L69.2825 40.8565L68.2868 38.1382H67.9795L69.1288 41.2376H69.4154L70.5884 38.1382H70.2841Z" fill="#6A86B8"/>
<path d="M47.6159 40.3099C47.6957 40.1208 47.7341 39.9139 47.7341 39.6894C47.7341 39.4648 47.6957 39.258 47.6159 39.0659C47.5361 38.8768 47.4298 38.7114 47.288 38.5755C47.1491 38.4366 46.9807 38.3302 46.7857 38.2534C46.5907 38.1766 46.375 38.1382 46.1386 38.1382C45.9022 38.1382 45.6865 38.1766 45.4915 38.2534C45.2965 38.3302 45.1281 38.4366 44.9892 38.5755C44.8504 38.7143 44.7411 38.8768 44.6613 39.0659C44.5815 39.255 44.5431 39.4648 44.5431 39.6894C44.5431 39.9139 44.5815 40.1208 44.6613 40.3099C44.7411 40.4989 44.8474 40.6614 44.9892 40.8003C45.1281 40.9392 45.2965 41.0456 45.4915 41.1224C45.6865 41.1992 45.9022 41.2376 46.1386 41.2376C46.375 41.2376 46.5907 41.1992 46.7857 41.1224C46.9807 41.0456 47.1491 40.9362 47.288 40.8003C47.4298 40.6614 47.5391 40.496 47.6159 40.3099ZM46.6823 40.8742C46.5197 40.9392 46.3395 40.9717 46.1386 40.9717C45.9377 40.9717 45.7574 40.9392 45.5949 40.8742C45.4324 40.8092 45.2965 40.7176 45.1842 40.6024C45.072 40.4871 44.9833 40.3512 44.9213 40.1946C44.8592 40.038 44.8297 39.8696 44.8297 39.6864C44.8297 39.5062 44.8592 39.3348 44.9213 39.1782C44.9833 39.0216 45.069 38.8857 45.1842 38.7705C45.2965 38.6552 45.4354 38.5637 45.5949 38.4987C45.7574 38.4336 45.9377 38.4011 46.1386 38.4011C46.3395 38.4011 46.5197 38.4336 46.6823 38.4987C46.8448 38.5637 46.9807 38.6552 47.093 38.7705C47.2052 38.8857 47.2939 39.0216 47.3559 39.1782C47.418 39.3348 47.4475 39.5032 47.4475 39.6864C47.4475 39.8667 47.418 40.038 47.3559 40.1946C47.2939 40.3512 47.2082 40.4871 47.093 40.6024C46.9807 40.7176 46.8418 40.8092 46.6823 40.8742Z" fill="#6A86B8"/>
<path d="M55.4893 41.2406L54.7861 40.5137L55.3445 39.5416H55.0491L54.6029 40.3069L53.8524 39.5475C53.9381 39.5032 54.0238 39.456 54.1065 39.4087C54.1893 39.3614 54.2602 39.3082 54.3252 39.2462C54.3902 39.1841 54.4434 39.1162 54.4818 39.0393C54.5202 38.9625 54.5409 38.8709 54.5409 38.7646C54.5409 38.67 54.5231 38.5843 54.4847 38.5075C54.4463 38.4307 54.3961 38.3657 54.3311 38.3125C54.2661 38.2593 54.1922 38.215 54.1095 38.1855C54.0267 38.1559 53.9381 38.1382 53.8465 38.1382C53.7461 38.1382 53.6456 38.153 53.5511 38.1855C53.4565 38.215 53.3738 38.2593 53.3029 38.3155C53.2319 38.3716 53.1758 38.4425 53.1315 38.5252C53.0901 38.608 53.0694 38.7025 53.0694 38.8089C53.0694 38.8768 53.0813 38.9389 53.1049 39.0039C53.1285 39.0659 53.1581 39.128 53.1935 39.1841C53.229 39.2432 53.2674 39.2994 53.3147 39.3525C53.359 39.4057 53.4033 39.4589 53.4476 39.5091C53.356 39.5623 53.2704 39.6155 53.1847 39.6687C53.099 39.7219 53.0251 39.7839 52.9601 39.8489C52.8951 39.9169 52.8419 39.9907 52.8006 40.0794C52.7592 40.1651 52.7385 40.2655 52.7385 40.3778C52.7385 40.5078 52.7622 40.626 52.8124 40.7324C52.8626 40.8387 52.9276 40.9274 53.0133 41.0042C53.099 41.0781 53.1965 41.1372 53.3117 41.1756C53.427 41.2169 53.5481 41.2347 53.6811 41.2347C53.8967 41.2347 54.0799 41.1933 54.2277 41.1135C54.3783 41.0308 54.5143 40.9067 54.6384 40.7383L55.0993 41.2376H55.4893V41.2406ZM53.3915 38.9566C53.3708 38.9064 53.359 38.8562 53.359 38.8089C53.359 38.6877 53.4033 38.5902 53.4949 38.5164C53.5836 38.4425 53.6958 38.4071 53.8258 38.4071C53.9499 38.4071 54.0533 38.4425 54.1361 38.5134C54.2188 38.5843 54.2572 38.6759 54.2572 38.7882C54.2572 38.8621 54.2395 38.93 54.204 38.9862C54.1686 39.0453 54.1213 39.0955 54.0681 39.1398C54.012 39.1841 53.9529 39.2255 53.8849 39.2609C53.817 39.2964 53.7549 39.3289 53.6929 39.3585C53.6604 39.323 53.6249 39.2846 53.5865 39.2403C53.5481 39.1959 53.5097 39.1516 53.4772 39.1044C53.4417 39.0571 53.4122 39.0068 53.3915 38.9566ZM54.3222 40.6821C54.269 40.7383 54.2129 40.7885 54.1508 40.8328C54.0888 40.8771 54.0238 40.9126 53.9529 40.9392C53.882 40.9658 53.8051 40.9776 53.7254 40.9776C53.6308 40.9776 53.5392 40.9628 53.4535 40.9303C53.3679 40.9008 53.294 40.8565 53.2319 40.8003C53.1699 40.7442 53.1197 40.6762 53.0842 40.5965C53.0488 40.5167 53.031 40.428 53.031 40.3305C53.031 40.236 53.0488 40.1562 53.0842 40.0853C53.1197 40.0144 53.164 39.9523 53.2201 39.8962C53.2763 39.8401 53.3383 39.7869 53.4063 39.7396C53.4742 39.6923 53.5422 39.648 53.6131 39.6096L54.467 40.5019C54.4227 40.564 54.3754 40.626 54.3222 40.6821Z" fill="#6A86B8"/>
<path d="M58.9935 38.4011V38.1382H57.1055V41.2376H59.0614V40.9746H57.3921V39.7662H58.893V39.5032H57.3921V38.4011H58.9935Z" fill="#6A86B8"/>
<path d="M32.7766 6.04324C32.8711 5.91619 33.0071 5.79801 33.0425 5.65323C33.0632 5.57345 32.9155 5.44936 32.7648 5.23071C32.6555 5.50254 32.558 5.64436 32.552 5.7921C32.5491 5.87187 32.6968 5.95756 32.7766 6.04324Z" fill="#6A86B8"/>
<path d="M23.5873 34.6156C23.478 34.7693 23.3568 34.9111 23.2268 35.0411C23.5075 34.8875 23.7291 34.657 23.8857 34.3615C23.865 34.3349 23.8473 34.3054 23.8266 34.2788L23.5873 34.6156Z" fill="#6A86B8"/>
<path d="M21.0111 30.9H21.7409L21.54 30.6547H20.5473V30.439H21.3568C21.2682 30.3474 21.1618 30.2736 21.0407 30.2174C20.8871 30.1465 20.698 30.114 20.4793 30.114C20.2607 30.114 20.0657 30.1554 19.8825 30.2381C19.6963 30.3238 19.5397 30.4361 19.4068 30.5868C19.3152 30.6902 19.2354 30.8084 19.1674 30.9413H20.2961C20.0538 31.1895 19.8618 31.5441 19.6579 31.55C19.4925 31.5559 19.3211 31.3254 19.0995 31.092C19.0936 31.1097 19.0847 31.1275 19.0759 31.1452C18.9961 31.3668 18.9547 31.612 18.9547 31.875C18.9547 32.1439 18.9961 32.3921 19.0759 32.6077C19.1024 32.6757 19.132 32.7407 19.1615 32.8027V31.937H20.7718C20.7925 32.0168 20.8191 32.0789 20.8191 32.138C20.822 32.5043 20.822 32.8707 20.822 33.2548C20.3995 33.2755 19.98 33.2962 19.5575 33.3139C19.652 33.3937 19.7525 33.4587 19.8647 33.5119C20.0391 33.5946 20.2223 33.633 20.4291 33.633C20.6625 33.633 20.8575 33.5887 21.0289 33.4941C21.1707 33.4173 21.2889 33.3139 21.3893 33.1868V33.1366H21.4278C21.4366 33.1248 21.4455 33.113 21.4543 33.1012L21.7114 32.7171H21.3923V32.5014H23.168C23.1503 32.3625 23.1385 32.2236 23.1326 32.0818H21.2977V31.8661H23.1267C23.1267 31.7686 23.1296 31.6711 23.1355 31.5766H21.2416V31.3609H23.1533C23.1621 31.2781 23.171 31.1984 23.1828 31.1156H21.0111V30.9Z" fill="#6A86B8"/>
<path d="M23.6975 34.0756C23.689 34.0586 23.6805 34.0417 23.6692 34.0247H23.6267L23.6975 34.0756Z" fill="#6A86B8"/>
<path d="M23.3377 33.8459H23.5564C23.518 33.769 23.4825 33.6893 23.45 33.6095C23.4175 33.5297 23.3879 33.447 23.3584 33.3643H22.6936L23.3377 33.8459Z" fill="#6A86B8"/>
<path d="M22.2994 30.4194H22.9967V30.6351H22.0335L21.7351 30.8803H23.2183C23.2449 30.7444 23.2774 30.6144 23.3158 30.4873C23.1149 30.3396 22.8786 30.2332 22.6097 30.1653L22.2994 30.4194Z" fill="#6A86B8"/>
<path d="M27.3122 30.4047C27.0995 30.3604 26.8867 30.3072 26.671 30.2806C26.4967 30.3633 26.346 30.4697 26.216 30.6056C26.1658 30.6588 26.1185 30.7179 26.0771 30.7799C27.0197 30.8449 27.9622 30.907 28.9047 30.969C28.8368 30.8331 28.7541 30.7149 28.6536 30.6056C28.5088 30.452 28.3404 30.3367 28.1365 30.251C28.104 30.2363 28.0686 30.2274 28.0331 30.2156C27.847 30.4017 27.6077 30.4667 27.3122 30.4047Z" fill="#6A86B8"/>
<path d="M22.1892 32.9612L22.4049 33.1237H23.2942C23.2558 32.9877 23.2263 32.8459 23.1997 32.7041H21.8435L22.1892 32.9612Z" fill="#6A86B8"/>
<path d="M17.5506 34.9365C17.1635 34.5671 16.8562 34.1121 16.6405 33.5891C16.5253 33.3084 16.4396 33.0071 16.3864 32.6909C16.2003 32.6732 16.0112 32.6673 15.8191 32.6702C15.6507 32.6732 15.4853 32.6377 15.3287 32.623C15.2784 32.1325 15.2312 31.6922 15.1809 31.2165H16.3598C16.4101 30.8295 16.5017 30.4661 16.6405 30.1263C16.6789 30.0288 16.7233 29.9372 16.7705 29.8456C16.5814 29.8367 16.3923 29.8308 16.2062 29.822C16.0526 29.816 15.8989 29.8072 15.7453 29.7983C15.7423 29.7599 15.7364 29.7185 15.7335 29.6801C16.1353 29.6358 16.5371 29.5826 16.939 29.5442C17.1133 29.2606 17.3171 29.0065 17.5535 28.7819C17.7249 28.6165 17.914 28.4687 18.1179 28.3387H16.608C16.3894 27.6296 16.7617 27.1066 17.0542 26.628C17.1576 26.4596 17.7219 26.5689 18.0765 26.5571C18.1888 26.5541 18.3158 26.5364 18.4074 26.5807C18.5315 26.6427 18.7176 26.7521 18.7265 26.8496C18.7502 27.2366 18.7472 27.6237 18.7442 28.0048C18.8063 27.9782 18.8683 27.9546 18.9333 27.928C18.9895 27.9073 19.0427 27.8896 19.0988 27.8689C19.0781 27.6857 19.0752 27.4996 19.0633 27.3194C18.9777 26.1227 18.9836 26.1227 17.7722 26.0873C17.6303 26.0843 17.4885 26.0755 17.2669 26.0636C17.3762 25.7652 17.4826 25.4757 17.589 25.192C17.6865 24.9291 17.781 24.669 17.8785 24.412C17.8992 24.3588 17.9199 24.3027 17.9376 24.2495C18.4636 22.846 19.022 21.4544 19.5125 20.0391C19.9734 18.7066 20.3545 17.3474 20.8036 16.009C20.8864 15.7608 21.0784 15.4889 21.3 15.356C24.7244 13.2877 28.1607 11.2402 31.597 9.18963C31.6501 9.16008 31.7092 9.14236 31.8156 9.09804C31.8304 9.2635 31.854 9.39646 31.854 9.52942C31.8658 10.1765 31.8747 10.8206 31.8865 11.4677C31.8954 11.9434 31.9013 12.4191 31.9102 12.8918C31.9486 15.2644 31.9899 17.637 32.0372 20.0096C32.0431 20.3375 31.9633 20.5562 31.6708 20.7039C31.529 20.7748 31.399 20.8723 31.2779 20.9728C30.8022 21.3746 30.294 21.5696 29.6558 21.3864C29.4785 21.3362 29.2185 21.4219 29.0441 21.5282C27.9775 22.1635 26.9641 22.911 25.8502 23.4429C25.1854 23.759 24.3699 23.7797 23.6135 23.8565C23.4303 23.8742 23.2235 23.5729 23.0167 23.434C22.866 23.3335 22.6976 23.2597 22.4316 23.1178C22.4612 23.5079 22.476 23.7117 22.4937 23.9245C21.9028 23.7383 21.7196 22.9228 20.9602 22.9701C20.9661 23.6379 21.0016 24.2347 21.3473 24.7961C21.6634 25.3102 21.9471 25.8539 22.1598 26.4152C22.5705 27.4907 23.2383 28.3978 23.9178 29.2931C24.0449 29.1158 24.1867 28.9503 24.3433 28.7996C23.4599 27.5705 22.5557 26.3473 22.0387 24.7577C24.9638 24.7931 27.4368 23.6231 29.7296 21.9596C30.1167 22.5003 30.4358 22.9524 30.8228 23.4901C30.1935 24.0338 29.5819 24.5597 28.9053 25.1447C29.3248 24.9616 29.6676 24.8109 30.0133 24.6572C29.9955 25.8509 29.7414 26.95 29.3042 27.9842C29.7651 28.1762 30.1758 28.4421 30.5215 28.7731C30.9085 29.1453 31.2158 29.5974 31.4315 30.1204C31.5586 30.4277 31.6472 30.7586 31.6974 31.1072C31.724 31.1102 31.7536 31.1102 31.7802 31.1131V28.1171C31.6974 28.2708 31.5586 28.3712 31.334 28.3476C31.1419 28.3269 30.9794 28.0492 30.8701 27.9487C30.9174 27.4523 31.0119 27.1332 31.4138 27.1155C31.789 27.1007 31.8865 27.3962 31.8747 27.7064C31.8747 27.7389 31.8717 27.7744 31.8658 27.8069H34.3537V28.6578C34.5546 28.0935 34.6609 27.4848 34.7023 26.8496C34.7555 26.0193 35.0125 25.3368 35.568 24.7518C35.828 24.477 35.8664 24.2436 35.5385 24.0131C35.2785 23.827 35.2785 23.6113 35.4291 23.3572C35.5414 23.1651 35.633 22.9613 35.7423 22.7456C35.9078 22.7662 36.0792 22.8342 36.2151 22.7928C36.4367 22.7219 36.7233 22.6244 36.8119 22.4501C36.8828 22.3083 36.7646 21.9449 36.6169 21.8444C35.9521 21.3864 35.8753 20.7069 35.9167 20.0214C36.0289 18.2545 36.1826 16.4906 36.351 14.7266C36.3746 14.4666 36.6021 14.2303 36.6524 13.9643C36.7351 13.5123 36.7794 13.0455 36.7912 12.5845C36.7942 12.4575 36.7971 12.3304 36.7971 12.2004C36.8001 11.6213 36.7824 11.0392 36.7942 10.4601C36.7971 10.3479 36.8031 10.2356 36.8119 10.1263C36.8533 9.70669 36.9626 9.30782 37.2108 8.92076C37.3851 8.64893 37.4501 8.17323 37.3408 7.8689C36.8001 6.35317 36.9212 4.82857 37.1576 3.29215C37.1931 3.05578 37.1753 2.80759 37.2374 2.58008C37.5004 1.64346 37.0542 1.1323 36.3067 0.618192C35.6064 0.139539 34.85 0.139539 34.1025 0.00362495C33.9341 -0.0259216 33.6889 0.130675 33.547 0.272498C33.3934 0.420231 33.2723 0.638874 33.2161 0.8457C33.0241 1.56959 32.5336 2.02165 31.9456 2.44121C30.4949 3.48125 29.1653 4.73106 27.6171 5.59087C25.6227 6.69886 24.0951 8.35347 22.278 9.65351C22.2012 9.7067 22.1066 9.80124 22.0357 9.78647C21.433 9.67124 21.1198 10.1322 20.7091 10.4099C20.0118 10.8856 19.3352 11.3968 18.5995 11.8075C16.9183 12.7441 15.7719 14.1032 15.1012 15.8937C14.7555 16.8156 14.3743 17.7227 14.0375 18.5706C13.6622 18.4318 13.3077 18.2634 12.9354 18.1629C12.0874 17.9383 11.2188 17.7906 10.3855 17.5247C9.48437 17.2381 8.70139 17.4774 7.90659 17.8527C7.28611 18.1452 6.64791 18.3963 6.02152 18.6741C5.52514 18.8927 5.27104 19.262 5.23854 19.8234C5.16468 21.0496 5.03172 22.2728 4.95194 23.499C4.9283 23.8624 4.78353 24.0131 4.43488 24.1017C3.32098 24.3824 2.2248 24.7193 1.1109 24.9941C0.644064 25.1093 0.449057 25.3397 0.434284 25.8184C0.404737 26.8082 0.330871 27.7951 0.286551 28.7819C0.25996 29.3758 0.366327 29.4999 0.951347 29.5088C1.77569 29.5206 2.603 29.5117 3.42734 29.5117C3.43621 29.5885 3.44802 29.6654 3.45689 29.7451C2.85414 29.8958 2.25435 30.0613 1.64864 30.1913C1.24681 30.277 0.865663 30.3745 0.652928 30.7615C0.626336 30.8118 0.614518 30.8709 0.608608 30.9418H0.753386V31.1575H0.50815C0.366327 31.2018 0.183139 31.2579 0.324962 31.4263H0.564288V31.642H0.324962C0.251095 31.71 0.177229 31.7779 0.138819 31.8636C0.127 31.8932 0.147683 31.9375 0.180184 31.9848H0.463831V32.2004H0.221549C0.150637 32.2714 0.0679075 32.3541 0.0413156 32.4516C0.0354064 32.4752 0.0501792 32.5077 0.0738164 32.5432H0.378145V32.7589H0.197912C-0.0295963 32.9125 -0.0620973 33.0957 0.106318 33.2612H0.378145V33.4769H0.177229C0.144728 33.5537 0.112227 33.6275 0.0826806 33.7014C0.0354062 33.8166 0.100408 33.8964 0.17132 33.9791H0.460876V34.1948H0.289506C0.29837 34.248 0.295415 34.3101 0.25996 34.381C0.206776 34.4992 0.558379 34.8862 0.794751 35.031C1.03703 35.1817 1.36795 35.2349 1.66046 35.2467C4.1601 35.3531 6.66268 35.4594 9.16527 35.5303C10.4712 35.5687 11.7801 35.5422 13.089 35.5392C13.2456 35.5392 13.4613 35.5599 13.547 35.4742C13.9429 35.0694 14.4245 35.1758 14.8943 35.1817C15.9019 35.1965 16.9124 35.2142 17.9199 35.229C17.7928 35.1521 17.6688 35.0487 17.5506 34.9365ZM1.02521 27.7212L0.960211 27.4375L3.17324 26.9234L3.23825 27.2071L1.02521 27.7212ZM1.02521 27.145L0.960211 26.8614L3.17324 26.3473L3.23825 26.6309L1.02521 27.145ZM1.02521 26.5689L0.960211 26.2852L3.17324 25.7711L3.23825 26.0548L1.02521 26.5689ZM1.02521 25.9927L0.960211 25.7091L3.17324 25.195L3.23825 25.4786L1.02521 25.9927ZM19.9497 16.7654C19.5184 17.7227 19.0397 18.6622 18.6615 19.6402C18.0174 21.3007 17.4353 22.9878 16.8178 24.6602C16.7735 24.7813 16.6228 24.9586 16.5283 24.9556C15.9344 24.935 15.3434 24.87 14.6639 24.8138C16.4219 21.9833 18.1238 19.2443 19.8256 16.5053C19.8847 16.5349 19.9438 16.5644 20.0029 16.594C19.9852 16.6531 19.9763 16.7122 19.9497 16.7654ZM14.9505 31.0068V31.2225H11.334V31.0068H14.9505ZM32.2174 22.6451C31.8747 22.654 31.6413 22.3496 31.6531 21.9153C31.6649 21.481 31.9604 21.1087 32.2943 21.0998C32.6222 21.091 32.8645 21.4101 32.8586 21.8385C32.8497 22.2846 32.569 22.6392 32.2174 22.6451ZM32.4834 18.7095C32.7936 19.4098 33.0743 20.0421 33.4052 20.7866C32.3149 20.2459 32.1524 19.8589 32.4834 18.7095ZM32.8084 27.5794C32.507 27.3253 32.4036 27.1125 32.5897 26.7462C33.1422 25.6677 33.6475 24.5686 34.1734 23.4783C34.4541 22.8992 34.4541 22.8992 35.1041 23.2094C34.3448 24.6572 33.5825 26.105 32.8084 27.5794ZM34.9209 22.2935C34.7762 22.4442 34.46 22.5742 34.2798 22.5181C33.8957 22.3999 33.8927 22.0305 33.9459 21.6789C33.9636 21.5578 34.002 21.4071 33.9518 21.3096C33.4436 20.3346 33.2397 19.2059 32.4745 18.3579C32.3859 18.2604 32.3622 18.1038 32.3356 18.0388C32.3238 17.5867 32.6015 17.2174 32.8941 17.2558C33.287 17.3061 33.3284 17.6074 33.3313 17.9324C33.3343 18.1009 33.3491 18.2811 33.4111 18.4347C33.6534 19.0227 33.9105 19.6018 34.1734 20.1809C34.3507 20.5769 34.46 20.9994 34.8914 21.2594C35.1869 21.4426 35.1957 22.0069 34.9209 22.2935ZM36.3244 21.9714C36.4367 22.0158 36.4928 22.2167 36.5726 22.3437C36.4367 22.4235 36.2919 22.5831 36.1648 22.5712C35.8576 22.5446 35.5562 22.4353 35.2489 22.3615C35.2962 22.1399 35.3375 21.9596 35.3848 21.7439C35.7128 21.8208 36.0319 21.8621 36.3244 21.9714ZM35.5946 20.4853C35.2016 20.5709 35.0657 20.4528 35.1041 20.0775C35.2785 18.2397 35.4439 16.399 35.6005 14.5582C35.6301 14.2125 35.7985 14.2155 36.0851 14.3189C35.9196 16.3724 35.7571 18.4288 35.5946 20.4853ZM33.1629 2.58303C33.2013 2.45303 33.29 2.32598 33.3845 2.22552C33.8011 1.7646 34.203 1.28594 34.6668 0.872292C34.8323 0.724559 35.1485 0.695013 35.3907 0.709786C35.4823 0.715695 35.6064 0.981614 35.636 1.14412C35.6803 1.37458 35.6744 1.61982 35.6478 1.85324C35.4823 3.37488 35.2991 4.89357 35.1278 6.41226C34.6964 10.2444 34.2709 14.0796 33.8425 17.9118C33.8248 18.0565 33.7893 18.2013 33.7627 18.3431C33.6239 17.5483 33.6239 16.6679 32.4006 17.049C32.3859 16.9692 32.3711 16.9219 32.3711 16.8747C32.3622 13.7014 32.3504 10.5281 32.3563 7.35479C32.3563 7.20411 32.4863 7.01796 32.6075 6.90569C32.9088 6.625 33.2782 6.41226 33.547 6.10498C33.9223 5.68246 33.7125 5.05017 33.1688 4.89062C32.9856 4.83743 32.77 4.88175 32.5099 4.88175C32.7375 4.08104 32.9443 3.33056 33.1629 2.58303ZM32.1908 3.08237C32.2233 3.10896 32.2559 3.13555 32.2854 3.16215C32.1199 3.60239 31.8008 4.0515 31.8186 4.48287C31.8481 5.1979 31.4079 5.25995 30.9381 5.387C30.6308 5.46973 30.3235 5.5495 30.0192 5.6411C29.898 5.67655 29.7474 5.7061 29.6794 5.79474C29.0885 6.54817 28.1637 6.76386 27.4014 7.23661C27.227 7.34298 27.0379 7.42275 26.8548 7.51434C26.8163 7.45525 26.7809 7.39911 26.7425 7.34002C28.5566 5.92179 30.3737 4.5006 32.1908 3.08237ZM14.6343 18.1511C14.8766 17.7079 15.0037 17.2026 15.1928 16.7269C15.4439 16.0917 15.6094 15.3944 15.9816 14.836C16.868 13.5064 18.0263 12.4427 19.4681 11.7129C21.9412 10.4572 24.4231 9.21918 26.8813 7.93095C27.9302 7.38138 29.1062 7.02387 29.9246 6.08429C29.9896 6.00747 30.1167 5.97497 30.2201 5.94247C31.0444 5.69133 31.8658 5.43427 32.6931 5.20381C32.8556 5.15949 33.0861 5.17426 33.225 5.25995C33.547 5.45791 33.547 5.78883 33.1718 6.08725C32.6104 6.53045 32.0047 6.92046 31.4079 7.31343C30.681 7.78913 30.0015 8.37119 29.053 8.36528C28.9289 8.36528 28.796 8.48052 28.6748 8.55734C26.8252 9.71851 24.952 10.8472 23.1378 12.0586C21.2793 13.3025 19.1874 14.2214 17.5949 16.0149C17.784 15.3974 17.9376 14.8655 18.1208 14.3485C18.1563 14.245 18.3188 14.1269 18.4281 14.1209C18.7295 14.1032 18.7945 13.9023 18.7354 13.7014C18.697 13.5684 18.5167 13.4473 18.372 13.3793C18.2508 13.3232 18.0883 13.3616 17.9465 13.338C17.6392 13.2907 17.4678 13.4177 17.5181 13.728C17.6126 14.3219 17.3762 14.8448 17.2019 15.3796C16.5076 17.5336 15.8546 19.7023 14.7052 21.676C14.6225 21.8178 14.5486 21.9655 14.4718 22.1103C14.3093 21.351 14.915 20.8664 15.0834 20.1012C14.8382 20.4882 14.6609 20.7689 14.4157 21.156C14.265 20.048 14.1261 19.0877 14.6343 18.1511ZM10.3176 18.222C11.1922 18.3963 12.0017 18.5559 12.8113 18.7184C13.1865 18.7952 13.3875 19.0198 13.4141 19.4127C13.4672 20.2075 13.5352 20.9994 13.5913 21.7942C13.6386 22.4412 13.677 23.0883 13.7243 23.7915C12.6311 23.5847 11.6029 23.3956 10.5776 23.1799C10.4771 23.1592 10.353 22.9642 10.3471 22.8431C10.288 21.5076 10.2467 20.1691 10.2142 18.8307C10.2083 18.6386 10.2762 18.4406 10.3176 18.222ZM13.742 24.6277C13.745 25.3279 13.7332 26.0252 13.7095 26.7255C13.6977 27.0298 13.5441 27.1716 13.2102 27.1362C12.4981 27.0623 11.7831 27.0091 11.071 26.9618C10.7253 26.9382 10.5126 26.7403 10.5037 26.4271C10.4742 25.5732 10.4949 24.7163 10.4949 23.8181C11.4817 23.9954 12.5099 24.1756 13.5352 24.3765C13.6179 24.3943 13.742 24.539 13.742 24.6277ZM8.1991 18.3934C8.27592 18.3815 8.3557 18.3461 8.41774 18.3018C8.88458 17.9531 9.31005 18.3431 9.32187 18.8395C9.3455 19.9859 9.38391 21.1353 9.39278 22.2817C9.39278 22.4087 9.25391 22.6067 9.13277 22.651C8.37343 22.9317 7.60226 23.1799 6.88428 23.4222C6.88428 22.3349 6.93156 21.2978 6.86951 20.2666C6.80746 19.2414 7.10588 18.5559 8.1991 18.3934ZM6.82519 24.1343C6.8636 24.0752 6.94633 24.0338 7.01724 24.0131C7.80613 23.7767 8.59502 23.5433 9.44596 23.2922C9.44596 23.9511 9.47846 24.539 9.43119 25.1241C9.41051 25.3604 9.26573 25.7239 9.0914 25.7829C8.55661 25.9691 7.98046 26.04 7.42203 26.1464C7.36884 26.1582 7.29793 26.1316 7.2477 26.102C6.8636 25.8686 6.57109 24.5213 6.82519 24.1343ZM5.79106 19.9386C5.79697 19.4777 6.00971 19.2384 6.51495 19.1054C6.46472 20.5532 6.42336 21.9508 6.36131 23.3483C6.34063 23.7679 6.02743 23.6556 5.74083 23.6349C5.72606 23.434 5.70242 23.2597 5.70538 23.0883C5.73197 22.0394 5.77924 20.9905 5.79106 19.9386ZM13.7863 28.1585C10.5244 27.6266 7.30975 28.0669 4.09805 28.5485C7.30384 27.9517 10.4949 27.0741 13.7863 28.1585ZM10.8553 33.2523C10.8376 33.4266 10.6574 33.7073 10.5185 33.728C10.0221 33.8107 9.51096 33.8019 8.98208 33.8285V33.3173C8.86094 33.3882 8.75753 33.4946 8.6423 33.5064C7.6259 33.6098 6.60359 33.533 5.58719 33.7841C4.94012 33.9437 4.22214 33.8314 3.53666 33.8166C3.35939 33.8137 3.18211 33.731 3.00483 33.6778C2.76846 33.6069 2.54095 33.5034 2.30162 33.4562C2.05639 33.4118 1.79933 33.4207 1.48023 33.4C1.49205 33.1312 1.5275 32.9243 1.50682 32.7205C1.46546 32.295 1.65455 32.1975 2.05639 32.1827C3.64894 32.1236 5.2415 32.0202 6.83701 31.9404C8.1666 31.8725 9.49619 31.8104 10.8701 31.7454C10.8701 32.2684 10.8996 32.7648 10.8553 33.2523ZM10.9912 30.0849H14.2798V30.3006H10.9912V30.0849ZM11.1272 30.5458H14.658V30.7615H11.1272V30.5458ZM14.7259 34.4017H11.334V34.186H14.7259V34.4017ZM14.98 33.7044H11.4581V33.4887H14.98V33.7044ZM15.0657 33.0041H11.5556V32.7884H15.0657V33.0041ZM15.0657 32.3689H11.5556V32.1532H15.0657V32.3689ZM15.0657 31.7307H11.4581V31.515H15.0657V31.7307ZM15.4084 34.5967C15.4557 34.4194 15.5 34.2539 15.5709 33.9851C15.7394 34.2126 15.8753 34.3928 16.026 34.5967H15.4084Z" fill="#6A86B8"/>
<path d="M34.6847 34.0276C34.5104 33.9507 34.3597 33.8444 34.2326 33.7085C34.1056 33.5725 34.0081 33.41 33.9401 33.2239C33.8692 33.0378 33.8367 32.8339 33.8367 32.6152V28.3369H32.2855V32.6743C32.2855 33.0939 32.3476 33.478 32.4746 33.8326C32.6017 34.1842 32.7878 34.4914 33.036 34.7514C33.2842 35.0115 33.5944 35.2124 33.9638 35.3601C34.336 35.5049 34.7645 35.5788 35.2549 35.5788C35.7395 35.5788 36.165 35.5049 36.5373 35.3601C36.9095 35.2153 37.2168 35.0115 37.465 34.7514C37.7132 34.4914 37.8994 34.1871 38.0264 33.8326C38.1535 33.481 38.2155 33.0939 38.2155 32.6743V28.3369H36.6643V32.6152C36.6643 32.8339 36.6289 33.0378 36.5609 33.2239C36.49 33.41 36.3925 33.5725 36.2684 33.7085C36.1413 33.8444 35.9936 33.9507 35.8222 34.0276C35.6509 34.1044 35.4618 34.1428 35.2549 34.1428C35.0511 34.1428 34.859 34.1044 34.6847 34.0276Z" fill="#001E51"/>
<path d="M80.8172 33.9596V32.5237H83.8664V31.0877H80.8172V29.7729H84.0466V28.3369H79.266V35.3956H84.2239V33.9596H80.8172Z" fill="#001E51"/>
<path d="M30.1602 34.5545C30.497 34.2324 30.76 33.8424 30.9491 33.3815C31.1382 32.9235 31.2327 32.4094 31.2327 31.8451C31.2327 31.2807 31.1382 30.7666 30.9491 30.3087C30.76 29.8507 30.497 29.4607 30.1602 29.1357C29.8234 28.8136 29.4215 28.5654 28.9576 28.394C28.4938 28.2227 27.9885 28.134 27.436 28.134C26.8864 28.134 26.3782 28.2197 25.9144 28.394C25.4505 28.5684 25.0486 28.8136 24.7118 29.1357C24.375 29.4577 24.112 29.8477 23.9229 30.3087C23.7338 30.7666 23.6393 31.2807 23.6393 31.8451C23.6393 32.4094 23.7338 32.9235 23.9229 33.3815C24.112 33.8395 24.375 34.2295 24.7118 34.5545C25.0486 34.8765 25.4505 35.1247 25.9144 35.2961C26.3782 35.4675 26.8835 35.5561 27.436 35.5561C27.9856 35.5561 28.4938 35.4704 28.9576 35.2961C29.4215 35.1247 29.8234 34.8765 30.1602 34.5545ZM25.4062 30.938C25.5096 30.6573 25.6573 30.418 25.8494 30.2141C26.0414 30.0102 26.2719 29.8536 26.5407 29.7414C26.8096 29.6291 27.108 29.5729 27.439 29.5729C27.7699 29.5729 28.0713 29.6291 28.3372 29.7414C28.606 29.8536 28.8365 30.0132 29.0286 30.2141C29.2206 30.418 29.3683 30.6573 29.4718 30.938C29.5752 31.2187 29.6254 31.5201 29.6254 31.8451C29.6254 32.1789 29.5752 32.4803 29.4718 32.7581C29.3683 33.0328 29.2206 33.2722 29.0286 33.476C28.8365 33.6799 28.606 33.8365 28.3372 33.9488C28.0683 34.0611 27.7699 34.1172 27.439 34.1172C27.108 34.1172 26.8067 34.0611 26.5407 33.9488C26.2719 33.8365 26.0414 33.677 25.8494 33.476C25.6573 33.2722 25.5096 33.0328 25.4062 32.7581C25.3027 32.4833 25.2525 32.1789 25.2525 31.8451C25.2525 31.5201 25.3027 31.2187 25.4062 30.938Z" fill="#001E51"/>
<path d="M69.6987 35.3956V28.3369H68.1505V35.3956H69.6987Z" fill="#001E51"/>
<path d="M64.4395 33.9596V28.3369H62.8883V35.3956H67.3114V33.9596H64.4395Z" fill="#001E51"/>
<path d="M76.2263 28.3369V33.2416H76.2057L73.2155 28.3369H71.1089V35.3956H72.6571V30.3697H72.6778L75.7477 35.3956H77.7775V28.3369H76.2263Z" fill="#001E51"/>
<path d="M44.7663 33.2416H44.7456L41.7555 28.3369H39.6488V35.3956H41.2V30.3697H41.2177L44.2906 35.3956H46.3175V28.3369H44.7663V33.2416Z" fill="#001E51"/>
<path d="M52.6681 28.5349L55.1825 32.3848V35.3956H56.7308V32.3848L59.3752 28.3369H57.5374L55.9566 30.9784L54.4645 28.3369H47.1016V29.7108H49.1107V35.3956H50.659V29.7108H52.6681V28.5349Z" fill="#001E51"/>
<path d="M22.0377 35.2518C22.4957 35.0509 22.8739 34.7436 23.1694 34.324L21.8782 33.3579C21.7186 33.5972 21.5177 33.7833 21.2725 33.9163C21.0272 34.0492 20.7466 34.1142 20.4274 34.1142C20.1497 34.1142 19.8897 34.0581 19.6474 33.9458C19.4051 33.8336 19.1954 33.674 19.0151 33.4731C18.8349 33.2692 18.696 33.0299 18.5926 32.7551C18.4892 32.4803 18.439 32.176 18.439 31.8421C18.439 31.5171 18.4892 31.2128 18.5926 30.935C18.696 30.6543 18.8378 30.415 19.021 30.2112C19.2042 30.0073 19.4199 29.8507 19.6681 29.7384C19.9163 29.6261 20.1852 29.57 20.4777 29.57C20.7702 29.57 21.0243 29.6202 21.2488 29.7207C21.4704 29.8211 21.6566 29.963 21.8102 30.1491L23.0039 29.1711C22.8503 28.9791 22.6789 28.8166 22.4868 28.6836C22.2948 28.5506 22.0939 28.4443 21.887 28.3645C21.6802 28.2847 21.4675 28.2256 21.2518 28.1902C21.0361 28.1547 20.8293 28.134 20.6313 28.134C20.0818 28.134 19.5736 28.2197 19.1097 28.394C18.6458 28.5684 18.244 28.8136 17.9071 29.1357C17.5703 29.4577 17.3073 29.8477 17.1182 30.3087C16.9291 30.7666 16.8346 31.2807 16.8346 31.8451C16.8346 32.4094 16.9291 32.9235 17.1182 33.3815C17.3073 33.8395 17.5703 34.2295 17.9071 34.5545C18.244 34.8765 18.6458 35.1247 19.1097 35.2961C19.5736 35.4675 20.0788 35.5561 20.6313 35.5561C21.11 35.5502 21.5827 35.4497 22.0377 35.2518Z" fill="#001E51"/>
<path d="M84.3224 36.5637H16.9298V36.809H84.3224V36.5637Z" fill="#001E51"/>
</svg>
