<?xml version="1.0" encoding="UTF-8" standalone="no"?>
<!-- Created with Inkscape (http://www.inkscape.org/) -->

<svg
   version="1.1"
   id="svg293"
   width="800"
   height="177"
   viewBox="0 0 800 177"
   xmlns="http://www.w3.org/2000/svg"
   xmlns:svg="http://www.w3.org/2000/svg">
  <defs
     id="defs297" />
  <g
     id="g299">
    <g
       id="g305">
      <path
         style="fill:#000000"
         d="m 567,159.5 c 0,-16.83333 0.0762,-17.5 2,-17.5 1.1,0 2,0.47552 2,1.0567 0,0.5923 0.97677,0.37255 2.22251,-0.5 3.83766,-2.688 8.54761,-1.98658 12.37749,1.8433 3.11772,3.11772 3.4,3.90254 3.4,9.45295 0,3.32912 -0.48835,7.12475 -1.08521,8.43473 -2.13017,4.67521 -9.42444,7.11548 -13.98053,4.67714 C 572.1302,165.99931 572,166.30222 572,171.46482 572,176.70235 571.86556,177 569.5,177 H 567 Z m 15.4433,1.27749 C 583.29948,159.55512 584,156.73024 584,154.5 c 0,-5.29132 -2.26495,-8.5 -6,-8.5 -3.73505,0 -6,3.20868 -6,8.5 0,5.29132 2.26495,8.5 6,8.5 1.8493,0 3.44599,-0.79865 4.4433,-2.22251 z m -299.51073,4.45357 c -3.10257,-2.77215 -3.38404,-3.52928 -3.75542,-10.10175 -0.39593,-7.00691 -0.35299,-7.15347 3.11069,-10.61715 4.72851,-4.72851 10.42284,-4.95533 14.78908,-0.58908 3.63629,3.63628 3.92002,7.07692 0.5836,7.07692 -1.52504,0 -2.73604,-0.87034 -3.47857,-2.5 -0.84217,-1.84836 -1.91184,-2.5 -4.10381,-2.5 -3.8178,0 -6.07814,3.16098 -6.07814,8.5 0,5.33902 2.26034,8.5 6.07814,8.5 2.19197,0 3.26164,-0.65164 4.10381,-2.5 1.42552,-3.12868 5.81805,-3.54827 5.81805,-0.55576 0,3.65081 -4.1875,7.20985 -9.13974,7.76804 -4.04212,0.45561 -4.96359,0.1672 -7.92769,-2.48122 z M 314.5,167.1081 c -4.64527,-2.02543 -6,-4.91441 -6,-12.79512 0,-7.23786 0.10853,-7.57401 3.39281,-10.50852 3.02562,-2.70339 3.91959,-2.98086 8.26013,-2.56379 2.71476,0.26086 5.7492,1.26578 6.86141,2.27232 4.57025,4.13601 4.93826,15.50537 0.67495,20.85206 -1.73777,2.17938 -3.28729,2.92226 -6.72374,3.22356 -2.45606,0.21534 -5.36556,-8.9e-4 -6.46556,-0.48051 z m 8.72673,-5.8581 c 3.28843,-3.74485 3.34768,-10.53273 0.12013,-13.76029 -2.26097,-2.26096 -6.9681,-1.86855 -8.79016,0.7328 -2.65074,3.78446 -1.60864,11.70746 1.843,14.01218 1.93884,1.29459 5.24419,0.81785 6.82703,-0.98469 z m 82.53905,3.83203 C 402.61597,162.26768 402.5,161.89189 402.5,154.5 c 0,-7.39189 0.11597,-7.76768 3.26578,-10.58203 3.689,-3.29613 8.5263,-3.85253 13.06924,-1.50328 3.12543,1.61622 4.75263,4.45465 5.63833,9.83531 l 0.61728,3.75 h -9.04532 c -9.68705,0 -10.48039,0.50613 -7.48861,4.77749 1.97157,2.81481 6.49544,2.92736 8.9433,0.22251 2.23274,-2.46715 7.01902,-2.79492 6.10699,-0.41821 -0.33385,0.86998 -0.60699,2.00159 -0.60699,2.5147 0,1.77637 -6.51611,4.89605 -10.23422,4.89977 -2.71641,0.003 -4.62437,-0.7916 -7,-2.91423 z M 419,150.57143 c 0,-4.47366 -7.73629,-6.21372 -10.4433,-2.34892 -0.85618,1.22237 -1.5567,2.57237 -1.5567,3 0,0.42762 2.7,0.77749 6,0.77749 4.53333,0 6,-0.34921 6,-1.42857 z m 18.82599,15.7748 C 434.22985,164.03679 433,160.98153 433,154.35724 c 0,-9.42198 4.76727,-14.3058 12.70674,-13.0174 4.25377,0.69029 6.88665,3.01131 7.83862,6.91016 0.59428,2.43392 0.3901,2.75 -1.77644,2.75 -1.64066,0 -2.82352,-0.82441 -3.58697,-2.5 -1.3934,-3.0582 -6.03606,-3.42368 -8.52696,-0.67126 -2.36588,2.61427 -2.25398,11.31921 0.17375,13.51627 2.81905,2.55121 6.99843,2.12842 8.35321,-0.84501 0.76345,-1.67559 1.94631,-2.5 3.58697,-2.5 2.16654,0 2.37072,0.31608 1.77644,2.75 -1.0229,4.18932 -3.83808,6.42372 -8.68335,6.89195 -3.00454,0.29035 -5.19417,-0.11289 -7.03602,-1.29572 z M 465.2,166.8 c -0.77007,-0.77007 -1.2,-4.71111 -1.2,-11 0,-8.04444 -0.26871,-9.8 -1.5,-9.8 -0.83333,0 -1.5,-0.88889 -1.5,-2 0,-1.11111 0.66667,-2 1.5,-2 1.04762,0 1.5,-1.05556 1.5,-3.5 0,-3.06667 0.30952,-3.5 2.5,-3.5 2.19048,0 2.5,0.43333 2.5,3.5 0,2.83333 0.38095,3.5 2,3.5 1.33333,0 2,0.66667 2,2 0,1.34606 -0.66667,2 -2.03893,2 -1.91858,0 -2.02188,0.5165 -1.75,8.75 0.25395,7.69058 0.50081,8.71442 2.03893,8.45616 1.28505,-0.21576 1.75,0.38203 1.75,2.25 0,2.21121 -0.4315,2.54384 -3.3,2.54384 -1.815,0 -3.84,-0.54 -4.5,-1.2 z m 37.04508,0.0451 C 501.42104,166.02104 501,162.28601 501,155.8 c 0,-9.13333 -0.13605,-9.8 -2,-9.8 -1.33333,0 -2,-0.66667 -2,-2 0,-1.33333 0.66667,-2 2,-2 1.61905,0 2,-0.66667 2,-3.5 0,-3.06667 0.30952,-3.5 2.5,-3.5 2.19048,0 2.5,0.43333 2.5,3.5 0,2.83333 0.38095,3.5 2,3.5 1.33333,0 2,0.66667 2,2 0,1.34606 -0.66667,2 -2.03893,2 -1.91858,0 -2.02188,0.5165 -1.75,8.75 0.25882,7.83811 0.4794,8.71752 2.11656,8.43834 1.40247,-0.23917 1.75142,0.2261 1.5,2 -0.24745,1.74593 -1.06301,2.38387 -3.33255,2.60674 -1.65271,0.16229 -3.56521,-0.26521 -4.25,-0.95 z m 19.05574,-0.80321 c -3.8585,-2.35267 -5.79403,-8.26726 -4.82345,-14.7395 0.96306,-6.42219 4.03772,-9.45327 10.18866,-10.0443 4.52298,-0.4346 5.39141,-0.17855 8.34495,2.46044 2.8221,2.52154 3.36421,3.76064 3.76623,8.60845 0.54089,6.5224 -0.88757,10.82809 -4.54743,13.70693 -3.20545,2.52141 -8.80114,2.52486 -12.92896,0.008 z m 11.14248,-5.26438 C 533.29948,159.55512 534,156.73024 534,154.5 c 0,-5.22969 -2.27064,-8.5 -5.90172,-8.5 -4.04648,0 -6.43161,3.15218 -6.43161,8.5 0,2.92485 0.63081,5.17123 1.82165,6.48709 2.45814,2.71622 6.97978,2.61039 8.95498,-0.2096 z m 89.32248,4.30454 C 618.61597,162.26768 618.5,161.89189 618.5,154.5 c 0,-7.45047 0.0946,-7.74854 3.39281,-10.69554 3.02562,-2.70339 3.91959,-2.98086 8.26013,-2.56379 6.22966,0.5986 8.46564,2.69587 9.95116,9.33387 1.01901,4.55346 0.95151,5.99131 -0.45404,9.67171 -3.03741,7.95335 -11.75652,10.31093 -17.88428,4.83578 z M 633.2107,161.25 c 2.20503,-2.53755 2.88307,-6.43623 1.78515,-10.26446 -1.11144,-3.87537 -2.44832,-4.94896 -6.18915,-4.97023 C 625.27632,145.99524 623,149.32138 623,154.5 c 0,2.23024 0.70052,5.05512 1.5567,6.27749 1.89792,2.70965 6.49205,2.96049 8.654,0.47251 z m 52.82448,4.81574 C 685.46583,165.0019 685,160.0519 685,155.06574 685,147.67397 684.72303,146 683.5,146 c -0.83333,0 -1.5,-0.88889 -1.5,-2 0,-1.11111 0.66667,-2 1.5,-2 1.04762,0 1.5,-1.05556 1.5,-3.5 0,-3.06667 0.30952,-3.5 2.5,-3.5 2.19048,0 2.5,0.43333 2.5,3.5 0,2.83333 0.38095,3.5 2,3.5 1.33333,0 2,0.66667 2,2 0,1.34606 -0.66667,2 -2.03893,2 -1.91858,0 -2.02188,0.5165 -1.75,8.75 0.25395,7.69058 0.50081,8.71442 2.03893,8.45616 1.28505,-0.21576 1.75,0.38203 1.75,2.25 0,2.23566 -0.41976,2.54384 -3.46482,2.54384 -2.4021,0 -3.78232,-0.59327 -4.5,-1.93426 z M 341,154.5 c 0,-11.83333 0.10667,-12.5 2,-12.5 1.1,0 2,0.47552 2,1.0567 0,0.5923 0.97677,0.37255 2.22251,-0.5 3.09697,-2.1692 8.01879,-1.94133 11.14263,0.51588 2.55929,2.01313 2.63486,2.38601 2.63486,13 V 167 h -2.5 c -2.48538,0 -2.50009,-0.0541 -2.51531,-9.25 -0.008,-5.0875 -0.34592,-9.75185 -0.75,-10.36522 -1.53877,-2.33576 -5.06945,-2.55002 -7.18354,-0.43593 C 346.28682,148.71318 346,150.25852 346,158 c 0,8.93333 -0.0185,9 -2.5,9 H 341 Z m 31,0 c 0,-11.83333 0.10667,-12.5 2,-12.5 1.1,0 2,0.47552 2,1.0567 0,0.5923 0.97677,0.37255 2.22251,-0.5 3.18552,-2.23122 9.33441,-1.99978 11.77749,0.4433 1.75758,1.75758 2,3.33333 2,13 v 11 h -2.5 c -2.49941,0 -2.5,-0.002 -2.5,-9.96482 0,-8.82894 -0.22051,-10.08283 -1.93453,-11.00014 -2.37486,-1.27099 -6.52271,0.10816 -7.42909,2.47014 C 377.28637,149.4173 377,153.95177 377,158.58179 377,166.89455 376.96868,167 374.5,167 H 372 Z m 227,0 c 0,-11.83333 0.10667,-12.5 2,-12.5 1.1,0 2,0.51974 2,1.15499 0,0.69104 0.73458,0.4902 1.82874,-0.5 2.75597,-2.49412 6.17615,-2.1632 6.14962,0.59501 -0.0149,1.54799 -1.02891,2.71801 -3.25,3.75 l -3.22836,1.5 -0.28753,9.25 c -0.28238,9.08457 -0.33156,9.25 -2.75,9.25 H 599 Z m 52,2 c 0,-8.66667 -0.2619,-10.5 -1.5,-10.5 -0.83333,0 -1.5,-0.88889 -1.5,-2 0,-1.11111 0.66667,-2 1.5,-2 1,0 1.5,-1 1.5,-3 0,-3.65554 3.10557,-7 6.5,-7 3.10052,0 3.40994,2.95064 0.5,4.76793 -1.1,0.68696 -2,2.1452 -2,3.24054 0,1.32486 0.6695,1.99153 2,1.99153 1.33333,0 2,0.66667 2,2 0,1.33333 -0.66667,2 -2,2 -1.87302,0 -2,0.66667 -2,10.5 V 167 h -2.5 -2.5 z m 18,-2 V 142 h 2.5 2.5 v 12.5 12.5 h -2.5 -2.5 z m 0,-19.5 c 0,-2.53333 0.38889,-3 2.5,-3 2.11111,0 2.5,0.46667 2.5,3 0,2.53333 -0.38889,3 -2.5,3 -2.11111,0 -2.5,-0.46667 -2.5,-3 z M 200.99353,115.06566 c -12.04968,-3.66535 -20.5106,-14.91733 -21.67678,-28.827434 -1.23581,-14.740808 5.85264,-27.749925 18.18325,-33.370885 6.11951,-2.789606 17.82104,-2.545736 23.83052,0.49665 L 226,55.727981 V 41.863991 28 h 10 10 v 43 43 h -10 c -9.57307,0 -10,-0.092 -10,-2.15499 0,-2.01167 -0.11968,-2.04667 -1.79965,-0.52633 -4.31018,3.90067 -16.32448,5.8405 -23.20682,3.74698 z m 15.1742,-18.095526 c 2.05749,-0.571466 5.02095,-2.559934 6.75,-4.529219 2.60197,-2.963477 3.08169,-4.323175 3.07853,-8.725711 -0.004,-6.154713 -2.48196,-10.880768 -6.90238,-13.166655 -6.25767,-3.235968 -14.79126,-0.992429 -18.65511,4.904556 -2.21253,3.376755 -2.23561,11.184048 -0.0454,15.375478 1.10179,2.108539 3.27277,4.024801 5.92299,5.228038 4.90316,2.22611 5.06991,2.241573 9.85141,0.913513 z M 276,113.8 c -4.78386,-1.64105 -7.77075,-3.4972 -11.31306,-7.03032 -7.12481,-7.106309 -9.17573,-12.308677 -9.18189,-23.290707 -0.005,-8.19797 0.29734,-9.635262 3.30922,-15.753268 5.95125,-12.088713 15.73948,-17.297725 31.04614,-16.521865 9.92339,0.502994 14.63159,2.450143 20.48311,8.471116 6.59253,6.783435 10.40064,18.156638 9.0656,27.075044 L 318.77291,91 H 297.38646 C 285.62391,91 276,91.371559 276,91.825686 c 0,1.749884 4.68559,5.044727 8.68217,6.105176 4.79625,1.272635 11.43274,0.18011 14.21814,-2.340646 C 299.86676,94.715597 300.90777,94 301.21368,94 c 0.30591,0 4.07604,2.006144 8.37807,4.458098 l 7.82188,4.458102 -4.39601,4.18182 c -6.35947,6.04961 -11.87328,8.20318 -22.01762,8.59958 -6.7978,0.26563 -9.80168,-0.11438 -15,-1.8976 z M 299.12781,74.238811 C 296.14375,68.663047 287.25669,66.264539 281.19525,69.399034 278.46298,70.811943 276,73.673144 276,75.434259 276,75.745416 281.41583,76 288.03518,76 c 11.18133,0 11.96832,-0.12495 11.09263,-1.761189 z m 46.06049,40.138819 c -6.49278,-2.38742 -14.39659,-10.64816 -17.10807,-17.880638 -3.06114,-8.16513 -2.71619,-21.688119 0.73182,-28.689805 3.04967,-6.192792 8.69167,-11.883599 14.47849,-14.603723 8.26726,-3.886071 22.25597,-2.638808 27.92286,2.489662 1.67284,1.5139 1.7866,1.447798 1.7866,-1.038138 L 373,52 h 9.5 9.5 v 31 31 h -9.5 c -8.71781,0 -9.5,-0.15888 -9.5,-1.9296 0,-1.81133 -0.28385,-1.77096 -4.63076,0.65857 -5.87113,3.28144 -16.65473,4.04838 -23.18094,1.64866 z M 367,95.126955 c 3.2664,-2.311469 5.9965,-7.768882 5.99845,-11.9908 0.002,-4.632198 -3.6723,-10.753503 -7.56336,-12.599934 C 355.31571,65.734263 345,72.287284 345,83.517541 c 0,11.322495 12.83459,18.095319 22,11.609414 z m 88.40458,19.271615 c -5.98737,-1.84331 -13.91471,-7.54792 -17.14028,-12.33434 -5.13212,-7.615555 -6.69621,-20.400923 -3.6497,-29.833888 2.28853,-7.086001 7.91416,-13.987752 14.34118,-17.594341 4.72549,-2.65175 6.66643,-3.112709 14.5,-3.443636 12.18968,-0.51495 18.48963,1.77533 25.24152,9.176279 6.09917,6.685472 8.31409,12.785934 8.30765,22.881356 L 497,91 h -21.5 c -12.54494,0 -21.5,0.386284 -21.5,0.92742 0,1.601004 5.09864,5.022053 9.08421,6.095255 4.33172,1.166411 12.06007,-0.28667 14.008,-2.633776 C 477.72618,94.625005 478.60026,94 479.0346,94 480.6625,94 494,102.21561 494,103.21837 c 0,1.84642 -7.3514,8.04953 -11.95077,10.08405 -6.03497,2.66955 -19.70702,3.23202 -26.64465,1.09615 z M 477.12781,74.238811 C 474.14375,68.663047 465.25669,66.264539 459.19525,69.399034 456.46298,70.811943 454,73.673144 454,75.434259 454,75.745416 459.41583,76 466.03518,76 c 11.18133,0 11.96832,-0.12495 11.09263,-1.761189 z m 86.62947,40.734989 c -2.0585,-0.51674 -5.51014,-2.05524 -7.67031,-3.4189 C 552.22576,109.11743 547,103.2442 547,101.34206 c 0,-0.53304 3.68946,-3.050005 8.19881,-5.593264 l 8.1988,-4.624107 1.7238,2.834561 c 2.98042,4.900903 11.85335,6.12667 14.40957,1.99063 0.99481,-1.609647 -0.72766,-2.533977 -10.09796,-5.41888 C 555.4009,86.210829 550,80.871633 550,71.319998 c 0,-6.841823 1.75923,-11.023402 6.32371,-15.03107 4.41619,-3.877469 9.11431,-5.276024 17.74815,-5.283351 9.14947,-0.0078 14.9283,2.210172 20.38679,7.824521 2.49715,2.568446 4.53181,4.894902 4.52147,5.169902 -0.0103,0.275 -3.66663,2.44252 -8.1251,4.816711 l -8.10632,4.316711 -2.75453,-2.639006 c -3.24906,-3.112799 -9.23641,-3.268734 -9.80719,-0.25542 -0.37386,1.97375 1.03864,2.677139 11.37155,5.66275 13.13942,3.79653 17.92752,9.072018 17.93637,19.762112 0.0101,12.225402 -8.66615,19.474352 -23.91528,19.981002 -4.44379,0.14765 -9.76384,-0.15433 -11.82234,-0.67106 z M 405,69 V 24 h 9.5 9.5 v 45 45 H 414.5 405 Z M 507,83 V 52 h 9.5 9.5 v 4.134859 4.134858 l 2.1714,-2.760489 c 2.51065,-3.191777 9.09028,-6.455415 13.0786,-6.487266 L 544,51 v 11 11 l -4.25,0.0037 c -2.44924,0.0022 -5.60648,0.830834 -7.45145,1.955778 C 526.73255,78.353304 526,81.085395 526,98.45034 V 114 H 516.5 507 Z M 608,69 V 24 h 10 10 v 45 45 h -10 -10 z m 32,14 V 52 h 9.5 9.5 v 31 31 h -9.5 -9.5 z m 32,0 V 52 h 9.5 c 8.60227,0 9.5,0.176143 9.5,1.863991 0,1.747268 0.2924,1.715958 4.66948,-0.5 3.62109,-1.833232 6.25918,-2.35906 11.75,-2.342029 8.63423,0.02678 14.1947,2.294576 18.06375,7.367161 4.96104,6.504257 5.42548,9.335365 5.47288,33.360877 L 731,114 h -9.44171 -9.44172 L 711.80829,94.078111 C 711.51034,74.824626 711.42216,74.073448 709.17996,71.689103 706.18284,68.50199 701.77301,67.650174 697.50423,69.433785 691.66997,71.871497 691,74.551319 691,95.45034 V 114 H 681.5 672 Z M 743,71 V 28 h 9.48253 9.48253 l 0.26747,24.633037 0.26747,24.633037 8.5,-12.59399 8.5,-12.593991 10.25,-0.03905 c 9.74816,-0.03713 10.25,0.06345 10.25,2.054325 0,1.803318 -6.5855,11.434346 -17.23483,25.205238 l -2.93754,3.79861 10.08618,13.433733 C 795.46122,103.9195 800,110.87263 800,111.98234 c 0,1.88877 -0.62284,2.01469 -9.75,1.97109 l -9.75,-0.0466 -7.5,-10.50498 C 760.77703,86.281597 762.07166,86.535628 762.03327,101.25 L 762,114 H 752.5 743 Z M 644.32548,47.540868 c -8.68802,-3.7791 -9.35335,-16.418246 -1.13566,-21.573778 10.28783,-6.454267 23.01542,5.163998 17.53087,16.002895 -1.65855,3.277735 -7.37267,7.039699 -10.61857,6.990873 -1.43117,-0.02153 -4.03066,-0.660523 -5.77664,-1.41999 z"
         id="path313" />
      <path
         style="fill:#000000"
         d="m 112.56429,148.70687 c 0.37553,-0.98622 0.93469,-1.54122 1.24258,-1.23333 0.30789,0.30789 6.4e-4,1.11479 -0.68278,1.79313 -0.98762,0.98026 -1.10248,0.8654 -0.5598,-0.5598 z M 52.733333,129.87591 c 0.678334,-0.68342 1.485241,-0.99067 1.793128,-0.68278 0.307888,0.30789 -0.247112,0.86705 -1.233333,1.24258 -1.425198,0.54268 -1.540062,0.42782 -0.559795,-0.5598 z m 31.47724,-9.27505 c 0.709185,-0.76953 1.446988,-1.24947 1.639563,-1.06653 0.593148,0.56346 -0.910139,2.46567 -1.94858,2.46567 -0.539225,0 -0.400167,-0.62961 0.309017,-1.39914 z m 5,-82.138897 C 88.145228,37.254065 88.188673,37 89.460573,37 90.307258,37 91,37.675 91,38.5 c 0,1.823667 -0.150252,1.820473 -1.789427,-0.03804 z M 145.07895,28.986106 C 144.97698,27.030788 118.6287,0.70463146 117.70159,1.6317393 117.31572,2.017616 117,1.8083333 117,1.1666667 117,0.525 117.34353,0 117.7634,0 c 1.75327,0 28.45114,27.842371 27.93725,29.134883 -0.42372,1.065733 -0.56007,1.033105 -0.6217,-0.148777 z"
         id="path311" />
      <path
         style="fill:#000000"
         d="M 13.986106,143.25 0.5,129.5 14.048406,142.78493 c 7.451623,7.30671 13.864123,12.96921 14.25,12.58333 C 28.684283,154.98238 29,155.19167 29,155.83333 29,156.475 28.656248,157 28.236106,157 c -0.420141,0 -6.832641,-6.1875 -14.25,-13.75 z M 47,85.059017 c 0,-0.517541 0.444846,-1.215913 0.988546,-1.551938 0.56686,-0.350339 0.734507,0.05106 0.393011,0.940983 C 47.716766,86.180479 47,86.497449 47,85.059017 Z"
         id="path309" />
      <path
         style="fill:#000000"
         d="m 46.039737,156.75 c 1.483348,-5.6375 3.676851,-13.85622 4.87445,-18.26382 l 2.177454,-8.01381 16.314199,-4.35672 16.314198,-4.35672 5.776941,-21.62947 C 94.674297,88.233259 98.73621,73.1 100.52345,66.5 102.3107,59.9 106.1089,45.725 108.96391,35 111.81892,24.275 115.1325,12.223931 116.32742,8.2198477 L 118.5,0.93969547 131.89144,14.374984 145.28288,27.810273 129.04169,88.155136 C 120.10904,121.34481 112.73289,148.57483 112.65025,148.66629 112.38923,148.95516 44.942529,167 44.12381,167 c -0.429588,0 0.432579,-4.6125 1.915927,-10.25 z M 14.288831,142.73193 1.1415181,129.5 8.6417079,101.5 C 12.766812,86.1 17.164062,69.675 18.413373,65 l 2.271475,-8.5 34.343556,-9.230687 c 18.888956,-5.076878 34.49259,-9.081653 34.674743,-8.8995 0.437314,0.437315 -8.802622,34.922699 -9.602762,35.839524 -0.340483,0.390136 -7.762808,2.640136 -16.494055,5 L 47.731334,83.5 38.270421,119 c -5.203502,19.525 -9.76992,35.82937 -10.147595,36.23193 -0.377675,0.40256 -6.602973,-5.22244 -13.833995,-12.5 z"
         id="path307" />
    </g>
  </g>
</svg>
