<svg width="62" height="48" viewBox="0 0 62 48" fill="none" xmlns="http://www.w3.org/2000/svg">
<path fill-rule="evenodd" clip-rule="evenodd" d="M42.3297 14.3441C42.1751 14.3441 42.0183 14.3125 41.869 14.2456C40.4729 13.6241 39.0797 13.3137 37.6858 13.3178C36.9979 13.3203 36.3097 13.3991 35.6219 13.5534C35.0204 13.688 34.4211 13.3164 34.284 12.7244C34.1472 12.1324 34.5247 11.5417 35.1261 11.4074C35.9768 11.2165 36.8282 11.1199 37.6794 11.1174C39.228 11.1128 40.7786 11.418 42.33 12.0452V11.2008C42.33 10.3391 41.8193 9.55681 41.0233 9.19861C38.044 7.87183 35.0693 7.83808 32.0954 9.06291C32.4576 9.70416 32.6579 10.4372 32.6579 11.2011V18.4605C32.6579 18.5136 32.6558 18.5667 32.6519 18.6187C32.994 18.668 33.3319 18.7277 33.6658 18.7984C36.5537 18.0411 39.4419 18.4774 42.3298 20.1484L42.3297 14.3441ZM30.422 14.0572C30.102 14.3434 29.6274 14.432 29.2088 14.2457C27.8134 13.6241 26.4195 13.3137 25.0263 13.3178C24.3377 13.3203 23.6495 13.3991 22.9617 13.5534C22.3602 13.688 21.7609 13.3164 21.6241 12.7244C21.4866 12.1324 21.8641 11.5417 22.4656 11.4074C23.317 11.2165 24.1677 11.1199 25.0188 11.1174C26.7213 11.1121 28.4256 11.4816 30.1302 12.241C30.2402 12.2902 30.3377 12.3538 30.4224 12.4301V11.2011C30.4224 10.3394 29.9116 9.55713 29.1156 9.19893C26.0181 7.81941 22.9263 7.83804 19.8337 9.21475C19.0377 9.56912 18.5259 10.3499 18.5259 11.2099C18.5151 13.9851 18.5151 20.1487 18.5151 20.1487C21.4098 18.4995 24.3044 18.0344 27.199 18.7941C28.2383 18.5754 29.3169 18.4608 30.4222 18.4608L30.422 14.0572Z" fill="#1C1917"/>
<path fill-rule="evenodd" clip-rule="evenodd" d="M61.0066 45.8126L48.0923 33.1001C47.6563 32.6701 46.9484 32.6701 46.5116 33.1001C46.0756 33.5293 46.0756 34.2261 46.5116 34.6561L59.4259 47.3686C59.8627 47.7978 60.5706 47.7978 61.0066 47.3686C61.4434 46.9386 61.4434 46.2418 61.0066 45.8126Z" fill="#1C1917"/>
<path fill-rule="evenodd" clip-rule="evenodd" d="M1.90829 47.3686L14.8226 34.6561C15.2586 34.2261 15.2586 33.5293 14.8226 33.1001C14.3858 32.6701 13.6779 32.6701 13.2419 33.1001L0.327586 45.8126C-0.109195 46.2418 -0.109195 46.9386 0.327586 47.3686C0.763655 47.7978 1.47154 47.7978 1.90829 47.3686V47.3686Z" fill="#1C1917"/>
<path fill-rule="evenodd" clip-rule="evenodd" d="M14.8224 45.8126L8.92632 40.0087C8.49025 39.5795 7.78163 39.5795 7.34561 40.0087C6.90954 40.438 6.90954 41.1355 7.34561 41.5647L13.2417 47.3686C13.6777 47.7979 14.3856 47.7979 14.8224 47.3686C15.2584 46.9387 15.2584 46.2418 14.8224 45.8126Z" fill="#1C1917"/>
<path fill-rule="evenodd" clip-rule="evenodd" d="M48.1891 46.6071L53.3123 41.564C53.7483 41.1347 53.7483 40.4372 53.3123 40.008C52.8762 39.5787 52.1676 39.5787 51.7315 40.008L46.6083 45.0511C46.1716 45.4811 46.1716 46.1779 46.6083 46.6071C47.0444 47.0371 47.7523 47.0371 48.1891 46.6071Z" fill="#1C1917"/>
<path fill-rule="evenodd" clip-rule="evenodd" d="M15.1494 46.5902V12.2615C15.1494 12.2615 12.9141 11.8698 12.9141 12.0252V46.5906C12.9141 47.1978 13.4148 47.6911 14.0316 47.6911C14.6491 47.6911 15.1495 47.1975 15.1495 46.5906L15.1494 46.5902Z" fill="#1C1917"/>
<path fill-rule="evenodd" clip-rule="evenodd" d="M14.9101 7.42651L8.39396 21.6618C8.14003 22.2155 8.39146 22.868 8.95324 23.1173C9.51574 23.3665 10.1786 23.1198 10.4318 22.566L17.3043 7.55134C16.4804 7.52849 15.679 7.4856 14.9097 7.42654L14.9101 7.42651Z" fill="#1C1917"/>
<path fill-rule="evenodd" clip-rule="evenodd" d="M48.3033 7.56079C47.9347 7.56817 47.5619 7.57204 47.1854 7.57204C46.8093 7.57204 46.4368 7.56817 46.0679 7.56079V46.0385C46.0679 46.6456 46.5686 47.1386 47.1854 47.1386C47.8022 47.1386 48.3033 46.6457 48.3033 46.0385V7.56079Z" fill="#1C1917"/>
<path fill-rule="evenodd" clip-rule="evenodd" d="M41.8916 43.7461C41.3937 44.2928 40.8555 44.8033 40.283 45.274L42.4105 47.3686C42.8473 47.7979 43.5552 47.7979 43.9912 47.3686C44.428 46.9387 44.428 46.2418 43.9912 45.8126L41.8919 43.7461H41.8916ZM18.7693 43.5415L16.4618 45.8129C16.0257 46.2422 16.0257 46.939 16.4618 47.3689C16.8979 47.7982 17.6065 47.7982 18.0425 47.3689L20.35 45.0975C19.7861 44.6173 19.2579 44.0966 18.7693 43.5415V43.5415Z" fill="#1C1917"/>
<path fill-rule="evenodd" clip-rule="evenodd" d="M30.4218 20.6611C37.6903 20.6611 43.592 26.4704 43.592 33.6256C43.592 40.7809 37.6906 46.5901 30.4218 46.5901C23.1529 46.5901 17.2515 40.7809 17.2515 33.6256C17.2515 26.4704 23.1529 20.6611 30.4218 20.6611V20.6611ZM34.5643 33.9082C32.4365 33.9082 30.7089 35.6088 30.7089 37.7034C30.7089 39.7977 32.4365 41.4985 34.5643 41.4985C36.6918 41.4985 38.4196 39.7977 38.4196 37.7034C38.4196 35.6088 36.6918 33.9082 34.5643 33.9082ZM34.5643 36.1086C35.4582 36.1086 36.1836 36.8234 36.1836 37.7034C36.1836 38.5833 35.4582 39.2973 34.5643 39.2973C33.6704 39.2973 32.9443 38.5833 32.9443 37.7034C32.9443 36.8234 33.6703 36.1086 34.5643 36.1086Z" fill="#1C1917"/>
<path fill-rule="evenodd" clip-rule="evenodd" d="M30.709 2.68632C30.709 4.16952 25.3765 5.37228 18.7986 5.37228C12.2204 5.37228 6.88818 4.16961 6.88818 2.68632C6.88818 1.20276 12.2207 0 18.7986 0C25.3764 0 30.709 1.20267 30.709 2.68632Z" fill="#1C1917"/>
<path fill-rule="evenodd" clip-rule="evenodd" d="M59.0967 2.68632C59.0967 4.16952 53.7642 5.37228 47.1863 5.37228C40.6085 5.37228 35.2759 4.16961 35.2759 2.68632C35.2759 1.20276 40.6087 0 47.1863 0C53.7645 0 59.0967 1.20267 59.0967 2.68632Z" fill="#1C1917"/>
</svg>
