<svg width="50" height="72" viewBox="0 0 50 72" fill="none" xmlns="http://www.w3.org/2000/svg">
<path d="M13.9978 47C20.0686 47 24.9956 42.072 24.9956 36V25H13.9978C7.92701 25 3 29.928 3 36C3 42.072 7.92701 47 13.9978 47Z" stroke="#423D38" stroke-width="6"/>
<path d="M3 58C3 51.928 7.92701 47 13.9978 47H24.9956V69H13.9978C7.92701 69 3 64.072 3 58Z" stroke="#423D38" stroke-width="6"/>
<path d="M3 14C3 7.928 7.92701 3 13.9978 3H24.9956V25H13.9978C7.92701 25 3 20.072 3 14Z" stroke="#423D38" stroke-width="6"/>
<path d="M24.9956 3H35.9934C42.0642 3 46.9912 7.928 46.9912 14C46.9912 20.072 42.0642 25 35.9934 25H24.9956V3Z" stroke="#423D38" stroke-width="6"/>
<path d="M46.9912 36C46.9912 42.072 42.0642 47 35.9934 47C29.9226 47 24.9956 42.072 24.9956 36C24.9956 29.928 29.9226 25 35.9934 25C42.0642 25 46.9912 29.928 46.9912 36Z" stroke="#423D38" stroke-width="6"/>
</svg>
