<svg width="94" height="94" viewBox="0 0 94 94" fill="none" xmlns="http://www.w3.org/2000/svg">
<path fill-rule="evenodd" clip-rule="evenodd" d="M94 0H0V94H94V0ZM27.3405 36C24.0885 38.5643 22 42.5395 22 47C22 51.4605 24.0885 55.4357 27.3405 58C24.0885 60.5643 22 64.5395 22 69C22 76.7283 28.2696 83 35.9978 83H46.9956H49.9956V80V58.4895C52.263 60.0718 55.0203 61 57.9934 61C65.7216 61 71.9912 54.7283 71.9912 47C71.9912 42.5395 69.9027 38.5643 66.6507 36C69.9027 33.4357 71.9912 29.4605 71.9912 25C71.9912 17.2717 65.7216 11 57.9934 11H49.9956H46.9956H43.9956H35.9978C28.2696 11 22 17.2717 22 25C22 29.4605 24.0885 33.4357 27.3405 36ZM57.9934 33C62.4068 33 65.9912 29.4157 65.9912 25C65.9912 20.5843 62.4068 17 57.9934 17H49.9956L49.9956 33H57.9934ZM43.9956 47V39H35.9978C31.5844 39 28 42.5843 28 47C28 51.4157 31.5844 55 35.9978 55C40.4112 55 43.9956 51.4157 43.9956 47ZM49.9956 47C49.9956 42.5843 53.58 39 57.9934 39C62.4068 39 65.9912 42.5843 65.9912 47C65.9912 51.4157 62.4068 55 57.9934 55C53.58 55 49.9956 51.4157 49.9956 47ZM35.9978 17H43.9956V33H35.9978C31.5844 33 28 29.4157 28 25C28 20.5843 31.5844 17 35.9978 17ZM28 69C28 64.5843 31.5844 61 35.9978 61H43.9956V77H35.9978C31.5844 77 28 73.4157 28 69Z" fill="#423D38"/>
</svg>
