<svg width="245" height="45" viewBox="0 0 245 45" fill="none" xmlns="http://www.w3.org/2000/svg">
<path d="M4 3V7" stroke="#8B8B8B"/>
<path d="M7 3V8" stroke="#8B8B8B"/>
<path d="M10 3V8" stroke="#8B8B8B"/>
<path d="M13 3V9" stroke="#8B8B8B"/>
<path d="M16 3V9" stroke="#8B8B8B"/>
<path d="M19 3V9" stroke="#8B8B8B"/>
<path d="M22 3V9" stroke="#8B8B8B"/>
<path d="M25 3V8" stroke="#8B8B8B"/>
<path d="M28 3V8" stroke="#8B8B8B"/>
<path d="M31 3V7" stroke="#8B8B8B"/>
<path d="M39 3V8" stroke="#8B8B8B"/>
<path d="M42 3V9" stroke="#8B8B8B"/>
<path d="M45 3V10" stroke="#8B8B8B"/>
<path d="M48 3V12" stroke="#8B8B8B"/>
<path d="M51 3V14" stroke="#8B8B8B"/>
<path d="M54 3V14" stroke="#8B8B8B"/>
<path d="M57 3V13" stroke="#8B8B8B"/>
<path d="M60 3V10" stroke="#8B8B8B"/>
<path d="M63 3V10" stroke="#8B8B8B"/>
<path d="M66 3V8" stroke="#8B8B8B"/>
<path d="M74 3V10" stroke="#8B8B8B"/>
<path d="M77 3V9" stroke="#8B8B8B"/>
<path d="M80 3V10" stroke="#8B8B8B"/>
<path d="M83 3V13" stroke="#8B8B8B"/>
<path d="M86 3V14" stroke="#8B8B8B"/>
<path d="M89 3V16" stroke="#8B8B8B"/>
<path d="M92 3V12" stroke="#8B8B8B"/>
<path d="M95 3V12" stroke="#8B8B8B"/>
<path d="M98 3V9" stroke="#8B8B8B"/>
<path d="M101 3V9" stroke="#8B8B8B"/>
<path d="M109 3V10" stroke="#8B8B8B"/>
<path d="M112 3V14" stroke="#8B8B8B"/>
<path d="M115 3V13" stroke="#8B8B8B"/>
<path d="M118 3V15" stroke="#8B8B8B"/>
<path d="M121 3V17" stroke="#8B8B8B"/>
<path d="M124 3V18" stroke="#8B8B8B"/>
<path d="M127 3V16" stroke="#8B8B8B"/>
<path d="M130 3V15" stroke="#8B8B8B"/>
<path d="M133 3V12" stroke="#8B8B8B"/>
<path d="M136 3V13" stroke="#8B8B8B"/>
<path d="M144 3V10" stroke="#8B8B8B"/>
<path d="M147 3V11" stroke="#8B8B8B"/>
<path d="M150 3V16" stroke="#8B8B8B"/>
<path d="M153 3V14" stroke="#8B8B8B"/>
<path d="M156 3V20" stroke="#8B8B8B"/>
<path d="M159 3V15" stroke="#8B8B8B"/>
<path d="M162 3V17" stroke="#8B8B8B"/>
<path d="M165 3V14" stroke="#8B8B8B"/>
<path d="M168 3V12" stroke="#8B8B8B"/>
<path d="M171 3V9" stroke="#8B8B8B"/>
<path d="M179 3V10" stroke="#8B8B8B"/>
<path d="M182 3V13" stroke="#8B8B8B"/>
<path d="M185 3V16" stroke="#8B8B8B"/>
<path d="M188 3V14" stroke="#8B8B8B"/>
<path d="M191 3V19" stroke="#8B8B8B"/>
<path d="M194 3V16" stroke="#8B8B8B"/>
<path d="M197 3V19" stroke="#8B8B8B"/>
<path d="M200 3V12" stroke="#8B8B8B"/>
<path d="M203 3V14" stroke="#8B8B8B"/>
<path d="M206 3V9" stroke="#8B8B8B"/>
<path d="M214 3V10" stroke="#8B8B8B"/>
<path d="M217 3V16" stroke="#8B8B8B"/>
<path d="M220 3V17" stroke="#8B8B8B"/>
<path d="M223 3V12" stroke="#8B8B8B"/>
<path d="M226 3V16" stroke="#8B8B8B"/>
<path d="M229 3V18" stroke="#8B8B8B"/>
<path d="M232 3V17" stroke="#8B8B8B"/>
<path d="M235 3V11" stroke="#8B8B8B"/>
<path d="M238 3V15" stroke="#8B8B8B"/>
<path d="M241 3V9" stroke="#8B8B8B"/>
</svg>
