<?xml version="1.0" encoding="UTF-8" standalone="no"?>
<!DOCTYPE svg PUBLIC "-//W3C//DTD SVG 1.1//EN" "http://www.w3.org/Graphics/SVG/1.1/DTD/svg11.dtd">
<svg width="100%" height="100%" viewBox="0 0 67 67" version="1.1" xmlns="http://www.w3.org/2000/svg" xmlns:xlink="http://www.w3.org/1999/xlink" xml:space="preserve" xmlns:serif="http://www.serif.com/" style="fill-rule:evenodd;clip-rule:evenodd;stroke-linejoin:round;stroke-miterlimit:2;">
    <path d="M0,0L66.458,0L66.458,66.458L0,66.458L0,0ZM33.229,9.266C19.989,9.266 9.266,19.989 9.266,33.229C9.266,43.833 16.125,52.789 25.651,55.964C26.849,56.174 27.298,55.455 27.298,54.826C27.298,54.257 27.268,52.37 27.268,50.363C21.247,51.471 19.69,48.895 19.211,47.547C18.941,46.858 17.773,44.732 16.754,44.162C15.916,43.713 14.717,42.605 16.724,42.575C18.611,42.545 19.959,44.312 20.409,45.031C22.565,48.656 26.01,47.637 27.388,47.008C27.598,45.451 28.227,44.402 28.916,43.803C23.584,43.204 18.012,41.137 18.012,31.971C18.012,29.365 18.941,27.208 20.469,25.531C20.229,24.932 19.39,22.476 20.708,19.181C20.708,19.181 22.715,18.552 27.298,21.637C29.215,21.098 31.252,20.828 33.289,20.828C35.326,20.828 37.363,21.098 39.28,21.637C43.863,18.522 45.87,19.181 45.87,19.181C47.188,22.476 46.349,24.932 46.11,25.531C47.637,27.208 48.566,29.335 48.566,31.971C48.566,41.167 42.964,43.204 37.632,43.803C38.501,44.552 39.25,45.99 39.25,48.236C39.25,51.441 39.22,54.017 39.22,54.826C39.22,55.455 39.669,56.204 40.868,55.964C50.597,52.68 57.19,43.498 57.193,33.229C57.193,19.989 46.469,9.266 33.229,9.266Z" style="fill:rgb(35,31,32);"/>
</svg>
