<svg width="24" height="24" viewBox="0 0 24 24" fill="none" xmlns="http://www.w3.org/2000/svg">
<g clip-path="url(#clip0_700_1868)">
<path fill-rule="evenodd" clip-rule="evenodd" d="M0 0H23.8059V23.8059H0V0ZM11.9029 3.31916C7.16024 3.31916 3.31916 7.16024 3.31916 11.9029C3.31916 15.7014 5.77612 18.9095 9.18842 20.0468C9.61755 20.122 9.77839 19.8645 9.77839 19.6392C9.77839 19.4353 9.76764 18.7594 9.76764 18.0405C7.61087 18.4374 7.05313 17.5146 6.88155 17.0318C6.78484 16.785 6.36645 16.0234 6.00143 15.8192C5.70125 15.6584 5.27176 15.2615 5.99069 15.2507C6.66663 15.24 7.14949 15.873 7.31069 16.1305C8.08298 17.429 9.31701 17.064 9.81063 16.8387C9.88585 16.281 10.1112 15.9052 10.358 15.6906C8.448 15.4761 6.45206 14.7356 6.45206 11.4523C6.45206 10.5188 6.78484 9.74615 7.33218 9.14543C7.24621 8.93087 6.94567 8.0511 7.41779 6.87081C7.41779 6.87081 8.13672 6.64549 9.77839 7.75057C10.4651 7.55749 11.1947 7.46078 11.9244 7.46078C12.6541 7.46078 13.3838 7.55749 14.0704 7.75057C15.7121 6.63475 16.431 6.87081 16.431 6.87081C16.9032 8.0511 16.6026 8.93087 16.517 9.14543C17.064 9.74615 17.3968 10.5081 17.3968 11.4523C17.3968 14.7464 15.3901 15.4761 13.4801 15.6906C13.7914 15.9589 14.0597 16.474 14.0597 17.2786C14.0597 18.4266 14.049 19.3494 14.049 19.6392C14.049 19.8645 14.2098 20.1328 14.6393 20.0468C18.1243 18.8704 20.486 15.5814 20.487 11.9029C20.487 7.16024 16.6456 3.31916 11.9029 3.31916Z" fill="#46423F"/>
</g>
<defs>
<clipPath id="clip0_700_1868">
<rect width="24" height="24" fill="white"/>
</clipPath>
</defs>
</svg>
