<svg width="206" height="77" viewBox="0 0 206 77" fill="none" xmlns="http://www.w3.org/2000/svg">
<g clip-path="url(#clip0_764_70)">
<path d="M15.5 23.2C15.1 23.2 15 23 15.2 22.7L17.3 20C17.5 19.7 18 19.5 18.4 19.5H54.1C54.5 19.5 54.6 19.8 54.4 20.1L52.7 22.7C52.5 23 52 23.3 51.7 23.3L15.5 23.2Z" fill="#00ACD7"/>
<path d="M0.4 32.4002C0 32.4002 -0.1 32.2002 0.1 31.9002L2.2 29.2002C2.4 28.9002 2.9 28.7002 3.3 28.7002H48.9C49.3 28.7002 49.5 29.0002 49.4 29.3002L48.6 31.7002C48.5 32.1002 48.1 32.3002 47.7 32.3002L0.4 32.4002Z" fill="#00ACD7"/>
<path d="M24.6 41.6004C24.2 41.6004 24.1 41.3004 24.3 41.0004L25.7 38.5004C25.9 38.2004 26.3 37.9004 26.7 37.9004H46.7C47.1 37.9004 47.3 38.2004 47.3 38.6004L47.1 41.0004C47.1 41.4004 46.7 41.7004 46.4 41.7004L24.6 41.6004Z" fill="#00ACD7"/>
<path d="M128.4 21.4001C122.1 23.0001 117.8 24.2001 111.6 25.8001C110.1 26.2001 110 26.3001 108.7 24.8001C107.2 23.1001 106.1 22.0001 104 21.0001C97.7 17.9001 91.6 18.8001 85.9 22.5001C79.1 26.9001 75.6 33.4001 75.7 41.5001C75.8 49.5001 81.3 56.1001 89.2 57.2001C96 58.1001 101.7 55.7001 106.2 50.6001C107.1 49.5001 107.9 48.3002 108.9 46.9002C105.3 46.9002 100.8 46.9002 89.6 46.9002C87.5 46.9002 87 45.6002 87.7 43.9002C89 40.8002 91.4 35.6001 92.8 33.0001C93.1 32.4001 93.8 31.4001 95.3 31.4001C100.4 31.4001 119.2 31.4001 131.7 31.4001C131.5 34.1001 131.5 36.8001 131.1 39.5001C130 46.7001 127.3 53.3001 122.9 59.1001C115.7 68.6001 106.3 74.5001 94.4 76.1001C84.6 77.4001 75.5 75.5001 67.5 69.5001C60.1 63.9001 55.9 56.5001 54.8 47.3001C53.5 36.4001 56.7 26.6001 63.3 18.0001C70.4 8.70015 79.8 2.80015 91.3 0.700147C100.7 -0.999853 109.7 0.100147 117.8 5.60015C123.1 9.10015 126.9 13.9001 129.4 19.7001C130 20.6001 129.6 21.1001 128.4 21.4001Z" fill="#00ACD7"/>
<path d="M161.5 76.6999C152.4 76.4999 144.1 73.8999 137.1 67.8999C131.2 62.7999 127.5 56.2999 126.3 48.5999C124.5 37.2999 127.6 27.2999 134.4 18.3999C141.7 8.79994 150.5 3.79994 162.4 1.69994C172.6 -0.100055 182.2 0.899945 190.9 6.79994C198.8 12.1999 203.7 19.4999 205 29.0999C206.7 42.5999 202.8 53.5999 193.5 62.9999C186.9 69.6999 178.8 73.8999 169.5 75.7999C166.8 76.2999 164.1 76.3999 161.5 76.6999ZM185.3 36.2999C185.2 34.9999 185.2 33.9999 185 32.9999C183.2 23.0999 174.1 17.4999 164.6 19.6999C155.3 21.7999 149.3 27.6999 147.1 37.0999C145.3 44.8999 149.1 52.7999 156.3 55.9999C161.8 58.3999 167.3 58.0999 172.6 55.3999C180.5 51.2999 184.8 44.8999 185.3 36.2999Z" fill="#00ACD7"/>
</g>
<defs>
<clipPath id="clip0_764_70">
<rect width="205.4" height="76.7" fill="white"/>
</clipPath>
</defs>
</svg>
