<svg width="112" height="130" viewBox="0 0 112 130" fill="none" xmlns="http://www.w3.org/2000/svg">
<path d="M81.0212 15.4495V112.56C81.0212 123.435 88.5249 129.481 96.4889 129.481C103.855 129.481 111.957 124.331 111.957 112.56V16.1851C111.957 6.23036 104.591 0 96.4889 0C88.3868 0 81.0212 6.87409 81.0212 15.4495Z" fill="#F8AB00"/>
<path d="M40.5107 64.7405V112.56C40.5107 123.435 48.0144 129.481 55.9785 129.481C63.344 129.481 71.4462 124.331 71.4462 112.56V65.4762C71.4462 55.5214 64.0806 49.291 55.9785 49.291C47.8763 49.291 40.5107 56.1651 40.5107 64.7405Z" fill="#E37300"/>
<path d="M30.9354 114.031C30.9354 122.561 24.0072 129.481 15.4677 129.481C6.92824 129.481 0 122.561 0 114.031C0 105.502 6.92824 98.582 15.4677 98.582C24.0072 98.582 30.9354 105.502 30.9354 114.031Z" fill="#E37300"/>
</svg>
