<svg width="71" height="25" viewBox="0 0 71 25" fill="none" xmlns="http://www.w3.org/2000/svg">
<path d="M34.5451 3.3382C34.1651 2.76813 32.1409 0 28.6609 0C17.4624 0 16.5139 16.4489 6.83384 15.6338L0 13.2739C0 19.9509 8.41479 25 18.5378 25C28.6613 25 34.0394 18.5663 34.6723 17.7517C35.3052 16.9372 35.7477 16.7743 36.3171 17.9151C36.8852 19.0536 41.4622 24.9994 52.6409 24.9994C66.4329 24.9994 70.5882 15.824 70.5882 11.6711L63.8388 15.7969C55.5508 15.7969 52.8929 0 42.7699 0C40.3662 0 36.9497 2.52369 36.3794 3.3382C35.8109 4.1527 34.9246 3.90826 34.5451 3.3382Z" fill="#46423F"/>
</svg>
