<svg width="79" height="34" viewBox="0 0 79 34" fill="none" xmlns="http://www.w3.org/2000/svg">
<path d="M31.9057 0.799996C35.7573 0.799996 37.9976 4.44821 38.4181 5.19952C38.8381 5.95083 39.819 6.27299 40.4482 5.19952C41.0794 4.12606 44.8606 0.799996 47.521 0.799996C58.7248 0.799996 61.6665 21.6193 70.8393 21.6193C75.4242 21.6193 76.1144 19.4032 76.1144 16.2894C76.1144 12.212 73.6406 10.3507 72.1007 10.3507C71.4176 10.3507 70.7701 10.2432 70.2091 11.2104C69.6482 12.1778 68.7393 12.0702 68.9496 10.3507C69.158 8.63431 70.4886 7.45308 72.31 7.45308C74.8081 7.45308 78.3093 10.7086 78.3093 16.1818C78.3093 21.655 73.7104 33.7476 58.4459 33.7476C46.0737 33.7476 41.008 25.9114 40.3793 24.4109C39.7491 22.9075 39.2593 23.1221 38.5588 24.1955C37.8584 25.2692 31.9061 33.7484 20.7018 33.7484C9.498 33.7484 0.184814 27.094 0.184814 18.2941C0.184814 9.49205 4.66656 7.45402 6.83755 7.45402C9.00768 7.45402 9.98857 9.59962 9.98857 11.103C9.98857 12.6051 9.02504 12.0957 8.51797 11.3176C8.30778 10.9954 7.95709 10.4579 6.97805 10.4579C5.99715 10.4579 3.40702 12.8196 3.40702 15.9311C3.40702 19.0426 5.02345 21.1302 7.74826 21.4043C18.4619 22.4785 19.512 0.799805 31.9061 0.799805L31.9057 0.799996Z" fill="#46423F"/>
</svg>
