<svg width="423" height="39" viewBox="0 0 423 39" fill="none" xmlns="http://www.w3.org/2000/svg">
<g clip-path="url(#clip0_664_2)">
<path d="M24.02 28.75C24.02 31.6467 23.1767 33.8467 21.49 35.35C19.8033 36.8533 17.3833 37.605 14.23 37.605C11.1133 37.605 8.69333 36.8533 6.97 35.35C5.28333 33.81 4.44 31.61 4.44 28.75V26.055H10.875V28.255C10.875 29.5017 11.1683 30.455 11.755 31.115C12.3417 31.7383 13.1667 32.05 14.23 32.05C16.43 32.05 17.53 30.785 17.53 28.255V2.35H24.02V28.75ZM53.057 37L50.967 30.18H38.152L36.062 37H29.792L40.957 2.35H48.492L59.657 37H53.057ZM44.422 8.125C44.3853 8.455 44.2753 9.15167 44.092 10.215C43.9087 11.2783 43.707 12.14 43.487 12.8L39.912 24.405H49.207L45.687 12.8C45.467 12.0667 45.247 11.1867 45.027 10.16C44.807 9.13333 44.6787 8.455 44.642 8.125H44.422ZM76.264 1.69C79.564 1.69 82.259 2.55167 84.349 4.275C86.4757 5.96167 87.539 8.51 87.539 11.92V12.525H80.939V12.085C80.939 10.6183 80.5173 9.445 79.674 8.565C78.8307 7.685 77.6757 7.245 76.209 7.245C74.669 7.245 73.4773 7.59333 72.634 8.29C71.7907 8.98667 71.369 9.885 71.369 10.985C71.369 11.9383 71.644 12.7267 72.194 13.35C72.7807 13.9367 73.4957 14.4133 74.339 14.78C75.1823 15.1467 76.374 15.5683 77.914 16.045C80.0773 16.705 81.8373 17.3833 83.194 18.08C84.5873 18.74 85.7607 19.7667 86.714 21.16C87.704 22.5167 88.199 24.3317 88.199 26.605C88.199 30.3817 87.099 33.1683 84.899 34.965C82.7357 36.725 79.7473 37.605 75.934 37.605C73.7707 37.605 71.7723 37.2017 69.939 36.395C68.1423 35.5517 66.694 34.3233 65.594 32.71C64.5307 31.0967 63.999 29.135 63.999 26.825V25.725H70.764L70.709 26.55C70.709 28.2 71.1857 29.5383 72.139 30.565C73.129 31.555 74.504 32.05 76.264 32.05C78.0607 32.05 79.3807 31.665 80.224 30.895C81.0673 30.0883 81.489 29.1167 81.489 27.98C81.489 26.8433 81.1773 25.9083 80.554 25.175C79.9673 24.4417 79.2157 23.8733 78.299 23.47C77.3823 23.03 76.1357 22.5533 74.559 22.04C72.469 21.3433 70.764 20.665 69.444 20.005C68.1607 19.3083 67.0423 18.2817 66.089 16.925C65.1723 15.5317 64.714 13.6983 64.714 11.425C64.714 9.335 65.2273 7.55667 66.254 6.09C67.3173 4.62333 68.7107 3.52333 70.434 2.79C72.194 2.05667 74.1373 1.69 76.264 1.69ZM108.985 1.69C113.568 1.69 117.107 3.19333 119.6 6.2C122.13 9.17 123.395 13.6617 123.395 19.675C123.395 25.6517 122.13 30.1433 119.6 33.15C117.107 36.12 113.568 37.605 108.985 37.605C104.402 37.605 100.845 36.12 98.3151 33.15C95.8218 30.1433 94.5751 25.6517 94.5751 19.675C94.5751 13.6983 95.8218 9.20667 98.3151 6.2C100.845 3.19333 104.402 1.69 108.985 1.69ZM108.985 7.245C106.455 7.245 104.53 8.235 103.21 10.215C101.927 12.1583 101.285 14.89 101.285 18.41V20.94C101.285 24.46 101.927 27.1917 103.21 29.135C104.53 31.0783 106.455 32.05 108.985 32.05C111.515 32.05 113.44 31.0783 114.76 29.135C116.08 27.1917 116.74 24.46 116.74 20.94V18.41C116.74 14.89 116.08 12.1583 114.76 10.215C113.44 8.235 111.515 7.245 108.985 7.245ZM149.075 37L138.295 17.915L136.755 14.615L136.535 14.78C136.535 15 136.554 15.4033 136.59 15.99C136.627 16.54 136.645 17.09 136.645 17.64V37H130.925V2.35H136.645L147.37 21.435C147.59 21.8017 147.884 22.37 148.25 23.14C148.617 23.8733 148.855 24.3683 148.965 24.625L149.075 24.515V21.6V2.35H154.795V37H149.075Z" fill="#46423F"/>
<path d="M282.905 37V14.945C282.905 13.8817 282.923 12.8 282.96 11.7C283.033 10.5633 283.088 9.775 283.125 9.335H282.905C282.832 9.555 282.758 9.95833 282.685 10.545L282.08 13.24L276.855 37H271.245L266.405 14.725C266.038 13.405 265.617 11.6083 265.14 9.335H264.975C265.012 9.775 265.048 10.5817 265.085 11.755C265.158 12.9283 265.195 13.9917 265.195 14.945V37H259.695V2.35H268.77L273.06 21.435C273.28 22.3883 273.537 23.8 273.83 25.67C274.16 27.5033 274.362 28.7133 274.435 29.3H274.655C274.728 28.6767 274.893 27.43 275.15 25.56C275.407 23.6533 275.627 22.2783 275.81 21.435L280.045 2.35H288.845V37H282.905ZM317.551 37L315.461 30.18H302.646L300.556 37H294.286L305.451 2.35H312.986L324.151 37H317.551ZM308.916 8.125C308.879 8.455 308.769 9.15167 308.586 10.215C308.403 11.2783 308.201 12.14 307.981 12.8L304.406 24.405H313.701L310.181 12.8C309.961 12.0667 309.741 11.1867 309.521 10.16C309.301 9.13333 309.173 8.455 309.136 8.125H308.916ZM340.758 1.69C344.058 1.69 346.753 2.55167 348.843 4.275C350.97 5.96167 352.033 8.51 352.033 11.92V12.525H345.433V12.085C345.433 10.6183 345.011 9.445 344.168 8.565C343.325 7.685 342.17 7.245 340.703 7.245C339.163 7.245 337.971 7.59333 337.128 8.29C336.285 8.98667 335.863 9.885 335.863 10.985C335.863 11.9383 336.138 12.7267 336.688 13.35C337.275 13.9367 337.99 14.4133 338.833 14.78C339.676 15.1467 340.868 15.5683 342.408 16.045C344.571 16.705 346.331 17.3833 347.688 18.08C349.081 18.74 350.255 19.7667 351.208 21.16C352.198 22.5167 352.693 24.3317 352.693 26.605C352.693 30.3817 351.593 33.1683 349.393 34.965C347.23 36.725 344.241 37.605 340.428 37.605C338.265 37.605 336.266 37.2017 334.433 36.395C332.636 35.5517 331.188 34.3233 330.088 32.71C329.025 31.0967 328.493 29.135 328.493 26.825V25.725H335.258L335.203 26.55C335.203 28.2 335.68 29.5383 336.633 30.565C337.623 31.555 338.998 32.05 340.758 32.05C342.555 32.05 343.875 31.665 344.718 30.895C345.561 30.0883 345.983 29.1167 345.983 27.98C345.983 26.8433 345.671 25.9083 345.048 25.175C344.461 24.4417 343.71 23.8733 342.793 23.47C341.876 23.03 340.63 22.5533 339.053 22.04C336.963 21.3433 335.258 20.665 333.938 20.005C332.655 19.3083 331.536 18.2817 330.583 16.925C329.666 15.5317 329.208 13.6983 329.208 11.425C329.208 9.335 329.721 7.55667 330.748 6.09C331.811 4.62333 333.205 3.52333 334.928 2.79C336.688 2.05667 338.631 1.69 340.758 1.69ZM373.479 1.69C378.063 1.69 381.601 3.19333 384.094 6.2C386.624 9.17 387.889 13.6617 387.889 19.675C387.889 25.6517 386.624 30.1433 384.094 33.15C381.601 36.12 378.063 37.605 373.479 37.605C368.896 37.605 365.339 36.12 362.809 33.15C360.316 30.1433 359.069 25.6517 359.069 19.675C359.069 13.6983 360.316 9.20667 362.809 6.2C365.339 3.19333 368.896 1.69 373.479 1.69ZM373.479 7.245C370.949 7.245 369.024 8.235 367.704 10.215C366.421 12.1583 365.779 14.89 365.779 18.41V20.94C365.779 24.46 366.421 27.1917 367.704 29.135C369.024 31.0783 370.949 32.05 373.479 32.05C376.009 32.05 377.934 31.0783 379.254 29.135C380.574 27.1917 381.234 24.46 381.234 20.94V18.41C381.234 14.89 380.574 12.1583 379.254 10.215C377.934 8.235 376.009 7.245 373.479 7.245ZM413.57 37L402.79 17.915L401.25 14.615L401.03 14.78C401.03 15 401.048 15.4033 401.085 15.99C401.121 16.54 401.14 17.09 401.14 17.64V37H395.42V2.35H401.14L411.865 21.435C412.085 21.8017 412.378 22.37 412.745 23.14C413.111 23.8733 413.35 24.3683 413.46 24.625L413.57 24.515V21.6V2.35H419.29V37H413.57Z" fill="#46423F"/>
<g clip-path="url(#clip1_664_2)">
<path d="M200.298 2.99971C204.22 2.99971 206.501 6.74804 206.929 7.51997C207.356 8.29189 208.355 8.62289 208.996 7.51997C209.639 6.41704 213.489 2.99971 216.197 2.99971C227.605 2.99971 230.6 24.3903 239.94 24.3903C244.608 24.3903 245.311 22.1134 245.311 18.9142C245.311 14.7249 242.792 12.8126 241.224 12.8126C240.529 12.8126 239.869 12.702 239.298 13.6958C238.727 14.6897 237.802 14.5792 238.016 12.8126C238.228 11.049 239.583 9.83537 241.437 9.83537C243.981 9.83537 247.546 13.1803 247.546 18.8036C247.546 24.427 242.863 36.8515 227.321 36.8515C214.724 36.8515 209.566 28.8002 208.926 27.2585C208.284 25.7139 207.785 25.9344 207.072 27.0373C206.359 28.1404 200.298 36.8523 188.89 36.8523C177.483 36.8523 168 30.0152 168 20.9739C168 11.9303 172.563 9.83634 174.774 9.83634C176.983 9.83634 177.982 12.0408 177.982 13.5855C177.982 15.1287 177.001 14.6054 176.485 13.8059C176.271 13.4749 175.914 12.9227 174.917 12.9227C173.918 12.9227 171.281 15.3492 171.281 18.5461C171.281 21.7429 172.927 23.8879 175.701 24.1694C186.61 25.2731 187.679 2.99951 200.298 2.99951L200.298 2.99971Z" fill="#46423F"/>
</g>
</g>
<defs>
<clipPath id="clip0_664_2">
<rect width="423" height="39" fill="white"/>
</clipPath>
<clipPath id="clip1_664_2">
<rect width="80" height="34" fill="white" transform="translate(168 3)"/>
</clipPath>
</defs>
</svg>
