<svg width="62" height="62" viewBox="0 0 62 62" fill="none" xmlns="http://www.w3.org/2000/svg">
<path d="M46.5567 20.9876V13.7065C47.519 13.2568 48.3336 12.543 48.906 11.6483C49.4783 10.7536 49.7848 9.71473 49.7897 8.65264V8.48557C49.7897 5.38887 47.2793 2.87848 44.1828 2.87848H44.0155C40.9188 2.87848 38.4084 5.38887 38.4084 8.48557V8.65264C38.4133 9.71473 38.7198 10.7536 39.2921 11.6483C39.8645 12.543 40.6792 13.2568 41.6414 13.7065V20.9876C38.8759 21.4111 36.2715 22.5578 34.0917 24.3116L14.1227 8.75776C14.265 8.24374 14.3393 7.71516 14.3477 7.18461C14.3501 5.93499 13.9819 4.71272 13.2896 3.6724C12.5973 2.63208 11.612 1.82046 10.4584 1.34019C9.30473 0.859917 8.03457 0.732577 6.80855 0.974277C5.58252 1.21598 4.45572 1.81586 3.57068 2.69804C2.68563 3.58022 2.0821 4.70506 1.83643 5.9303C1.59075 7.15553 1.71397 8.4261 2.1905 9.58129C2.66703 10.7365 3.47545 11.7244 4.51352 12.4201C5.55158 13.1158 6.77265 13.4879 8.02227 13.4896C9.11546 13.4844 10.1882 13.1925 11.1333 12.6431L30.7971 27.9446C27.1819 33.4058 27.2787 40.5234 31.0406 45.8847L25.06 51.8671C24.5763 51.7126 24.0729 51.6304 23.5653 51.6235C20.701 51.626 18.3807 53.9488 18.3814 56.8131C18.3821 59.6771 20.704 61.9987 23.568 61.9994C26.4322 62.0002 28.7551 59.6798 28.7575 56.8155C28.7508 56.3081 28.6686 55.8044 28.5137 55.3211L34.4303 49.4024C39.7168 53.4721 46.9775 53.8227 52.6317 50.2813C58.2857 46.7397 61.1391 40.0538 59.7843 33.5213C58.4296 26.9886 53.1529 21.989 46.5567 20.9876ZM44.1044 44.9348C43.0113 44.9643 41.9235 44.7744 40.905 44.3764C39.8866 43.9784 38.9582 43.3804 38.1747 42.6177C37.3912 41.855 36.7684 40.943 36.3432 39.9357C35.918 38.9283 35.6989 37.8459 35.6989 36.7525C35.6989 35.659 35.918 34.5767 36.3432 33.5693C36.7684 32.5619 37.3912 31.65 38.1747 30.8873C38.9582 30.1245 39.8866 29.5265 40.905 29.1286C41.9235 28.7306 43.0113 28.5407 44.1044 28.5701C48.5092 28.7243 52.001 32.3388 52.0034 36.7466C52.0054 41.1539 48.5173 44.772 44.1125 44.9307" fill="#FF7A59"/>
</svg>
