<svg width="67" height="67" viewBox="0 0 67 67" fill="none" xmlns="http://www.w3.org/2000/svg">
<path d="M9.29102 60.1953L3.92578 0H62.9434L57.5781 60.1953L33.3691 67" fill="#E34F26"/>
<path d="M33.5 61.7656L52.998 56.4004L57.5781 4.8418H33.5" fill="#EF652A"/>
<path d="M33.5 27.2188H23.6855L23.0312 19.6289H33.5V12.3008H33.3691H14.918L15.0488 14.2637L16.8809 34.6777H33.5V27.2188ZM33.5 46.4551H33.3691L25.125 44.2305L24.6016 38.3418H20.6758H17.2734L18.1895 49.9883L33.3691 54.1758H33.5V46.4551Z" fill="#EBEBEB"/>
<path d="M33.3691 27.2188V34.6777H42.5293L41.6133 44.2305L33.3691 46.4551V54.1758L48.5488 49.9883L48.6797 48.6797L50.3809 29.1816L50.6426 27.2188H48.5488H33.3691ZM33.3691 12.3008V16.8809V19.6289H51.2969L51.4277 18.0586L51.8203 14.2637L51.9512 12.3008H33.3691Z" fill="white"/>
</svg>
