<svg width="18" height="18" viewBox="0 0 18 18" fill="none" xmlns="http://www.w3.org/2000/svg">
<g clip-path="url(#clip0_617_16)">
<rect x="1" y="1" width="16" height="16" rx="2" fill="#3D3834"/>
<path d="M10.8543 10.7C10.8543 11.332 10.6703 11.812 10.3023 12.14C9.93433 12.468 9.40633 12.632 8.71833 12.632C8.03833 12.632 7.51033 12.468 7.13433 12.14C6.76633 11.804 6.58233 11.324 6.58233 10.7V10.112H7.98633V10.592C7.98633 10.864 8.05033 11.072 8.17833 11.216C8.30633 11.352 8.48633 11.42 8.71833 11.42C9.19833 11.42 9.43833 11.144 9.43833 10.592V4.94H10.8543V10.7Z" fill="white"/>
<rect x="1" y="1" width="16" height="16" rx="2" stroke="white" stroke-width="2"/>
</g>
<defs>
<clipPath id="clip0_617_16">
<rect width="18" height="18" fill="white"/>
</clipPath>
</defs>
</svg>
