<svg width="871" height="138" viewBox="0 0 871 138" fill="none" xmlns="http://www.w3.org/2000/svg">
<g clip-path="url(#clip0_902_414)">
<g clip-path="url(#clip1_902_414)">
<path d="M175.419 138.047C167.621 138.047 160.643 136.559 154.478 133.582C148.312 130.606 143.49 126.6 140.021 121.57C136.547 116.54 134.812 110.906 134.812 104.668C134.812 94.4634 138.958 86.4186 147.249 80.538C155.541 74.6574 166.63 70.5796 180.522 68.3133L205.183 64.4864V62.9982C205.183 58.6058 204.473 55.3105 203.057 53.1122C201.637 50.9138 198.805 49.8168 194.553 49.8168C191.577 49.8168 189.166 50.3823 187.325 51.5176C185.479 52.6529 183.779 54.2815 182.222 56.4075C180.802 57.968 178.961 58.7461 176.695 58.7461H146.718C145.297 58.7461 144.128 58.3209 143.21 57.4705C142.287 56.6201 141.896 55.4848 142.04 54.0689C142.181 51.5177 143.244 48.5072 145.229 45.0333C147.211 41.5593 150.294 38.1577 154.478 34.8283C158.657 31.4989 164.079 28.7351 170.742 26.5368C177.4 24.3385 185.411 23.2415 194.766 23.2415C204.261 23.2415 212.412 24.3045 219.215 26.4305C226.018 28.5565 231.614 31.533 236.011 35.3598C240.403 39.1867 243.665 43.8299 245.791 49.2853C247.917 54.7407 248.98 60.7999 248.98 67.4629V130.393C248.98 131.954 248.448 133.263 247.385 134.326C246.322 135.39 245.008 135.921 243.452 135.921H212.625C211.064 135.921 209.716 135.39 208.585 134.326C207.45 133.263 206.884 131.954 206.884 130.393V123.59C205.039 126.426 202.594 128.905 199.549 131.031C196.501 133.157 192.959 134.858 188.919 136.134C184.88 137.409 180.377 138.047 175.419 138.047ZM187.75 110.196C191.292 110.196 194.409 109.452 197.105 107.964C199.796 106.476 201.888 104.171 203.376 101.054C204.865 97.9374 205.609 94.0382 205.609 89.361V87.8728L190.301 90.8492C185.054 91.8399 181.372 93.2601 179.246 95.1012C177.12 96.9424 176.057 99.0684 176.057 101.479C176.057 103.18 176.55 104.668 177.545 105.944C178.536 107.22 179.918 108.249 181.691 109.027C183.46 109.805 185.479 110.196 187.75 110.196Z" fill="#1C1C1C"/>
<path d="M264.012 135.921C262.451 135.921 261.141 135.39 260.078 134.327C259.015 133.263 258.484 131.954 258.484 130.393V30.8952C258.484 29.3347 259.015 28.025 260.078 26.962C261.141 25.899 262.451 25.3675 264.012 25.3675H293.138C294.694 25.3675 296.008 25.899 297.071 26.962C298.134 28.025 298.666 29.3347 298.666 30.8952V37.9111C301.357 34.5094 305.256 31.2864 310.359 28.2376C315.461 25.1889 321.482 23.5264 328.43 23.2415C345.013 22.8163 356.209 28.7691 362.021 41.1001C365.279 35.9976 369.922 31.7456 375.947 28.3439C381.968 24.9423 388.384 23.2415 395.188 23.2415C402.556 23.2415 409.181 24.9083 415.066 28.2376C420.947 31.567 425.658 36.6695 429.204 43.545C432.746 50.4206 434.519 59.384 434.519 70.4393V130.393C434.519 131.954 433.988 133.263 432.925 134.327C431.862 135.39 430.548 135.921 428.991 135.921H397.951C396.391 135.921 395.081 135.39 394.018 134.327C392.955 133.263 392.424 131.954 392.424 130.393V71.7149C392.424 68.0284 391.854 65.0902 390.723 62.8919C389.588 60.6936 388.133 59.0651 386.365 58.002C384.591 56.939 382.499 56.4075 380.093 56.4075C377.822 56.4075 375.768 56.939 373.927 58.002C372.082 59.0651 370.632 60.6936 369.569 62.8919C368.506 65.0902 367.974 68.0284 367.974 71.7149V130.393C367.974 131.954 367.443 133.263 366.38 134.327C365.317 135.39 364.003 135.921 362.447 135.921H331.407C329.846 135.921 328.536 135.39 327.473 134.327C326.41 133.263 325.879 131.954 325.879 130.393V71.7149C325.879 68.0284 325.309 65.0902 324.178 62.8919C323.043 60.6936 321.589 59.0651 319.82 58.002C318.047 56.939 315.955 56.4075 313.548 56.4075C311.277 56.4075 309.224 56.9731 307.383 58.1084C305.537 59.2437 304.049 60.8722 302.918 62.9982C301.783 65.1243 301.217 68.0284 301.217 71.7149V130.393C301.217 131.954 300.686 133.263 299.623 134.327C298.559 135.39 297.246 135.921 295.689 135.921H264.012Z" fill="#1C1C1C"/>
<path d="M501.765 135.92C491.817 135.92 483.297 134.765 476.2 132.459C469.104 130.153 463.264 127.246 458.691 123.746C454.113 120.247 450.739 116.624 448.571 112.886C446.399 109.148 445.194 105.844 444.955 102.98C444.749 101.228 445.179 99.7572 446.237 98.5637C447.294 97.3703 448.482 96.7735 449.798 96.7735H481.613C481.757 96.7735 481.978 96.8117 482.275 96.8929C482.567 96.974 482.867 97.1698 483.172 97.4896C485.093 98.1246 486.917 99.1605 488.649 100.593C490.377 102.025 492.319 103.3 494.479 104.412C496.635 105.524 499.177 106.083 502.104 106.083C504.587 106.083 506.801 105.486 508.737 104.293C510.672 103.099 511.604 101.39 511.531 99.1605C511.468 97.2509 510.865 95.58 509.721 94.1479C508.577 92.7157 503.573 88.6721 500.018 87.3211C496.463 85.9653 490.785 84.4949 482.979 82.9052C475.761 81.3107 469.137 78.9667 463.111 75.8636C457.085 72.7605 452.27 68.5833 448.658 63.3319C445.05 58.0806 443.118 51.6357 442.868 43.9974C442.654 37.4714 444.423 31.1841 448.174 25.1403C451.925 19.0916 457.651 14.1172 465.347 10.2216C473.048 6.3213 482.598 4.37354 494.008 4.37354C502.639 4.37354 510.32 5.48585 517.046 7.71529C523.776 9.93996 529.497 12.728 534.214 16.0697C538.931 19.4115 542.559 22.992 545.098 26.8111C547.637 30.6303 549.03 34.0485 549.274 37.0752C549.481 38.8224 549.09 40.2976 548.103 41.491C547.119 42.6845 545.967 43.2813 544.651 43.2813H515.908C515.469 43.2813 514.994 43.2383 514.478 43.162C513.966 43.0808 513.556 42.8803 513.251 42.5652C511.191 42.0878 509.296 41.1712 507.567 39.8202C505.841 38.4644 504.009 37.1945 502.066 36.001C500.127 34.8075 497.694 34.2108 494.767 34.2108C492.283 34.2108 490.29 34.8457 488.795 36.1203C487.301 37.3902 486.588 39.0611 486.656 41.133C486.713 42.8803 487.279 44.4748 488.348 45.907C489.422 47.3392 491.805 48.6902 495.502 49.9648C499.204 51.2347 505.023 52.5905 512.969 54.0227C523.268 55.77 531.552 58.6773 537.829 62.7352C544.105 66.7931 551.302 74.1784 554.113 79.5873C556.923 84.9962 558.417 90.4098 558.594 95.8187C558.86 103.934 556.859 111.014 552.599 117.063C548.334 123.111 541.904 127.766 533.31 131.027C524.71 134.287 514.197 135.92 501.765 135.92Z" fill="#1C1C1C"/>
<path d="M572.423 138.025C571.047 138.025 569.892 137.563 568.955 136.637C568.018 135.712 567.549 134.572 567.549 133.214V46.6018C567.549 45.2434 568.018 44.1034 568.955 43.178C569.892 42.2527 571.047 41.79 572.423 41.79H600.163C601.535 41.79 602.723 42.2527 603.724 43.178C604.721 44.1034 605.224 45.2434 605.224 46.6018V133.214C605.224 134.572 604.721 135.712 603.724 136.637C602.723 137.563 601.535 138.025 600.163 138.025H572.423Z" fill="#1C1C1C"/>
<path d="M572.797 29.7606C571.422 29.7606 570.267 29.298 569.33 28.3726C568.393 27.4473 567.924 26.3073 567.924 24.9489V5.51673C567.924 4.15833 568.393 2.98871 569.33 2.00045C570.267 1.01218 571.422 0.519897 572.797 0.519897H599.788C601.16 0.519897 602.348 1.01218 603.349 2.00045C604.346 2.98871 604.849 4.15833 604.849 5.51673V24.9489C604.849 26.3073 604.346 27.4473 603.349 28.3726C602.348 29.298 601.16 29.7606 599.788 29.7606H572.797Z" fill="#1C1C1C"/>
<path d="M674.284 138.047C665.917 138.047 658.565 136.818 652.232 134.356C645.895 131.894 640.975 127.868 637.469 122.269C633.962 116.67 632.209 109.259 632.209 100.032V70.3208H617.631C616.276 70.3208 615.139 69.8595 614.217 68.9368C613.294 68.0141 612.833 66.8773 612.833 65.5228V46.8843C612.833 45.5298 613.294 44.393 614.217 43.4704C615.139 42.5477 616.276 42.0863 617.631 42.0863H632.209V11.8218C632.209 10.4673 632.671 9.33055 633.593 8.40785C634.516 7.48515 635.653 7.0238 637.007 7.0238H663.765C665.116 7.0238 666.257 7.48515 667.18 8.40785C668.102 9.33055 668.564 10.4673 668.564 11.8218V42.0863H691.816C693.166 42.0863 694.307 42.5477 695.23 43.4704C696.152 44.393 696.614 45.5298 696.614 46.8843V65.5228C696.614 66.8773 696.152 68.0141 695.23 68.9368C694.307 69.8595 693.166 70.3208 691.816 70.3208H668.564V96.8945C668.564 100.464 669.302 103.261 670.778 105.291C672.254 107.321 674.591 108.336 677.791 108.336H693.292C694.643 108.336 695.783 108.797 696.706 109.72C697.629 110.643 698.09 111.779 698.09 113.134V133.249C698.09 134.603 697.629 135.74 696.706 136.663C695.783 137.585 694.643 138.047 693.292 138.047H674.284Z" fill="#1C1C1C"/>
<path d="M759.255 138.026C741.868 138.026 728.065 133.54 717.842 124.569C707.62 115.598 702.366 101.862 702.091 83.3655V79.1929C702.508 67.6475 705.045 57.8797 709.706 49.8809C714.363 41.8822 720.901 35.7986 729.317 31.6261C737.729 27.4536 747.638 25.3673 759.046 25.3673C771.839 25.3673 782.446 27.9042 790.862 32.9822C799.273 38.0601 805.57 44.8029 809.742 53.2189C813.915 61.6349 816.001 71.0565 816.001 81.4878V87.3294C816.001 88.7188 815.442 89.9706 814.332 91.0847C813.218 92.1987 811.895 92.7536 810.368 92.7536H746.111V94.0054C746.111 97.3434 746.562 100.298 747.467 102.872C748.369 105.446 749.796 107.462 751.744 108.922C753.689 110.383 756.054 111.113 758.838 111.113C760.644 111.113 762.176 110.833 763.427 110.278C764.679 109.723 765.789 108.993 766.765 108.088C767.737 107.182 768.572 106.314 769.269 105.48C770.521 104.228 771.526 103.427 772.294 103.081C773.058 102.734 774.276 102.559 775.945 102.559H808.699C809.951 102.559 811.028 102.976 811.933 103.811C812.834 104.645 813.218 105.688 813.08 106.94C812.939 109.444 811.758 112.469 809.534 116.016C807.306 119.562 804.005 123.004 799.624 126.342C795.243 129.681 789.643 132.464 782.83 134.688C776.012 136.912 768.155 138.026 759.255 138.026ZM746.111 69.3875H771.981V68.9702C771.981 65.215 771.493 62.0146 770.521 59.3734C769.544 56.7322 768.084 54.7503 766.139 53.4276C764.191 52.1049 761.825 51.4456 759.046 51.4456C756.263 51.4456 753.897 52.1049 751.953 53.4276C750.004 54.7503 748.544 56.7322 747.572 59.3734C746.595 62.0146 746.111 65.215 746.111 68.9702V69.3875Z" fill="#1C1C1C"/>
<path d="M65.6515 146.039C56.9852 146.039 48.7522 144.979 40.9525 142.855C33.1528 140.734 26.1851 137.615 20.045 133.506C13.905 129.397 9.06931 124.33 5.52913 118.301C1.98896 112.277 0.147266 105.291 0.00427246 97.3437C0.00427246 96.1109 0.437666 95.0507 1.30429 94.159C2.17092 93.2714 3.25421 92.8234 4.55415 92.8234H41.3858C43.6954 92.8234 45.3939 93.3042 46.4772 94.2617C47.5605 95.2233 48.5356 96.7971 49.4022 98.9874C50.4118 101.728 51.6771 104.021 53.1937 105.871C54.7103 107.72 56.6254 109.055 58.935 109.877C61.2446 110.699 63.9181 111.11 66.9513 111.11C72.5844 111.11 76.9522 109.401 80.0591 105.973C83.1659 102.55 84.7172 97.1382 84.7172 89.7414L84.7172 41.0294C84.7172 38.4282 82.6113 36.3161 80.0115 36.312C63.7405 36.275 10.8588 36.1599 10.8588 36.1599C9.27288 36.1599 7.93399 35.6462 6.85071 34.6189C5.76742 33.5915 5.22578 32.3259 5.22578 30.8178L5.22578 5.33988C5.22578 3.83176 5.76742 2.56613 6.85071 1.5388C7.93399 0.511469 9.27288 -0.00219727 10.8588 -0.00219727L127.182 0.158073C128.772 0.158073 130.107 0.671739 131.19 1.69907C132.273 2.7264 132.815 3.99614 132.815 5.50015L132.815 91.1797C132.815 103.372 129.89 113.543 124.04 121.692C118.191 129.844 110.174 135.939 99.9915 139.978C89.8087 144.022 78.3606 146.039 65.6515 146.039Z" fill="#1C1C1C"/>
<path fill-rule="evenodd" clip-rule="evenodd" d="M870.103 104.84C870.103 98.73 865.153 93.78 859.043 93.78H836.913C830.813 93.78 825.853 98.73 825.853 104.84V126.97C825.853 133.07 830.813 138.03 836.913 138.03H859.043C865.153 138.03 870.103 133.07 870.103 126.97V104.84Z" fill="#299ECF"/>
</g>
</g>
<defs>
<clipPath id="clip0_902_414">
<rect width="871" height="138" fill="white"/>
</clipPath>
<clipPath id="clip1_902_414">
<rect width="871" height="147" fill="white"/>
</clipPath>
</defs>
</svg>
