<svg width="47" height="47" viewBox="0 0 47 47" fill="none" xmlns="http://www.w3.org/2000/svg">
<g clip-path="url(#clip0_766_189)">
<path d="M47 0H0V47H47V0Z" fill="#F7DF1E"/>
<path d="M31.5721 36.7188C32.5188 38.2645 33.7505 39.4007 35.9289 39.4007C37.7589 39.4007 38.9279 38.4861 38.9279 37.2223C38.9279 35.7079 37.7268 35.1715 35.7125 34.2904L34.6084 33.8167C31.4214 32.4589 29.3041 30.758 29.3041 27.1621C29.3041 23.8497 31.828 21.3281 35.7722 21.3281C38.5803 21.3281 40.5991 22.3054 42.0538 24.8643L38.6146 27.0726C37.8574 25.7148 37.0405 25.1799 35.7722 25.1799C34.4786 25.1799 33.6587 26.0005 33.6587 27.0726C33.6587 28.3975 34.4794 28.9339 36.3743 29.7546L37.4784 30.2275C41.2309 31.8367 43.3497 33.4772 43.3497 37.1656C43.3497 41.142 40.226 43.3204 36.0311 43.3204C31.9294 43.3204 29.2795 41.3658 27.9829 38.8039L31.5721 36.7188ZM15.9703 37.1015C16.6641 38.3324 17.2953 39.3731 18.8127 39.3731C20.2637 39.3731 21.1791 38.8054 21.1791 36.5979V21.5803H25.5956V36.6576C25.5956 41.2308 22.9144 43.3122 19.0007 43.3122C15.4645 43.3122 13.4166 41.4822 12.3752 39.278L15.9703 37.1015Z" fill="black"/>
</g>
<defs>
<clipPath id="clip0_766_189">
<rect width="47" height="47" fill="white"/>
</clipPath>
</defs>
</svg>
