<?xml version="1.0" encoding="UTF-8" standalone="no"?>
<!DOCTYPE svg PUBLIC "-//W3C//DTD SVG 1.1//EN" "http://www.w3.org/Graphics/SVG/1.1/DTD/svg11.dtd">
<svg width="100%" height="100%" viewBox="0 0 450 188" version="1.1" xmlns="http://www.w3.org/2000/svg" xmlns:xlink="http://www.w3.org/1999/xlink" xml:space="preserve" xmlns:serif="http://www.serif.com/" style="fill-rule:evenodd;clip-rule:evenodd;stroke-linejoin:round;stroke-miterlimit:2;">
    <g transform="matrix(1.85197,0,0,1.77132,-213.697,39.9217)">
        <path d="M239.493,82.221L236.633,73.375L219.1,73.375L216.241,82.221L207.662,82.221L222.938,37.278L233.247,37.278L248.523,82.221L239.493,82.221ZM227.679,44.769C227.628,45.197 227.478,46.1 227.227,47.479C226.976,48.859 226.7,49.976 226.399,50.832L221.508,65.885L234.225,65.885L229.409,50.832C229.108,49.881 228.807,48.74 228.506,47.408C228.205,46.076 228.03,45.197 227.98,44.769L227.679,44.769Z" style="fill:rgb(28,25,23);fill-rule:nonzero;stroke:rgb(35,31,32);stroke-width:1.1px;"/>
        <g transform="matrix(1,0,0,1,-0.539966,0)">
            <path d="M264.476,36.422C268.991,36.422 272.69,37.528 275.575,39.739C278.459,41.951 279.902,45.268 279.902,49.691L279.902,50.476L270.872,50.476L270.872,49.905C270.872,48.003 270.295,46.481 269.141,45.339C267.987,44.198 266.407,43.627 264.4,43.627C262.293,43.627 260.663,44.079 259.509,44.983C258.355,45.886 257.778,47.051 257.778,48.478C257.778,49.715 258.167,50.725 258.945,51.51C259.722,52.295 260.688,52.925 261.842,53.4C262.996,53.876 264.626,54.423 266.733,55.041C269.693,55.897 272.113,56.765 273.995,57.645C275.876,58.525 277.481,59.856 278.811,61.64C280.14,63.423 280.805,65.789 280.805,68.738C280.805,73.637 279.312,77.239 276.327,79.546C273.343,81.852 269.241,83.006 264.024,83.006C261.064,83.006 258.343,82.471 255.86,81.4C253.376,80.33 251.395,78.749 249.915,76.656C248.435,74.564 247.695,72.02 247.695,69.023L247.695,67.597L256.951,67.597L256.875,68.667C256.875,70.807 257.54,72.531 258.869,73.839C260.199,75.147 262.068,75.8 264.476,75.8C266.934,75.8 268.74,75.289 269.894,74.267C271.047,73.244 271.624,71.996 271.624,70.521C271.624,69.047 271.21,67.834 270.383,66.883C269.555,65.932 268.514,65.183 267.26,64.636C266.006,64.089 264.3,63.483 262.143,62.817C259.283,61.913 256.963,61.022 255.182,60.142C253.401,59.262 251.871,57.93 250.592,56.147C249.313,54.363 248.673,51.997 248.673,49.049C248.673,46.338 249.388,44.031 250.818,42.129C252.248,40.227 254.154,38.8 256.537,37.849C258.92,36.898 261.566,36.422 264.476,36.422Z" style="fill:rgb(28,25,23);fill-rule:nonzero;stroke:rgb(35,31,32);stroke-width:1.1px;"/>
        </g>
        <g transform="matrix(1,0,0,1,-0.539966,0)">
            <path d="M302.477,36.422C308.747,36.422 313.601,38.36 317.037,42.236C320.474,46.112 322.192,51.95 322.192,59.749C322.192,67.501 320.474,73.316 317.037,77.192C313.601,81.068 308.747,83.006 302.477,83.006C296.206,83.006 291.352,81.068 287.916,77.192C284.479,73.316 282.761,67.501 282.761,59.749C282.761,51.997 284.479,46.172 287.916,42.272C291.352,38.372 296.206,36.422 302.477,36.422ZM302.477,43.627C299.015,43.627 296.394,44.899 294.613,47.444C292.832,49.988 291.942,53.543 291.942,58.109L291.942,61.39C291.942,65.956 292.832,69.499 294.613,72.02C296.394,74.54 299.015,75.8 302.477,75.8C305.938,75.8 308.572,74.54 310.378,72.02C312.184,69.499 313.087,65.956 313.087,61.39L313.087,58.109C313.087,53.543 312.184,49.988 310.378,47.444C308.572,44.899 305.938,43.627 302.477,43.627Z" style="fill:rgb(28,25,23);fill-rule:nonzero;stroke:rgb(35,31,32);stroke-width:1.1px;"/>
        </g>
        <g transform="matrix(1,0,0,1,-1.07993,0)">
            <path d="M350.561,82.221L335.812,57.467L333.705,53.186L333.404,53.4C333.404,53.686 333.429,54.197 333.48,54.934C333.53,55.671 333.555,56.397 333.555,57.11L333.555,82.221L325.729,82.221L325.729,37.278L333.555,37.278L348.228,62.032C348.529,62.508 348.931,63.233 349.432,64.208C349.934,65.183 350.26,65.837 350.411,66.17L350.561,66.027L350.561,37.278L358.387,37.278L358.387,82.221L350.561,82.221Z" style="fill:rgb(28,25,23);fill-rule:nonzero;stroke:rgb(35,31,32);stroke-width:1.1px;"/>
        </g>
    </g>
    <g transform="matrix(4.16667,0,0,1.77132,-795.379,-52.099)">
        <g transform="matrix(1.41906,0,0,1.15966,-91.8843,-13.253)">
            <path d="M219.837,71.52C219.837,75.277 219.324,78.131 218.298,80.081C217.272,82.031 215.801,83.006 213.883,83.006C211.988,83.006 210.522,82.019 209.485,80.045C208.448,78.071 207.93,75.23 207.93,71.52L207.93,66.037L211.843,66.037L211.843,68.891C211.843,70.508 212.021,71.733 212.378,72.565C212.735,73.397 213.237,73.813 213.883,73.813C215.221,73.813 215.89,72.172 215.89,68.891L215.89,37.278L219.837,37.278L219.837,71.52Z" style="fill:rgb(28,25,23);fill-rule:nonzero;stroke:rgb(35,31,32);stroke-width:0.45px;"/>
        </g>
        <path d="M234.486,82.221L233.215,73.375L225.422,73.375L224.151,82.221L220.338,82.221L227.128,37.278L231.71,37.278L238.5,82.221L234.486,82.221ZM229.235,44.769C229.213,45.197 229.146,46.1 229.034,47.479C228.923,48.859 228.8,49.976 228.666,50.832L226.492,65.885L232.145,65.885L230.004,50.832C229.871,49.881 229.737,48.74 229.603,47.408C229.469,46.076 229.391,45.197 229.369,44.769L229.235,44.769Z" style="fill:rgb(28,25,23);fill-rule:nonzero;stroke:rgb(35,31,32);stroke-width:0.62px;"/>
        <path d="M245.59,36.422C247.597,36.422 249.242,37.528 250.524,39.739C251.806,41.951 252.447,45.268 252.447,49.691L252.447,50.476L248.433,50.476L248.433,49.905C248.433,48.003 248.177,46.481 247.664,45.339C247.151,44.198 246.449,43.627 245.557,43.627C244.62,43.627 243.896,44.079 243.383,44.983C242.87,45.886 242.614,47.051 242.614,48.478C242.614,49.715 242.786,50.725 243.132,51.51C243.478,52.295 243.907,52.925 244.42,53.4C244.933,53.876 245.657,54.423 246.594,55.041C247.909,55.897 248.985,56.765 249.821,57.645C250.657,58.525 251.371,59.856 251.962,61.64C252.553,63.423 252.848,65.789 252.848,68.738C252.848,73.637 252.185,77.239 250.858,79.546C249.531,81.852 247.709,83.006 245.39,83.006C244.074,83.006 242.864,82.471 241.761,81.4C240.657,80.33 239.776,78.749 239.118,76.656C238.461,74.564 238.132,72.02 238.132,69.023L238.132,67.597L242.246,67.597L242.212,68.667C242.212,70.807 242.508,72.531 243.099,73.839C243.689,75.147 244.52,75.8 245.59,75.8C246.683,75.8 247.486,75.289 247.998,74.267C248.511,73.244 248.768,71.996 248.768,70.521C248.768,69.047 248.584,67.834 248.216,66.883C247.848,65.932 247.385,65.183 246.828,64.636C246.27,64.089 245.512,63.483 244.553,62.817C243.283,61.913 242.251,61.022 241.46,60.142C240.668,59.262 239.988,57.93 239.419,56.147C238.851,54.363 238.567,51.997 238.567,49.049C238.567,46.338 238.884,44.031 239.52,42.129C240.155,40.227 241.003,38.8 242.062,37.849C243.121,36.898 244.297,36.422 245.59,36.422Z" style="fill:rgb(28,25,23);fill-rule:nonzero;stroke:rgb(35,31,32);stroke-width:0.62px;"/>
        <path d="M262.481,36.422C265.268,36.422 267.425,38.36 268.953,42.236C270.48,46.112 271.244,51.95 271.244,59.749C271.244,67.501 270.48,73.316 268.953,77.192C267.425,81.068 265.268,83.006 262.481,83.006C259.694,83.006 257.536,81.068 256.009,77.192C254.481,73.316 253.718,67.501 253.718,59.749C253.718,51.997 254.481,46.172 256.009,42.272C257.536,38.372 259.694,36.422 262.481,36.422ZM262.481,43.627C260.942,43.627 259.777,44.899 258.986,47.444C258.194,49.988 257.798,53.543 257.798,58.109L257.798,61.39C257.798,65.956 258.194,69.499 258.986,72.02C259.777,74.54 260.942,75.8 262.481,75.8C264.019,75.8 265.19,74.54 265.993,72.02C266.795,69.499 267.197,65.956 267.197,61.39L267.197,58.109C267.197,53.543 266.795,49.988 265.993,47.444C265.19,44.899 264.019,43.627 262.481,43.627Z" style="fill:rgb(28,25,23);fill-rule:nonzero;stroke:rgb(35,31,32);stroke-width:0.62px;"/>
        <g transform="matrix(1,0,0,1,-0.24,0)">
            <path d="M283.853,82.221L277.298,57.467L276.361,53.186L276.227,53.4C276.227,53.686 276.238,54.197 276.261,54.934C276.283,55.671 276.294,56.397 276.294,57.11L276.294,82.221L272.816,82.221L272.816,37.278L276.294,37.278L282.816,62.032C282.95,62.508 283.128,63.233 283.351,64.208C283.574,65.183 283.719,65.837 283.786,66.17L283.853,66.027L283.853,37.278L287.331,37.278L287.331,82.221L283.853,82.221Z" style="fill:rgb(28,25,23);fill-rule:nonzero;stroke:rgb(35,31,32);stroke-width:0.62px;"/>
        </g>
    </g>
    <g transform="matrix(0.277779,0,0,0.482448,-9.72256,-23.7228)">
        <path d="M290.8,263.32C321.859,263.32 339.925,282.515 343.316,286.468C346.703,290.421 354.613,292.116 359.687,286.468C364.777,280.82 395.269,263.32 416.722,263.32C507.07,263.32 530.792,372.86 604.762,372.86C641.735,372.86 647.301,361.2 647.301,344.817C647.301,323.364 627.352,313.571 614.934,313.571C609.426,313.571 604.204,313.005 599.68,318.094C595.157,323.184 587.828,322.618 589.524,313.571C591.204,304.54 601.934,298.325 616.622,298.325C636.767,298.325 665.001,315.454 665.001,344.251C665.001,373.048 627.915,436.673 504.821,436.673C405.051,436.673 364.201,395.443 359.131,387.548C354.049,379.638 350.1,380.767 344.451,386.415C338.803,392.064 290.803,436.677 200.451,436.677C110.103,436.677 35.001,401.665 35.001,355.365C35.001,309.053 71.142,298.33 88.649,298.33C106.149,298.33 114.059,309.619 114.059,317.529C114.059,325.432 106.289,322.752 102.2,318.658C100.505,316.963 97.677,314.135 89.782,314.135C81.872,314.135 60.985,326.561 60.985,342.932C60.985,359.303 74.02,370.287 95.993,371.729C182.388,377.381 190.856,263.319 290.803,263.319L290.8,263.32Z" style="fill:rgb(28,25,23);fill-rule:nonzero;"/>
    </g>
</svg>
