<?xml version="1.0" encoding="UTF-8" standalone="no"?>
<!-- Created with Inkscape (http://www.inkscape.org/) -->

<svg
   width="697"
   height="323"
   viewBox="0 0 260.12044 120.54362"
   version="1.1"
   id="svg5"
   xml:space="preserve"
   inkscape:version="1.2.2 (b0a8486541, 2022-12-01)"
   sodipodi:docname="logo-inkdrop.svg"
   xmlns:inkscape="http://www.inkscape.org/namespaces/inkscape"
   xmlns:sodipodi="http://sodipodi.sourceforge.net/DTD/sodipodi-0.dtd"
   xmlns:xlink="http://www.w3.org/1999/xlink"
   xmlns="http://www.w3.org/2000/svg"
   xmlns:svg="http://www.w3.org/2000/svg"><sodipodi:namedview
     id="namedview7"
     pagecolor="#ffffff"
     bordercolor="#000000"
     borderopacity="0.25"
     inkscape:showpageshadow="2"
     inkscape:pageopacity="0.0"
     inkscape:pagecheckerboard="0"
     inkscape:deskcolor="#d1d1d1"
     inkscape:document-units="mm"
     showgrid="false"
     inkscape:zoom="0.54269078"
     inkscape:cx="400.78071"
     inkscape:cy="687.31589"
     inkscape:window-width="1920"
     inkscape:window-height="1080"
     inkscape:window-x="0"
     inkscape:window-y="0"
     inkscape:window-maximized="1"
     inkscape:current-layer="layer1" /><defs
     id="defs2"><pattern
       inkscape:collect="always"
       xlink:href="#pattern4175"
       id="pattern4663"
       patternTransform="matrix(0.16507538,-0.1485796,0.01954827,0.02171861,81.811679,154.36244)" /><pattern
       patternUnits="userSpaceOnUse"
       width="74.458175"
       height="377.60015"
       patternTransform="translate(-75.024363,0.17632319)"
       id="pattern3589"><rect
         style="fill:#ffffff;fill-opacity:1;stroke:#b8b8b8;stroke-width:0;stroke-dasharray:none"
         id="rect788"
         width="74.458176"
         height="376.8204"
         x="1.339764e-06"
         y="0.3898651" /><rect
         style="fill:#cccccc;fill-opacity:1;stroke:#b8b8b8;stroke-width:0;stroke-dasharray:none"
         id="rect788-3"
         width="7.2064056"
         height="377.60013"
         x="33.625885"
         y="1.339764e-06" /></pattern><pattern
       patternUnits="userSpaceOnUse"
       width="75.590553"
       height="377.95275"
       patternTransform="translate(-75.590547)"
       id="pattern3628"><rect
         style="fill:#ffffff;fill-opacity:1;stroke:#b8b8b8;stroke-width:0;stroke-dasharray:none"
         id="rect3624"
         width="75.590553"
         height="377.95276"
         x="1.339764e-06"
         y="1.339764e-06" /><rect
         style="fill:#cccccc;fill-opacity:1;stroke:#b8b8b8;stroke-width:0;stroke-dasharray:none"
         id="rect3626"
         width="15.118107"
         height="377.95276"
         x="30.236216"
         y="1.607547e-06" /></pattern><pattern
       patternUnits="userSpaceOnUse"
       width="75.590558"
       height="377.95276"
       patternTransform="translate(-75.590546)"
       id="pattern4175"><rect
         style="fill:none;stroke:none"
         width="74.458176"
         height="377.60016"
         x="0.56618536"
         y="0.17632319"
         id="rect3593" /><rect
         style="fill:none;stroke:none"
         width="75.590553"
         height="377.95276"
         x="3.7345103e-07"
         y="3.8791057e-08"
         id="rect3632" /><rect
         style="fill:none;fill-opacity:1;stroke:#b8b8b8;stroke-width:0;stroke-dasharray:none"
         id="rect4171"
         width="75.590553"
         height="377.95276"
         x="1.339764e-06"
         y="1.339764e-06" /><rect
         style="fill:#cccccc;fill-opacity:1;stroke:#b8b8b8;stroke-width:0;stroke-dasharray:none"
         id="rect4173"
         width="15.118107"
         height="377.95276"
         x="30.236216"
         y="1.607547e-06" /></pattern></defs><g
     inkscape:label="Layer 1"
     inkscape:groupmode="layer"
     id="layer1"><rect
       style="stroke:none;fill:url(#pattern4175)"
       transform="scale(0.37320006)"
       width="75.590558"
       height="377.95276"
       x="-75.590546"
       y="-3.3825788e-15"
       id="rect4181" /><path
       id="rect3565"
       style="fill:url(#pattern4663);stroke:#b8b8b8;stroke-width:0"
       d="M 76.860069,65.305687 H 246.19215 V 94.954489 H 76.860069 Z" /><g
       style="fill:none"
       id="g3622"
       transform="matrix(2.8792328,0,0,2.8792328,-39.47336,-52.723621)"><path
         d="m 20.4573,45.5113 -7e-4,7e-4 c -1.892,2.0864 -3.3212,3.9896 -4.2813,5.7089 -0.9592,1.7177 -1.4585,3.2668 -1.4701,4.6406 -0.0099,1.1629 0.2547,2.0626 0.8542,2.633 0.5654,0.5697 1.478,0.825 2.6678,0.8284 1.3075,0.0037 2.7512,-0.5827 4.3231,-1.7099 1.5746,-1.129 3.2999,-2.8163 5.1761,-5.0529 l 2e-4,-3e-4 c 3.6867,-4.4085 6.7411,-9.3869 9.1637,-14.9337 2.3842,-5.4046 3.6039,-9.8378 3.6332,-13.288 C 40.5267,23.9639 40.513,23.5736 40.4826,23.1673 40.4522,22.76 40.4033,22.4249 40.3323,22.1688 L 40.3296,22.1591 40.3262,22.1496 C 40.2558,21.9575 40.1114,21.7893 39.927,21.6402 39.7408,21.4897 39.498,21.346 39.2055,21.2069 38.6363,20.9363 38.1613,20.7801 37.8023,20.779 c -0.1756,-5e-4 -0.3532,0.032 -0.4914,0.1385 -0.1501,0.1155 -0.2108,0.2837 -0.2123,0.4581 l -8e-4,0.1 -10e-5,0.0092 6e-4,0.0091 0.132,2.0412 c -0.023,2.528 -0.6925,5.8116 -2.022,9.8591 l -2e-4,6e-4 c -0.648,1.991 -1.3786,3.9318 -2.1916,5.8223 l -6e-4,0.0014 c -0.814,1.9253 -1.6942,3.8171 -2.6406,5.6755 -0.9446,1.8223 -1.9541,3.5274 -3.0284,5.1155 -1.0745,1.5884 -2.1969,3.0429 -3.3669,4.364 -2.383,2.6526 -4.4127,3.9032 -6.0967,3.8985 -0.5582,-0.0016 -0.9369,-0.1804 -1.1841,-0.5053 -0.2567,-0.3375 -0.4028,-0.8728 -0.3962,-1.6478 0.0084,-0.9876 0.3519,-2.1495 1.0553,-3.4924 0.7025,-1.3412 1.7566,-2.8489 3.168,-4.5239 2.8228,-3.3501 7.0563,-7.3478 12.7075,-11.9941 l 0.0088,-0.0073 0.0082,-0.008 c 0.2675,-0.2645 0.4638,-0.4895 0.5521,-0.6629 0.0353,-0.0693 0.0642,-0.1303 0.085,-0.1811 0.0103,-0.0253 0.0201,-0.0515 0.0276,-0.0771 0.0064,-0.0217 0.0164,-0.0596 0.0167,-0.1028 6e-4,-0.0718 -0.0166,-0.1721 -0.0966,-0.253 -0.0799,-0.0808 -0.1801,-0.0992 -0.2518,-0.0994 l -0.0589,-2e-4 -0.0527,0.0261 -0.4017,0.1989 -0.0105,0.0052 -0.0099,0.0061 c -2.3228,1.4333 -4.5298,3.0343 -6.6209,4.8031 -2.09,1.7677 -4.0807,3.6862 -5.9719,5.7552 z"
         fill="#46423f"
         stroke="#46423f"
         stroke-width="0.5"
         id="path3601" /><path
         d="m 77.9595,37.3195 h -0.15 c -0.3438,0.66 -0.7966,1.16 -1.3585,1.4999 -0.5419,0.34 -1.1529,0.51 -1.8329,0.51 -1.42,0 -2.5265,-0.62 -3.3195,-1.8599 -0.7728,-1.26 -1.152,-3.17 -1.1376,-5.7299 0.0143,-2.52 0.425,-4.41 1.2321,-5.67 0.8272,-1.2799 1.8808,-1.9199 3.1608,-1.9199 0.7,0 1.3191,0.16 1.8573,0.48 0.5583,0.3 0.966,0.71 1.2231,1.23 h 0.15 l 0.0385,-6.8099 h 2.25 L 79.96,38.9994 H 78.25 Z M 75.1724,26.1896 c -0.88,0 -1.5423,0.4 -1.9868,1.2 -0.4244,0.78 -0.6416,2.06 -0.6517,3.84 l -0.0058,1.02 c -0.01,1.7799 0.1927,3.0699 0.6082,3.8699 0.4354,0.8 1.0932,1.2 1.9732,1.2 1.74,0 2.6195,-1.69 2.6386,-5.0699 l 0.0053,-0.93 c 0.0193,-3.42 -0.841,-5.13 -2.581,-5.13 z m 12.0699,-2.0399 c 1.64,0 2.8469,0.54 3.6208,1.62 0.7739,1.0799 1.1541,2.8199 1.1405,5.2199 l -0.0081,1.4399 h -7.86 c 0.0105,1.68 0.2635,2.92 0.759,3.72 0.5155,0.78 1.3133,1.17 2.3933,1.17 0.72,0 1.3017,-0.29 1.745,-0.87 0.4633,-0.6 0.6978,-1.39 0.7034,-2.37 h 2.25 c -0.0091,1.6 -0.4563,2.88 -1.3418,3.84 -0.8653,0.9399 -2.0079,1.4099 -3.4279,1.4099 -1.86,0 -3.2466,-0.6 -4.1598,-1.7999 -0.8933,-1.2 -1.3324,-3.12 -1.3175,-5.7599 0.0147,-2.6 0.4756,-4.52 1.3826,-5.76 0.907,-1.2399 2.2805,-1.8599 4.1205,-1.8599 z m -0.0115,2.0399 c -0.98,0 -1.712,0.35 -2.196,1.05 -0.4638,0.68 -0.7498,1.73 -0.8578,3.15 h 5.46 c 0.0158,-2.8 -0.7862,-4.2 -2.4062,-4.2 z m 9.2859,12.8098 -4.0879,-14.5197 h 2.49 l 1.9379,7.4399 c 0.1375,0.4399 0.3332,1.1999 0.5871,2.2799 l 0.3524,1.35 h 0.12 c 0.1227,-0.48 0.3883,-1.46 0.7966,-2.94 l 0.1836,-0.6299 2.0226,-7.4999 h 2.28 l -4.2223,14.5197 z"
         fill="#46423f"
         id="path3603" /><path
         d="m 77.9595,37.3195 0.1971,-0.0352 -0.0285,-0.1648 h -0.1675 z m -0.15,0 0.0011,-0.2 h -0.1219 l -0.0565,0.1084 z m -1.3585,1.4999 -0.1028,-0.1709 -0.0028,0.0017 z m -5.1524,-1.3499 -0.1706,0.1053 0.002,0.0031 z m 0.0945,-11.3999 -0.1678,-0.1078 -5e-4,6e-4 z m 5.0181,-1.4399 -0.103,0.1722 0.0076,0.0041 z m 1.2231,1.23 -0.1794,0.0894 0.0546,0.1105 h 0.1236 z m 0.15,0 -0.0012,0.1999 h 0.2 l 0.0012,-0.1999 z m 0.0385,-6.8099 0.0011,-0.2 h -0.2 l -0.0011,0.2 z m 2.25,0 h 0.2 l 0.0011,-0.2 h -0.2 z m -0.1128,19.9496 -0.0012,0.2 h 0.2 l 0.0012,-0.2 z m -1.71,0 -0.1971,0.0352 0.0285,0.1648 h 0.1674 z m -5.0644,-11.6098 -0.1747,-0.0964 -8e-4,0.0016 z m -0.0493,8.7299 -0.1777,0.093 0.0019,0.0034 z m 4.8243,1 h -0.15 l -0.0023,0.4 h 0.15 z m -0.3284,0.1084 c -0.329,0.6317 -0.7578,1.1022 -1.284,1.4206 l 0.2056,0.3419 c 0.5976,-0.3616 1.0745,-0.8911 1.433,-1.5793 z m -1.2868,1.4223 c -0.5078,0.3186 -1.0813,0.4792 -1.7262,0.4792 l -0.0022,0.4 c 0.7151,0 1.3635,-0.1793 1.9396,-0.5407 z m -1.7262,0.4792 c -1.3489,0 -2.3937,-0.5828 -3.1519,-1.7684 L 71.13,37.5779 c 0.8277,1.2944 1.9959,1.9515 3.487,1.9515 z m -3.1499,-1.7652 c -0.744,-1.2129 -1.1227,-3.0781 -1.1083,-5.6246 h -0.4 c -0.0145,2.5733 0.3652,4.5281 1.167,5.8351 z M 70.361,31.7396 c 0.0142,-2.5053 0.4235,-4.35 1.2003,-5.5628 l -0.3365,-0.2144 c -0.8373,1.3073 -1.2494,3.2425 -1.2638,5.7772 z m 1.1999,-5.5621 c 0.7982,-1.2351 1.7937,-1.8278 2.9919,-1.8278 l 0.0023,-0.4 c -1.3618,0 -2.4736,0.6872 -3.3298,2.0121 z m 2.9919,-1.8278 c 0.6684,0 1.2515,0.1524 1.7555,0.452 l 0.2059,-0.3441 c -0.5724,-0.3403 -1.2275,-0.5079 -1.9591,-0.5079 z m 1.763,0.4563 c 0.5255,0.2823 0.902,0.6635 1.1391,1.1431 l 0.3588,-0.1789 c -0.2771,-0.5604 -0.7159,-0.9992 -1.307,-1.3168 z m 1.3173,1.2536 h 0.15 l 0.0023,-0.3999 h -0.15 z m 0.3512,-0.1999 0.0385,-6.8099 h -0.4 l -0.0385,6.8099 z m -0.1627,-6.6099 h 2.25 l 0.0023,-0.4 h -2.25 z m 2.0512,-0.2 -0.1128,19.9496 h 0.4 l 0.1128,-19.9496 z m 0.0883,19.7496 h -1.71 l -0.0023,0.4 h 1.71 z m -1.514,0.1649 -0.2905,-1.68 -0.3942,0.0703 0.2905,1.68 z M 75.1735,25.9896 c -0.4713,0 -0.8938,0.1075 -1.2605,0.329 -0.3663,0.2213 -0.6659,0.5496 -0.9021,0.9746 l 0.3494,0.1928 c 0.2083,-0.3749 0.4622,-0.6466 0.7581,-0.8253 0.2956,-0.1785 0.6442,-0.2711 1.0529,-0.2711 z m -2.1634,1.3052 c -0.4495,0.8261 -0.6661,2.1487 -0.6762,3.9348 h 0.4 c 0.01,-1.774 0.228,-3.0113 0.6273,-3.7452 z m -0.6762,3.9348 -0.0058,1.02 h 0.4 l 0.0058,-1.02 z m -0.0058,1.02 c -0.0101,1.7867 0.1917,3.1179 0.6306,3.9629 l 0.3552,-0.186 c -0.3921,-0.755 -0.5958,-2.0037 -0.5858,-3.7769 z m 0.6324,3.9663 c 0.2314,0.425 0.5272,0.7534 0.891,0.9746 0.3642,0.2215 0.7855,0.329 1.2568,0.329 l 0.0023,-0.4 c -0.4087,0 -0.7563,-0.0926 -1.0498,-0.2711 -0.2939,-0.1787 -0.5447,-0.4504 -0.7487,-0.8253 z m 2.1478,1.3036 c 0.4689,0 0.8889,-0.1144 1.2526,-0.349 0.3628,-0.234 0.6581,-0.5803 0.8905,-1.027 0.462,-0.8875 0.6871,-2.1933 0.6967,-3.8939 h -0.4 c -0.0095,1.6793 -0.2336,2.9084 -0.6513,3.7109 -0.2073,0.3983 -0.4593,0.6858 -0.7514,0.8742 -0.2912,0.1879 -0.6336,0.2848 -1.0348,0.2848 z m 2.8398,-5.2699 0.0053,-0.93 h -0.4 l -0.0053,0.93 z m 0.0053,-0.93 c 0.0097,-1.7205 -0.2006,-3.041 -0.652,-3.9382 -0.2271,-0.4515 -0.5183,-0.8016 -0.8784,-1.0384 -0.3611,-0.2375 -0.7802,-0.3534 -1.2495,-0.3534 l -0.0022,0.4 c 0.4007,0 0.7417,0.098 1.0306,0.288 0.29,0.1907 0.539,0.4817 0.742,0.8852 0.4089,0.8128 0.6191,2.0573 0.6095,3.7568 z m 12.9097,-5.5499 -0.1628,0.117 v 0 z m 1.1324,6.6598 -0.0011,0.2 h 0.2 l 0.0011,-0.2 z m -7.86,0 0.0011,-0.1999 h -0.2024 l 0.0013,0.2023 z m 0.759,3.72 -0.1703,0.106 0.0032,0.0049 z m 4.1383,0.3 -0.1581,-0.1217 -6e-4,8e-4 z m 0.7034,-2.37 0.0011,-0.2 h -0.2 l -0.0011,0.2 z m 2.25,0 h 0.2 l 0.0011,-0.2 h -0.2 z m -1.3418,3.84 -0.1466,-0.1352 -2e-4,2e-4 z m -7.5877,-0.39 -0.1607,0.12 0.0012,0.0017 z m 1.9781,-10.2899 -0.1643,-0.1131 -7e-4,0.0011 z m -0.8578,3.15 -0.1994,-0.0141 -0.0163,0.2141 h 0.2146 z m 5.46,0 -0.0011,0.2 h 0.2 l 0.0011,-0.2 z m -2.3958,-6.0399 c 1.5924,0 2.7313,0.5213 3.4591,1.537 l 0.3256,-0.2341 C 90.206,24.5083 88.931,23.9497 87.2434,23.9497 Z m 3.4591,1.537 c 0.7367,1.028 1.1168,2.7154 1.1033,5.1029 h 0.4 c 0.0137,-2.4125 -0.3665,-4.205 -1.1777,-5.337 z m 1.1033,5.1029 -0.0081,1.4399 h 0.4 l 0.0081,-1.4399 z m 0.193,1.24 h -7.86 l -0.0022,0.3999 h 7.86 z m -8.0611,0.2023 c 0.0106,1.6919 0.2642,2.9767 0.7888,3.8236 l 0.3404,-0.212 c -0.4664,-0.753 -0.7188,-1.9482 -0.7292,-3.6163 z m 0.7919,3.8285 c 0.5584,0.8448 1.4243,1.2591 2.5593,1.2591 l 0.0023,-0.4 c -1.025,0 -1.7548,-0.3658 -2.2275,-1.081 z m 2.5593,1.2591 c 0.7834,0 1.4238,-0.32 1.9047,-0.9491 l -0.3173,-0.2418 c -0.4057,0.5308 -0.9285,0.7909 -1.5851,0.7909 z m 1.9041,-0.9483 c 0.4974,-0.6441 0.7396,-1.4808 0.7454,-2.4917 h -0.4 c -0.0054,0.9491 -0.2321,1.6924 -0.6615,2.2483 z m 0.5442,-2.2917 h 2.25 l 0.0023,-0.4 h -2.25 z m 2.0512,-0.2 c -0.0089,1.5619 -0.4444,2.7897 -1.2884,3.7048 l 0.2933,0.2703 c 0.9268,-1.0048 1.3858,-2.3371 1.3951,-3.9751 z m -1.2886,3.705 c -0.8226,0.8935 -1.909,1.3449 -3.28,1.3449 l -0.0023,0.4 c 1.469,0 2.6679,-0.4886 3.5759,-1.4749 z m -3.28,1.3449 c -1.8137,0 -3.1346,-0.5824 -4.0015,-1.7216 l -0.3189,0.2434 c 0.9595,1.2607 2.4118,1.8782 4.3181,1.8782 z m -4.0003,-1.7199 c -0.8542,-1.1477 -1.2929,-3.014 -1.2781,-5.6399 h -0.4 c -0.015,2.654 0.4246,4.6275 1.3568,5.8799 z m -1.2781,-5.6399 c 0.0146,-2.5843 0.4738,-4.4532 1.3438,-5.6425 l -0.3224,-0.2349 c -0.9441,1.2906 -1.4066,3.2617 -1.4214,5.8774 z m 1.3438,-5.6425 c 0.8612,-1.1774 2.1677,-1.7774 3.9582,-1.7774 l 0.0022,-0.4 c -1.8895,0 -3.33,0.6399 -4.2828,1.9425 z m 3.9489,-0.1375 c -1.0342,0 -1.8336,0.3735 -2.3614,1.1369 l 0.3286,0.2262 c 0.4401,-0.6365 1.1047,-0.9631 2.0305,-0.9631 z m -2.3621,1.138 c -0.4934,0.7233 -0.7832,1.8153 -0.8922,3.2479 l 0.3988,0.0281 c 0.1071,-1.4073 0.3892,-2.4153 0.8235,-3.0519 z m -0.6939,3.462 h 5.46 l 0.0022,-0.4 h -5.46 z m 5.6611,-0.2 c 0.008,-1.4127 -0.189,-2.5049 -0.616,-3.2501 -0.4365,-0.7619 -1.1079,-1.1499 -1.9891,-1.1499 l -0.0023,0.4 c 0.7388,0 1.2785,0.3121 1.644,0.9502 0.3751,0.6547 0.5713,1.6625 0.5634,3.0498 z m 6.6797,8.6098 -0.1925,0.0552 0.0407,0.1448 h 0.1507 z m -4.0879,-14.5197 0.0011,-0.2 h -0.2655 l 0.0719,0.2552 z m 2.49,0 0.1936,-0.0515 -0.0387,-0.1485 h -0.1538 z m 1.9379,7.4399 -0.1938,0.0514 0.0029,0.0092 z m 0.5871,2.2799 -0.1947,0.0468 0.0012,0.0048 z m 0.3524,1.35 -0.1935,0.0515 0.0387,0.1485 h 0.1537 z m 0.12,0 -0.0011,0.2 h 0.1561 L 98.11,35.598 Z m 0.7966,-2.94 -0.192,-0.0549 -8e-4,0.0028 z m 0.1836,-0.6299 0.192,0.0549 0.0011,-0.0039 z m 2.0226,-7.4999 0.001,-0.2 h -0.154 l -0.04,0.1489 z m 2.28,0 0.192,0.0548 0.074,-0.2548 H 103.2 Z m -4.2223,14.5197 -0.0011,0.2 h 0.1509 l 0.0422,-0.1451 z m -2.2675,-0.0552 -4.0879,-14.5197 -0.385,0.1104 4.0879,14.5197 z M 92.4277,24.6797 h 2.49 l 0.0022,-0.4 h -2.49 z m 2.2975,-0.1486 1.938,7.4399 0.3871,-0.1029 -1.9379,-7.4399 z m 1.9406,7.4491 c 0.1352,0.4324 0.3294,1.1862 0.5833,2.2661 l 0.3894,-0.0936 c -0.2539,-1.08 -0.451,-1.8462 -0.5908,-2.2938 z m 0.5845,2.2709 0.3524,1.3499 0.387,-0.103 -0.3523,-1.35 z m 0.5448,1.4984 h 0.12 l 0.0022,-0.4 h -0.12 z M 98.11,35.598 c 0.1221,-0.4778 0.3871,-1.4559 0.7956,-2.9363 L 98.52,32.5574 c -0.4082,1.4796 -0.6743,2.4614 -0.7976,2.9436 z m 0.7948,-2.9335 0.1836,-0.63 -0.384,-0.1099 -0.1836,0.63 z m 0.1847,-0.6339 2.0225,-7.4999 -0.386,-0.1021 -2.0227,7.4999 z m 1.8285,-7.3509 h 2.28 l 0.002,-0.4 h -2.28 z m 2.089,-0.2549 -4.2223,14.5198 0.384,0.1097 4.2223,-14.5198 z m -4.0292,14.3746 h -2.46 l -0.0022,0.4 h 2.46 z"
         fill="#46423f"
         id="path3605" /><path
         d="m 43.1269,38.0994 c -0.3333,0 -0.6829,-0.0833 -1.0486,-0.25 -0.3657,-0.1667 -0.5479,-0.3667 -0.5466,-0.6 0.0032,-0.5667 0.5645,-2.5666 1.6839,-5.9999 1.1196,-3.4666 1.6843,-6.0666 1.6941,-7.7999 0.003,-0.5333 -0.2286,-0.8333 -0.6949,-0.9 -0.4663,-0.0666 -0.6991,-0.1666 -0.6983,-0.3 0.0017,-0.2999 0.2525,-0.4499 0.7525,-0.4499 2.2334,0 3.3449,0.9166 3.3345,2.7499 -0.0051,0.9 -0.3972,2.45 -1.1763,4.6499 l 1.161,-1.9499 c 0.8078,-1.3667 1.6138,-2.4333 2.4181,-3.2 0.8045,-0.8 1.6901,-1.2 2.6568,-1.2 h 0.1 c 1.5333,0 2.2942,1.0334 2.2825,3.1 -0.0047,0.8333 -0.1609,1.9166 -0.4684,3.2499 -0.3075,1.3333 -0.7832,2.9167 -1.4269,4.75 l 6.8919,-7.3999 c 0.4682,-0.2667 1.0689,-0.4 1.8022,-0.4 0.7667,0 1.1492,0.15 1.1475,0.45 -1.3537,3.5999 -2.0352,6.2332 -2.0447,7.8999 -0.0088,1.5666 0.2701,2.3499 0.8368,2.3499 l 0.3562,-1.1 c 0.0987,0.2334 0.1467,0.5834 0.144,1.05 -0.0049,0.8667 -0.274,1.3 -0.8073,1.3 -1.7333,0 -2.5915,-1.5 -2.5746,-4.4999 0.0042,-0.7334 0.0589,-1.5667 0.1642,-2.5 0.1386,-0.9333 0.3277,-1.9666 0.5675,-3.0999 -0.4358,0.4333 -0.8383,0.8833 -1.2076,1.3499 -0.3358,0.4334 -0.7053,0.9334 -1.1085,1.5 l -2.6207,3.65 c -1.4448,2.0333 -2.3339,3.0499 -2.6672,3.0499 -1.1333,0 -1.6989,-0.2 -1.6966,-0.6 2e-4,-0.0333 0.1879,-0.8166 0.5633,-2.35 1.1915,-4.3999 1.7915,-7.3498 1.8,-8.8498 0.004,-0.7 -0.2107,-1.05 -0.6441,-1.05 -1.2333,0 -2.9102,1.8166 -5.0308,5.4499 -0.3704,0.6667 -0.7916,1.4667 -1.2635,2.4 -0.4385,0.9 -0.8434,1.7666 -1.2147,2.5999 -0.0678,0.2 -0.2197,0.5334 -0.4557,1 -0.2026,0.4667 -0.4052,0.9167 -0.6076,1.35 -0.2023,0.4 -0.3201,0.6 -0.3534,0.6 z m 22.0606,0.05 c -0.4666,0 -0.6989,-0.1833 -0.6969,-0.55 8e-4,-0.1333 0.0183,-0.2833 0.0526,-0.45 0.0345,-0.2 0.0523,-0.4 0.0534,-0.6 0.0021,-0.3666 0.1871,-0.6666 0.5551,-0.9 0.3681,-0.2666 0.7856,-0.4 1.2522,-0.4 0.4,0 0.6991,0.1667 0.8972,0.5 0.1981,0.3334 0.2963,0.65 0.2946,0.95 -0.0011,0.2 -0.169,0.4167 -0.5036,0.65 -0.3014,0.2333 -0.6525,0.4333 -1.0534,0.6 -0.3675,0.1333 -0.6512,0.2 -0.8512,0.2 z"
         fill="#46423f"
         id="path3607" /><path
         d="m 42.0783,37.8494 -0.1257,0.2731 z m 1.1373,-6.5999 0.2852,0.0915 3e-4,-8e-4 z m 3.2116,-2.05 -0.2827,-0.0987 0.5403,0.2511 z m 1.161,-1.9499 0.2576,0.1524 5e-4,-9e-4 z m 2.4181,-3.2 0.2064,0.2167 0.0046,-0.0046 z m 4.5709,5.1499 -0.2923,-0.0658 v 0 z m -1.4269,4.75 -0.283,-0.098 0.5021,0.3017 z m 6.8919,-7.3999 -0.1474,-0.2605 -0.0401,0.0229 -0.0315,0.0338 z m 2.9497,0.05 0.2807,0.1042 0.019,-0.0505 3e-4,-0.0537 z m -1.2079,10.2498 -0.0017,0.3 h 0.2193 l 0.0677,-0.209 z m 0.3562,-1.1 0.2764,-0.1181 -0.3132,-0.7405 -0.2486,0.7677 z m -3.0737,-4.6499 -0.297,-0.0424 -0.0012,0.0104 z m 0.5675,-3.0999 0.2935,0.0604 0.2074,-0.9804 -0.7118,0.7078 z m -1.2076,1.3499 -0.2349,-0.1853 -0.0019,0.0024 z m -1.1085,1.5 0.2433,0.1741 8e-4,-0.0011 z m -2.6207,3.65 -0.2433,-0.1741 -9e-4,0.0012 z m -3.8005,0.0999 -0.2897,-0.0769 -0.0017,0.0072 z m -3.8749,-4.4499 -0.2589,-0.1501 -0.0031,0.0055 z m -1.2635,2.4 -0.2676,-0.1342 -0.002,0.004 z m -1.2147,2.5999 -0.2739,-0.1208 -0.0057,0.0128 -0.0045,0.0132 z m -0.4557,1 -0.2676,-0.1341 -0.0039,0.0078 -0.0036,0.0082 z m -0.6076,1.35 0.2677,0.1342 0.004,-0.0085 z m -0.3517,0.3 c -0.2826,0 -0.5898,-0.0705 -0.9246,-0.2231 l -0.2514,0.5462 c 0.3967,0.1808 0.7885,0.2769 1.1726,0.2769 z M 42.204,37.5763 c -0.3416,-0.1557 -0.3726,-0.281 -0.3723,-0.3269 h -0.6 c -0.0024,0.4208 0.331,0.6954 0.7209,0.8731 z m -0.3723,-0.3269 c 6e-4,-0.107 0.0296,-0.3109 0.1,-0.6309 0.0689,-0.313 0.1726,-0.7173 0.3122,-1.2145 0.279,-0.9941 0.6977,-2.3479 1.2569,-4.063 l -0.5704,-0.183 c -0.5602,1.7182 -0.9818,3.081 -1.2641,4.0869 -0.1411,0.5027 -0.2483,0.9192 -0.3205,1.2479 -0.0708,0.3217 -0.1131,0.5803 -0.1141,0.7566 z m 1.6694,-5.9092 c 1.121,-3.471 1.6985,-6.1082 1.7086,-7.8906 h -0.6 c -0.0095,1.6843 -0.5614,4.247 -1.6795,7.7092 z m 1.7086,-7.8906 c 0.0017,-0.307 -0.0636,-0.5889 -0.2336,-0.8091 -0.174,-0.2254 -0.4266,-0.3463 -0.7172,-0.3878 l -0.0882,0.5939 c 0.1757,0.0251 0.272,0.0875 0.3297,0.1622 0.0616,0.0798 0.1106,0.2145 0.1093,0.4408 z m -0.9508,-1.1969 c -0.2253,-0.0322 -0.3689,-0.0695 -0.4487,-0.1038 -0.04,-0.0172 -0.0454,-0.026 -0.0371,-0.0176 0.0128,0.0129 0.0438,0.0541 0.0434,0.1183 h -0.6 c -0.0015,0.2682 0.2298,0.3973 0.3543,0.4508 0.153,0.0657 0.3589,0.1118 0.5999,0.1462 z m -0.4424,-0.0031 c 2e-4,-0.0325 0.0067,-0.0463 0.0094,-0.0511 0.0025,-0.0044 0.0093,-0.015 0.0329,-0.0291 0.0561,-0.0335 0.1788,-0.0698 0.4085,-0.0698 l 0.0034,-0.5999 c -0.2702,0 -0.5229,0.0387 -0.7177,0.1552 -0.2193,0.1311 -0.3351,0.3431 -0.3365,0.5947 z m 0.4508,-0.15 c 1.0833,0 1.8387,0.2236 2.3187,0.6194 0.4687,0.3866 0.7223,0.9775 0.7175,1.8306 h 0.6 c 0.0055,-0.9802 -0.2914,-1.7642 -0.9342,-2.2943 -0.6315,-0.5208 -1.5485,-0.7556 -2.6986,-0.7556 z m 3.0362,2.45 c -0.0048,0.8428 -0.3788,2.348 -1.159,4.5512 l 0.5654,0.1975 c 0.778,-2.1968 1.1882,-3.7915 1.1936,-4.7487 z m -0.6187,4.8023 1.161,-1.9499 -0.5151,-0.3048 -1.161,1.9499 z m 1.1615,-1.9508 c 0.7991,-1.352 1.5888,-2.3937 2.3664,-3.1349 L 49.8,23.833 c -0.8311,0.7922 -1.6535,1.8838 -2.4698,3.265 z m 2.371,-3.1394 c 0.7583,-0.754 1.5705,-1.1121 2.4441,-1.1121 l 0.0034,-0.6 c -1.0597,0 -2.0187,0.442 -2.8694,1.2879 z m 2.4441,-1.1121 h 0.1 l 0.0034,-0.6 h -0.1 z m 0.1,0 c 0.6923,0 1.1673,0.2285 1.4804,0.6538 0.3255,0.442 0.5095,1.1412 0.5038,2.1462 h 0.6 c 0.006,-1.0617 -0.1846,-1.9124 -0.6199,-2.5037 -0.4477,-0.6081 -1.1198,-0.8963 -1.9609,-0.8963 z m 1.9842,2.8 c -0.0046,0.8016 -0.1554,1.8605 -0.4607,3.1841 l 0.5846,0.1317 c 0.3098,-1.3431 0.4712,-2.4508 0.4761,-3.3158 z m -0.4607,3.1841 c -0.3042,1.319 -0.7762,2.8911 -1.4176,4.7178 l 0.5661,0.1959 c 0.646,-1.8398 1.1253,-3.4344 1.4361,-4.782 z m -0.9155,5.0195 6.8918,-7.3998 -0.438,-0.4076 -6.8919,7.3999 z M 60.1896,26.81 c 0.409,-0.233 0.9538,-0.3604 1.6532,-0.3604 l 0.0033,-0.6 c -0.7673,0 -1.424,0.1392 -1.9513,0.4395 z m 1.6532,-0.3604 c 0.3725,0 0.6144,0.0376 0.7526,0.0918 0.0667,0.0262 0.0906,0.0491 0.0963,0.0558 9e-4,0.0011 2e-4,-0.0025 2e-4,0.0024 h 0.6 c 8e-4,-0.1451 -0.047,-0.28 -0.1413,-0.3914 -0.0895,-0.1058 -0.2089,-0.1767 -0.3334,-0.2255 -0.2442,-0.0958 -0.5769,-0.1331 -0.9711,-0.1331 z m 0.8684,0.0458 c -1.3542,3.6011 -2.0542,6.2788 -2.064,8.0041 h 0.6 c 0.0091,-1.6081 0.6722,-4.197 2.0254,-7.7957 z m -2.064,8.0041 c -0.0044,0.793 0.0626,1.4228 0.2199,1.8645 0.0792,0.2224 0.1883,0.4174 0.3413,0.5591 0.1595,0.1479 0.3552,0.2263 0.5739,0.2263 l 0.0033,-0.6 c -0.0646,0 -0.1163,-0.0195 -0.1681,-0.0675 -0.0584,-0.0541 -0.1248,-0.1528 -0.185,-0.322 -0.1217,-0.3416 -0.1896,-0.8869 -0.1853,-1.6604 z m 1.4221,2.4409 0.3562,-1.1 -0.5707,-0.1819 -0.3562,1.1 z m -0.2055,-1.0728 c 0.0747,0.1766 0.123,0.4774 0.1204,0.9318 h 0.6 c 0.0027,-0.4789 -0.045,-0.8781 -0.1676,-1.1681 z m 0.1204,0.9318 c -0.0023,0.4123 -0.0689,0.671 -0.1601,0.8178 -0.0763,0.1228 -0.1769,0.1822 -0.3455,0.1822 l -0.0034,0.6 c 0.3647,0 0.6653,-0.1573 0.8581,-0.4678 0.178,-0.2865 0.2484,-0.6778 0.2509,-1.1322 z m -0.5056,1 c -0.7596,0 -1.3088,-0.3179 -1.6847,-0.9751 -0.3903,-0.6821 -0.5999,-1.7439 -0.5916,-3.2248 h -0.6 c -0.0086,1.519 0.2024,2.7071 0.6703,3.525 0.4822,0.8428 1.2288,1.2749 2.2026,1.2749 z m -2.2763,-4.1999 c 0.0041,-0.7202 0.0579,-1.5426 0.1623,-2.468 l -0.5963,-0.064 c -0.1061,0.9412 -0.1618,1.7855 -0.166,2.532 z m 0.1609,-2.4576 c 0.1375,-0.9261 0.3255,-1.9532 0.5643,-3.0819 l -0.587,-0.1209 c -0.2407,1.138 -0.4311,2.1774 -0.5708,3.118 z m 0.0599,-3.3545 c -0.444,0.4415 -0.8546,0.9004 -1.2316,1.3768 l 0.4697,0.3707 c 0.3616,-0.457 0.7562,-0.8981 1.1837,-1.3232 z m -1.2335,1.3792 c -0.3389,0.4373 -0.7108,0.9407 -1.1158,1.5099 l 0.4882,0.346 c 0.4014,-0.5641 0.7684,-1.0607 1.1011,-1.4901 z m -1.1151,1.5089 -2.6206,3.6499 0.4867,0.3481 2.6206,-3.6499 z m -2.6215,3.6511 c -0.7205,1.014 -1.2971,1.7668 -1.7315,2.2636 -0.218,0.2492 -0.3934,0.4262 -0.5284,0.5384 -0.0675,0.0561 -0.1181,0.0903 -0.1531,0.1092 -0.0389,0.0209 -0.0378,0.0116 -0.0083,0.0116 l -0.0034,0.6 c 0.1128,0 0.2146,-0.0411 0.2938,-0.0837 0.083,-0.0447 0.1679,-0.1058 0.2532,-0.1767 0.1706,-0.142 0.3702,-0.3462 0.5969,-0.6053 0.4546,-0.5199 1.045,-1.2921 1.7693,-2.3114 z m -2.4213,2.9228 c -0.5572,0 -0.9406,-0.0502 -1.1744,-0.1329 -0.1155,-0.0408 -0.1735,-0.0824 -0.1999,-0.1106 -0.0199,-0.0212 -0.0241,-0.0357 -0.024,-0.0565 h -0.6 c -10e-4,0.1793 0.0646,0.3398 0.1855,0.4685 0.1144,0.1218 0.2682,0.2052 0.4355,0.2644 0.3318,0.1173 0.7978,0.1671 1.3739,0.1671 z m -1.3983,-0.3 c -2e-4,0.0307 -0.0061,0.0555 -0.0028,0.0382 7e-4,-0.0041 0.0023,-0.0121 0.005,-0.0249 0.0054,-0.0252 0.0138,-0.0627 0.0254,-0.1132 0.0232,-0.1007 0.0582,-0.2486 0.1051,-0.4442 0.0937,-0.391 0.2343,-0.9695 0.422,-1.7361 l -0.5828,-0.1395 c -0.1877,0.7667 -0.3286,1.3465 -0.4227,1.7389 -0.047,0.196 -0.0824,0.346 -0.1062,0.4495 -0.0119,0.0515 -0.0212,0.0927 -0.0275,0.1227 -0.0032,0.0148 -0.006,0.0286 -0.0082,0.0403 -0.0011,0.0058 -0.0024,0.013 -0.0035,0.0206 -3e-4,0.0023 -0.0037,0.0231 -0.0038,0.0477 z m 0.5528,-2.2731 c 1.1897,-4.393 1.8018,-7.381 1.8105,-8.9267 h -0.6 c -0.0082,1.4542 -0.5962,4.3661 -1.7896,8.773 z m 1.8105,-8.9267 c 0.0021,-0.3712 -0.0517,-0.7003 -0.2021,-0.9454 -0.1649,-0.2688 -0.4263,-0.4046 -0.7403,-0.4046 l -0.0033,0.6 c 0.1194,0 0.1819,0.0392 0.2317,0.1204 0.0643,0.1049 0.1159,0.3008 0.114,0.6296 z m -0.9424,-1.35 c -0.7535,0 -1.5588,0.5438 -2.4043,1.4597 -0.8601,0.9317 -1.8223,2.3157 -2.8871,4.1401 l 0.5178,0.3002 c 1.0558,-1.8089 1.9923,-3.1498 2.8092,-4.0347 0.8315,-0.9008 1.4813,-1.2653 1.9611,-1.2653 z m -5.2945,5.6053 c -0.3729,0.6711 -0.796,1.4748 -1.2691,2.4104 l 0.5351,0.2683 c 0.4708,-0.931 0.8901,-1.7273 1.2581,-2.3895 z m -1.2711,2.4144 c -0.4398,0.9028 -0.8461,1.7726 -1.219,2.6093 l 0.5478,0.2417 c 0.3698,-0.8299 0.7733,-1.6935 1.2103,-2.5907 z m -1.2292,2.6353 c -0.0602,0.1775 -0.203,0.4936 -0.4392,0.9607 l 0.5352,0.2683 c 0.2357,-0.4663 0.3967,-0.8168 0.4721,-1.0393 z m -0.4467,0.9767 c -0.2016,0.4642 -0.403,0.9117 -0.6042,1.3424 l 0.5434,0.2514 c 0.2036,-0.436 0.4073,-0.8885 0.611,-1.3575 z m -0.6001,1.3339 c -0.1004,0.1985 -0.1769,0.3416 -0.2307,0.433 -0.0277,0.0469 -0.0449,0.0726 -0.0533,0.0837 -0.0049,0.0065 -3e-4,-6e-4 0.0124,-0.0123 0.0064,-0.0059 0.0219,-0.0195 0.0457,-0.033 0.0212,-0.0121 0.0716,-0.0372 0.1418,-0.0372 l -0.0034,0.6 c 0.0744,0 0.1295,-0.0266 0.1563,-0.0419 0.0293,-0.0166 0.0509,-0.0349 0.0641,-0.047 0.0263,-0.0242 0.0471,-0.0501 0.0611,-0.0686 0.0294,-0.039 0.0605,-0.0882 0.0918,-0.1413 0.0639,-0.1086 0.1475,-0.2655 0.2493,-0.467 z m 21.3305,-0.2158 0.294,0.0589 0.0016,-0.0096 z m 0.6085,-1.5 0.1596,0.2531 0.0079,-0.005 0.0076,-0.0055 z m 1.9404,1.7 -0.1707,-0.2458 -0.0062,0.0044 -0.006,0.0046 z m -1.0534,0.6 0.101,0.2822 0.0128,-0.0053 z m -0.8495,-0.1 c -0.2022,0 -0.2983,-0.0411 -0.3392,-0.0734 -0.0272,-0.0215 -0.06,-0.0614 -0.0594,-0.1766 h -0.6 c -0.0014,0.2514 0.0809,0.4865 0.286,0.6484 0.1914,0.151 0.4448,0.2016 0.7092,0.2016 z m -0.3986,-0.25 c 7e-4,-0.1091 0.0151,-0.2389 0.0464,-0.3912 l -0.5876,-0.1176 c -0.0373,0.181 -0.0579,0.3512 -0.0588,0.5088 z m 0.0482,-0.4007 c 0.0373,-0.216 0.0566,-0.4325 0.0578,-0.6493 h -0.6 c -0.0011,0.1833 -0.0174,0.3668 -0.049,0.5507 z m 0.0578,-0.6493 c 0.0014,-0.2438 0.1148,-0.4567 0.4147,-0.6469 L 64.992,35.3963 c -0.4361,0.2766 -0.6926,0.6636 -0.6954,1.1531 z m 0.4302,-0.6574 c 0.315,-0.2282 0.6702,-0.3426 1.0754,-0.3426 l 0.0034,-0.6 c -0.5281,0 -1.0078,0.1523 -1.429,0.4574 z m 1.0754,-0.3426 c 0.2984,0 0.4983,0.1146 0.6408,0.3544 l 0.5162,-0.3087 c -0.2537,-0.4269 -0.6519,-0.6457 -1.1536,-0.6457 z m 0.6408,0.3544 c 0.1784,0.3002 0.254,0.5638 0.2527,0.7956 h 0.6 c 0.0021,-0.3682 -0.1187,-0.7379 -0.3365,-1.1043 z m 0.2527,0.7956 c 0,0.0133 -0.0055,0.0547 -0.0635,0.1296 -0.0585,0.0755 -0.1575,0.1678 -0.3108,0.2746 l 0.3413,0.4916 c 0.1814,-0.1265 0.3336,-0.2592 0.443,-0.4004 0.1099,-0.1418 0.189,-0.3087 0.19,-0.4954 z m -0.3865,0.4132 c -0.2774,0.2149 -0.6047,0.4021 -0.9844,0.5599 l 0.2277,0.5538 c 0.4222,-0.1755 0.7972,-0.3883 1.1224,-0.6401 z m -0.9715,0.5549 c -0.3596,0.1305 -0.6027,0.1819 -0.7485,0.1819 l -0.0034,0.6 c 0.2543,0 0.5786,-0.0819 0.9538,-0.2181 z"
         fill="#46423f"
         id="path3609" /></g></g></svg>
