<?xml version="1.0" encoding="UTF-8" standalone="no"?>
<svg
   width="1200pt"
   height="1200pt"
   version="1.1"
   viewBox="0 0 1200 1200"
   id="svg52"
   xmlns="http://www.w3.org/2000/svg"
   xmlns:svg="http://www.w3.org/2000/svg">
  <defs
     id="defs56" />
  <g
     fill-rule="evenodd"
     id="g50"
     transform="matrix(1.1066723,0,0,1.1220315,-63.565581,-73.222559)">
    <path
       d="m 282.36,1052 c 348.61,-62.555 361.23,-62.652 709.82,0 20.219,3.6367 37.332,16.848 37.332,37.43 0,20.605 -16.801,37.441 -37.332,37.441 h -23.398 c -318.23,-57.047 -344.77,-56.953 -662.96,0 l -23.461,-0 c -20.531,0 -37.309,-16.836 -37.309,-37.441 0,-20.578 17.102,-33.789 37.309,-37.426 z"
       id="path46" />
    <path
       d="m 338.5,1021 c 41.629,-39.059 39.898,-66.852 37.246,-82.477 -7.7266,-45.742 -72.266,-76.441 -20.137,-138.31 52.105,-61.859 197.39,-163.37 239.41,-270.55 7.043,-17.988 12.492,-36.18 15.996,-54.383 3.5156,-18.191 5.125,-36.422 4.5117,-54.504 -0.10938,-3.1797 -0.63672,-5.9141 -1.4648,-8.2188 -0.82812,-2.3164 -1.9922,-4.2227 -3.3359,-5.7227 -1.3555,-1.5117 -2.9414,-2.6289 -4.6094,-3.3828 -1.668,-0.74219 -3.4453,-1.1289 -5.207,-1.1641 -1.7656,-0.0352 -3.5391,0.26563 -5.207,0.875 -1.6797,0.61328 -3.2383,1.5469 -4.5977,2.7734 -1.3789,1.2227 -2.5195,2.7344 -3.3477,4.5117 -0.85156,1.7773 -1.3789,3.8164 -1.4883,6.1094 -0.19141,4.3789 -0.78125,9.1914 -1.8242,14.184 -1.0312,5.0039 -2.543,10.188 -4.6094,15.383 -2.0508,5.1719 -4.6562,10.344 -7.9062,15.289 -3.2539,4.9453 -7.1289,9.6602 -11.734,13.945 -4.6094,4.2852 -9.9492,8.1367 -16.094,11.328 -6.1445,3.2031 -13.117,5.7734 -20.977,7.4766 -96.637,20.953 -120.43,-53.531 -259.33,24.238 -3.0469,1.6914 -6.2891,3.4219 -9.8281,5.1367 -3.5625,1.7031 -7.4297,3.4336 -11.711,5.1602 0,0 -0.53906,-0.42188 -1.5469,-1.1992 -1.0078,-0.78125 -2.4844,-1.9336 -4.3086,-3.457 -1.8359,-1.5117 -4.043,-3.3828 -6.5391,-5.5781 -22.703,-20.016 -40.465,-41.531 -55.871,-67.379 -2.4961,-4.1875 -4.7266,-8.2422 -6.5625,-12.215 -1.8242,-3.9727 -3.2383,-7.8359 -4.1289,-11.676 -0.875,-3.8164 -1.2227,-7.5977 -0.89844,-11.352 0.34766,-3.7422 1.3438,-7.5 3.1562,-11.242 1.8125,-3.7578 4.4414,-7.5352 7.9805,-11.363 3.5742,-3.8281 8.0508,-7.7148 13.633,-11.699 108.42,-77.398 110.28,-100.97 201.79,-198.43 3.0859,-3.3008 6.2539,-6.3711 9.4336,-9.2148 3.1797,-2.8437 6.3828,-5.4609 9.6016,-7.8594 3.1914,-2.4102 6.3828,-4.5859 9.5508,-6.5625 3.1445,-1.9805 6.2656,-3.7578 9.2891,-5.3281 3.0352,-1.5703 6.0117,-2.9414 8.8555,-4.1289 -1.0312,-2.6406 -2.293,-5.2422 -3.6719,-7.8594 -1.3555,-2.6172 -2.8086,-5.2422 -4.1289,-7.9219 -14.125,-28.332 4.5,-45.059 27.996,-61.043 2.1719,1.2461 4.332,2.5195 6.5273,3.8281 2.1719,1.3086 4.3438,2.6406 6.5391,4.0195 2.1719,1.3672 4.3438,2.7617 6.5391,4.1875 2.1719,1.4414 4.3555,2.9297 6.5039,4.4414 2.1719,1.5117 4.332,3.0703 6.4922,4.668 2.1367,1.5977 4.2852,3.2383 6.4062,4.9336 2.1133,1.6797 4.2344,3.4219 6.3242,5.207 2.1016,1.7891 4.1758,3.6133 6.2266,5.5078 409.67,-83.062 660.48004,391.74 393.3,818.04 -11.484,18.324 -17.52,59.809 27.805,91.754 -255.05,-42.594 -331.46,-42.113 -590.05,1.2305 z m 90.289,-809.2 c -16.105,12.938 -24.371,29.102 -18.457,36.07 5.8672,6.9961 23.699,2.1602 39.793,-10.777 16.078,-12.961 24.348,-29.102 18.457,-36.086 -5.8828,-7.0039 -23.715,-2.168 -39.793,10.793 z m -228.73,193.94 c -7.4883,5.1719 -11.664,12.023 -9.3008,15.277 2.3516,3.2383 10.344,1.6797 17.844,-3.5039 7.4883,-5.1836 11.664,-12.023 9.2891,-15.277 -2.3633,-3.2383 -10.332,-1.6797 -17.832,3.5039 z"
       id="path48" />
  </g>
</svg>
