<svg width="428" height="58" viewBox="0 0 428 58" fill="none" xmlns="http://www.w3.org/2000/svg">
<g clip-path="url(#clip0_2_6157)">
<path d="M51.8226 23.2C51.1285 24.36 47.1956 30.16 44.188 34.8L62.002 32.248L63.3901 32.016C66.6291 31.552 67.7858 28.536 68.0172 27.84C71.7188 19.72 75.4204 19.256 82.361 17.864C97.1674 14.616 104.108 2.784 104.108 2.552C95.7793 3.944 83.5177 6.032 83.5177 6.032C60.8453 10.208 55.7556 16.704 51.8226 23.2Z" fill="#1C1917"/>
<path d="M57.375 49.184C57.375 49.184 77.0399 46.864 84.2118 44.544C96.4734 40.368 100.638 31.088 100.638 31.088C100.638 31.088 81.8982 33.176 73.5696 36.888C71.9501 37.584 66.6291 38.744 57.375 49.184Z" fill="#1C1917"/>
<path d="M46.0389 50.576C57.8378 45.008 60.8454 37.816 60.8454 37.816C60.8454 37.816 57.8378 38.048 53.6735 38.744L38.867 40.832C37.4789 42.688 34.9341 45.704 34.24 46.4C32.3892 48.488 31.2324 48.488 26.6054 48.952C25.4487 48.952 24.9859 48.256 25.68 46.864L30.5384 39.44C31.0011 38.512 31.6951 37.584 31.9265 37.12L48.1211 12.296C32.3892 15.776 22.2097 22.968 17.8141 29.696L0 58L42.5687 51.968C43.7254 51.504 45.1135 51.04 46.0389 50.576Z" fill="#1C1917"/>
<path d="M127.012 12.528H123.773V40.832H148.759V38.048H127.012V12.528Z" fill="#1C1917"/>
<path d="M156.625 12.528H153.386V40.6H156.625V12.528Z" fill="#1C1917"/>
<path d="M162.409 40.832H165.648V27.84H187.395V25.288H165.648V15.544H188.551V12.528H162.409V40.832Z" fill="#1C1917"/>
<path d="M196.417 27.608H219.552V24.824H196.417V15.544H220.246V12.528H193.178V40.832H220.478V38.048H196.417V27.608Z" fill="#1C1917"/>
<path d="M288.495 25.056H267.905V12.528H264.897V40.832H267.905V27.608H288.495V40.832H291.734V12.528H288.495V25.056Z" fill="#1C1917"/>
<path d="M421.291 25.056H400.7V12.528H397.693V40.832H400.7V27.608H421.291V40.832H424.53V12.528H421.291V25.056Z" fill="#1C1917"/>
<path d="M324.817 29.928C324.817 36.656 320.19 41.296 310.936 41.296C301.682 41.296 297.055 36.656 297.055 29.928V12.528H300.294V29.232C300.294 37.12 307.697 38.512 311.168 38.512C314.407 38.512 322.041 37.12 322.041 29.232V12.528H325.28V29.928H324.817Z" fill="#1C1917"/>
<path d="M354.662 26.68C357.438 25.52 359.057 23.2 359.057 20.184C359.057 15.312 355.819 12.528 350.266 12.528H329.907V40.6H333.146V27.84H349.341C353.968 27.84 355.819 30.624 355.819 35.032V40.832H359.057V34.568C359.057 30.16 357.207 27.84 354.662 26.68ZM350.729 25.056H333.146V15.544H350.729C353.968 15.544 355.819 17.168 355.819 20.416C355.819 23.664 353.968 25.056 350.729 25.056Z" fill="#1C1917"/>
<path d="M245.464 38.744C241.762 38.744 232.971 37.12 232.971 26.68C232.971 16.472 241.531 14.616 245.464 14.616C249.397 14.616 255.412 16.24 257.263 22.272H260.27C258.651 15.312 252.173 11.832 245.464 11.832C236.904 11.832 229.963 16.472 229.963 26.448C229.963 36.424 236.904 41.064 245.464 41.064C252.173 41.064 257.957 38.512 260.27 31.32H257.031C255.181 37.12 249.166 38.744 245.464 38.744Z" fill="#1C1917"/>
<path d="M378.259 38.744C374.558 38.744 365.766 37.12 365.766 26.68C365.766 16.472 374.326 14.616 378.259 14.616C382.192 14.616 388.207 16.24 390.058 22.272H393.066C391.446 15.312 384.969 11.832 378.259 11.832C369.699 11.832 362.759 16.472 362.759 26.448C362.759 36.424 369.699 41.064 378.259 41.064C384.969 41.064 390.752 38.512 393.066 31.32H389.827C387.976 37.12 381.961 38.744 378.259 38.744Z" fill="#1C1917"/>
<path d="M228.112 37.352H224.642V40.832H228.112V37.352Z" fill="#1C1917"/>
</g>
<defs>
<clipPath id="clip0_2_6157">
<rect width="428" height="58" fill="white"/>
</clipPath>
</defs>
</svg>
