<?xml version="1.0" encoding="UTF-8"?>
<svg width="1200pt" height="1200pt" version="1.1" viewBox="0 0 1200 1200" xmlns="http://www.w3.org/2000/svg">
 <g>
  <path d="m642.68 192.68c7.3203-7.3203 7.3203-19.105 7.3203-42.676v-50c0-23.57 0-35.355-7.3203-42.676-7.3242-7.3242-19.109-7.3242-42.68-7.3242s-35.355 0-42.68 7.3242c-7.3203 7.3203-7.3203 19.105-7.3203 42.676v50c0 23.57 0 35.355 7.3203 42.676 7.3242 7.3242 19.109 7.3242 42.68 7.3242s35.355 0 42.68-7.3242z"/>
  <path d="m342.14 281.79c-0.003906-10.352-8.332-18.68-24.996-35.344l-35.348-35.348c-16.664-16.664-24.992-24.992-35.344-24.996-10.352 0.003906-18.695 8.332-35.355 24.996-16.664 16.66-24.992 24.992-24.996 35.344 0.003906 10.352 8.332 18.691 24.996 35.355l35.348 35.348c16.664 16.664 24.992 24.992 35.344 24.996 10.352-0.003906 18.695-8.332 35.355-24.996 16.664-16.66 24.992-25.004 24.996-35.355z"/>
  <path d="m918.2 342.14c10.355-0.003906 18.688-8.332 35.348-24.996l35.348-35.348c16.66-16.664 24.992-24.992 24.996-35.344-0.003906-10.352-8.3359-18.695-24.996-35.355-16.66-16.664-24.988-24.992-35.344-24.996-10.352 0.003906-18.695 8.332-35.355 24.996l-35.348 35.348c-16.66 16.664-24.992 24.992-24.996 35.344 0.003906 10.352 8.3359 18.695 24.996 35.355 16.66 16.664 25.004 24.992 35.352 24.996z"/>
  <path d="m557.32 1007.3c-7.3203 7.3242-7.3203 19.109-7.3203 42.68v50c0 23.57 0 35.355 7.3203 42.68 7.3242 7.3203 19.109 7.3203 42.68 7.3203s35.355 0 42.68-7.3203c7.3203-7.3242 7.3203-19.109 7.3203-42.68v-50c0-23.57 0-35.355-7.3203-42.68-7.3242-7.3203-19.109-7.3203-42.68-7.3203s-35.355 0-42.68 7.3203z"/>
  <path d="m857.86 918.2c0.003906 10.355 8.3359 18.688 24.996 35.348l35.348 35.348c16.66 16.66 24.992 24.992 35.348 24.996 10.348-0.003906 18.691-8.3359 35.352-24.996 16.66-16.66 24.992-24.988 24.996-35.344-0.003906-10.352-8.3359-18.695-24.996-35.355l-35.348-35.348c-16.66-16.66-24.992-24.992-35.348-24.996-10.348 0.003906-18.691 8.3359-35.352 24.996-16.66 16.66-24.992 25.004-24.996 35.352z"/>
  <path d="m281.79 857.86c-10.352 0.003906-18.68 8.3359-35.344 24.996l-35.348 35.348c-16.664 16.66-24.992 24.992-24.996 35.348 0.003906 10.348 8.332 18.691 24.996 35.352 16.66 16.66 24.992 24.992 35.344 24.996 10.352-0.003906 18.691-8.3359 35.355-24.996l35.348-35.348c16.664-16.66 24.992-24.992 24.996-35.348-0.003906-10.348-8.332-18.691-24.996-35.352-16.66-16.66-25.004-24.992-35.355-24.996z"/>
  <path d="m1142.7 557.32c-7.3242-7.3203-19.109-7.3203-42.68-7.3203h-50c-23.57 0-35.355 0-42.68 7.3203-7.3203 7.3242-7.3203 19.109-7.3203 42.68s0 35.355 7.3203 42.68c7.3242 7.3203 19.109 7.3203 42.68 7.3203h50c23.57 0 35.355 0 42.68-7.3203 7.3203-7.3242 7.3203-19.109 7.3203-42.68s0-35.355-7.3203-42.68z"/>
  <path d="m192.68 557.32c-7.3203-7.3203-19.105-7.3203-42.676-7.3203h-50c-23.57 0-35.355 0-42.676 7.3203-7.3242 7.3242-7.3242 19.109-7.3242 42.68s0 35.355 7.3242 42.68c7.3203 7.3203 19.105 7.3203 42.676 7.3203h50c23.57 0 35.355 0 42.676-7.3203 7.3242-7.3242 7.3242-19.109 7.3242-42.68s0-35.355-7.3242-42.68z"/>
  <path d="m900 600c0 165.68-134.32 300-300 300s-300-134.32-300-300 134.32-300 300-300 300 134.32 300 300"/>
 </g>
</svg>
