<svg width="24" height="24" viewBox="0 0 24 24" fill="none" xmlns="http://www.w3.org/2000/svg">
<g clip-path="url(#clip0_700_1865)">
<path fill-rule="evenodd" clip-rule="evenodd" d="M0 0H23.8059V23.8059H0V0ZM4.07319 9.19057H7.4314V19.9802H4.07319V9.19057ZM9.53767 9.19021H12.754V10.665H12.8002C13.2466 9.81564 14.342 8.92155 15.975 8.92155C19.3705 8.92155 19.9988 11.1557 19.9988 14.0633V19.9798H16.6467V14.7349C16.6467 13.4812 16.6213 11.8721 14.9019 11.8721C13.1556 11.8721 12.8898 13.2351 12.8898 14.6425V19.9798H9.53767V9.19021ZM5.75355 3.82639C6.82675 3.82639 7.69863 4.69791 7.69863 5.7711C7.69863 6.8443 6.82675 7.71582 5.75355 7.71582C4.67606 7.71582 3.8074 6.8443 3.8074 5.7711C3.8074 4.69791 4.67606 3.82639 5.75355 3.82639Z" fill="#46423F"/>
</g>
<defs>
<clipPath id="clip0_700_1865">
<rect width="24" height="24" fill="white"/>
</clipPath>
</defs>
</svg>
