<?xml version="1.0" encoding="UTF-8" standalone="no"?>
<!DOCTYPE svg PUBLIC "-//W3C//DTD SVG 1.1//EN" "http://www.w3.org/Graphics/SVG/1.1/DTD/svg11.dtd">
<svg width="100%" height="100%" viewBox="0 0 67 67" version="1.1" xmlns="http://www.w3.org/2000/svg" xmlns:xlink="http://www.w3.org/1999/xlink" xml:space="preserve" xmlns:serif="http://www.serif.com/" style="fill-rule:evenodd;clip-rule:evenodd;stroke-linejoin:round;stroke-miterlimit:2;">
    <g>
        <path d="M0,0L66.458,0L66.458,66.458L0,66.458L0,0ZM11.371,25.657L20.746,25.657L20.746,55.778L11.371,55.778L11.371,25.657ZM26.626,25.656L35.605,25.656L35.605,29.773L35.734,29.773C36.98,27.402 40.038,24.906 44.597,24.906C54.076,24.906 55.83,31.143 55.83,39.26L55.83,55.777L46.472,55.777L46.472,41.135C46.472,37.635 46.401,33.143 41.601,33.143C36.726,33.143 35.984,36.948 35.984,40.877L35.984,55.777L26.626,55.777L26.626,25.656ZM16.062,10.682C19.058,10.682 21.492,13.115 21.492,16.111C21.492,19.107 19.058,21.54 16.062,21.54C13.054,21.54 10.629,19.107 10.629,16.111C10.629,13.115 13.054,10.682 16.062,10.682Z" style="fill:rgb(35,31,32);"/>
    </g>
</svg>
