<?xml version="1.0" encoding="UTF-8" standalone="no"?>
<!DOCTYPE svg PUBLIC "-//W3C//DTD SVG 1.1//EN" "http://www.w3.org/Graphics/SVG/1.1/DTD/svg11.dtd">
<svg width="100%" height="100%" viewBox="0 0 65 71" version="1.1" xmlns="http://www.w3.org/2000/svg" xmlns:xlink="http://www.w3.org/1999/xlink" xml:space="preserve" xmlns:serif="http://www.serif.com/" style="fill-rule:evenodd;clip-rule:evenodd;stroke-linejoin:round;stroke-miterlimit:2;">
    <g transform="matrix(4.16667,0,0,4.16667,32.3167,4.0375)">
        <path d="M0,15.052L-5.833,13.044L-1.92,11.704C-1.054,12.786 -0.374,13.531 -0.335,13.573C-0.246,13.671 -0.12,13.726 0.012,13.726C0.145,13.726 0.271,13.671 0.36,13.573C0.399,13.531 1.081,12.784 1.948,11.698L5.858,13.042L0,15.052ZM4.742,4.704C4.742,6.745 1.599,10.743 0.012,12.548C-1.574,10.743 -4.717,6.745 -4.717,4.704C-4.717,2.097 -2.596,-0.026 0.012,-0.026C2.62,-0.026 4.742,2.097 4.742,4.704M7.462,12.599L2.562,10.913C2.704,10.726 2.849,10.532 2.993,10.335C4.779,7.892 5.684,5.997 5.684,4.702C5.684,1.575 3.14,-0.969 0.012,-0.969C-3.115,-0.969 -5.66,1.575 -5.66,4.704C-5.66,5.997 -4.754,7.892 -2.969,10.335C-2.823,10.534 -2.677,10.73 -2.533,10.917L-7.437,12.599C-7.628,12.663 -7.756,12.843 -7.756,13.044C-7.756,13.245 -7.628,13.425 -7.438,13.49L-0.154,15.995C-0.104,16.013 -0.052,16.021 0,16.021C0.051,16.021 0.103,16.013 0.153,15.995L7.462,13.49C7.652,13.425 7.78,13.245 7.781,13.044C7.781,12.843 7.653,12.663 7.462,12.599" style="fill:rgb(35,31,32);fill-rule:nonzero;"/>
    </g>
    <g transform="matrix(4.16667,0,0,4.16667,38.5337,22.4917)">
        <path d="M0,-0.002C0,0.814 -0.664,1.478 -1.48,1.478C-2.296,1.478 -2.96,0.814 -2.96,-0.002C-2.96,-0.818 -2.296,-1.482 -1.48,-1.482C-0.664,-1.482 0,-0.818 0,-0.002M-1.48,2.422C-0.144,2.422 0.943,1.334 0.943,-0.002C0.943,-1.338 -0.144,-2.424 -1.48,-2.424C-2.816,-2.424 -3.903,-1.338 -3.903,-0.002C-3.903,1.334 -2.816,2.422 -1.48,2.422" style="fill:rgb(35,31,32);fill-rule:nonzero;"/>
    </g>
</svg>
