<?xml version="1.0" encoding="UTF-8" standalone="no"?>
<!DOCTYPE svg PUBLIC "-//W3C//DTD SVG 1.1//EN" "http://www.w3.org/Graphics/SVG/1.1/DTD/svg11.dtd">
<svg width="100%" height="100%" viewBox="0 0 66 65" version="1.1" xmlns="http://www.w3.org/2000/svg" xmlns:xlink="http://www.w3.org/1999/xlink" xml:space="preserve" xmlns:serif="http://www.serif.com/" style="fill-rule:evenodd;clip-rule:evenodd;stroke-linejoin:round;stroke-miterlimit:2;">
    <g transform="matrix(4.16667,0,0,4.16667,10.5967,-0.278125)">
        <path d="M0,6.449L0,5.523C0,4.998 0.426,4.57 0.952,4.57L9.609,4.57C10.135,4.57 10.561,4.998 10.561,5.523L10.561,6.449L11.781,5.23C11.832,5.179 11.859,5.107 11.854,5.035C11.85,4.963 11.815,4.896 11.757,4.851L5.865,0.267C5.521,0 5.04,0 4.696,0.267L-1.197,4.851C-1.254,4.896 -1.289,4.963 -1.294,5.035C-1.298,5.107 -1.271,5.179 -1.22,5.23L0,6.449Z" style="fill:rgb(35,31,32);fill-rule:nonzero;"/>
    </g>
    <g transform="matrix(4.16667,0,0,4.16667,64.5458,63.9694)">
        <path d="M0,-9.445C-0.094,-9.484 -0.203,-9.463 -0.276,-9.39L-6.737,-2.927C-6.984,-2.681 -7.319,-2.543 -7.668,-2.543C-8.017,-2.543 -8.351,-2.681 -8.598,-2.927L-15.059,-9.39C-15.132,-9.463 -15.24,-9.484 -15.335,-9.445C-15.429,-9.406 -15.491,-9.312 -15.491,-9.211L-15.491,-1.004C-15.491,-0.427 -15.024,0.039 -14.448,0.039L-0.887,0.039C-0.311,0.039 0.156,-0.427 0.156,-1.004L0.156,-9.211C0.156,-9.314 0.094,-9.406 0,-9.445" style="fill:rgb(35,31,32);fill-rule:nonzero;"/>
    </g>
    <g transform="matrix(4.16667,0,0,4.16667,44.6421,29.181)">
        <path d="M0,-1.043L-5.781,-1.043C-6.069,-1.043 -6.302,-0.811 -6.302,-0.522C-6.302,-0.232 -6.069,0 -5.781,0L0,0C0.288,0 0.521,-0.232 0.521,-0.522C0.521,-0.811 0.288,-1.043 0,-1.043" style="fill:rgb(35,31,32);fill-rule:nonzero;"/>
    </g>
    <g transform="matrix(4.16667,0,0,4.16667,44.6421,37.8723)">
        <path d="M0,-1.043L-5.781,-1.043C-6.069,-1.043 -6.302,-0.809 -6.302,-0.522C-6.302,-0.232 -6.069,0 -5.781,0L0,0C0.288,0 0.521,-0.232 0.521,-0.522C0.521,-0.809 0.288,-1.043 0,-1.043" style="fill:rgb(35,31,32);fill-rule:nonzero;"/>
    </g>
</svg>
