<svg width="43" height="40" viewBox="0 0 43 40" fill="none" xmlns="http://www.w3.org/2000/svg">
<g clip-path="url(#clip0_938_13)">
<mask id="mask0_938_13" style="mask-type:luminance" maskUnits="userSpaceOnUse" x="3" y="3" width="37" height="34">
<path d="M40 3H3V37H40V3Z" fill="white"/>
</mask>
<g mask="url(#mask0_938_13)">
<path d="M24.4063 3H7.32065C4.93442 3 3 4.93351 3 7.31859V7.32158C3 9.70667 4.93442 11.6402 7.32065 11.6402H24.4063C26.7926 11.6402 28.7269 9.70667 28.7269 7.32158V7.31859C28.7269 4.93351 26.7926 3 24.4063 3Z" fill="#F45E43"/>
<path d="M35.587 11.6372C38.0243 11.6372 40.0001 9.7037 40.0001 7.31859C40.0001 4.93351 38.0243 3 35.587 3C33.1496 3 31.1738 4.93351 31.1738 7.31859C31.1738 9.7037 33.1496 11.6372 35.587 11.6372Z" fill="#F45E43"/>
<path d="M18.695 15.9028H35.5778C36.1631 15.8625 36.7503 15.9416 37.3041 16.1349C37.8579 16.3282 38.3667 16.632 38.7995 17.0277C39.2324 17.4235 39.5803 17.9029 39.8223 18.437C40.0642 18.9712 40.1951 19.5488 40.2071 20.1351C40.219 20.7212 40.1117 21.3038 39.8917 21.8474C39.6716 22.3909 39.3435 22.8841 38.9271 23.2971C38.5108 23.7101 38.0148 24.0343 37.4693 24.2499C36.9239 24.4656 36.3402 24.5684 35.7538 24.5519H18.695C18.1098 24.5922 17.5226 24.5133 16.9688 24.3199C16.415 24.1266 15.9062 23.8229 15.4734 23.4271C15.0405 23.0314 14.6926 22.5519 14.4506 22.0177C14.2087 21.4837 14.0778 20.9059 14.0658 20.3198C14.0539 19.7335 14.1612 19.151 14.3812 18.6075C14.6012 18.0639 14.9294 17.5708 15.3457 17.1578C15.7621 16.7447 16.2582 16.4206 16.8036 16.2048C17.3491 15.9892 17.9327 15.8864 18.519 15.9028H18.695Z" fill="#F45E43"/>
<path d="M7.41016 24.6346C9.84582 24.6346 11.8203 22.661 11.8203 20.2265C11.8203 17.7919 9.84582 15.8184 7.41016 15.8184C4.9745 15.8184 3 17.7919 3 20.2265C3 22.661 4.9745 24.6346 7.41016 24.6346Z" fill="#F63A4D"/>
<path d="M24.4063 28.3604H7.32065C4.93442 28.3604 3 30.2939 3 32.679V32.6819C3 35.067 4.93442 37.0005 7.32065 37.0005H24.4063C26.7926 37.0005 28.7269 35.067 28.7269 32.6819V32.679C28.7269 30.2939 26.7926 28.3604 24.4063 28.3604Z" fill="#F45E43"/>
<path d="M35.587 36.9996C38.0243 36.9996 40.0001 35.0648 40.0001 32.6781C40.0001 30.2913 38.0243 28.3564 35.587 28.3564C33.1496 28.3564 31.1738 30.2913 31.1738 32.6781C31.1738 35.0648 33.1496 36.9996 35.587 36.9996Z" fill="#F45E43"/>
</g>
</g>
<defs>
<clipPath id="clip0_938_13">
<rect width="37" height="34" fill="white" transform="translate(3 3)"/>
</clipPath>
</defs>
</svg>
