<svg width="31" height="28" viewBox="0 0 31 28" fill="none" xmlns="http://www.w3.org/2000/svg">
<g clip-path="url(#clip0_929_5)">
<path d="M17.935 0H3.62C1.62073 0 0 1.5923 0 3.55649V3.55895C0 5.52314 1.62073 7.11544 3.62 7.11544H17.935C19.9343 7.11544 21.555 5.52314 21.555 3.55895V3.55649C21.555 1.5923 19.9343 0 17.935 0Z" fill="#F45E43"/>
<path d="M27.3025 7.11298C29.3446 7.11298 31 5.52069 31 3.55649C31 1.5923 29.3446 0 27.3025 0C25.2604 0 23.605 1.5923 23.605 3.55649C23.605 5.52069 25.2604 7.11298 27.3025 7.11298Z" fill="#F45E43"/>
<path d="M13.1499 10.6256H27.2949C27.7853 10.5924 28.2773 10.6575 28.7413 10.8167C29.2053 10.9759 29.6316 11.2261 29.9942 11.552C30.3569 11.8779 30.6484 12.2727 30.8511 12.7126C31.0538 13.1525 31.1635 13.6282 31.1735 14.111C31.1835 14.5937 31.0936 15.0735 30.9093 15.5211C30.7249 15.9687 30.45 16.3749 30.1011 16.715C29.7523 17.0551 29.3367 17.3221 28.8797 17.4997C28.4227 17.6773 27.9337 17.762 27.4424 17.7484H13.1499C12.6596 17.7816 12.1676 17.7166 11.7036 17.5573C11.2396 17.3981 10.8133 17.148 10.4507 16.8221C10.088 16.4962 9.79648 16.1013 9.59377 15.6614C9.39106 15.2216 9.28138 14.7458 9.27138 14.2631C9.26138 13.7803 9.35128 13.3006 9.53561 12.853C9.71994 12.4053 9.99488 11.9992 10.3437 11.6591C10.6926 11.3189 11.1082 11.052 11.5652 10.8743C12.0222 10.6967 12.5112 10.6121 13.0024 10.6256H13.1499Z" fill="#F45E43"/>
<path d="M3.695 17.817C5.73569 17.817 7.39 16.1917 7.39 14.1868C7.39 12.1819 5.73569 10.5566 3.695 10.5566C1.65431 10.5566 0 12.1819 0 14.1868C0 16.1917 1.65431 17.817 3.695 17.817Z" fill="#F63A4D"/>
<path d="M17.935 20.8848H3.62C1.62073 20.8848 0 22.4771 0 24.4413V24.4437C0 26.4079 1.62073 28.0002 3.62 28.0002H17.935C19.9343 28.0002 21.555 26.4079 21.555 24.4437V24.4413C21.555 22.4771 19.9343 20.8848 17.935 20.8848Z" fill="#F45E43"/>
<path d="M27.3025 27.9997C29.3446 27.9997 31 26.4063 31 24.4408C31 22.4752 29.3446 20.8818 27.3025 20.8818C25.2604 20.8818 23.605 22.4752 23.605 24.4408C23.605 26.4063 25.2604 27.9997 27.3025 27.9997Z" fill="#F45E43"/>
</g>
<defs>
<clipPath id="clip0_929_5">
<rect width="31" height="28" fill="white"/>
</clipPath>
</defs>
</svg>
