<svg width="29" height="62" viewBox="0 0 29 62" fill="none" xmlns="http://www.w3.org/2000/svg">
<g clip-path="url(#clip0_775_2)">
<path d="M20.7157 29.6571C21.1556 29.3639 23.2916 27.8019 23.2916 25.1165C23.2916 16.475 10.5986 15.7431 11.2276 8.27326L12.8196 3.66302C12.9317 3.3383 12.6891 3.00064 12.3479 3.04029C7.54701 3.5982 3.99996 9.85149 3.99996 17.3048C3.99996 25.1168 8.96462 29.2669 9.59326 29.7553C10.2218 30.2437 10.3474 30.5851 9.46718 31.0245C8.5886 31.4629 4.0004 34.9948 4.0004 43.621C4.0004 53.3672 9.93797 56.8773 13.3994 57.3996C13.7855 57.4579 14.024 57.0428 13.8204 56.7096L11.1017 52.2621C11.1017 45.8665 23.2916 43.8155 23.2916 36.0039C23.2916 34.149 21.3442 31.5127 20.7157 31.0726C20.0871 30.6339 20.2757 29.95 20.7157 29.6571Z" fill="#46423F"/>
<path fill-rule="evenodd" clip-rule="evenodd" d="M11.1017 52.2623C11.1017 49.2243 13.8523 47.1666 16.7403 45.0061C19.932 42.6184 23.2916 40.1051 23.2916 36.0041C23.2916 34.1493 21.3442 31.5129 20.7157 31.0728C20.0871 30.6341 20.2757 29.9502 20.7157 29.6573C21.1556 29.3642 23.2916 27.8021 23.2916 25.1167C23.2916 20.7012 19.9777 18.3508 16.8203 16.1114C13.7985 13.9681 10.92 11.9265 11.2276 8.27348L12.8196 3.66324C12.9317 3.33852 12.6891 3.00086 12.3479 3.04051C12.0568 3.07434 11.7704 3.12909 11.489 3.20378C11.2748 3.26066 11.0635 3.32911 10.8554 3.40867C10.8308 3.41808 10.8062 3.42765 10.7817 3.43737C6.79533 5.01753 3.99996 10.6884 3.99996 17.3051C3.99996 25.117 8.96462 29.2671 9.59326 29.7555C10.2218 30.2439 10.3474 30.5853 9.46718 31.0247C8.5886 31.4631 4.0004 34.995 4.0004 43.6213C4.0004 51.823 8.20525 55.6085 11.6008 56.9135C11.6998 56.9516 11.7982 56.9875 11.8957 57.0214C12.2277 57.1368 12.5503 57.2283 12.8586 57.2977C13.0444 57.3396 13.2251 57.3735 13.3994 57.3998C13.7855 57.4581 14.024 57.043 13.8204 56.7099L11.1017 52.2623ZM7.16239 30.2423C5.27254 28.3161 1.99996 24.0084 1.99996 17.3051C1.99996 13.2821 2.95367 9.49843 4.64334 6.5839C6.31958 3.69251 8.8744 1.4307 12.117 1.05388C14.1061 0.822738 15.241 2.77837 14.71 4.31606L13.2072 8.66804C13.1718 9.7596 13.5676 10.6308 14.3499 11.5215C15.2449 12.5405 16.5153 13.4422 18.0846 14.5561C18.1168 14.5789 18.1491 14.6019 18.1815 14.6249C18.2053 14.6418 18.2292 14.6588 18.2532 14.6758C21.2107 16.775 25.2916 19.6715 25.2916 25.1167C25.2916 27.6825 23.9294 29.4673 22.8943 30.4558C22.9111 30.4765 22.9276 30.497 22.9438 30.5172C23.2725 30.9273 23.627 31.4313 23.956 31.9818C24.5618 32.9952 25.2916 34.5105 25.2916 36.0041C25.2916 41.0529 21.2977 44.0855 18.3977 46.2635C18.2489 46.3752 18.1023 46.485 17.9579 46.5931C16.5563 47.6429 15.3645 48.5354 14.4625 49.4934C13.6824 50.3219 13.2701 51.0464 13.1441 51.7689L15.5268 55.6668C16.0199 56.4734 16.0078 57.4568 15.5485 58.2265C15.0719 59.0251 14.1388 59.534 13.101 59.3774C8.71436 58.7156 2.0004 54.4095 2.0004 43.6213C2.0004 36.2648 5.08216 32.0819 7.16239 30.2423Z" fill="white"/>
</g>
<defs>
<clipPath id="clip0_775_2">
<rect width="61.3411" height="28.0486" fill="white" transform="translate(28.0465) rotate(89.3043)"/>
</clipPath>
</defs>
</svg>
