<svg width="30" height="63" viewBox="0 0 30 63" fill="none" xmlns="http://www.w3.org/2000/svg">
<g clip-path="url(#clip0_691_206)">
<path d="M26.1929 26.7841C26.1929 29.5449 23.6462 31.1507 23.1217 31.4522C22.5973 31.7532 22.3724 32.4563 23.1217 32.9074C23.8711 33.3598 26.1929 36.0702 26.1929 37.9771C26.1929 46.0081 11.6598 48.1167 11.6598 54.6918C11.6598 57.9783 13.2068 58.4731 15.3804 58.4731C18.2266 58.4731 19.5259 56.6998 19.5259 55.596C19.5259 55.1064 19.601 54.6422 18.9258 54.2401C18.2505 53.838 18.3256 53.1866 19.5259 53.3373C20.7241 53.4867 21.5486 54.4404 21.5486 55.746C21.5486 57.5367 19.2761 60.0464 15.4555 60.0464C11.6349 60.0464 3.19352 56.7499 3.19352 45.8082C3.19352 36.9397 8.66365 33.3086 9.7111 32.8579C10.7606 32.4062 10.6108 32.0552 9.86142 31.5531C9.11195 31.051 3.19299 26.7843 3.19299 18.7531C3.19299 10.7221 7.83816 4.04639 13.9809 4.04639C20.1253 4.04639 21.548 7.25892 21.548 8.8151C21.548 10.3707 20.0502 11.0738 19.0008 11.0738C17.9522 11.0738 18.3078 10.3831 18.851 10.0196C19.0759 9.86896 19.4511 9.61759 19.4511 8.91581C19.4511 8.2127 17.8025 6.35608 15.6305 6.35608C13.4585 6.35608 12.0012 7.51474 11.8099 9.4679C11.06 17.1475 26.1929 17.8999 26.1929 26.7841Z" fill="#3D3834"/>
<path fill-rule="evenodd" clip-rule="evenodd" d="M19.5269 55.2273C19.5202 55.0221 19.4883 54.8235 19.3642 54.6343L19.3632 54.6327C19.2735 54.4965 19.136 54.3653 18.9258 54.2401C18.2617 53.8447 18.3233 53.208 19.4673 53.3305C19.4865 53.3326 19.5061 53.3348 19.5259 53.3373C19.8894 53.3826 20.2185 53.502 20.5007 53.6827C21.0685 54.0465 21.446 54.659 21.5306 55.4172C21.5425 55.524 21.5486 55.6337 21.5486 55.746C21.5486 56.0304 21.4913 56.3328 21.3796 56.6405C20.7879 58.2704 18.6694 60.0464 15.4555 60.0464C15.4306 60.0464 15.4056 60.0462 15.3804 60.046C14.2256 60.0332 12.6691 59.7259 11.0551 59.0094C7.28129 57.3343 3.19352 53.4223 3.19352 45.8082C3.19352 36.9397 8.66365 33.3086 9.7111 32.8579C10.7606 32.4062 10.6108 32.0552 9.86142 31.5531C9.11195 31.051 3.19299 26.7843 3.19299 18.7531C3.19299 10.7221 7.83816 4.04639 13.9809 4.04639C20.1253 4.04639 21.548 7.25892 21.548 8.8151C21.548 9.13647 21.484 9.42146 21.3733 9.67138C21.1586 10.1562 20.7679 10.5091 20.3264 10.7396C20.0672 10.8749 19.7906 10.968 19.5219 11.021C19.3424 11.0563 19.1657 11.0738 19.0008 11.0738C17.9522 11.0738 18.3078 10.3831 18.851 10.0196C18.8962 9.9893 18.9476 9.95489 19.0008 9.91355C19.1707 9.78142 19.359 9.57848 19.4259 9.21162C19.4409 9.12907 19.4498 9.03823 19.4509 8.93802C19.451 8.93067 19.4511 8.92326 19.4511 8.91581C19.4511 8.2127 17.8025 6.35608 15.6305 6.35608C13.4585 6.35608 12.0012 7.51474 11.8099 9.4679C11.4432 13.2235 14.8749 15.3224 18.4777 17.5259C22.2419 19.8282 26.1929 22.2446 26.1929 26.7841C26.1929 29.5449 23.6462 31.1507 23.1217 31.4522C22.5973 31.7532 22.3724 32.4563 23.1217 32.9074C23.8711 33.3598 26.1929 36.0702 26.1929 37.9771C26.1929 42.1932 22.1875 44.7771 18.3822 47.2319C14.9391 49.453 11.6598 51.5685 11.6598 54.6918C11.6598 55.9406 11.8832 56.7863 12.2794 57.355C12.9259 58.2829 14.0327 58.4731 15.3804 58.4731C15.4055 58.4731 15.4306 58.4729 15.4555 58.4726C17.8836 58.4458 19.1656 57.1193 19.4597 56.0543C19.504 55.8938 19.5259 55.7393 19.5259 55.596C19.5259 55.5784 19.526 55.5609 19.5261 55.5434C19.5264 55.5163 19.5268 55.4893 19.5271 55.4623C19.5283 55.3831 19.5294 55.3048 19.5269 55.2273ZM13.8003 9.66287C13.69 10.795 14.1069 11.7207 15.142 12.7369C16.2307 13.8057 17.7753 14.751 19.6342 15.8888C19.6774 15.9152 19.7208 15.9418 19.7644 15.9685C21.575 17.0769 23.6613 18.3657 25.2705 20.0126C26.9388 21.7198 28.1929 23.9087 28.1929 26.7841C28.1929 28.8178 27.2485 30.3643 26.344 31.3745C26.0289 31.7264 25.7053 32.0289 25.4026 32.2821C25.7843 32.6949 26.197 33.2019 26.582 33.7575C27.2915 34.7809 28.1929 36.3713 28.1929 37.9771C28.1929 40.662 26.9553 42.7683 25.3699 44.432C23.8221 46.0563 21.8116 47.3947 20.0135 48.5591C19.8356 48.6743 19.66 48.7877 19.4868 48.8996C17.82 49.9759 16.375 50.909 15.2814 51.9105C14.0935 52.9985 13.6598 53.867 13.6598 54.6918C13.6598 55.3701 13.7414 55.7761 13.822 56.0051C13.8919 56.2035 13.9537 56.2527 13.9646 56.2614L13.9655 56.2621C14.0386 56.3214 14.3285 56.4731 15.3804 56.4731C16.846 56.4731 17.3127 55.8786 17.4596 55.6443C17.2367 55.4566 17.0227 55.2234 16.851 54.9374C16.5637 54.4587 16.3114 53.6517 16.6881 52.7845C17.0556 51.9386 17.7909 51.5721 18.2928 51.4319C18.8027 51.2896 19.321 51.296 19.7732 51.3527C22.0451 51.6358 23.5486 53.5063 23.5486 55.746C23.5486 57.4259 22.5464 59.0206 21.1974 60.1188C19.7858 61.2678 17.8138 62.0464 15.4555 62.0464C13.0852 62.0464 9.55836 61.0629 6.59917 58.5566C3.55722 55.9802 1.19352 51.8599 1.19352 45.8082C1.19352 38.1937 4.86118 33.9142 7.27136 32.0506C5.03116 30.0595 1.19299 25.6409 1.19299 18.7531C1.19299 14.3709 2.45706 10.2722 4.66171 7.21763C6.8721 4.15516 10.1208 2.04639 13.9809 2.04639C17.3983 2.04639 19.8116 2.94453 21.3964 4.35157C22.9627 5.74215 23.548 7.48577 23.548 8.8151C23.548 10.329 22.7845 11.4568 21.8495 12.1414C20.9735 12.7829 19.9149 13.0738 19.0008 13.0738C18.5911 13.0738 17.9418 13.0194 17.3491 12.6242C16.5798 12.1112 16.2472 11.2591 16.3428 10.4487C16.418 9.8107 16.7333 9.34001 16.9403 9.08302C16.9865 9.02565 17.0345 8.97009 17.0839 8.91639C16.6588 8.57766 16.1395 8.35608 15.6305 8.35608C14.8919 8.35608 14.4618 8.55116 14.2354 8.73434C14.0325 8.89853 13.8492 9.16576 13.8003 9.66287ZM17.5278 55.2886C17.5276 55.2864 17.5276 55.285 17.5276 55.285ZM17.7816 8.32753L17.7803 8.32854ZM19.001 9.07376C18.9694 9.07087 18.9665 9.07376 19.001 9.07376Z" fill="white"/>
</g>
<defs>
<clipPath id="clip0_691_206">
<rect width="61.3411" height="28.0486" fill="white" transform="translate(28.3859 0.974121) rotate(89.3043)"/>
</clipPath>
</defs>
</svg>
