<svg width="131" height="25" viewBox="0 0 131 25" fill="none" xmlns="http://www.w3.org/2000/svg">
<path d="M70.3 0.378471C67.9 -0.421529 65.5 0.078472 65 1.57847C64.9 1.67847 64.9 1.77847 64.9 1.87847C64.6 2.97847 65.2 4.17847 66.5 5.17847L65.3 8.47847C65.3 8.47847 65.1 8.87847 65.5 9.37847L62.9 17.3785C62.9 17.3785 62.8 17.8785 63.5 18.1785C64.3 18.4785 64.6 18.0785 64.6 18.0785L68.1 10.3785C68.7 10.2785 68.9 9.87847 68.9 9.87847L70.2 6.47847C71.9 6.57847 73.3 5.97847 73.8 4.87847C73.8 4.77847 73.9 4.67847 74 4.57847C74.3 3.07847 72.7 1.17847 70.3 0.378471ZM52.4 6.87847L51.3 9.67847H54.6L51.5 17.3785H55.9L59 9.67847H62.3L63.4 6.87847H52.4ZM119 13.9785H123.4C124 13.9785 124.1 14.1785 124 14.6785L122.9 17.3785H127.6L128.7 14.6785C129 13.7785 129 13.0785 128.6 12.5785C129.4 12.0785 130 11.3785 130.4 10.4785C130.8 9.37847 130.9 8.57847 130.5 7.97847C130.1 7.37847 129.4 6.97847 128.4 6.97847H117.5L116.4 9.77847H125.2C125.4 9.77847 125.6 9.87847 125.7 9.97847C125.8 10.0785 125.8 10.2785 125.7 10.4785C125.6 10.6785 125.5 10.8785 125.2 10.9785C125 11.0785 124.8 11.1785 124.6 11.1785H115.8L113.3 17.3785H117.7L119 13.9785ZM107 11.1785C107.7 10.2785 108.3 9.77847 108.8 9.77847H110.5L109.9 11.1785H107.4L106.3 13.9785H108.8L107.4 17.3785H111.8L114.8 9.67847C115.1 8.97847 115.1 8.27847 114.8 7.77847C114.5 7.17847 113.7 6.77847 112.4 6.77847H109.9C107.1 6.77847 104.4 8.47847 101.8 11.8785L97.7 17.2785H102.2L107 11.1785ZM97.6 15.3785H89.9C89.6 15.3785 89.4 15.1785 89.3 14.8785C89.2 14.5785 89.2 14.2785 89.3 13.9785H95.4L96.5 11.1785H90.4C90.5 10.8785 90.7 10.5785 91.1 10.2785C91.4 9.97847 91.8 9.77847 92.1 9.77847H99.8L100.9 6.97847H93.2C91.5 6.97847 90 7.47847 88.6 8.47847C87.2 9.47847 86.1 10.8785 85.5 12.5785C84.8 14.2785 84.8 15.6785 85.3 16.6785C85.5 16.9785 85.7 17.1785 85.9 17.3785H96.8L97.6 15.3785ZM84.4 11.8785H79.9L78.5 15.3785H74.1C73.8 15.3785 73.6 15.1785 73.5 14.8785C73.4 14.5785 73.4 14.2785 73.5 13.9785L74.6 11.1785C74.7 10.8785 74.9 10.5785 75.3 10.2785C75.6 9.97847 76 9.77847 76.3 9.77847H85.1L86.2 6.97847H77.4C75.7 6.97847 74.2 7.47847 72.8 8.47847C71.4 9.47847 70.3 10.8785 69.7 12.5785C69 14.2785 69 15.6785 69.5 16.6785C69.7 16.9785 69.9 17.1785 70.1 17.3785H82.1L84.4 11.8785ZM40.2 15.0785L41.7 17.3785H46.9L47.1 16.8785L44 12.4785L50.6 8.07847L51.1 6.87847H46.9L42.2 9.97847L40 6.87847H35.7L35.2 7.97847L38.3 12.4785L31.6 16.9785L31.5 17.2785H36.7L40.2 15.0785ZM30.9 15.3785H23.2C22.9 15.3785 22.7 15.1785 22.6 14.8785C22.5 14.5785 22.5 14.2785 22.6 13.9785H28.7L29.8 11.1785H23.7C23.8 10.8785 24 10.5785 24.4 10.2785C24.8 9.97847 25.1 9.77847 25.4 9.77847H33.1L34.2 6.97847H26.5C24.8 6.97847 23.3 7.47847 21.9 8.47847C20.5 9.47847 19.4 10.8785 18.8 12.5785C18.1 14.2785 18.1 15.6785 18.6 16.6785C18.8 16.9785 19 17.1785 19.2 17.3785H30.1L30.9 15.3785ZM6.39999 12.5785L10.7 17.4785H14.8C15.5 16.9785 16 16.2785 16.3 15.4785L19.7 6.97847H15.3L13 12.5785L8.39999 7.47847C8.09999 7.07847 7.6 6.87847 7 6.87847C6.2 6.87847 5.4 7.07847 4.7 7.67847C4 8.17847 3.49999 8.87847 3.09999 9.67847L0 17.3785H4.39999L6.39999 12.5785ZM52.1 6.87847C56.7 0.678472 64.7 0.878471 64.7 0.878471C64.7 0.878471 55 -0.721528 50 7.77847C44.4 17.3785 51.5 24.5785 51.5 24.5785C51.5 24.5785 45.3 16.0785 52.1 6.87847Z" fill="#333333"/>
</svg>
