<svg width="63" height="63" viewBox="0 0 63 63" fill="none" xmlns="http://www.w3.org/2000/svg">
<circle cx="31.5" cy="31.5" r="31.5" fill="white"/>
<g clip-path="url(#clip0_774_294)">
<mask id="mask0_774_294" style="mask-type:luminance" maskUnits="userSpaceOnUse" x="1" y="1" width="61" height="61">
<path d="M62 1H1V62H62V1Z" fill="white"/>
</mask>
<g mask="url(#mask0_774_294)">
<path d="M29.5025 1.01642C29.3712 1.02834 28.9539 1.07007 28.5782 1.09988C19.9141 1.8809 11.7987 6.5551 6.65875 13.7392C3.79658 17.7338 1.96598 22.265 1.27429 27.0643C1.02981 28.7396 1 29.2345 1 31.506C1 33.7775 1.02981 34.2723 1.27429 35.9476C2.93197 47.4006 11.0832 57.0233 22.1383 60.5885C24.118 61.2264 26.205 61.6617 28.5782 61.924C29.5025 62.0254 33.4975 62.0254 34.4218 61.924C38.5183 61.4709 41.9887 60.4573 45.4113 58.7105C45.936 58.4422 46.0374 58.3706 45.9659 58.3111C45.9182 58.2752 43.6821 55.2763 40.9988 51.6515L36.1212 45.0635L30.0093 36.0192C26.6462 31.0469 23.8795 26.9809 23.8556 26.9809C23.8318 26.9749 23.8079 30.9932 23.7959 35.8999C23.7781 44.4912 23.7722 44.8369 23.6648 45.0397C23.5097 45.3317 23.3905 45.4511 23.1401 45.5822C22.9493 45.6776 22.7824 45.6954 21.8819 45.6954H20.8504L20.576 45.5226C20.3971 45.4093 20.266 45.2603 20.1766 45.0874L20.0513 44.8191L20.0632 32.8653L20.0812 20.9055L20.266 20.6731C20.3614 20.5478 20.5642 20.3869 20.7073 20.3094C20.9518 20.1901 21.0472 20.1782 22.0787 20.1782C23.2951 20.1782 23.4979 20.2259 23.8139 20.5717C23.9033 20.6671 27.2127 25.6513 31.1721 31.6551C35.1313 37.6587 40.5457 45.8565 43.205 49.8808L48.035 57.1961L48.2795 57.0352C50.444 55.6282 52.7337 53.6249 54.5464 51.5383C58.4044 47.1084 60.8909 41.7069 61.7257 35.9476C61.9702 34.2723 62 33.7775 62 31.506C62 29.2345 61.9702 28.7396 61.7257 27.0643C60.068 15.6113 51.9168 5.9887 40.8617 2.42345C38.9119 1.79147 36.8368 1.35625 34.5112 1.09392C33.9388 1.0343 29.9973 0.968719 29.5025 1.01642ZM41.9887 19.4627C42.2749 19.6059 42.5075 19.8801 42.5909 20.1663C42.6386 20.3213 42.6506 23.6361 42.6386 31.1066L42.6207 41.8262L40.7305 38.9286L38.8343 36.0311V28.2388C38.8343 23.201 38.8582 20.369 38.8939 20.2318C38.9893 19.898 39.1981 19.6356 39.4843 19.4807C39.7288 19.3555 39.8182 19.3436 40.7543 19.3436C41.6369 19.3436 41.7919 19.3555 41.9887 19.4627Z" fill="black"/>
</g>
</g>
<defs>
<clipPath id="clip0_774_294">
<rect width="61" height="61" fill="white" transform="translate(1 1)"/>
</clipPath>
</defs>
</svg>
