<svg width="25" height="28" viewBox="0 0 25 28" fill="none" xmlns="http://www.w3.org/2000/svg">
<mask id="mask0_929_69" style="mask-type:luminance" maskUnits="userSpaceOnUse" x="0" y="0" width="25" height="28">
<path d="M11.3563 0.17285L0.647174 6.35407C0.246057 6.58539 0 7.01243 0 7.47405V19.8451C0 20.307 0.246057 20.7338 0.647174 20.9651L11.3571 27.1512C11.7575 27.3817 12.2511 27.3817 12.651 27.1512L23.3591 20.9651C23.7582 20.7338 24.0048 20.3068 24.0048 19.8451V7.47405C24.0048 7.01243 23.7582 6.58539 23.3566 6.35407L12.6499 0.17285C12.4491 0.0577001 12.2254 0 12.0017 0C11.7781 0 11.5544 0.0577001 11.3535 0.17285" fill="white"/>
</mask>
<g mask="url(#mask0_929_69)">
<path d="M34.8269 5.30421L4.65036 -9.4873L-10.8224 22.0769L19.3534 36.8692L34.8269 5.30421Z" fill="url(#paint0_linear_929_69)"/>
</g>
<mask id="mask1_929_69" style="mask-type:luminance" maskUnits="userSpaceOnUse" x="0" y="0" width="24" height="28">
<path d="M0.265259 20.6301C0.367699 20.7631 0.495812 20.8782 0.646549 20.9646L9.8331 26.2709L11.3633 27.1504C11.5921 27.2826 11.8529 27.3385 12.1091 27.3195C12.1946 27.3126 12.28 27.2966 12.3633 27.273L23.6582 6.59178C23.5717 6.49773 23.4706 6.41893 23.3572 6.35284L16.345 2.30354L12.6384 0.170855C12.5331 0.109849 12.419 0.066636 12.3028 0.0361328L0.265259 20.6301Z" fill="white"/>
</mask>
<g mask="url(#mask1_929_69)">
<path d="M-12.7819 9.67858L8.52591 38.5176L36.7058 17.6976L15.3968 -11.1406L-12.7819 9.67858Z" fill="url(#paint1_linear_929_69)"/>
</g>
<mask id="mask2_929_69" style="mask-type:luminance" maskUnits="userSpaceOnUse" x="0" y="0" width="24" height="28">
<path d="M11.8739 0.00678209C11.6942 0.0245756 11.5186 0.0804964 11.3566 0.172514L0.677979 6.33595L12.1929 27.3094C12.3531 27.2866 12.5107 27.2332 12.653 27.1508L23.3622 20.9648C23.6927 20.7731 23.9189 20.4488 23.9875 20.0812L12.2489 0.0278783C12.1624 0.0108473 12.076 0.00195312 11.987 0.00195312C11.9515 0.00195312 11.9159 0.00372969 11.8803 0.0070342" fill="white"/>
</mask>
<g mask="url(#mask2_929_69)">
<path d="M0.677734 0.00195312V27.31H23.983V0.00195312H0.677734Z" fill="url(#paint2_linear_929_69)"/>
</g>
<defs>
<linearGradient id="paint0_linear_929_69" x1="19.7296" y1="-2.11481" x2="4.2579" y2="29.4473" gradientUnits="userSpaceOnUse">
<stop offset="0.3" stop-color="#3E863D"/>
<stop offset="0.5" stop-color="#55934F"/>
<stop offset="0.8" stop-color="#5AAD45"/>
</linearGradient>
<linearGradient id="paint1_linear_929_69" x1="-2.00029" y1="24.2634" x2="26.1807" y2="3.44099" gradientUnits="userSpaceOnUse">
<stop offset="0.57" stop-color="#3E863D"/>
<stop offset="0.72" stop-color="#619857"/>
<stop offset="1" stop-color="#76AC64"/>
</linearGradient>
<linearGradient id="paint2_linear_929_69" x1="0.685597" y1="13.6567" x2="23.9874" y2="13.6567" gradientUnits="userSpaceOnUse">
<stop offset="0.16" stop-color="#6BBF47"/>
<stop offset="0.38" stop-color="#79B461"/>
<stop offset="0.47" stop-color="#75AC64"/>
<stop offset="0.7" stop-color="#659E5A"/>
<stop offset="0.9" stop-color="#3E863D"/>
</linearGradient>
</defs>
</svg>
