<?xml version="1.0" encoding="UTF-8" standalone="no"?>
<!DOCTYPE svg PUBLIC "-//W3C//DTD SVG 1.1//EN" "http://www.w3.org/Graphics/SVG/1.1/DTD/svg11.dtd">
<svg width="100%" height="100%" viewBox="0 0 119 24" version="1.1" xmlns="http://www.w3.org/2000/svg" xmlns:xlink="http://www.w3.org/1999/xlink" xml:space="preserve" xmlns:serif="http://www.serif.com/" style="fill-rule:evenodd;clip-rule:evenodd;stroke-linejoin:round;stroke-miterlimit:2;">
    <g>
        <path d="M26.336,12.087C25.565,12.087 24.618,12.291 23.706,12.657C22.728,13.049 21.857,13.599 21.316,14.167C20.863,14.643 20.774,14.99 20.824,15.107C20.874,15.224 21.191,15.408 21.858,15.435C22.655,15.465 23.675,15.26 24.652,14.868C25.629,14.476 26.5,13.926 27.041,13.358C27.494,12.883 27.583,12.535 27.533,12.418C27.481,12.3 27.164,12.116 26.499,12.09C26.445,12.088 26.39,12.087 26.336,12.087ZM14.642,1.964C13.008,1.965 11.39,2.278 9.874,2.887C3.482,5.449 0.454,12.606 3.124,18.841L3.526,19.783C4.205,19.026 5.264,18.317 6.6,17.782C7.936,17.246 9.203,17.022 10.235,17.093L9.811,16.102C8.689,13.48 9.966,10.47 12.658,9.391C15.35,8.312 18.453,9.567 19.574,12.188L20.003,13.189L20.101,13.084C20.809,12.34 21.864,11.664 23.073,11.179C24.281,10.695 25.522,10.449 26.566,10.492C26.616,10.494 26.664,10.496 26.712,10.5L26.305,9.55C25.012,6.527 22.59,4.17 19.485,2.913C17.947,2.287 16.302,1.965 14.642,1.963L14.642,1.964ZM4.352,21.71C4.488,22.03 6,22.344 8.179,21.47C9.156,21.08 10.027,20.529 10.569,19.96C11.021,19.485 11.111,19.138 11.061,19.02C10.924,18.7 9.412,18.386 7.233,19.26C5.055,20.132 4.215,21.387 4.351,21.71L4.352,21.71ZM5.557,23.65C4.213,23.65 3.199,23.196 2.824,22.322L1.596,19.452C-1.422,12.403 2.008,4.31 9.24,1.41C12.732,0.005 16.637,0.016 20.122,1.438C23.632,2.86 26.37,5.523 27.832,8.937L29.058,11.803C29.058,11.804 29.058,11.805 29.06,11.806C29.257,12.268 29.415,13.224 28.255,14.442C27.547,15.185 26.492,15.862 25.283,16.346C24.075,16.83 22.833,17.075 21.79,17.033C20.523,16.983 19.637,16.516 19.296,15.719L19.295,15.716L18.047,12.801C17.273,10.994 15.139,10.127 13.289,10.868C11.439,11.61 10.564,13.683 11.337,15.489L12.585,18.405C12.585,18.407 12.586,18.408 12.587,18.408C12.784,18.87 12.942,19.826 11.783,21.044C11.075,21.788 10.019,22.464 8.811,22.948C7.634,23.42 6.511,23.65 5.556,23.65L5.557,23.65Z" style="fill:rgb(35,31,32);"/>
    </g>
    <g>
        <path d="M79.627,22.883L78.641,22.048C78.45,22.166 78.335,22.327 78.335,22.506C78.335,22.821 78.622,23.043 79.074,23.043C79.252,23.043 79.448,22.993 79.627,22.883ZM80.307,23.457C79.945,23.717 79.493,23.84 79.035,23.84C78.03,23.84 77.337,23.327 77.337,22.543C77.337,22.079 77.617,21.721 78.055,21.486C77.852,21.226 77.756,20.967 77.756,20.671C77.756,19.985 78.355,19.516 79.168,19.516C80.034,19.516 80.485,20.016 80.588,20.689L79.646,20.85C79.614,20.448 79.442,20.306 79.168,20.306C78.92,20.306 78.736,20.442 78.736,20.696C78.736,20.918 78.851,21.091 79.213,21.406L80.117,22.166C80.143,22.049 80.156,21.928 80.155,21.808L80.155,21.529L81.077,21.529L81.077,21.808C81.077,22.197 81.001,22.524 80.867,22.802L81.439,23.284L80.848,23.92L80.308,23.457L80.307,23.457Z" style="fill:rgb(35,31,32);"/>
    </g>
    <path d="M88.18,22.184C87.98,23.229 87.115,23.839 86.012,23.839C84.737,23.839 83.732,22.888 83.732,21.661C83.732,20.441 84.737,19.482 86.012,19.482C87.07,19.482 87.968,20.092 88.172,21.082L87.135,21.319C87,20.715 86.565,20.422 86.012,20.422C85.334,20.422 84.789,20.952 84.789,21.662C84.789,22.371 85.334,22.906 86.013,22.906C86.558,22.906 86.993,22.607 87.141,21.985L88.179,22.184L88.18,22.184ZM92.405,21.667C92.405,20.951 91.873,20.422 91.175,20.422C90.475,20.422 89.944,20.952 89.944,21.667C89.944,22.377 90.476,22.899 91.174,22.899C91.184,22.899 91.194,22.899 91.204,22.899C91.863,22.899 92.404,22.358 92.404,21.699C92.404,21.689 92.404,21.678 92.404,21.667L92.405,21.667ZM93.462,21.667C93.462,22.881 92.456,23.839 91.175,23.839C89.892,23.839 88.887,22.881 88.887,21.667C88.887,20.447 89.892,19.482 91.175,19.482C92.456,19.482 93.462,20.448 93.462,21.667ZM99.27,23.746L98.245,23.746L98.245,21.525L97.04,23.746L96.553,23.746L95.342,21.512L95.342,23.746L94.316,23.746L94.316,19.576L95.355,19.576L96.797,22.222L98.239,19.576L99.27,19.576L99.27,23.746ZM102.314,21.611C102.724,21.611 102.973,21.381 102.973,21.027C102.973,20.69 102.724,20.454 102.314,20.454L101.378,20.454L101.378,21.611L102.314,21.611ZM102.435,19.576C103.403,19.576 104.012,20.156 104.012,21.014C104.012,21.892 103.384,22.47 102.39,22.47L101.378,22.47L101.378,23.746L100.32,23.746L100.32,19.576L102.435,19.576ZM106.197,20.734L105.652,22.104L106.748,22.104L106.197,20.734ZM107.402,23.746L107.1,22.987L105.293,22.987L104.992,23.747L103.857,23.747L105.652,19.577L106.735,19.577L108.53,23.747L107.402,23.747L107.402,23.746ZM113.279,23.746L112.407,23.746L110.234,21.331L110.234,23.746L109.177,23.746L109.177,19.576L110.055,19.576L112.227,22.066L112.227,19.576L113.279,19.576L113.279,23.746Z" style="fill:rgb(35,31,32);"/>
    <g>
        <path d="M116.696,23.746L115.619,23.746L115.619,22.451L113.959,19.576L115.113,19.576L116.171,21.406L117.215,19.576L118.394,19.576L116.696,22.439L116.696,23.746Z" style="fill:rgb(35,31,32);"/>
    </g>
    <path d="M54.587,14.29C56.486,14.29 58.083,12.852 58.083,10.715C58.083,8.601 56.486,7.139 54.587,7.139C52.665,7.139 51.067,8.601 51.067,10.715C51.067,12.852 52.665,14.291 54.587,14.291L54.587,14.29ZM54.564,4.71C58.176,4.71 61.071,7.207 61.071,10.715C61.071,14.245 58.176,16.72 54.587,16.72C50.975,16.72 48.08,14.246 48.08,10.715C48.08,7.207 50.975,4.711 54.564,4.711L54.564,4.71ZM69.208,14.29C71.107,14.29 72.704,12.852 72.704,10.715C72.704,8.601 71.107,7.139 69.208,7.139C67.286,7.139 65.688,8.601 65.688,10.715C65.688,12.852 67.286,14.291 69.208,14.291L69.208,14.29ZM69.185,4.71C72.797,4.71 75.692,7.207 75.692,10.715C75.692,14.245 72.797,16.72 69.208,16.72C65.596,16.72 62.701,14.246 62.701,10.715C62.701,7.207 65.596,4.711 69.185,4.711L69.185,4.71ZM83.227,14.313C84.755,14.313 86.191,13.233 86.191,10.693C86.191,8.916 85.219,7.162 83.251,7.162C81.629,7.162 80.286,8.444 80.286,10.715C80.286,12.896 81.49,14.313 83.227,14.313ZM82.671,4.71C85.265,4.71 86.075,6.172 86.075,6.172L86.121,6.172C86.121,6.172 86.1,5.88 86.1,5.52L86.1,0.482L89.04,0.482L89.04,16.45L86.26,16.45L86.26,15.505C86.26,15.078 86.307,14.763 86.307,14.763L86.26,14.763C86.26,14.763 85.265,16.72 82.556,16.72C79.36,16.72 77.322,14.268 77.322,10.715C77.322,7.072 79.545,4.71 82.672,4.71L82.671,4.71ZM91.224,0.482L94.142,0.482L94.142,12.602C94.142,13.862 94.582,14.177 95.345,14.177C95.577,14.177 95.785,14.154 95.785,14.154L95.785,16.651C95.785,16.651 95.345,16.718 94.859,16.718C93.239,16.718 91.224,16.314 91.224,13.03L91.224,0.482ZM46.86,14.178C46.095,14.178 45.655,13.863 45.655,12.603L45.653,10.661L45.653,9.066C45.653,6.03 44.171,4.703 41.555,4.703C39.169,4.703 37.873,6.12 37.363,7.087L37.317,7.087C37.317,7.087 37.363,6.727 37.363,6.3L37.363,4.973L34.538,4.973L34.538,16.443L37.479,16.443L37.479,11.18C37.479,10.64 37.525,10.123 37.687,9.65C38.127,8.279 39.285,7.312 40.86,7.312C42.365,7.312 42.735,8.256 42.735,9.651L42.738,12.084L42.738,13.031C42.738,16.314 44.752,16.719 46.373,16.719C46.859,16.719 47.299,16.652 47.299,16.652L47.299,14.155C47.299,14.155 47.091,14.178 46.859,14.178L46.86,14.178ZM104.886,9.299C104.84,7.747 103.844,6.915 102.547,6.915C101.042,6.915 100,7.815 99.722,9.299L104.886,9.299ZM102.616,4.711C106.021,4.711 107.85,7.117 107.85,10.153C107.85,10.491 107.78,11.255 107.78,11.255L99.63,11.255C99.814,13.256 101.412,14.291 103.172,14.291C105.071,14.291 106.576,13.031 106.576,13.031L107.711,15.078C107.711,15.078 105.905,16.72 102.964,16.72C99.051,16.72 96.619,13.976 96.619,10.715C96.619,7.185 99.097,4.711 102.616,4.711ZM110.629,13.032C110.629,13.032 111.925,14.291 113.848,14.291C114.681,14.291 115.399,13.931 115.399,13.256C115.399,11.547 109.656,11.772 109.656,8.084C109.656,5.948 111.624,4.711 114.172,4.711C116.835,4.711 118.132,6.015 118.132,6.015L117.043,8.129C117.043,8.129 115.955,7.139 114.149,7.139C113.385,7.139 112.643,7.454 112.643,8.174C112.643,9.794 118.386,9.591 118.386,13.279C118.386,15.191 116.673,16.72 113.871,16.72C110.93,16.72 109.286,15.033 109.286,15.033L110.629,13.032Z" style="fill:rgb(35,31,32);"/>
</svg>
