<?xml version="1.0" encoding="UTF-8" standalone="no"?>
<!DOCTYPE svg PUBLIC "-//W3C//DTD SVG 1.1//EN" "http://www.w3.org/Graphics/SVG/1.1/DTD/svg11.dtd">
<svg width="100%" height="100%" viewBox="0 0 1200 300" version="1.1" xmlns="http://www.w3.org/2000/svg" xmlns:xlink="http://www.w3.org/1999/xlink" xml:space="preserve" xmlns:serif="http://www.serif.com/" style="fill-rule:evenodd;clip-rule:evenodd;stroke-linecap:round;stroke-linejoin:round;stroke-miterlimit:1.5;">
    <g transform="matrix(0.441291,0,0,0.441291,-1031.79,-1520.02)">
        <g transform="matrix(1.20165,0,0,1.20165,-622.76,-323.485)">
            <path d="M1556,3136.62L2574.43,4155.06" style="fill:none;stroke:rgb(189,189,189);stroke-width:3.54px;"/>
        </g>
        <g transform="matrix(1.20165,0,0,1.20165,-595.122,-323.485)">
            <path d="M1556,3136.62L2574.43,4155.06" style="fill:none;stroke:rgb(189,189,189);stroke-width:3.54px;"/>
        </g>
        <g transform="matrix(1.20165,0,0,1.20165,-566.122,-323.485)">
            <path d="M1556,3136.62L2574.43,4155.06" style="fill:none;stroke:rgb(189,189,189);stroke-width:3.54px;"/>
        </g>
        <g transform="matrix(1.20165,0,0,1.20165,-535.76,-323.485)">
            <path d="M1556,3136.62L2574.43,4155.06" style="fill:none;stroke:rgb(189,189,189);stroke-width:3.54px;"/>
        </g>
        <g transform="matrix(1.20165,0,0,1.20165,-508.122,-323.485)">
            <path d="M1556,3136.62L2574.43,4155.06" style="fill:none;stroke:rgb(189,189,189);stroke-width:3.54px;"/>
        </g>
        <g transform="matrix(1.20165,0,0,1.20165,-479.122,-323.485)">
            <path d="M1556,3136.62L2574.43,4155.06" style="fill:none;stroke:rgb(189,189,189);stroke-width:3.54px;"/>
        </g>
        <g transform="matrix(1.20165,0,0,1.20165,-450.76,-323.485)">
            <path d="M1556,3136.62L2574.43,4155.06" style="fill:none;stroke:rgb(189,189,189);stroke-width:3.54px;"/>
        </g>
        <g transform="matrix(1.20165,0,0,1.20165,-423.122,-323.485)">
            <path d="M1556,3136.62L2574.43,4155.06" style="fill:none;stroke:rgb(189,189,189);stroke-width:3.54px;"/>
        </g>
        <g transform="matrix(1.20165,0,0,1.20165,-394.122,-323.485)">
            <path d="M1556,3136.62L2574.43,4155.06" style="fill:none;stroke:rgb(189,189,189);stroke-width:3.54px;"/>
        </g>
        <g transform="matrix(1.20165,0,0,1.20165,-363.76,-323.485)">
            <path d="M1556,3136.62L2574.43,4155.06" style="fill:none;stroke:rgb(189,189,189);stroke-width:3.54px;"/>
        </g>
        <g transform="matrix(1.20165,0,0,1.20165,-336.122,-323.485)">
            <path d="M1556,3136.62L2574.43,4155.06" style="fill:none;stroke:rgb(189,189,189);stroke-width:3.54px;"/>
        </g>
        <g transform="matrix(1.20165,0,0,1.20165,-307.122,-323.485)">
            <path d="M1556,3136.62L2574.43,4155.06" style="fill:none;stroke:rgb(189,189,189);stroke-width:3.54px;"/>
        </g>
        <g transform="matrix(1.20165,0,0,1.20165,-277.76,-323.485)">
            <path d="M1556,3136.62L2574.43,4155.06" style="fill:none;stroke:rgb(189,189,189);stroke-width:3.54px;"/>
        </g>
        <g transform="matrix(1.20165,0,0,1.20165,-250.122,-323.485)">
            <path d="M1556,3136.62L2574.43,4155.06" style="fill:none;stroke:rgb(189,189,189);stroke-width:3.54px;"/>
        </g>
        <g transform="matrix(1.20165,0,0,1.20165,-221.122,-323.485)">
            <path d="M1556,3136.62L2574.43,4155.06" style="fill:none;stroke:rgb(189,189,189);stroke-width:3.54px;"/>
        </g>
        <g transform="matrix(1.20165,0,0,1.20165,-190.76,-323.485)">
            <path d="M1556,3136.62L2574.43,4155.06" style="fill:none;stroke:rgb(189,189,189);stroke-width:3.54px;"/>
        </g>
        <g transform="matrix(1.20165,0,0,1.20165,-163.122,-323.485)">
            <path d="M1556,3136.62L2574.43,4155.06" style="fill:none;stroke:rgb(189,189,189);stroke-width:3.54px;"/>
        </g>
        <g transform="matrix(1.20165,0,0,1.20165,-134.122,-323.485)">
            <path d="M1556,3136.62L2574.43,4155.06" style="fill:none;stroke:rgb(189,189,189);stroke-width:3.54px;"/>
        </g>
        <g transform="matrix(1.20165,0,0,1.20165,-105.76,-323.485)">
            <path d="M1556,3136.62L2574.43,4155.06" style="fill:none;stroke:rgb(189,189,189);stroke-width:3.54px;"/>
        </g>
        <g transform="matrix(1.20165,0,0,1.20165,-78.122,-323.485)">
            <path d="M1556,3136.62L2574.43,4155.06" style="fill:none;stroke:rgb(189,189,189);stroke-width:3.54px;"/>
        </g>
        <g transform="matrix(1.20165,0,0,1.20165,-49.122,-323.485)">
            <path d="M1556,3136.62L2574.43,4155.06" style="fill:none;stroke:rgb(189,189,189);stroke-width:3.54px;"/>
        </g>
        <g transform="matrix(1.20165,0,0,1.20165,-18.7599,-323.485)">
            <path d="M1556,3136.62L2574.43,4155.06" style="fill:none;stroke:rgb(189,189,189);stroke-width:3.54px;"/>
        </g>
        <g transform="matrix(1.20165,0,0,1.20165,8.87797,-323.485)">
            <path d="M1556,3136.62L2574.43,4155.06" style="fill:none;stroke:rgb(189,189,189);stroke-width:3.54px;"/>
        </g>
        <g transform="matrix(1.20165,0,0,1.20165,37.878,-323.485)">
            <path d="M1556,3136.62L2574.43,4155.06" style="fill:none;stroke:rgb(189,189,189);stroke-width:3.54px;"/>
        </g>
        <g transform="matrix(1.20165,0,0,1.20165,70.2401,-323.485)">
            <path d="M1556,3136.62L2574.43,4155.06" style="fill:none;stroke:rgb(189,189,189);stroke-width:3.54px;"/>
        </g>
        <g transform="matrix(1.20165,0,0,1.20165,97.878,-323.485)">
            <path d="M1556,3136.62L2574.43,4155.06" style="fill:none;stroke:rgb(189,189,189);stroke-width:3.54px;"/>
        </g>
        <g transform="matrix(1.20165,0,0,1.20165,126.878,-323.485)">
            <path d="M1556,3136.62L2574.43,4155.06" style="fill:none;stroke:rgb(189,189,189);stroke-width:3.54px;"/>
        </g>
        <g transform="matrix(1.20165,0,0,1.20165,157.24,-323.485)">
            <path d="M1556,3136.62L2574.43,4155.06" style="fill:none;stroke:rgb(189,189,189);stroke-width:3.54px;"/>
        </g>
        <g transform="matrix(1.20165,0,0,1.20165,184.878,-323.485)">
            <path d="M1556,3136.62L2574.43,4155.06" style="fill:none;stroke:rgb(189,189,189);stroke-width:3.54px;"/>
        </g>
        <g transform="matrix(1.20165,0,0,1.20165,213.878,-323.485)">
            <path d="M1556,3136.62L2574.43,4155.06" style="fill:none;stroke:rgb(189,189,189);stroke-width:3.54px;"/>
        </g>
        <g transform="matrix(1.20165,0,0,1.20165,242.24,-323.485)">
            <path d="M1556,3136.62L2574.43,4155.06" style="fill:none;stroke:rgb(189,189,189);stroke-width:3.54px;"/>
        </g>
        <g transform="matrix(1.20165,0,0,1.20165,269.878,-323.485)">
            <path d="M1556,3136.62L2574.43,4155.06" style="fill:none;stroke:rgb(189,189,189);stroke-width:3.54px;"/>
        </g>
        <g transform="matrix(1.20165,0,0,1.20165,298.878,-323.485)">
            <path d="M1556,3136.62L2574.43,4155.06" style="fill:none;stroke:rgb(189,189,189);stroke-width:3.54px;"/>
        </g>
        <g transform="matrix(1.20165,0,0,1.20165,329.24,-323.485)">
            <path d="M1556,3136.62L2574.43,4155.06" style="fill:none;stroke:rgb(189,189,189);stroke-width:3.54px;"/>
        </g>
        <g transform="matrix(1.20165,0,0,1.20165,356.878,-323.485)">
            <path d="M1556,3136.62L2574.43,4155.06" style="fill:none;stroke:rgb(189,189,189);stroke-width:3.54px;"/>
        </g>
        <g transform="matrix(1.20165,0,0,1.20165,385.878,-323.485)">
            <path d="M1556,3136.62L2574.43,4155.06" style="fill:none;stroke:rgb(189,189,189);stroke-width:3.54px;"/>
        </g>
        <g transform="matrix(1.20165,0,0,1.20165,415.24,-323.485)">
            <path d="M1556,3136.62L2574.43,4155.06" style="fill:none;stroke:rgb(189,189,189);stroke-width:3.54px;"/>
        </g>
        <g transform="matrix(1.20165,0,0,1.20165,442.878,-323.485)">
            <path d="M1556,3136.62L2574.43,4155.06" style="fill:none;stroke:rgb(189,189,189);stroke-width:3.54px;"/>
        </g>
        <g transform="matrix(1.20165,0,0,1.20165,471.878,-323.485)">
            <path d="M1556,3136.62L2574.43,4155.06" style="fill:none;stroke:rgb(189,189,189);stroke-width:3.54px;"/>
        </g>
        <g transform="matrix(1.20165,0,0,1.20165,502.24,-323.485)">
            <path d="M1556,3136.62L2574.43,4155.06" style="fill:none;stroke:rgb(189,189,189);stroke-width:3.54px;"/>
        </g>
        <g transform="matrix(1.20165,0,0,1.20165,529.878,-323.485)">
            <path d="M1556,3136.62L2574.43,4155.06" style="fill:none;stroke:rgb(189,189,189);stroke-width:3.54px;"/>
        </g>
        <g transform="matrix(1.20165,0,0,1.20165,558.878,-323.485)">
            <path d="M1556,3136.62L2574.43,4155.06" style="fill:none;stroke:rgb(189,189,189);stroke-width:3.54px;"/>
        </g>
        <g transform="matrix(1.20165,0,0,1.20165,587.24,-323.485)">
            <path d="M1556,3136.62L2574.43,4155.06" style="fill:none;stroke:rgb(189,189,189);stroke-width:3.54px;"/>
        </g>
        <g transform="matrix(1.20165,0,0,1.20165,614.878,-323.485)">
            <path d="M1556,3136.62L2574.43,4155.06" style="fill:none;stroke:rgb(189,189,189);stroke-width:3.54px;"/>
        </g>
        <g transform="matrix(1.20165,0,0,1.20165,643.878,-323.485)">
            <path d="M1556,3136.62L2574.43,4155.06" style="fill:none;stroke:rgb(189,189,189);stroke-width:3.54px;"/>
        </g>
        <g transform="matrix(1.20165,0,0,1.20165,674.24,-323.485)">
            <path d="M1556,3136.62L2574.43,4155.06" style="fill:none;stroke:rgb(189,189,189);stroke-width:3.54px;"/>
        </g>
        <g transform="matrix(1.20165,0,0,1.20165,701.878,-323.485)">
            <path d="M1556,3136.62L2574.43,4155.06" style="fill:none;stroke:rgb(189,189,189);stroke-width:3.54px;"/>
        </g>
        <g transform="matrix(1.20165,0,0,1.20165,730.878,-323.485)">
            <path d="M1556,3136.62L2574.43,4155.06" style="fill:none;stroke:rgb(189,189,189);stroke-width:3.54px;"/>
        </g>
        <g transform="matrix(1.20165,0,0,1.20165,759.24,-323.485)">
            <path d="M1556,3136.62L2574.43,4155.06" style="fill:none;stroke:rgb(189,189,189);stroke-width:3.54px;"/>
        </g>
        <g transform="matrix(1.20165,0,0,1.20165,786.878,-323.485)">
            <path d="M1556,3136.62L2574.43,4155.06" style="fill:none;stroke:rgb(189,189,189);stroke-width:3.54px;"/>
        </g>
        <g transform="matrix(1.20165,0,0,1.20165,815.878,-323.485)">
            <path d="M1556,3136.62L2574.43,4155.06" style="fill:none;stroke:rgb(189,189,189);stroke-width:3.54px;"/>
        </g>
        <g transform="matrix(1.20165,0,0,1.20165,846.24,-323.485)">
            <path d="M1556,3136.62L2574.43,4155.06" style="fill:none;stroke:rgb(189,189,189);stroke-width:3.54px;"/>
        </g>
        <g transform="matrix(1.20165,0,0,1.20165,873.878,-323.485)">
            <path d="M1556,3136.62L2574.43,4155.06" style="fill:none;stroke:rgb(189,189,189);stroke-width:3.54px;"/>
        </g>
        <g transform="matrix(1.20165,0,0,1.20165,902.878,-323.485)">
            <path d="M1556,3136.62L2574.43,4155.06" style="fill:none;stroke:rgb(189,189,189);stroke-width:3.54px;"/>
        </g>
        <g transform="matrix(1.20165,0,0,1.20165,931.24,-323.485)">
            <path d="M1556,3136.62L2574.43,4155.06" style="fill:none;stroke:rgb(189,189,189);stroke-width:3.54px;"/>
        </g>
        <g transform="matrix(1.20165,0,0,1.20165,958.878,-323.485)">
            <path d="M1556,3136.62L2574.43,4155.06" style="fill:none;stroke:rgb(189,189,189);stroke-width:3.54px;"/>
        </g>
        <g transform="matrix(1.20165,0,0,1.20165,987.878,-323.485)">
            <path d="M1556,3136.62L2574.43,4155.06" style="fill:none;stroke:rgb(189,189,189);stroke-width:3.54px;"/>
        </g>
        <g transform="matrix(1.20165,0,0,1.20165,1018.24,-323.485)">
            <path d="M1556,3136.62L2574.43,4155.06" style="fill:none;stroke:rgb(189,189,189);stroke-width:3.54px;"/>
        </g>
        <g transform="matrix(1.20165,0,0,1.20165,1045.88,-323.485)">
            <path d="M1556,3136.62L2574.43,4155.06" style="fill:none;stroke:rgb(189,189,189);stroke-width:3.54px;"/>
        </g>
        <g transform="matrix(1.20165,0,0,1.20165,1074.88,-323.485)">
            <path d="M1556,3136.62L2574.43,4155.06" style="fill:none;stroke:rgb(189,189,189);stroke-width:3.54px;"/>
        </g>
        <g transform="matrix(1.20165,0,0,1.20165,1104.24,-323.485)">
            <path d="M1556,3136.62L2574.43,4155.06" style="fill:none;stroke:rgb(189,189,189);stroke-width:3.54px;"/>
        </g>
        <g transform="matrix(1.20165,0,0,1.20165,1131.88,-323.485)">
            <path d="M1556,3136.62L2574.43,4155.06" style="fill:none;stroke:rgb(189,189,189);stroke-width:3.54px;"/>
        </g>
        <g transform="matrix(1.20165,0,0,1.20165,1160.88,-323.485)">
            <path d="M1556,3136.62L2574.43,4155.06" style="fill:none;stroke:rgb(189,189,189);stroke-width:3.54px;"/>
        </g>
        <g transform="matrix(1.20165,0,0,1.20165,1191.24,-323.485)">
            <path d="M1556,3136.62L2574.43,4155.06" style="fill:none;stroke:rgb(189,189,189);stroke-width:3.54px;"/>
        </g>
        <g transform="matrix(1.20165,0,0,1.20165,1218.88,-323.485)">
            <path d="M1556,3136.62L2574.43,4155.06" style="fill:none;stroke:rgb(189,189,189);stroke-width:3.54px;"/>
        </g>
        <g transform="matrix(1.20165,0,0,1.20165,1247.88,-323.485)">
            <path d="M1556,3136.62L2574.43,4155.06" style="fill:none;stroke:rgb(189,189,189);stroke-width:3.54px;"/>
        </g>
        <g transform="matrix(1.20165,0,0,1.20165,1276.24,-323.485)">
            <path d="M1556,3136.62L2574.43,4155.06" style="fill:none;stroke:rgb(189,189,189);stroke-width:3.54px;"/>
        </g>
        <g transform="matrix(1.20165,0,0,1.20165,1303.88,-323.485)">
            <path d="M1556,3136.62L2574.43,4155.06" style="fill:none;stroke:rgb(189,189,189);stroke-width:3.54px;"/>
        </g>
        <g transform="matrix(1.20165,0,0,1.20165,1332.88,-323.485)">
            <path d="M1556,3136.62L2574.43,4155.06" style="fill:none;stroke:rgb(189,189,189);stroke-width:3.54px;"/>
        </g>
        <g transform="matrix(1.20165,0,0,1.20165,1363.24,-323.485)">
            <path d="M1556,3136.62L2574.43,4155.06" style="fill:none;stroke:rgb(189,189,189);stroke-width:3.54px;"/>
        </g>
        <g transform="matrix(1.20165,0,0,1.20165,1390.88,-323.485)">
            <path d="M1556,3136.62L2574.43,4155.06" style="fill:none;stroke:rgb(189,189,189);stroke-width:3.54px;"/>
        </g>
        <g transform="matrix(1.20165,0,0,1.20165,1419.88,-323.485)">
            <path d="M1556,3136.62L2574.43,4155.06" style="fill:none;stroke:rgb(189,189,189);stroke-width:3.54px;"/>
        </g>
        <g transform="matrix(1.20165,0,0,1.20165,1452.24,-323.485)">
            <path d="M1556,3136.62L2574.43,4155.06" style="fill:none;stroke:rgb(189,189,189);stroke-width:3.54px;"/>
        </g>
        <g transform="matrix(1.20165,0,0,1.20165,1479.88,-323.485)">
            <path d="M1556,3136.62L2574.43,4155.06" style="fill:none;stroke:rgb(189,189,189);stroke-width:3.54px;"/>
        </g>
        <g transform="matrix(1.20165,0,0,1.20165,1508.88,-323.485)">
            <path d="M1556,3136.62L2574.43,4155.06" style="fill:none;stroke:rgb(189,189,189);stroke-width:3.54px;"/>
        </g>
        <g transform="matrix(1.20165,0,0,1.20165,1539.24,-323.485)">
            <path d="M1556,3136.62L2574.43,4155.06" style="fill:none;stroke:rgb(189,189,189);stroke-width:3.54px;"/>
        </g>
        <g transform="matrix(1.20165,0,0,1.20165,1566.88,-323.485)">
            <path d="M1556,3136.62L2574.43,4155.06" style="fill:none;stroke:rgb(189,189,189);stroke-width:3.54px;"/>
        </g>
        <g transform="matrix(1.20165,0,0,1.20165,1595.88,-323.485)">
            <path d="M1556,3136.62L2574.43,4155.06" style="fill:none;stroke:rgb(189,189,189);stroke-width:3.54px;"/>
        </g>
        <g transform="matrix(1.20165,0,0,1.20165,1624.24,-323.485)">
            <path d="M1556,3136.62L2574.43,4155.06" style="fill:none;stroke:rgb(189,189,189);stroke-width:3.54px;"/>
        </g>
        <g transform="matrix(1.20165,0,0,1.20165,1651.88,-323.485)">
            <path d="M1556,3136.62L2574.43,4155.06" style="fill:none;stroke:rgb(189,189,189);stroke-width:3.54px;"/>
        </g>
        <g transform="matrix(1.20165,0,0,1.20165,1680.88,-323.485)">
            <path d="M1556,3136.62L2574.43,4155.06" style="fill:none;stroke:rgb(189,189,189);stroke-width:3.54px;"/>
        </g>
        <g transform="matrix(1.20165,0,0,1.20165,1711.24,-323.485)">
            <path d="M1556,3136.62L2574.43,4155.06" style="fill:none;stroke:rgb(189,189,189);stroke-width:3.54px;"/>
        </g>
        <g transform="matrix(1.20165,0,0,1.20165,1738.88,-323.485)">
            <path d="M1556,3136.62L2574.43,4155.06" style="fill:none;stroke:rgb(189,189,189);stroke-width:3.54px;"/>
        </g>
        <g transform="matrix(1.20165,0,0,1.20165,1767.88,-323.485)">
            <path d="M1556,3136.62L2574.43,4155.06" style="fill:none;stroke:rgb(189,189,189);stroke-width:3.54px;"/>
        </g>
        <g transform="matrix(1.20165,0,0,1.20165,1797.24,-323.485)">
            <path d="M1556,3136.62L2574.43,4155.06" style="fill:none;stroke:rgb(189,189,189);stroke-width:3.54px;"/>
        </g>
        <g transform="matrix(1.20165,0,0,1.20165,1824.88,-323.485)">
            <path d="M1556,3136.62L2574.43,4155.06" style="fill:none;stroke:rgb(189,189,189);stroke-width:3.54px;"/>
        </g>
        <g transform="matrix(1.20165,0,0,1.20165,1853.88,-323.485)">
            <path d="M1556,3136.62L2574.43,4155.06" style="fill:none;stroke:rgb(189,189,189);stroke-width:3.54px;"/>
        </g>
        <g transform="matrix(1.20165,0,0,1.20165,1884.24,-323.485)">
            <path d="M1556,3136.62L2574.43,4155.06" style="fill:none;stroke:rgb(189,189,189);stroke-width:3.54px;"/>
        </g>
        <g transform="matrix(1.20165,0,0,1.20165,1911.88,-323.485)">
            <path d="M1556,3136.62L2574.43,4155.06" style="fill:none;stroke:rgb(189,189,189);stroke-width:3.54px;"/>
        </g>
        <g transform="matrix(1.20165,0,0,1.20165,1940.88,-323.485)">
            <path d="M1556,3136.62L2574.43,4155.06" style="fill:none;stroke:rgb(189,189,189);stroke-width:3.54px;"/>
        </g>
        <g transform="matrix(1.20165,0,0,1.20165,1969.24,-323.485)">
            <path d="M1556,3136.62L2574.43,4155.06" style="fill:none;stroke:rgb(189,189,189);stroke-width:3.54px;"/>
        </g>
        <g transform="matrix(1.20165,0,0,1.20165,1996.88,-323.485)">
            <path d="M1556,3136.62L2574.43,4155.06" style="fill:none;stroke:rgb(189,189,189);stroke-width:3.54px;"/>
        </g>
        <g transform="matrix(1.20165,0,0,1.20165,2025.88,-323.485)">
            <path d="M1556,3136.62L2574.43,4155.06" style="fill:none;stroke:rgb(189,189,189);stroke-width:3.54px;"/>
        </g>
        <g transform="matrix(1.20165,0,0,1.20165,2056.24,-323.485)">
            <path d="M1556,3136.62L2574.43,4155.06" style="fill:none;stroke:rgb(189,189,189);stroke-width:3.54px;"/>
        </g>
        <g transform="matrix(1.20165,0,0,1.20165,2083.88,-323.485)">
            <path d="M1556,3136.62L2574.43,4155.06" style="fill:none;stroke:rgb(189,189,189);stroke-width:3.54px;"/>
        </g>
        <g transform="matrix(1.20165,0,0,1.20165,2112.88,-323.485)">
            <path d="M1556,3136.62L2574.43,4155.06" style="fill:none;stroke:rgb(189,189,189);stroke-width:3.54px;"/>
        </g>
        <g transform="matrix(1.20165,0,0,1.20165,2142.24,-323.485)">
            <path d="M1556,3136.62L2574.43,4155.06" style="fill:none;stroke:rgb(189,189,189);stroke-width:3.54px;"/>
        </g>
        <g transform="matrix(1.20165,0,0,1.20165,2169.88,-323.485)">
            <path d="M1556,3136.62L2574.43,4155.06" style="fill:none;stroke:rgb(189,189,189);stroke-width:3.54px;"/>
        </g>
        <g transform="matrix(1.20165,0,0,1.20165,2198.88,-323.485)">
            <path d="M1556,3136.62L2574.43,4155.06" style="fill:none;stroke:rgb(189,189,189);stroke-width:3.54px;"/>
        </g>
        <g transform="matrix(1.20165,0,0,1.20165,2229.24,-323.485)">
            <path d="M1556,3136.62L2574.43,4155.06" style="fill:none;stroke:rgb(189,189,189);stroke-width:3.54px;"/>
        </g>
        <g transform="matrix(1.20165,0,0,1.20165,2256.88,-323.485)">
            <path d="M1556,3136.62L2574.43,4155.06" style="fill:none;stroke:rgb(189,189,189);stroke-width:3.54px;"/>
        </g>
        <g transform="matrix(1.20165,0,0,1.20165,2285.88,-323.485)">
            <path d="M1556,3136.62L2574.43,4155.06" style="fill:none;stroke:rgb(189,189,189);stroke-width:3.54px;"/>
        </g>
        <g transform="matrix(1.20165,0,0,1.20165,2314.24,-323.485)">
            <path d="M1556,3136.62L2574.43,4155.06" style="fill:none;stroke:rgb(189,189,189);stroke-width:3.54px;"/>
        </g>
        <g transform="matrix(1.20165,0,0,1.20165,2341.88,-323.485)">
            <path d="M1556,3136.62L2574.43,4155.06" style="fill:none;stroke:rgb(189,189,189);stroke-width:3.54px;"/>
        </g>
        <g transform="matrix(1.20165,0,0,1.20165,2370.88,-323.485)">
            <path d="M1556,3136.62L2574.43,4155.06" style="fill:none;stroke:rgb(189,189,189);stroke-width:3.54px;"/>
        </g>
        <g transform="matrix(1.20165,0,0,1.20165,2401.24,-323.485)">
            <path d="M1556,3136.62L2574.43,4155.06" style="fill:none;stroke:rgb(189,189,189);stroke-width:3.54px;"/>
        </g>
        <g transform="matrix(1.20165,0,0,1.20165,2428.88,-323.485)">
            <path d="M1556,3136.62L2574.43,4155.06" style="fill:none;stroke:rgb(189,189,189);stroke-width:3.54px;"/>
        </g>
        <g transform="matrix(1.20165,0,0,1.20165,2457.88,-323.485)">
            <path d="M1556,3136.62L2574.43,4155.06" style="fill:none;stroke:rgb(189,189,189);stroke-width:3.54px;"/>
        </g>
        <g transform="matrix(1.20165,0,0,1.20165,2487.24,-323.485)">
            <path d="M1556,3136.62L2574.43,4155.06" style="fill:none;stroke:rgb(189,189,189);stroke-width:3.54px;"/>
        </g>
        <g transform="matrix(1.20165,0,0,1.20165,2514.88,-323.485)">
            <path d="M1556,3136.62L2574.43,4155.06" style="fill:none;stroke:rgb(189,189,189);stroke-width:3.54px;"/>
        </g>
        <g transform="matrix(1.20165,0,0,1.20165,2543.88,-323.485)">
            <path d="M1556,3136.62L2574.43,4155.06" style="fill:none;stroke:rgb(189,189,189);stroke-width:3.54px;"/>
        </g>
        <g transform="matrix(1.20165,0,0,1.20165,2574.24,-323.485)">
            <path d="M1556,3136.62L2574.43,4155.06" style="fill:none;stroke:rgb(189,189,189);stroke-width:3.54px;"/>
        </g>
        <g transform="matrix(1.20165,0,0,1.20165,2601.88,-323.485)">
            <path d="M1556,3136.62L2574.43,4155.06" style="fill:none;stroke:rgb(189,189,189);stroke-width:3.54px;"/>
        </g>
        <g transform="matrix(1.20165,0,0,1.20165,2630.88,-323.485)">
            <path d="M1556,3136.62L2574.43,4155.06" style="fill:none;stroke:rgb(189,189,189);stroke-width:3.54px;"/>
        </g>
        <g transform="matrix(1.20165,0,0,1.20165,2659.24,-323.485)">
            <path d="M1556,3136.62L2574.43,4155.06" style="fill:none;stroke:rgb(189,189,189);stroke-width:3.54px;"/>
        </g>
        <g transform="matrix(1.20165,0,0,1.20165,2686.88,-323.485)">
            <path d="M1556,3136.62L2574.43,4155.06" style="fill:none;stroke:rgb(189,189,189);stroke-width:3.54px;"/>
        </g>
        <g transform="matrix(1.20165,0,0,1.20165,2715.88,-323.485)">
            <path d="M1556,3136.62L2574.43,4155.06" style="fill:none;stroke:rgb(189,189,189);stroke-width:3.54px;"/>
        </g>
        <g transform="matrix(1.20165,0,0,1.20165,2746.24,-323.485)">
            <path d="M1556,3136.62L2574.43,4155.06" style="fill:none;stroke:rgb(189,189,189);stroke-width:3.54px;"/>
        </g>
        <g transform="matrix(1.20165,0,0,1.20165,2773.88,-323.485)">
            <path d="M1556,3136.62L2574.43,4155.06" style="fill:none;stroke:rgb(189,189,189);stroke-width:3.54px;"/>
        </g>
        <g transform="matrix(1.20165,0,0,1.20165,2802.88,-323.485)">
            <path d="M1556,3136.62L2574.43,4155.06" style="fill:none;stroke:rgb(189,189,189);stroke-width:3.54px;"/>
        </g>
        <g transform="matrix(1.20165,0,0,1.20165,2835.24,-323.485)">
            <path d="M1556,3136.62L2574.43,4155.06" style="fill:none;stroke:rgb(189,189,189);stroke-width:3.54px;"/>
        </g>
        <g transform="matrix(1.20165,0,0,1.20165,2862.88,-323.485)">
            <path d="M1556,3136.62L2574.43,4155.06" style="fill:none;stroke:rgb(189,189,189);stroke-width:3.54px;"/>
        </g>
        <g transform="matrix(1.20165,0,0,1.20165,2891.88,-323.485)">
            <path d="M1556,3136.62L2574.43,4155.06" style="fill:none;stroke:rgb(189,189,189);stroke-width:3.54px;"/>
        </g>
        <g transform="matrix(1.20165,0,0,1.20165,2922.24,-323.485)">
            <path d="M1556,3136.62L2574.43,4155.06" style="fill:none;stroke:rgb(189,189,189);stroke-width:3.54px;"/>
        </g>
        <g transform="matrix(1.20165,0,0,1.20165,2949.88,-323.485)">
            <path d="M1556,3136.62L2574.43,4155.06" style="fill:none;stroke:rgb(189,189,189);stroke-width:3.54px;"/>
        </g>
        <g transform="matrix(1.20165,0,0,1.20165,2978.88,-323.485)">
            <path d="M1556,3136.62L2574.43,4155.06" style="fill:none;stroke:rgb(189,189,189);stroke-width:3.54px;"/>
        </g>
        <g transform="matrix(1.20165,0,0,1.20165,3007.24,-323.485)">
            <path d="M1556,3136.62L2574.43,4155.06" style="fill:none;stroke:rgb(189,189,189);stroke-width:3.54px;"/>
        </g>
        <g transform="matrix(1.20165,0,0,1.20165,3034.88,-323.485)">
            <path d="M1556,3136.62L2574.43,4155.06" style="fill:none;stroke:rgb(189,189,189);stroke-width:3.54px;"/>
        </g>
        <g transform="matrix(1.20165,0,0,1.20165,3063.88,-323.485)">
            <path d="M1556,3136.62L2574.43,4155.06" style="fill:none;stroke:rgb(189,189,189);stroke-width:3.54px;"/>
        </g>
        <g transform="matrix(1.20165,0,0,1.20165,3094.24,-323.485)">
            <path d="M1556,3136.62L2574.43,4155.06" style="fill:none;stroke:rgb(189,189,189);stroke-width:3.54px;"/>
        </g>
        <g transform="matrix(1.20165,0,0,1.20165,3121.88,-323.485)">
            <path d="M1556,3136.62L2574.43,4155.06" style="fill:none;stroke:rgb(189,189,189);stroke-width:3.54px;"/>
        </g>
        <g transform="matrix(1.20165,0,0,1.20165,3150.88,-323.485)">
            <path d="M1556,3136.62L2574.43,4155.06" style="fill:none;stroke:rgb(189,189,189);stroke-width:3.54px;"/>
        </g>
        <g transform="matrix(1.20165,0,0,1.20165,3180.24,-323.485)">
            <path d="M1556,3136.62L2574.43,4155.06" style="fill:none;stroke:rgb(189,189,189);stroke-width:3.54px;"/>
        </g>
    </g>
</svg>
