<?xml version="1.0" encoding="UTF-8" standalone="no"?>
<svg
   width="100%"
   height="100%"
   viewBox="0 0 1200 300"
   version="1.1"
   xml:space="preserve"
   style="fill-rule:evenodd;clip-rule:evenodd;stroke-linecap:round;stroke-linejoin:round;stroke-miterlimit:1.5;"
   id="svg1453"
   xmlns="http://www.w3.org/2000/svg"
   xmlns:svg="http://www.w3.org/2000/svg"><defs
   id="defs1457"><clipPath
     clipPathUnits="userSpaceOnUse"
     id="clipPath2425"><rect
       style="fill:#000000;stroke-width:0.980464"
       id="rect2427"
       width="934.26593"
       height="658.52545"
       x="3586.0261"
       y="-4385.5239"
       transform="scale(1,-1)" /></clipPath></defs>
    <g
   transform="matrix(0.85628723,0,0,1.2148353,-2899.5437,-4649.2332)"
   id="g1451"
   clip-path="url(#clipPath2425)">
        <g
   transform="matrix(1.20165,0,0,1.20165,-622.76,-323.485)"
   id="g921">
            <path
   d="M 1556,3136.62 2574.43,4155.06"
   style="fill:none;stroke:#bdbdbd;stroke-width:3.54px"
   id="path919" />
        </g>
        <g
   transform="matrix(1.20165,0,0,1.20165,-595.122,-323.485)"
   id="g925">
            <path
   d="M 1556,3136.62 2574.43,4155.06"
   style="fill:none;stroke:#bdbdbd;stroke-width:3.54px"
   id="path923" />
        </g>
        <g
   transform="matrix(1.20165,0,0,1.20165,-566.122,-323.485)"
   id="g929">
            <path
   d="M 1556,3136.62 2574.43,4155.06"
   style="fill:none;stroke:#bdbdbd;stroke-width:3.54px"
   id="path927" />
        </g>
        <g
   transform="matrix(1.20165,0,0,1.20165,-535.76,-323.485)"
   id="g933">
            <path
   d="M 1556,3136.62 2574.43,4155.06"
   style="fill:none;stroke:#bdbdbd;stroke-width:3.54px"
   id="path931" />
        </g>
        <g
   transform="matrix(1.20165,0,0,1.20165,-508.122,-323.485)"
   id="g937">
            <path
   d="M 1556,3136.62 2574.43,4155.06"
   style="fill:none;stroke:#bdbdbd;stroke-width:3.54px"
   id="path935" />
        </g>
        <g
   transform="matrix(1.20165,0,0,1.20165,-479.122,-323.485)"
   id="g941">
            <path
   d="M 1556,3136.62 2574.43,4155.06"
   style="fill:none;stroke:#bdbdbd;stroke-width:3.54px"
   id="path939" />
        </g>
        <g
   transform="matrix(1.20165,0,0,1.20165,-450.76,-323.485)"
   id="g945">
            <path
   d="M 1556,3136.62 2574.43,4155.06"
   style="fill:none;stroke:#bdbdbd;stroke-width:3.54px"
   id="path943" />
        </g>
        <g
   transform="matrix(1.20165,0,0,1.20165,-423.122,-323.485)"
   id="g949">
            <path
   d="M 1556,3136.62 2574.43,4155.06"
   style="fill:none;stroke:#bdbdbd;stroke-width:3.54px"
   id="path947" />
        </g>
        <g
   transform="matrix(1.20165,0,0,1.20165,-394.122,-323.485)"
   id="g953">
            <path
   d="M 1556,3136.62 2574.43,4155.06"
   style="fill:none;stroke:#bdbdbd;stroke-width:3.54px"
   id="path951" />
        </g>
        <g
   transform="matrix(1.20165,0,0,1.20165,-363.76,-323.485)"
   id="g957">
            <path
   d="M 1556,3136.62 2574.43,4155.06"
   style="fill:none;stroke:#bdbdbd;stroke-width:3.54px"
   id="path955" />
        </g>
        <g
   transform="matrix(1.20165,0,0,1.20165,-336.122,-323.485)"
   id="g961">
            <path
   d="M 1556,3136.62 2574.43,4155.06"
   style="fill:none;stroke:#bdbdbd;stroke-width:3.54px"
   id="path959" />
        </g>
        <g
   transform="matrix(1.20165,0,0,1.20165,-307.122,-323.485)"
   id="g965">
            <path
   d="M 1556,3136.62 2574.43,4155.06"
   style="fill:none;stroke:#bdbdbd;stroke-width:3.54px"
   id="path963" />
        </g>
        <g
   transform="matrix(1.20165,0,0,1.20165,-277.76,-323.485)"
   id="g969">
            <path
   d="M 1556,3136.62 2574.43,4155.06"
   style="fill:none;stroke:#bdbdbd;stroke-width:3.54px"
   id="path967" />
        </g>
        <g
   transform="matrix(1.20165,0,0,1.20165,-250.122,-323.485)"
   id="g973">
            <path
   d="M 1556,3136.62 2574.43,4155.06"
   style="fill:none;stroke:#bdbdbd;stroke-width:3.54px"
   id="path971" />
        </g>
        <g
   transform="matrix(1.20165,0,0,1.20165,-221.122,-323.485)"
   id="g977">
            <path
   d="M 1556,3136.62 2574.43,4155.06"
   style="fill:none;stroke:#bdbdbd;stroke-width:3.54px"
   id="path975" />
        </g>
        <g
   transform="matrix(1.20165,0,0,1.20165,-190.76,-323.485)"
   id="g981">
            <path
   d="M 1556,3136.62 2574.43,4155.06"
   style="fill:none;stroke:#bdbdbd;stroke-width:3.54px"
   id="path979" />
        </g>
        <g
   transform="matrix(1.20165,0,0,1.20165,-163.122,-323.485)"
   id="g985">
            <path
   d="M 1556,3136.62 2574.43,4155.06"
   style="fill:none;stroke:#bdbdbd;stroke-width:3.54px"
   id="path983" />
        </g>
        <g
   transform="matrix(1.20165,0,0,1.20165,-134.122,-323.485)"
   id="g989">
            <path
   d="M 1556,3136.62 2574.43,4155.06"
   style="fill:none;stroke:#bdbdbd;stroke-width:3.54px"
   id="path987" />
        </g>
        <g
   transform="matrix(1.20165,0,0,1.20165,-105.76,-323.485)"
   id="g993">
            <path
   d="M 1556,3136.62 2574.43,4155.06"
   style="fill:none;stroke:#bdbdbd;stroke-width:3.54px"
   id="path991" />
        </g>
        <g
   transform="matrix(1.20165,0,0,1.20165,-78.122,-323.485)"
   id="g997">
            <path
   d="M 1556,3136.62 2574.43,4155.06"
   style="fill:none;stroke:#bdbdbd;stroke-width:3.54px"
   id="path995" />
        </g>
        <g
   transform="matrix(1.20165,0,0,1.20165,-49.122,-323.485)"
   id="g1001">
            <path
   d="M 1556,3136.62 2574.43,4155.06"
   style="fill:none;stroke:#bdbdbd;stroke-width:3.54px"
   id="path999" />
        </g>
        <g
   transform="matrix(1.20165,0,0,1.20165,-18.7599,-323.485)"
   id="g1005">
            <path
   d="M 1556,3136.62 2574.43,4155.06"
   style="fill:none;stroke:#bdbdbd;stroke-width:3.54px"
   id="path1003" />
        </g>
        <g
   transform="matrix(1.20165,0,0,1.20165,8.87797,-323.485)"
   id="g1009">
            <path
   d="M 1556,3136.62 2574.43,4155.06"
   style="fill:none;stroke:#bdbdbd;stroke-width:3.54px"
   id="path1007" />
        </g>
        <g
   transform="matrix(1.20165,0,0,1.20165,37.878,-323.485)"
   id="g1013">
            <path
   d="M 1556,3136.62 2574.43,4155.06"
   style="fill:none;stroke:#bdbdbd;stroke-width:3.54px"
   id="path1011" />
        </g>
        <g
   transform="matrix(1.20165,0,0,1.20165,70.2401,-323.485)"
   id="g1017">
            <path
   d="M 1556,3136.62 2574.43,4155.06"
   style="fill:none;stroke:#bdbdbd;stroke-width:3.54px"
   id="path1015" />
        </g>
        <g
   transform="matrix(1.20165,0,0,1.20165,97.878,-323.485)"
   id="g1021">
            <path
   d="M 1556,3136.62 2574.43,4155.06"
   style="fill:none;stroke:#bdbdbd;stroke-width:3.54px"
   id="path1019" />
        </g>
        <g
   transform="matrix(1.20165,0,0,1.20165,126.878,-323.485)"
   id="g1025">
            <path
   d="M 1556,3136.62 2574.43,4155.06"
   style="fill:none;stroke:#bdbdbd;stroke-width:3.54px"
   id="path1023" />
        </g>
        <g
   transform="matrix(1.20165,0,0,1.20165,157.24,-323.485)"
   id="g1029">
            <path
   d="M 1556,3136.62 2574.43,4155.06"
   style="fill:none;stroke:#bdbdbd;stroke-width:3.54px"
   id="path1027" />
        </g>
        <g
   transform="matrix(1.20165,0,0,1.20165,184.878,-323.485)"
   id="g1033">
            <path
   d="M 1556,3136.62 2574.43,4155.06"
   style="fill:none;stroke:#bdbdbd;stroke-width:3.54px"
   id="path1031" />
        </g>
        <g
   transform="matrix(1.20165,0,0,1.20165,213.878,-323.485)"
   id="g1037">
            <path
   d="M 1556,3136.62 2574.43,4155.06"
   style="fill:none;stroke:#bdbdbd;stroke-width:3.54px"
   id="path1035" />
        </g>
        <g
   transform="matrix(1.20165,0,0,1.20165,242.24,-323.485)"
   id="g1041">
            <path
   d="M 1556,3136.62 2574.43,4155.06"
   style="fill:none;stroke:#bdbdbd;stroke-width:3.54px"
   id="path1039" />
        </g>
        <g
   transform="matrix(1.20165,0,0,1.20165,269.878,-323.485)"
   id="g1045">
            <path
   d="M 1556,3136.62 2574.43,4155.06"
   style="fill:none;stroke:#bdbdbd;stroke-width:3.54px"
   id="path1043" />
        </g>
        <g
   transform="matrix(1.20165,0,0,1.20165,298.878,-323.485)"
   id="g1049">
            <path
   d="M 1556,3136.62 2574.43,4155.06"
   style="fill:none;stroke:#bdbdbd;stroke-width:3.54px"
   id="path1047" />
        </g>
        <g
   transform="matrix(1.20165,0,0,1.20165,329.24,-323.485)"
   id="g1053">
            <path
   d="M 1556,3136.62 2574.43,4155.06"
   style="fill:none;stroke:#bdbdbd;stroke-width:3.54px"
   id="path1051" />
        </g>
        <g
   transform="matrix(1.20165,0,0,1.20165,356.878,-323.485)"
   id="g1057">
            <path
   d="M 1556,3136.62 2574.43,4155.06"
   style="fill:none;stroke:#bdbdbd;stroke-width:3.54px"
   id="path1055" />
        </g>
        <g
   transform="matrix(1.20165,0,0,1.20165,385.878,-323.485)"
   id="g1061">
            <path
   d="M 1556,3136.62 2574.43,4155.06"
   style="fill:none;stroke:#bdbdbd;stroke-width:3.54px"
   id="path1059" />
        </g>
        <g
   transform="matrix(1.20165,0,0,1.20165,415.24,-323.485)"
   id="g1065">
            <path
   d="M 1556,3136.62 2574.43,4155.06"
   style="fill:none;stroke:#bdbdbd;stroke-width:3.54px"
   id="path1063" />
        </g>
        <g
   transform="matrix(1.20165,0,0,1.20165,442.878,-323.485)"
   id="g1069">
            <path
   d="M 1556,3136.62 2574.43,4155.06"
   style="fill:none;stroke:#bdbdbd;stroke-width:3.54px"
   id="path1067" />
        </g>
        <g
   transform="matrix(1.20165,0,0,1.20165,471.878,-323.485)"
   id="g1073">
            <path
   d="M 1556,3136.62 2574.43,4155.06"
   style="fill:none;stroke:#bdbdbd;stroke-width:3.54px"
   id="path1071" />
        </g>
        <g
   transform="matrix(1.20165,0,0,1.20165,502.24,-323.485)"
   id="g1077">
            <path
   d="M 1556,3136.62 2574.43,4155.06"
   style="fill:none;stroke:#bdbdbd;stroke-width:3.54px"
   id="path1075" />
        </g>
        <g
   transform="matrix(1.20165,0,0,1.20165,529.878,-323.485)"
   id="g1081">
            <path
   d="M 1556,3136.62 2574.43,4155.06"
   style="fill:none;stroke:#bdbdbd;stroke-width:3.54px"
   id="path1079" />
        </g>
        <g
   transform="matrix(1.20165,0,0,1.20165,558.878,-323.485)"
   id="g1085">
            <path
   d="M 1556,3136.62 2574.43,4155.06"
   style="fill:none;stroke:#bdbdbd;stroke-width:3.54px"
   id="path1083" />
        </g>
        <g
   transform="matrix(1.20165,0,0,1.20165,587.24,-323.485)"
   id="g1089">
            <path
   d="M 1556,3136.62 2574.43,4155.06"
   style="fill:none;stroke:#bdbdbd;stroke-width:3.54px"
   id="path1087" />
        </g>
        <g
   transform="matrix(1.20165,0,0,1.20165,614.878,-323.485)"
   id="g1093">
            <path
   d="M 1556,3136.62 2574.43,4155.06"
   style="fill:none;stroke:#bdbdbd;stroke-width:3.54px"
   id="path1091" />
        </g>
        <g
   transform="matrix(1.20165,0,0,1.20165,643.878,-323.485)"
   id="g1097">
            <path
   d="M 1556,3136.62 2574.43,4155.06"
   style="fill:none;stroke:#bdbdbd;stroke-width:3.54px"
   id="path1095" />
        </g>
        <g
   transform="matrix(1.20165,0,0,1.20165,674.24,-323.485)"
   id="g1101">
            <path
   d="M 1556,3136.62 2574.43,4155.06"
   style="fill:none;stroke:#bdbdbd;stroke-width:3.54px"
   id="path1099" />
        </g>
        <g
   transform="matrix(1.20165,0,0,1.20165,701.878,-323.485)"
   id="g1105">
            <path
   d="M 1556,3136.62 2574.43,4155.06"
   style="fill:none;stroke:#bdbdbd;stroke-width:3.54px"
   id="path1103" />
        </g>
        <g
   transform="matrix(1.20165,0,0,1.20165,730.878,-323.485)"
   id="g1109">
            <path
   d="M 1556,3136.62 2574.43,4155.06"
   style="fill:none;stroke:#bdbdbd;stroke-width:3.54px"
   id="path1107" />
        </g>
        <g
   transform="matrix(1.20165,0,0,1.20165,759.24,-323.485)"
   id="g1113">
            <path
   d="M 1556,3136.62 2574.43,4155.06"
   style="fill:none;stroke:#bdbdbd;stroke-width:3.54px"
   id="path1111" />
        </g>
        <g
   transform="matrix(1.20165,0,0,1.20165,786.878,-323.485)"
   id="g1117">
            <path
   d="M 1556,3136.62 2574.43,4155.06"
   style="fill:none;stroke:#bdbdbd;stroke-width:3.54px"
   id="path1115" />
        </g>
        <g
   transform="matrix(1.20165,0,0,1.20165,815.878,-323.485)"
   id="g1121">
            <path
   d="M 1556,3136.62 2574.43,4155.06"
   style="fill:none;stroke:#bdbdbd;stroke-width:3.54px"
   id="path1119" />
        </g>
        <g
   transform="matrix(1.20165,0,0,1.20165,846.24,-323.485)"
   id="g1125">
            <path
   d="M 1556,3136.62 2574.43,4155.06"
   style="fill:none;stroke:#bdbdbd;stroke-width:3.54px"
   id="path1123" />
        </g>
        <g
   transform="matrix(1.20165,0,0,1.20165,873.878,-323.485)"
   id="g1129">
            <path
   d="M 1556,3136.62 2574.43,4155.06"
   style="fill:none;stroke:#bdbdbd;stroke-width:3.54px"
   id="path1127" />
        </g>
        <g
   transform="matrix(1.20165,0,0,1.20165,902.878,-323.485)"
   id="g1133">
            <path
   d="M 1556,3136.62 2574.43,4155.06"
   style="fill:none;stroke:#bdbdbd;stroke-width:3.54px"
   id="path1131" />
        </g>
        <g
   transform="matrix(1.20165,0,0,1.20165,931.24,-323.485)"
   id="g1137">
            <path
   d="M 1556,3136.62 2574.43,4155.06"
   style="fill:none;stroke:#bdbdbd;stroke-width:3.54px"
   id="path1135" />
        </g>
        <g
   transform="matrix(1.20165,0,0,1.20165,958.878,-323.485)"
   id="g1141">
            <path
   d="M 1556,3136.62 2574.43,4155.06"
   style="fill:none;stroke:#bdbdbd;stroke-width:3.54px"
   id="path1139" />
        </g>
        <g
   transform="matrix(1.20165,0,0,1.20165,987.878,-323.485)"
   id="g1145">
            <path
   d="M 1556,3136.62 2574.43,4155.06"
   style="fill:none;stroke:#bdbdbd;stroke-width:3.54px"
   id="path1143" />
        </g>
        <g
   transform="matrix(1.20165,0,0,1.20165,1018.24,-323.485)"
   id="g1149">
            <path
   d="M 1556,3136.62 2574.43,4155.06"
   style="fill:none;stroke:#bdbdbd;stroke-width:3.54px"
   id="path1147" />
        </g>
        <g
   transform="matrix(1.20165,0,0,1.20165,1045.88,-323.485)"
   id="g1153">
            <path
   d="M 1556,3136.62 2574.43,4155.06"
   style="fill:none;stroke:#bdbdbd;stroke-width:3.54px"
   id="path1151" />
        </g>
        <g
   transform="matrix(1.20165,0,0,1.20165,1074.88,-323.485)"
   id="g1157">
            <path
   d="M 1556,3136.62 2574.43,4155.06"
   style="fill:none;stroke:#bdbdbd;stroke-width:3.54px"
   id="path1155" />
        </g>
        <g
   transform="matrix(1.20165,0,0,1.20165,1104.24,-323.485)"
   id="g1161">
            <path
   d="M 1556,3136.62 2574.43,4155.06"
   style="fill:none;stroke:#bdbdbd;stroke-width:3.54px"
   id="path1159" />
        </g>
        <g
   transform="matrix(1.20165,0,0,1.20165,1131.88,-323.485)"
   id="g1165">
            <path
   d="M 1556,3136.62 2574.43,4155.06"
   style="fill:none;stroke:#bdbdbd;stroke-width:3.54px"
   id="path1163" />
        </g>
        <g
   transform="matrix(1.20165,0,0,1.20165,1160.88,-323.485)"
   id="g1169">
            <path
   d="M 1556,3136.62 2574.43,4155.06"
   style="fill:none;stroke:#bdbdbd;stroke-width:3.54px"
   id="path1167" />
        </g>
        <g
   transform="matrix(1.20165,0,0,1.20165,1191.24,-323.485)"
   id="g1173">
            <path
   d="M 1556,3136.62 2574.43,4155.06"
   style="fill:none;stroke:#bdbdbd;stroke-width:3.54px"
   id="path1171" />
        </g>
        <g
   transform="matrix(1.20165,0,0,1.20165,1218.88,-323.485)"
   id="g1177">
            <path
   d="M 1556,3136.62 2574.43,4155.06"
   style="fill:none;stroke:#bdbdbd;stroke-width:3.54px"
   id="path1175" />
        </g>
        <g
   transform="matrix(1.20165,0,0,1.20165,1247.88,-323.485)"
   id="g1181">
            <path
   d="M 1556,3136.62 2574.43,4155.06"
   style="fill:none;stroke:#bdbdbd;stroke-width:3.54px"
   id="path1179" />
        </g>
        <g
   transform="matrix(1.20165,0,0,1.20165,1276.24,-323.485)"
   id="g1185">
            <path
   d="M 1556,3136.62 2574.43,4155.06"
   style="fill:none;stroke:#bdbdbd;stroke-width:3.54px"
   id="path1183" />
        </g>
        <g
   transform="matrix(1.20165,0,0,1.20165,1303.88,-323.485)"
   id="g1189">
            <path
   d="M 1556,3136.62 2574.43,4155.06"
   style="fill:none;stroke:#bdbdbd;stroke-width:3.54px"
   id="path1187" />
        </g>
        <g
   transform="matrix(1.20165,0,0,1.20165,1332.88,-323.485)"
   id="g1193">
            <path
   d="M 1556,3136.62 2574.43,4155.06"
   style="fill:none;stroke:#bdbdbd;stroke-width:3.54px"
   id="path1191" />
        </g>
        <g
   transform="matrix(1.20165,0,0,1.20165,1363.24,-323.485)"
   id="g1197">
            <path
   d="M 1556,3136.62 2574.43,4155.06"
   style="fill:none;stroke:#bdbdbd;stroke-width:3.54px"
   id="path1195" />
        </g>
        <g
   transform="matrix(1.20165,0,0,1.20165,1390.88,-323.485)"
   id="g1201">
            <path
   d="M 1556,3136.62 2574.43,4155.06"
   style="fill:none;stroke:#bdbdbd;stroke-width:3.54px"
   id="path1199" />
        </g>
        <g
   transform="matrix(1.20165,0,0,1.20165,1419.88,-323.485)"
   id="g1205">
            <path
   d="M 1556,3136.62 2574.43,4155.06"
   style="fill:none;stroke:#bdbdbd;stroke-width:3.54px"
   id="path1203" />
        </g>
        <g
   transform="matrix(1.20165,0,0,1.20165,1452.24,-323.485)"
   id="g1209">
            <path
   d="M 1556,3136.62 2574.43,4155.06"
   style="fill:none;stroke:#bdbdbd;stroke-width:3.54px"
   id="path1207" />
        </g>
        <g
   transform="matrix(1.20165,0,0,1.20165,1479.88,-323.485)"
   id="g1213">
            <path
   d="M 1556,3136.62 2574.43,4155.06"
   style="fill:none;stroke:#bdbdbd;stroke-width:3.54px"
   id="path1211" />
        </g>
        <g
   transform="matrix(1.20165,0,0,1.20165,1508.88,-323.485)"
   id="g1217">
            <path
   d="M 1556,3136.62 2574.43,4155.06"
   style="fill:none;stroke:#bdbdbd;stroke-width:3.54px"
   id="path1215" />
        </g>
        <g
   transform="matrix(1.20165,0,0,1.20165,1539.24,-323.485)"
   id="g1221">
            <path
   d="M 1556,3136.62 2574.43,4155.06"
   style="fill:none;stroke:#bdbdbd;stroke-width:3.54px"
   id="path1219" />
        </g>
        <g
   transform="matrix(1.20165,0,0,1.20165,1566.88,-323.485)"
   id="g1225">
            <path
   d="M 1556,3136.62 2574.43,4155.06"
   style="fill:none;stroke:#bdbdbd;stroke-width:3.54px"
   id="path1223" />
        </g>
        <g
   transform="matrix(1.20165,0,0,1.20165,1595.88,-323.485)"
   id="g1229">
            <path
   d="M 1556,3136.62 2574.43,4155.06"
   style="fill:none;stroke:#bdbdbd;stroke-width:3.54px"
   id="path1227" />
        </g>
        <g
   transform="matrix(1.20165,0,0,1.20165,1624.24,-323.485)"
   id="g1233">
            <path
   d="M 1556,3136.62 2574.43,4155.06"
   style="fill:none;stroke:#bdbdbd;stroke-width:3.54px"
   id="path1231" />
        </g>
        <g
   transform="matrix(1.20165,0,0,1.20165,1651.88,-323.485)"
   id="g1237">
            <path
   d="M 1556,3136.62 2574.43,4155.06"
   style="fill:none;stroke:#bdbdbd;stroke-width:3.54px"
   id="path1235" />
        </g>
        <g
   transform="matrix(1.20165,0,0,1.20165,1680.88,-323.485)"
   id="g1241">
            <path
   d="M 1556,3136.62 2574.43,4155.06"
   style="fill:none;stroke:#bdbdbd;stroke-width:3.54px"
   id="path1239" />
        </g>
        <g
   transform="matrix(1.20165,0,0,1.20165,1711.24,-323.485)"
   id="g1245">
            <path
   d="M 1556,3136.62 2574.43,4155.06"
   style="fill:none;stroke:#bdbdbd;stroke-width:3.54px"
   id="path1243" />
        </g>
        <g
   transform="matrix(1.20165,0,0,1.20165,1738.88,-323.485)"
   id="g1249">
            <path
   d="M 1556,3136.62 2574.43,4155.06"
   style="fill:none;stroke:#bdbdbd;stroke-width:3.54px"
   id="path1247" />
        </g>
        <g
   transform="matrix(1.20165,0,0,1.20165,1767.88,-323.485)"
   id="g1253">
            <path
   d="M 1556,3136.62 2574.43,4155.06"
   style="fill:none;stroke:#bdbdbd;stroke-width:3.54px"
   id="path1251" />
        </g>
        <g
   transform="matrix(1.20165,0,0,1.20165,1797.24,-323.485)"
   id="g1257">
            <path
   d="M 1556,3136.62 2574.43,4155.06"
   style="fill:none;stroke:#bdbdbd;stroke-width:3.54px"
   id="path1255" />
        </g>
        <g
   transform="matrix(1.20165,0,0,1.20165,1824.88,-323.485)"
   id="g1261">
            <path
   d="M 1556,3136.62 2574.43,4155.06"
   style="fill:none;stroke:#bdbdbd;stroke-width:3.54px"
   id="path1259" />
        </g>
        <g
   transform="matrix(1.20165,0,0,1.20165,1853.88,-323.485)"
   id="g1265">
            <path
   d="M 1556,3136.62 2574.43,4155.06"
   style="fill:none;stroke:#bdbdbd;stroke-width:3.54px"
   id="path1263" />
        </g>
        <g
   transform="matrix(1.20165,0,0,1.20165,1884.24,-323.485)"
   id="g1269">
            <path
   d="M 1556,3136.62 2574.43,4155.06"
   style="fill:none;stroke:#bdbdbd;stroke-width:3.54px"
   id="path1267" />
        </g>
        <g
   transform="matrix(1.20165,0,0,1.20165,1911.88,-323.485)"
   id="g1273">
            <path
   d="M 1556,3136.62 2574.43,4155.06"
   style="fill:none;stroke:#bdbdbd;stroke-width:3.54px"
   id="path1271" />
        </g>
        <g
   transform="matrix(1.20165,0,0,1.20165,1940.88,-323.485)"
   id="g1277">
            <path
   d="M 1556,3136.62 2574.43,4155.06"
   style="fill:none;stroke:#bdbdbd;stroke-width:3.54px"
   id="path1275" />
        </g>
        <g
   transform="matrix(1.20165,0,0,1.20165,1969.24,-323.485)"
   id="g1281">
            <path
   d="M 1556,3136.62 2574.43,4155.06"
   style="fill:none;stroke:#bdbdbd;stroke-width:3.54px"
   id="path1279" />
        </g>
        <g
   transform="matrix(1.20165,0,0,1.20165,1996.88,-323.485)"
   id="g1285">
            <path
   d="M 1556,3136.62 2574.43,4155.06"
   style="fill:none;stroke:#bdbdbd;stroke-width:3.54px"
   id="path1283" />
        </g>
        <g
   transform="matrix(1.20165,0,0,1.20165,2025.88,-323.485)"
   id="g1289">
            <path
   d="M 1556,3136.62 2574.43,4155.06"
   style="fill:none;stroke:#bdbdbd;stroke-width:3.54px"
   id="path1287" />
        </g>
        <g
   transform="matrix(1.20165,0,0,1.20165,2056.24,-323.485)"
   id="g1293">
            <path
   d="M 1556,3136.62 2574.43,4155.06"
   style="fill:none;stroke:#bdbdbd;stroke-width:3.54px"
   id="path1291" />
        </g>
        <g
   transform="matrix(1.20165,0,0,1.20165,2083.88,-323.485)"
   id="g1297">
            <path
   d="M 1556,3136.62 2574.43,4155.06"
   style="fill:none;stroke:#bdbdbd;stroke-width:3.54px"
   id="path1295" />
        </g>
        <g
   transform="matrix(1.20165,0,0,1.20165,2112.88,-323.485)"
   id="g1301">
            <path
   d="M 1556,3136.62 2574.43,4155.06"
   style="fill:none;stroke:#bdbdbd;stroke-width:3.54px"
   id="path1299" />
        </g>
        <g
   transform="matrix(1.20165,0,0,1.20165,2142.24,-323.485)"
   id="g1305">
            <path
   d="M 1556,3136.62 2574.43,4155.06"
   style="fill:none;stroke:#bdbdbd;stroke-width:3.54px"
   id="path1303" />
        </g>
        <g
   transform="matrix(1.20165,0,0,1.20165,2169.88,-323.485)"
   id="g1309">
            <path
   d="M 1556,3136.62 2574.43,4155.06"
   style="fill:none;stroke:#bdbdbd;stroke-width:3.54px"
   id="path1307" />
        </g>
        <g
   transform="matrix(1.20165,0,0,1.20165,2198.88,-323.485)"
   id="g1313">
            <path
   d="M 1556,3136.62 2574.43,4155.06"
   style="fill:none;stroke:#bdbdbd;stroke-width:3.54px"
   id="path1311" />
        </g>
        <g
   transform="matrix(1.20165,0,0,1.20165,2229.24,-323.485)"
   id="g1317">
            <path
   d="M 1556,3136.62 2574.43,4155.06"
   style="fill:none;stroke:#bdbdbd;stroke-width:3.54px"
   id="path1315" />
        </g>
        <g
   transform="matrix(1.20165,0,0,1.20165,2256.88,-323.485)"
   id="g1321">
            <path
   d="M 1556,3136.62 2574.43,4155.06"
   style="fill:none;stroke:#bdbdbd;stroke-width:3.54px"
   id="path1319" />
        </g>
        <g
   transform="matrix(1.20165,0,0,1.20165,2285.88,-323.485)"
   id="g1325">
            <path
   d="M 1556,3136.62 2574.43,4155.06"
   style="fill:none;stroke:#bdbdbd;stroke-width:3.54px"
   id="path1323" />
        </g>
        <g
   transform="matrix(1.20165,0,0,1.20165,2314.24,-323.485)"
   id="g1329">
            <path
   d="M 1556,3136.62 2574.43,4155.06"
   style="fill:none;stroke:#bdbdbd;stroke-width:3.54px"
   id="path1327" />
        </g>
        <g
   transform="matrix(1.20165,0,0,1.20165,2341.88,-323.485)"
   id="g1333">
            <path
   d="M 1556,3136.62 2574.43,4155.06"
   style="fill:none;stroke:#bdbdbd;stroke-width:3.54px"
   id="path1331" />
        </g>
        <g
   transform="matrix(1.20165,0,0,1.20165,2370.88,-323.485)"
   id="g1337">
            <path
   d="M 1556,3136.62 2574.43,4155.06"
   style="fill:none;stroke:#bdbdbd;stroke-width:3.54px"
   id="path1335" />
        </g>
        <g
   transform="matrix(1.20165,0,0,1.20165,2401.24,-323.485)"
   id="g1341">
            <path
   d="M 1556,3136.62 2574.43,4155.06"
   style="fill:none;stroke:#bdbdbd;stroke-width:3.54px"
   id="path1339" />
        </g>
        <g
   transform="matrix(1.20165,0,0,1.20165,2428.88,-323.485)"
   id="g1345">
            <path
   d="M 1556,3136.62 2574.43,4155.06"
   style="fill:none;stroke:#bdbdbd;stroke-width:3.54px"
   id="path1343" />
        </g>
        <g
   transform="matrix(1.20165,0,0,1.20165,2457.88,-323.485)"
   id="g1349">
            <path
   d="M 1556,3136.62 2574.43,4155.06"
   style="fill:none;stroke:#bdbdbd;stroke-width:3.54px"
   id="path1347" />
        </g>
        <g
   transform="matrix(1.20165,0,0,1.20165,2487.24,-323.485)"
   id="g1353">
            <path
   d="M 1556,3136.62 2574.43,4155.06"
   style="fill:none;stroke:#bdbdbd;stroke-width:3.54px"
   id="path1351" />
        </g>
        <g
   transform="matrix(1.20165,0,0,1.20165,2514.88,-323.485)"
   id="g1357">
            <path
   d="M 1556,3136.62 2574.43,4155.06"
   style="fill:none;stroke:#bdbdbd;stroke-width:3.54px"
   id="path1355" />
        </g>
        <g
   transform="matrix(1.20165,0,0,1.20165,2543.88,-323.485)"
   id="g1361">
            <path
   d="M 1556,3136.62 2574.43,4155.06"
   style="fill:none;stroke:#bdbdbd;stroke-width:3.54px"
   id="path1359" />
        </g>
        <g
   transform="matrix(1.20165,0,0,1.20165,2574.24,-323.485)"
   id="g1365">
            <path
   d="M 1556,3136.62 2574.43,4155.06"
   style="fill:none;stroke:#bdbdbd;stroke-width:3.54px"
   id="path1363" />
        </g>
        <g
   transform="matrix(1.20165,0,0,1.20165,2601.88,-323.485)"
   id="g1369">
            <path
   d="M 1556,3136.62 2574.43,4155.06"
   style="fill:none;stroke:#bdbdbd;stroke-width:3.54px"
   id="path1367" />
        </g>
        <g
   transform="matrix(1.20165,0,0,1.20165,2630.88,-323.485)"
   id="g1373">
            <path
   d="M 1556,3136.62 2574.43,4155.06"
   style="fill:none;stroke:#bdbdbd;stroke-width:3.54px"
   id="path1371" />
        </g>
        <g
   transform="matrix(1.20165,0,0,1.20165,2659.24,-323.485)"
   id="g1377">
            <path
   d="M 1556,3136.62 2574.43,4155.06"
   style="fill:none;stroke:#bdbdbd;stroke-width:3.54px"
   id="path1375" />
        </g>
        <g
   transform="matrix(1.20165,0,0,1.20165,2686.88,-323.485)"
   id="g1381">
            <path
   d="M 1556,3136.62 2574.43,4155.06"
   style="fill:none;stroke:#bdbdbd;stroke-width:3.54px"
   id="path1379" />
        </g>
        <g
   transform="matrix(1.20165,0,0,1.20165,2715.88,-323.485)"
   id="g1385">
            <path
   d="M 1556,3136.62 2574.43,4155.06"
   style="fill:none;stroke:#bdbdbd;stroke-width:3.54px"
   id="path1383" />
        </g>
        <g
   transform="matrix(1.20165,0,0,1.20165,2746.24,-323.485)"
   id="g1389">
            <path
   d="M 1556,3136.62 2574.43,4155.06"
   style="fill:none;stroke:#bdbdbd;stroke-width:3.54px"
   id="path1387" />
        </g>
        <g
   transform="matrix(1.20165,0,0,1.20165,2773.88,-323.485)"
   id="g1393">
            <path
   d="M 1556,3136.62 2574.43,4155.06"
   style="fill:none;stroke:#bdbdbd;stroke-width:3.54px"
   id="path1391" />
        </g>
        <g
   transform="matrix(1.20165,0,0,1.20165,2802.88,-323.485)"
   id="g1397">
            <path
   d="M 1556,3136.62 2574.43,4155.06"
   style="fill:none;stroke:#bdbdbd;stroke-width:3.54px"
   id="path1395" />
        </g>
        <g
   transform="matrix(1.20165,0,0,1.20165,2835.24,-323.485)"
   id="g1401">
            <path
   d="M 1556,3136.62 2574.43,4155.06"
   style="fill:none;stroke:#bdbdbd;stroke-width:3.54px"
   id="path1399" />
        </g>
        <g
   transform="matrix(1.20165,0,0,1.20165,2862.88,-323.485)"
   id="g1405">
            <path
   d="M 1556,3136.62 2574.43,4155.06"
   style="fill:none;stroke:#bdbdbd;stroke-width:3.54px"
   id="path1403" />
        </g>
        <g
   transform="matrix(1.20165,0,0,1.20165,2891.88,-323.485)"
   id="g1409">
            <path
   d="M 1556,3136.62 2574.43,4155.06"
   style="fill:none;stroke:#bdbdbd;stroke-width:3.54px"
   id="path1407" />
        </g>
        <g
   transform="matrix(1.20165,0,0,1.20165,2922.24,-323.485)"
   id="g1413">
            <path
   d="M 1556,3136.62 2574.43,4155.06"
   style="fill:none;stroke:#bdbdbd;stroke-width:3.54px"
   id="path1411" />
        </g>
        <g
   transform="matrix(1.20165,0,0,1.20165,2949.88,-323.485)"
   id="g1417">
            <path
   d="M 1556,3136.62 2574.43,4155.06"
   style="fill:none;stroke:#bdbdbd;stroke-width:3.54px"
   id="path1415" />
        </g>
        <g
   transform="matrix(1.20165,0,0,1.20165,2978.88,-323.485)"
   id="g1421">
            <path
   d="M 1556,3136.62 2574.43,4155.06"
   style="fill:none;stroke:#bdbdbd;stroke-width:3.54px"
   id="path1419" />
        </g>
        <g
   transform="matrix(1.20165,0,0,1.20165,3007.24,-323.485)"
   id="g1425">
            <path
   d="M 1556,3136.62 2574.43,4155.06"
   style="fill:none;stroke:#bdbdbd;stroke-width:3.54px"
   id="path1423" />
        </g>
        <g
   transform="matrix(1.20165,0,0,1.20165,3034.88,-323.485)"
   id="g1429">
            <path
   d="M 1556,3136.62 2574.43,4155.06"
   style="fill:none;stroke:#bdbdbd;stroke-width:3.54px"
   id="path1427" />
        </g>
        <g
   transform="matrix(1.20165,0,0,1.20165,3063.88,-323.485)"
   id="g1433">
            <path
   d="M 1556,3136.62 2574.43,4155.06"
   style="fill:none;stroke:#bdbdbd;stroke-width:3.54px"
   id="path1431" />
        </g>
        <g
   transform="matrix(1.20165,0,0,1.20165,3094.24,-323.485)"
   id="g1437">
            <path
   d="M 1556,3136.62 2574.43,4155.06"
   style="fill:none;stroke:#bdbdbd;stroke-width:3.54px"
   id="path1435" />
        </g>
        <g
   transform="matrix(1.20165,0,0,1.20165,3121.88,-323.485)"
   id="g1441">
            <path
   d="M 1556,3136.62 2574.43,4155.06"
   style="fill:none;stroke:#bdbdbd;stroke-width:3.54px"
   id="path1439" />
        </g>
        <g
   transform="matrix(1.20165,0,0,1.20165,3150.88,-323.485)"
   id="g1445">
            <path
   d="M 1556,3136.62 2574.43,4155.06"
   style="fill:none;stroke:#bdbdbd;stroke-width:3.54px"
   id="path1443" />
        </g>
        <g
   transform="matrix(1.20165,0,0,1.20165,3180.24,-323.485)"
   id="g1449">
            <path
   d="M 1556,3136.62 2574.43,4155.06"
   style="fill:none;stroke:#bdbdbd;stroke-width:3.54px"
   id="path1447" />
        </g>
    </g>
</svg>
