<?xml version="1.0" encoding="UTF-8" standalone="no"?>
<!DOCTYPE svg PUBLIC "-//W3C//DTD SVG 1.1//EN" "http://www.w3.org/Graphics/SVG/1.1/DTD/svg11.dtd">
<svg width="100%" height="100%" viewBox="0 0 66 65" version="1.1" xmlns="http://www.w3.org/2000/svg" xmlns:xlink="http://www.w3.org/1999/xlink" xml:space="preserve" xmlns:serif="http://www.serif.com/" style="fill-rule:evenodd;clip-rule:evenodd;stroke-linejoin:round;stroke-miterlimit:2;">
    <g transform="matrix(4.16667,0,0,4.16667,40.6439,7.52917)">
        <path d="M0,12.443C-0.051,12.507 -0.132,12.607 -0.241,12.718C-0.299,12.773 -0.359,12.834 -0.434,12.89C-0.504,12.947 -0.589,13.002 -0.675,13.05C-0.765,13.101 -0.86,13.142 -0.96,13.173C-1.059,13.205 -1.162,13.228 -1.263,13.238L-1.414,13.248L-1.56,13.24C-1.656,13.238 -1.746,13.213 -1.832,13.199C-1.918,13.183 -1.996,13.15 -2.07,13.129C-2.145,13.109 -2.212,13.072 -2.274,13.047C-2.399,12.998 -2.489,12.941 -2.557,12.906C-2.623,12.869 -2.661,12.847 -2.661,12.847C-2.661,12.847 -2.619,12.853 -2.543,12.865C-2.469,12.875 -2.36,12.9 -2.234,12.902C-2.171,12.902 -2.105,12.914 -2.033,12.908C-1.962,12.902 -1.888,12.906 -1.813,12.892C-1.74,12.877 -1.663,12.873 -1.592,12.847L-1.485,12.814L-1.386,12.767C-1.124,12.64 -0.982,12.418 -0.9,12.23C-0.859,12.134 -0.83,12.05 -0.808,11.984C-0.784,11.914 -0.77,11.873 -0.77,11.873L0.077,12.349C0.077,12.349 0.049,12.382 0,12.443M-7.851,4.672C-7.871,4.679 -7.901,4.693 -7.94,4.707C-8.012,4.736 -8.099,4.767 -8.196,4.81C-8.241,4.832 -8.292,4.855 -8.338,4.882C-8.386,4.912 -8.434,4.945 -8.477,4.984C-8.523,5.023 -8.56,5.072 -8.602,5.123C-8.633,5.179 -8.674,5.236 -8.696,5.304C-8.727,5.369 -8.739,5.445 -8.758,5.519C-8.772,5.593 -8.775,5.67 -8.784,5.746C-8.785,5.9 -8.779,6.047 -8.759,6.173C-8.749,6.3 -8.716,6.41 -8.703,6.484C-8.688,6.56 -8.679,6.603 -8.679,6.603C-8.679,6.603 -8.702,6.566 -8.742,6.5C-8.781,6.433 -8.846,6.347 -8.903,6.224C-8.968,6.103 -9.03,5.957 -9.088,5.791C-9.109,5.705 -9.137,5.617 -9.153,5.523C-9.163,5.425 -9.182,5.328 -9.174,5.224C-9.177,5.119 -9.156,5.015 -9.137,4.908C-9.106,4.806 -9.073,4.701 -9.023,4.609C-8.977,4.513 -8.92,4.427 -8.862,4.353C-8.804,4.275 -8.744,4.213 -8.688,4.154C-8.575,4.043 -8.478,3.963 -8.421,3.912C-8.388,3.884 -8.375,3.871 -8.36,3.857C-8.347,3.845 -8.34,3.839 -8.34,3.839L-7.817,4.658C-7.817,4.658 -7.829,4.662 -7.851,4.672M0.167,10.763C-1.359,9.537 -1.785,10.14 -2.477,10.832C-2.96,11.316 -4.183,10.306 -5.239,9.25C-6.295,8.193 -7.304,6.972 -6.821,6.488C-6.129,5.797 -5.526,5.369 -6.753,3.843C-7.978,2.318 -8.795,3.49 -9.466,4.16C-10.24,4.935 -9.507,7.818 -6.657,10.668C-3.807,13.517 -0.923,14.25 -0.15,13.478C0.521,12.806 1.692,11.99 0.167,10.763M3.356,2.754C2.941,2.754 2.604,2.416 2.604,2.002C2.604,1.586 2.941,1.25 3.356,1.25C3.771,1.25 4.107,1.586 4.107,2.002C4.107,2.416 3.771,2.754 3.356,2.754M1.1,2.754C0.685,2.754 0.349,2.416 0.349,2.002C0.349,1.586 0.685,1.25 1.1,1.25C1.516,1.25 1.852,1.586 1.852,2.002C1.852,2.416 1.516,2.754 1.1,2.754M-1.155,2.754C-1.57,2.754 -1.906,2.416 -1.906,2.002C-1.906,1.586 -1.57,1.25 -1.155,1.25C-0.74,1.25 -0.403,1.586 -0.403,2.002C-0.403,2.416 -0.74,2.754 -1.155,2.754M1.1,-1.807C-1.557,-1.807 -3.71,-0.102 -3.71,2.002C-3.71,3.254 -2.943,4.363 -1.763,5.056C-1.878,5.689 -2.246,6.433 -2.759,6.947C-1.505,6.855 -0.401,6.494 0.322,5.754C0.576,5.787 0.835,5.808 1.1,5.808C3.757,5.808 5.911,4.105 5.911,2.002C5.911,-0.102 3.757,-1.807 1.1,-1.807" style="fill:rgb(28,25,23);fill-rule:nonzero;"/>
    </g>
</svg>
