<svg width="52" height="50" viewBox="0 0 52 50" fill="none" xmlns="http://www.w3.org/2000/svg">
<path fill-rule="evenodd" clip-rule="evenodd" d="M51.4272 0V7.60082H39.2381C38.9643 12.1204 36.2934 36.4981 39.5805 39.6483C43.7577 43.483 48.8249 40.607 49.7148 34.8549H51.4952C50.331 54.5765 29.1031 52.7959 29.6508 38.2102C30.4725 29.3081 31.2257 17.3932 32.1844 7.60115H21.0227C20.612 14.9968 19.3109 41.0174 14.9967 46.9069C11.2306 52.1797 -0.821529 49.1667 7.12174 38.279C14.3802 28.487 15.4075 19.516 16.2973 7.60115C8.55956 7.60115 6.02554 7.66976 1.84871 15.0651H0C3.08154 3.69791 6.43701 0 17.9411 0H51.4261H51.4272Z" fill="#1C1917"/>
</svg>
