<svg width="28" height="29" viewBox="0 0 28 29" fill="none" xmlns="http://www.w3.org/2000/svg">
<path d="M13.6929 0.000232152C12.5501 0.0056107 11.4587 0.104333 10.4984 0.276445C7.66943 0.782659 7.1558 1.84221 7.1558 3.79619V6.37681H13.841V7.23702H7.1558H4.64691C2.70401 7.23702 1.00275 8.41984 0.470621 10.67C-0.143187 13.2491 -0.170413 14.8586 0.470621 17.5516C0.945827 19.5562 2.08068 20.9845 4.02358 20.9846H6.3221V17.891C6.3221 15.656 8.23126 13.6846 10.4984 13.6846H17.1758C19.0345 13.6846 20.5184 12.1345 20.5184 10.2438V3.79619C20.5184 1.96117 18.99 0.582704 17.1758 0.276445C16.0274 0.0828183 14.8358 -0.00514648 13.6929 0.000232152ZM10.0776 2.07578C10.7682 2.07578 11.3321 2.65627 11.3321 3.37003C11.3321 4.08127 10.7682 4.6564 10.0776 4.6564C9.38464 4.6564 8.8232 4.08127 8.8232 3.37003C8.8232 2.65627 9.38464 2.07578 10.0776 2.07578Z" fill="url(#paint0_linear_929_20)"/>
<path d="M21.352 7.2373V10.2441C21.352 12.5752 19.4008 14.5372 17.1757 14.5372H10.4984C8.6693 14.5372 7.15576 16.1228 7.15576 17.9781V24.4257C7.15576 26.2607 8.73118 27.34 10.4984 27.8665C12.6145 28.4967 14.6438 28.6106 17.1757 27.8665C18.8588 27.3729 20.5183 26.3797 20.5183 24.4257V21.845H13.8409V20.9848H20.5183H23.8609C25.8038 20.9848 26.5278 19.6122 27.2035 17.5519C27.9015 15.4309 27.8718 13.3911 27.2035 10.6702C26.7234 8.71119 25.8063 7.2373 23.8609 7.2373H21.352ZM17.5965 23.5655C18.2895 23.5655 18.8509 24.1406 18.8509 24.8518C18.8509 25.5656 18.2895 26.1461 17.5965 26.1461C16.906 26.1461 16.342 25.5656 16.342 24.8518C16.342 24.1406 16.906 23.5655 17.5965 23.5655Z" fill="url(#paint1_linear_929_20)"/>
<defs>
<linearGradient id="paint0_linear_929_20" x1="-8.32477e-08" y1="-7.32451e-08" x2="15.5807" y2="13.1083" gradientUnits="userSpaceOnUse">
<stop stop-color="#5A9FD4"/>
<stop offset="1" stop-color="#306998"/>
</linearGradient>
<linearGradient id="paint1_linear_929_20" x1="17.4358" y1="24.6349" x2="11.8114" y2="16.8534" gradientUnits="userSpaceOnUse">
<stop stop-color="#FFD43B"/>
<stop offset="1" stop-color="#FFE873"/>
</linearGradient>
</defs>
</svg>
