<svg width="86" height="111" viewBox="0 0 86 111" fill="none" xmlns="http://www.w3.org/2000/svg">
<path d="M9.1705 14.1357C9.1705 29.0713 18.5513 37.9605 37.3369 42.6485L57.2395 47.1863C75.0162 51.2012 85.8383 61.1722 85.8383 77.4181C85.9765 84.4922 83.6343 91.404 79.2081 96.9875C79.2081 80.7778 70.6801 72.0208 50.1109 66.7558L30.5685 62.3863C14.9179 58.8763 2.84057 50.6783 2.84057 33.0321C2.7685 26.2164 4.99059 19.569 9.1705 14.1357Z" fill="#E84031"/>
<path opacity="0.7" d="M66.9868 73.4395C75.4727 78.7767 79.1962 86.2475 79.1962 96.9638C72.1696 105.811 59.8221 110.781 45.3125 110.781C20.8876 110.781 3.79556 98.9592 0 78.4221H23.452C26.4728 87.8522 34.4663 92.2217 45.1383 92.2217C58.1645 92.2217 66.8246 85.388 66.9988 73.3975" fill="#E84031"/>
<path opacity="0.7" d="M21.368 36.2781C17.4943 34.0122 14.3114 30.7606 12.1613 26.86C10.0173 22.9593 8.98437 18.5658 9.17054 14.1362C15.9509 5.36117 27.7459 0 42.1234 0C67.0047 0 81.4002 12.9221 84.9496 31.1093H62.3864C59.9001 23.939 53.6662 18.3554 42.3096 18.3554C30.1722 18.3554 21.8965 25.3033 21.416 36.2781" fill="#E84031"/>
</svg>
