<svg width="83" height="62" viewBox="0 0 83 62" fill="none" xmlns="http://www.w3.org/2000/svg">
<g clip-path="url(#clip0_765_91)">
<path d="M71.4242 35.6357C68.5302 35.6508 66.0151 36.3454 63.909 37.3722C63.1363 35.8471 62.3636 34.4881 62.2272 33.4916C62.0757 32.3289 61.8939 31.6192 62.0757 30.23C62.2575 28.8408 63.0757 26.8627 63.0606 26.7117C63.0454 26.5607 62.8787 25.851 61.2121 25.8359C59.5454 25.8208 58.106 26.153 57.9393 26.5909C57.7727 27.0288 57.4545 28.0254 57.2424 29.0522C56.9545 30.5622 53.909 35.9528 52.1666 38.7765C51.606 37.6742 51.1212 36.7078 51.0151 35.9377C50.8636 34.775 50.6818 34.0653 50.8636 32.6762C51.0454 31.287 51.8636 29.3089 51.8484 29.1579C51.8333 29.0069 51.6666 28.2972 49.9999 28.2821C48.3333 28.267 46.8939 28.5992 46.7272 29.0371C46.5606 29.475 46.3787 30.5018 46.0302 31.4984C45.6818 32.495 41.6363 41.4945 40.5757 43.8199C40.0302 45.0127 39.5605 45.964 39.2272 46.6133C39.2272 46.6133 39.2121 46.6586 39.1666 46.7341C38.8787 47.2928 38.7121 47.5948 38.7121 47.5948C38.7121 47.5948 38.7121 47.5948 38.7121 47.6099C38.4848 48.0176 38.2424 48.3951 38.1212 48.3951C38.0302 48.3951 37.8636 47.3079 38.1515 45.8281C38.7575 42.7025 40.1969 37.8403 40.1818 37.6742C40.1818 37.5836 40.4545 36.738 39.2424 36.3001C38.0606 35.8622 37.6363 36.587 37.5302 36.587C37.4242 36.587 37.3484 36.8437 37.3484 36.8437C37.3484 36.8437 38.6666 31.3776 34.8333 31.3776C32.4393 31.3776 29.1363 33.9898 27.4999 36.3454C26.4696 36.9041 24.2727 38.097 21.9242 39.3805C21.0302 39.8788 20.106 40.3771 19.2424 40.8452C19.1818 40.7848 19.1212 40.7093 19.0606 40.6489C14.4242 35.7112 5.84843 32.2232 6.21207 25.5943C6.34843 23.1784 7.18176 16.8364 22.6818 9.13549C35.4393 2.86905 45.5909 4.60553 47.3484 8.45599C49.8636 13.9523 41.909 24.1598 28.7272 25.6396C23.6969 26.1983 21.0606 24.2655 20.3939 23.5407C19.6969 22.7858 19.5909 22.7405 19.3333 22.8915C18.909 23.118 19.1818 23.7974 19.3333 24.19C19.7272 25.2168 21.3484 27.0288 24.0909 27.9197C26.5151 28.7049 32.409 29.1428 39.5454 26.3946C47.5302 23.3143 53.7727 14.7526 51.9393 7.5802C50.106 0.302073 37.9848 -2.0988 26.5151 1.96306C19.6969 4.37903 12.303 8.1842 6.98479 13.1369C0.666611 19.0259 -0.333389 24.1447 0.0757019 26.2889C1.5454 33.8992 12.0757 38.852 16.2878 42.5213C16.0757 42.6421 15.8787 42.7478 15.7121 42.8384C13.606 43.8803 5.5757 48.0629 3.5757 52.4872C1.30297 57.5003 3.93934 61.0941 5.68176 61.5773C11.0909 63.0722 16.6515 60.3844 19.6363 55.945C22.6212 51.5057 22.2575 45.7375 20.8787 43.0951C20.8636 43.0649 20.8484 43.0347 20.8181 43.0045C21.3636 42.6874 21.9242 42.3552 22.4696 42.0381C23.5454 41.4039 24.606 40.815 25.5151 40.3318C24.9999 41.7361 24.6212 43.4122 24.4393 45.8281C24.2121 48.6669 25.3787 52.3513 26.909 53.8009C27.5909 54.435 28.3939 54.4501 28.909 54.4501C30.6969 54.4501 31.4999 52.9704 32.3939 51.2188C33.4848 49.0746 34.4696 46.5831 34.4696 46.5831C34.4696 46.5831 33.2424 53.3177 36.5757 53.3177C37.7878 53.3177 39.0151 51.7473 39.5606 50.947C39.5606 50.9621 39.5606 50.9621 39.5606 50.9621C39.5606 50.9621 39.5909 50.9168 39.6515 50.8111C39.7727 50.6148 39.8484 50.494 39.8484 50.494C39.8484 50.494 39.8484 50.4789 39.8484 50.4638C40.3333 49.6182 41.4242 47.7005 43.0454 44.5144C45.1363 40.4073 47.1515 35.2733 47.1515 35.2733C47.1515 35.2733 47.3333 36.5266 47.9545 38.6104C48.3181 39.8335 49.0757 41.1774 49.6818 42.476C49.1969 43.1555 48.8939 43.533 48.8939 43.533C48.8939 43.533 48.8939 43.533 48.909 43.5481C48.5151 44.0614 48.0909 44.6201 47.6212 45.1637C45.9696 47.1267 43.9999 49.3766 43.7272 50.0259C43.409 50.796 43.4848 51.3547 44.0909 51.8077C44.5302 52.1399 45.3181 52.1852 46.1212 52.1399C47.606 52.0342 48.6515 51.6718 49.1666 51.4453C49.9696 51.1584 50.909 50.7205 51.7878 50.0712C53.409 48.8783 54.3939 47.172 54.303 44.9221C54.2575 43.684 53.8484 42.4458 53.3484 41.2831C53.4999 41.0717 53.6363 40.8603 53.7878 40.6489C56.3484 36.9192 58.3333 32.8272 58.3333 32.8272C58.3333 32.8272 58.5151 34.0804 59.1363 36.1642C59.4393 37.2212 60.0606 38.3688 60.606 39.4862C58.1969 41.4341 56.7121 43.6991 56.1818 45.1788C55.2272 47.927 55.9696 49.1652 57.3787 49.4521C58.0151 49.588 58.9242 49.286 59.5909 48.9991C60.4393 48.7273 61.4393 48.2592 62.3939 47.5646C64.0151 46.3717 65.5757 44.7107 65.4848 42.4609C65.4393 41.4341 65.1666 40.4224 64.7878 39.4409C66.8333 38.5953 69.4696 38.1272 72.8333 38.5198C80.0454 39.3654 81.4697 43.85 81.1969 45.7375C80.9242 47.625 79.409 48.6518 78.909 48.9689C78.409 49.286 78.2424 49.3917 78.2878 49.6182C78.3484 49.9504 78.5909 49.9353 79.0151 49.8749C79.606 49.7692 82.803 48.3498 82.9393 44.8768C83.1666 40.4375 78.9242 35.5904 71.4242 35.6357ZM15.7878 54.3293C13.3939 56.9265 10.0606 57.908 8.62116 57.0775C7.0757 56.1866 7.68176 52.3513 10.6212 49.6031C12.409 47.927 14.7121 46.3717 16.2424 45.4204C16.5909 45.209 17.106 44.907 17.7272 44.5295C17.8333 44.4691 17.8939 44.4389 17.8939 44.4389C18.0151 44.3634 18.1363 44.2879 18.2575 44.2124C19.3333 48.1384 18.303 51.5963 15.7878 54.3293ZM33.2121 42.5213C32.3787 44.5446 30.6363 49.7239 29.5757 49.437C28.6666 49.1954 28.106 45.2694 29.3939 41.3888C30.0454 39.4409 31.4242 37.1155 32.2272 36.2095C33.5302 34.7599 34.9696 34.2767 35.3181 34.8656C35.7575 35.6357 33.7272 41.2529 33.2121 42.5213ZM47.5909 49.3766C47.2424 49.5578 46.909 49.6786 46.7575 49.588C46.6515 49.5276 46.909 49.286 46.909 49.286C46.909 49.286 48.7121 47.3532 49.4242 46.4774C49.8333 45.964 50.3181 45.36 50.8333 44.6805C50.8333 44.7409 50.8333 44.8164 50.8333 44.8768C50.8333 47.1871 48.5909 48.7424 47.5909 49.3766ZM58.6818 46.8549C58.4242 46.6737 58.4696 46.0697 59.3333 44.1822C59.6666 43.4424 60.4545 42.2042 61.803 41.0113C61.9545 41.4945 62.0606 41.9626 62.0454 42.4005C62.0302 45.3147 59.9393 46.4019 58.6818 46.8549Z" fill="#CD6799"/>
</g>
<defs>
<clipPath id="clip0_765_91">
<rect width="83" height="62" fill="white"/>
</clipPath>
</defs>
</svg>
