<svg width="187" height="130" viewBox="0 0 187 130" fill="none" xmlns="http://www.w3.org/2000/svg">
<g clip-path="url(#clip0_765_185)">
<path fill-rule="evenodd" clip-rule="evenodd" d="M77.3408 14.1781C83.333 7.94018 91.6809 4.06659 100.909 4.06659C113.176 4.06659 123.881 10.9038 129.581 21.0539C134.68 18.7776 140.204 17.6043 145.789 17.611C167.916 17.611 185.852 35.6931 185.852 58.0024C185.852 80.3116 167.916 98.3938 145.789 98.3938C143.084 98.3938 140.445 98.1236 137.894 97.6097C132.876 106.553 123.306 112.598 112.328 112.598C107.732 112.598 103.385 111.542 99.5166 109.651C94.427 121.615 82.5708 130 68.7551 130C54.3683 130 42.1035 120.9 37.3981 108.142C35.3015 108.584 33.1645 108.806 31.0218 108.806C13.8889 108.808 8.61638e-05 94.7842 8.61638e-05 77.4841C-0.0127671 72.0015 1.41262 66.6113 4.13414 61.8508C6.85567 57.0904 10.7783 53.1259 15.5109 50.3527C13.5475 45.8316 12.5373 40.9548 12.5433 36.0263C12.5433 16.1281 28.7046 2.45158e-05 48.6404 2.45158e-05C54.1941 -0.00645067 59.674 1.26984 64.6526 3.72927C69.6312 6.1887 73.9736 9.76471 77.3408 14.1781Z" fill="#00A1E0"/>
<path fill-rule="evenodd" clip-rule="evenodd" d="M26.9198 67.417L27.6719 65.3309C27.7918 64.9734 28.0622 65.0912 28.1719 65.1583C28.3813 65.2822 28.5317 65.3939 28.802 65.5523C31.0176 66.9519 33.0705 66.9661 33.7108 66.9661C35.3694 66.9661 36.3979 66.0886 36.3979 64.9044V64.8434C36.3979 63.5556 34.8125 63.0681 32.9811 62.5075L32.5746 62.3775C30.0602 61.6625 27.3711 60.6286 27.3711 57.4476V57.3826C27.3711 54.3642 29.8082 52.2578 33.2961 52.2578L33.6783 52.2537C35.7271 52.2537 37.7069 52.8489 39.1419 53.7183C39.272 53.7995 39.398 53.9498 39.3249 54.1489L38.5525 56.235C38.4163 56.5904 38.0443 56.3548 38.0443 56.3548C36.5472 55.5752 34.8905 55.1505 33.2026 55.1137C31.7229 55.1137 30.7716 55.8978 30.7716 56.9622V57.0292C30.7716 58.2703 32.4018 58.8004 34.2921 59.4159L34.6173 59.5175C37.1235 60.3097 39.7985 61.4065 39.7985 64.4229V64.4859C39.7985 67.7461 37.4284 69.7712 33.6173 69.7712C31.7453 69.7712 29.9545 69.4828 28.0601 68.4773C27.7024 68.2701 27.3487 68.0914 26.9991 67.8375C26.9625 67.7847 26.802 67.7217 26.9178 67.417H26.9198ZM82.7292 67.417L83.4833 65.3309C83.593 64.9897 83.9122 65.1156 83.9813 65.1583C84.1886 65.2862 84.3431 65.3939 84.6114 65.5523C86.831 66.9519 88.8799 66.9661 89.5262 66.9661C91.1787 66.9661 92.2093 66.0886 92.2093 64.9044V64.8434C92.2093 63.5556 90.6259 63.0681 88.7945 62.5075L88.388 62.3775C85.8696 61.6625 83.1804 60.6286 83.1804 57.4476V57.3826C83.1804 54.3642 85.6196 52.2578 89.1075 52.2578L89.4876 52.2537C91.5365 52.2537 93.5183 52.8489 94.9553 53.7183C95.0813 53.7995 95.2094 53.9498 95.1383 54.1489C95.0671 54.3337 94.4329 56.04 94.3659 56.235C94.2256 56.5904 93.8577 56.3548 93.8577 56.3548C92.3599 55.5749 90.7025 55.1502 89.014 55.1137C87.5343 55.1137 86.583 55.8978 86.583 56.9622V57.0292C86.583 58.2703 88.2111 58.8004 90.1035 59.4159L90.4287 59.5175C92.9349 60.3097 95.6078 61.4065 95.6078 64.4229V64.4859C95.6078 67.7461 93.2398 69.7712 89.4287 69.7712C87.5546 69.7712 85.7639 69.4828 83.8715 68.4773C83.5138 68.2701 83.1601 68.0914 82.8085 67.8375C82.7719 67.7847 82.6113 67.7217 82.7292 67.417ZM124.011 57.6081C124.324 58.6562 124.479 59.8079 124.479 61.0247C124.479 62.2434 124.324 63.3911 124.011 64.4392C123.725 65.4499 123.234 66.3909 122.568 67.2037C121.901 67.9932 121.065 68.6222 120.121 69.044C119.145 69.4909 117.999 69.7144 116.71 69.7144C115.422 69.7144 114.271 69.4909 113.3 69.044C112.356 68.6222 111.519 67.9932 110.852 67.2037C110.187 66.3909 109.696 65.4508 109.407 64.4412C109.088 63.3308 108.93 62.1801 108.94 61.0247C108.94 59.8059 109.096 58.6562 109.407 57.6081C109.72 56.5519 110.206 55.6215 110.85 54.8456C111.519 54.0529 112.356 53.4188 113.3 52.989C114.273 52.534 115.418 52.3045 116.71 52.3045C118.003 52.3045 119.147 52.534 120.121 52.989C121.093 53.442 121.918 54.0656 122.568 54.8456C123.215 55.6215 123.703 56.5519 124.011 57.6081ZM120.832 61.0247C120.832 59.1823 120.491 57.734 119.812 56.7184C119.141 55.7109 118.125 55.2234 116.71 55.2234C115.296 55.2234 114.287 55.7109 113.625 56.7184C112.96 57.734 112.621 59.1823 112.621 61.0247C112.621 62.865 112.96 64.3234 113.629 65.3472C114.287 66.3669 115.296 66.8604 116.71 66.8604C118.125 66.8604 119.141 66.3648 119.812 65.3472C120.487 64.3234 120.832 62.865 120.832 61.0247ZM150.147 66.3669L150.927 68.524C151.029 68.7881 150.799 68.9039 150.799 68.9039C149.594 69.3711 147.921 69.7042 146.293 69.7042C143.533 69.7042 141.419 68.91 140.008 67.3419C138.606 65.7778 137.89 63.6511 137.89 61.0125C137.89 59.7917 138.067 58.6359 138.413 57.5898C138.758 56.5336 139.276 55.6033 139.959 54.8273C140.668 54.0296 141.543 53.396 142.522 52.9708C143.539 52.5178 144.734 52.2903 146.067 52.2903C146.968 52.2903 147.769 52.3451 148.456 52.4467C149.189 52.5604 150.167 52.8245 150.58 52.985C150.655 53.0134 150.864 53.115 150.779 53.3608C150.478 54.2078 150.273 54.7603 149.994 55.5322C149.872 55.8612 149.624 55.7515 149.624 55.7515C148.578 55.4225 147.573 55.2722 146.262 55.2722C144.687 55.2722 143.504 55.7962 142.732 56.822C141.951 57.8559 141.514 59.2108 141.508 61.0125C141.502 62.9889 141.998 64.4534 142.876 65.3594C143.752 66.2633 144.976 66.7203 146.517 66.7203C147.141 66.7203 147.73 66.6797 148.26 66.5964C148.785 66.5131 149.277 66.3506 149.74 66.1698C149.74 66.1698 150.039 66.0581 150.147 66.3669ZM166.428 57.0089C167.121 59.4342 166.759 61.5284 166.747 61.6442C166.721 61.9204 166.436 61.9245 166.436 61.9245L155.665 61.9164C155.732 63.5515 156.125 64.7094 156.917 65.4954C157.696 66.2653 158.932 66.7589 160.605 66.7609C163.162 66.767 164.253 66.2531 165.027 65.9667C165.027 65.9667 165.322 65.8611 165.434 66.1536L166.135 68.1259C166.278 68.457 166.164 68.5728 166.044 68.6398C165.369 69.0115 163.733 69.7062 160.619 69.7144C159.109 69.7204 157.793 69.5051 156.71 69.0847C155.681 68.7036 154.753 68.0897 154.001 67.2911C153.281 66.5075 152.747 65.5724 152.438 64.555C152.104 63.4402 151.94 62.2816 151.952 61.1181C151.952 59.8994 152.108 58.7415 152.423 57.6833C152.738 56.6169 153.228 55.6764 153.881 54.8862C154.557 54.0798 155.405 53.4344 156.362 52.9972C157.35 52.532 158.574 52.3045 159.92 52.3045C161.072 52.3045 162.125 52.5523 163.001 52.9301C163.676 53.2186 164.355 53.7406 165.05 54.4881C165.489 54.9594 166.158 55.9912 166.428 57.0089ZM155.716 59.2575H163.399C163.32 58.2703 163.127 57.3847 162.684 56.7184C162.009 55.7109 161.078 55.1564 159.665 55.1564C158.251 55.1564 157.247 55.7109 156.582 56.7184C156.147 57.3847 155.869 58.2337 155.716 59.2575ZM80.1539 57.0089C80.845 59.4342 80.4892 61.5284 80.4771 61.6442C80.4486 61.9204 80.164 61.9245 80.164 61.9245L69.3912 61.9164C69.4603 63.5515 69.8506 64.7094 70.6453 65.4954C71.4238 66.2653 72.6576 66.7589 74.3304 66.7609C76.8875 66.767 77.983 66.2531 78.7554 65.9667C78.7554 65.9667 79.0502 65.8611 79.1599 66.1536L79.8632 68.1259C80.0055 68.457 79.8917 68.5728 79.7738 68.6398C79.0949 69.0115 77.4566 69.7062 74.3467 69.7144C72.8344 69.7204 71.5193 69.5051 70.438 69.0847C69.4082 68.7031 68.4803 68.0893 67.7265 67.2911C67.0091 66.5067 66.4764 65.5718 66.1675 64.555C65.8317 63.4406 65.6665 62.2819 65.6776 61.1181C65.6776 59.8994 65.8362 58.7415 66.1492 57.6833C66.4421 56.6622 66.9385 55.7108 67.6086 54.8862C68.2847 54.0804 69.1318 53.4352 70.0884 52.9972C71.0803 52.532 72.3039 52.3045 73.6455 52.3045C74.7057 52.302 75.7555 52.5149 76.731 52.9301C77.4058 53.2186 78.0847 53.7406 78.7778 54.4881C79.2168 54.9594 79.8856 55.9912 80.1539 57.0089ZM69.44 59.2575H77.1273C77.046 58.2703 76.8529 57.3847 76.4118 56.7184C75.7411 55.7109 74.8061 55.1564 73.3934 55.1564C71.9787 55.1564 70.9726 55.7109 70.312 56.7184C69.8729 57.3847 69.5965 58.2337 69.44 59.2575ZM50.4432 58.7436C50.4432 58.7436 51.2929 58.8187 52.2197 58.9528V58.4978C52.2197 57.0617 51.9209 56.3853 51.3335 55.9323C50.7319 55.4733 49.8334 55.2356 48.6708 55.2356C48.6708 55.2356 46.0487 55.2031 43.9755 56.3284C43.8799 56.3853 43.8007 56.4178 43.8007 56.4178C43.8007 56.4178 43.5405 56.5092 43.447 56.2431L42.6848 54.1956C42.5669 53.9011 42.7803 53.767 42.7803 53.767C43.7498 53.0114 46.0995 52.5544 46.0995 52.5544C47.0534 52.3869 48.0194 52.2979 48.9879 52.2883C51.1384 52.2883 52.8031 52.7879 53.9352 53.7772C55.0694 54.7704 55.6467 56.3711 55.6467 58.5283L55.6528 68.3758C55.6528 68.3758 55.6752 68.6601 55.4048 68.7251C55.4048 68.7251 55.0085 68.8348 54.6528 68.9181C54.293 69.0014 52.9962 69.2654 51.9372 69.4442C50.8558 69.6253 49.7612 69.7163 48.6647 69.7164C47.6179 69.7164 46.6585 69.6189 45.8129 69.4259C45.0249 69.261 44.2787 68.9375 43.6198 68.4753C43.0192 68.0395 42.5371 67.4607 42.2173 66.7914C41.8859 66.115 41.7193 65.2883 41.7193 64.3336C41.7193 63.3972 41.9164 62.5623 42.2965 61.8514C42.6787 61.1445 43.2031 60.5453 43.8616 60.0761C44.542 59.5974 45.3027 59.2445 46.1077 59.034C46.9471 58.8106 47.8395 58.6948 48.7623 58.6948C49.4391 58.6948 50.0042 58.709 50.4432 58.7436ZM46.1565 66.3079C46.1504 66.3059 47.1219 67.0697 49.3151 66.9356C50.8558 66.8422 52.2218 66.5497 52.2218 66.5497V61.6544C52.2218 61.6544 50.8437 61.4289 49.2968 61.4065C47.1037 61.3801 46.1686 62.1865 46.1747 62.1845C45.5284 62.6436 45.2133 63.324 45.2133 64.2665C45.2133 64.8698 45.3211 65.3411 45.5385 65.6701C45.6747 65.8875 45.7337 65.9687 46.1565 66.3079ZM137.329 53.1962C137.227 53.4908 136.705 54.9654 136.516 55.455C136.447 55.6419 136.333 55.7698 136.124 55.7475C136.124 55.7475 135.506 55.6053 134.941 55.6053C134.553 55.6053 133.998 55.654 133.498 55.8084C132.996 55.9624 132.54 56.2365 132.168 56.6067C131.774 56.9865 131.455 57.5208 131.223 58.1911C130.987 58.8654 130.865 59.9379 130.865 61.0145V69.0339C130.866 69.0767 130.857 69.1192 130.841 69.1589C130.825 69.1985 130.801 69.2346 130.771 69.265C130.741 69.2954 130.705 69.3195 130.665 69.336C130.626 69.3524 130.583 69.3609 130.54 69.3609H127.713C127.67 69.3615 127.627 69.3535 127.587 69.3374C127.546 69.3214 127.51 69.2976 127.479 69.2674C127.448 69.2372 127.423 69.2013 127.406 69.1615C127.389 69.1218 127.38 69.0791 127.38 69.0359V52.9789C127.38 52.7981 127.512 52.6539 127.693 52.6539H130.451C130.634 52.6539 130.764 52.7981 130.764 52.9789V54.2911C131.176 53.7386 131.916 53.2511 132.585 52.9504C133.256 52.6458 134.006 52.4223 135.362 52.5036C136.067 52.5462 136.984 52.7392 137.169 52.8103C137.205 52.8248 137.238 52.8463 137.265 52.8736C137.293 52.901 137.315 52.9336 137.33 52.9695C137.345 53.0055 137.353 53.044 137.352 53.083C137.352 53.1219 137.344 53.1604 137.329 53.1962ZM110.763 45.7558C110.838 45.7862 111.043 45.8858 110.962 46.1295L110.135 48.3903C110.066 48.5609 110.021 48.6625 109.669 48.5569C109.204 48.4107 108.72 48.3354 108.232 48.3334C107.805 48.3334 107.419 48.3883 107.078 48.502C106.736 48.6113 106.426 48.8024 106.175 49.0586C105.841 49.3812 105.583 49.7739 105.419 50.2083C105.023 51.3458 104.87 52.5584 104.85 52.6356H108.293C108.584 52.6356 108.675 52.7697 108.647 52.9829L108.245 55.2214C108.179 55.5464 107.885 55.5342 107.885 55.5342H104.336L101.911 69.2573C101.702 70.4881 101.385 71.698 100.964 72.8729C100.584 73.8662 100.191 74.5914 99.5612 75.284C99.0234 75.9039 98.3395 76.38 97.5713 76.6694C96.8253 76.9436 95.9188 77.0837 94.9289 77.0837C94.4573 77.0837 93.9492 77.0736 93.3496 76.9314C93.0155 76.8551 92.6863 76.7588 92.3638 76.6429C92.2316 76.5962 92.1239 76.4276 92.2011 76.2123C92.2743 75.999 92.9126 74.2542 92.9979 74.0247C93.1077 73.7484 93.3882 73.854 93.3882 73.854C93.5793 73.9353 93.7134 73.9881 93.9675 74.0389C94.2256 74.0897 94.5712 74.1344 94.8334 74.1344C95.3029 74.1344 95.7297 74.0775 96.1017 73.9515C96.5489 73.8073 96.8131 73.5453 97.0855 73.1959C97.3701 72.8283 97.6018 72.3306 97.8396 71.6623C98.0774 70.9859 98.2949 70.0922 98.4819 69.0095L100.897 55.5362H98.5185C98.2339 55.5362 98.1364 55.4022 98.1689 55.1869L98.5673 52.9484C98.6303 52.6234 98.9331 52.6356 98.9331 52.6356H101.374L101.506 51.9084C101.872 49.7472 102.598 48.1039 103.671 47.0253C104.75 45.9386 106.285 45.3901 108.232 45.3901C108.789 45.3901 109.281 45.4267 109.698 45.5019C110.106 45.579 110.417 45.6501 110.763 45.7558ZM62.6389 69.0339C62.6389 69.2167 62.5129 69.3609 62.3299 69.3609H59.4741C59.2912 69.3609 59.1672 69.2147 59.1672 69.0359V46.0564C59.1672 45.8797 59.2932 45.7334 59.4721 45.7334H62.3299C62.5129 45.7334 62.6389 45.8797 62.6389 46.0584V69.0339Z" fill="white"/>
</g>
<defs>
<clipPath id="clip0_765_185">
<rect width="187" height="130" fill="white"/>
</clipPath>
</defs>
</svg>
