<?xml version="1.0" encoding="UTF-8" standalone="no"?>
<!DOCTYPE svg PUBLIC "-//W3C//DTD SVG 1.1//EN" "http://www.w3.org/Graphics/SVG/1.1/DTD/svg11.dtd">
<svg width="100%" height="100%" viewBox="0 0 701 222" version="1.1" xmlns="http://www.w3.org/2000/svg" xmlns:xlink="http://www.w3.org/1999/xlink" xml:space="preserve" xmlns:serif="http://www.serif.com/" style="fill-rule:evenodd;clip-rule:evenodd;stroke-linejoin:round;stroke-miterlimit:2;">
    <g transform="matrix(4.16667,0,0,4.16667,341.367,182.167)">
        <path d="M0,-32.699C-0.048,-32.761 -0.096,-32.82 -0.145,-32.881C-3.607,-30.973 -7.069,-29.066 -10.685,-27.075C-9.481,-26.73 -8.529,-26.354 -7.544,-26.216C-6.961,-26.135 -6.116,-26.22 -5.747,-26.589C-3.769,-28.563 -1.903,-30.65 0,-32.699M-17.079,-26.211C-17.117,-26.457 -17.156,-26.704 -17.195,-26.95C-20.331,-27.226 -23.467,-27.504 -26.603,-27.775C-38.75,-28.829 -50.611,-27.742 -61.964,-22.974C-68.235,-20.341 -73.943,-16.862 -77.655,-10.973C-78.947,-8.924 -80.008,-6.46 -80.271,-4.085C-80.792,0.621 -77.572,4.423 -72.119,6.085C-61.286,9.387 -50.916,7.581 -41.226,2.311C-28.952,-4.363 -18.309,-13.236 -8.773,-23.433C-8.476,-23.75 -8.257,-24.138 -8.016,-24.476C-11.275,-25.993 -14.204,-25.852 -17.561,-24.614C-22.007,-22.975 -26.795,-22.236 -31.466,-21.252C-32.755,-20.979 -34.149,-21.21 -35.495,-21.21C-35.535,-21.467 -35.575,-21.722 -35.615,-21.978C-34.916,-22.244 -34.237,-22.641 -33.515,-22.748C-31.181,-23.091 -28.791,-23.145 -26.497,-23.647C-23.322,-24.342 -20.214,-25.342 -17.079,-26.211M-4.475,-25.449C-2.493,-24.026 0.189,-23.844 1.503,-21.739C1.377,-21.501 1.25,-21.263 1.123,-21.025C0.321,-21.349 -0.518,-21.603 -1.276,-22.008C-5.511,-24.265 -5.561,-24.333 -8.786,-20.974C-17.982,-11.399 -28.185,-3.065 -39.78,3.396C-50.06,9.123 -61.051,11.021 -72.572,7.666C-78.738,5.871 -82.469,1.364 -81.864,-4.185C-81.557,-6.996 -80.259,-9.928 -78.681,-12.328C-74.389,-18.855 -67.848,-22.508 -60.714,-25.219C-49.76,-29.381 -38.418,-30.422 -26.835,-29.377C-22.672,-29.001 -18.529,-28.409 -14.372,-27.965C-13.81,-27.905 -13.16,-28.012 -12.646,-28.248C-4.397,-32.053 3.494,-36.427 10.142,-42.75C10.386,-42.981 10.628,-43.293 10.925,-43.379C11.554,-43.558 12.22,-43.614 12.871,-43.72C12.628,-43.106 12.552,-42.327 12.123,-41.903C7.121,-36.956 2.061,-32.065 -2.971,-27.148C-3.495,-26.637 -3.946,-26.052 -4.475,-25.449" style="fill:rgb(35,31,32);"/>
    </g>
    <g transform="matrix(4.16667,0,0,4.16667,426.122,73.815)">
        <path d="M0,1.033C1.799,0.341 3.445,-0.229 5.039,-0.92C7.295,-1.9 7.428,-1.845 7.404,0.745C8.879,0.066 10.273,-0.81 11.406,1.406C11.633,1.85 13.938,1.334 15.25,1.08C15.852,0.964 16.369,0.409 16.926,0.053C17.086,0.77 17.246,1.489 17.432,2.325C21.648,2.481 25.314,0.813 28.352,-2.408C28.545,-2.356 28.738,-2.303 28.932,-2.249C28.84,-1.209 28.748,-0.169 28.604,1.478C41.061,0.761 53.43,0.048 65.799,-0.664C65.842,-0.442 65.883,-0.219 65.924,0.004C65.297,0.259 64.68,0.703 64.039,0.741C51.697,1.454 39.357,2.32 27.004,2.639C24.271,2.711 21.9,4.043 19.207,3.771C16.447,3.493 13.662,3.446 10.906,3.139C10.285,3.071 9.736,2.345 9.115,1.893C5.58,3.486 5.492,3.471 4.756,1.136C3.477,1.538 2.217,2.132 0.908,2.275C-0.023,2.377 -1.018,1.845 -1.994,1.649C-2.508,1.546 -3.084,1.416 -3.564,1.548C-4.73,1.867 -5.832,2.442 -7.006,2.71C-8.328,3.012 -9.809,3.289 -9.779,1.212C-11.363,2.114 -12.805,3.101 -14.383,3.751C-15.018,4.012 -15.957,3.53 -16.758,3.387C-16.598,2.713 -16.654,1.822 -16.238,1.403C-15.078,0.237 -13.859,-1.022 -12.41,-1.717C-9.715,-3.01 -8.127,-1.939 -7.873,1.339C-6.139,0.673 -4.461,0.115 -2.857,-0.606C-0.717,-1.569 -0.592,-1.555 0,1.033" style="fill:rgb(35,31,32);"/>
    </g>
</svg>
