<svg width="49" height="59" viewBox="0 0 49 59" fill="none" xmlns="http://www.w3.org/2000/svg">
<g clip-path="url(#clip0_763_44)">
<path d="M45.8532 7.79996C40.4088 -0.0500417 29.5698 -2.35004 21.7778 2.59996L8.04179 11.4C4.29562 13.75 1.69827 17.6 0.949032 21.95C0.299694 25.6 0.849133 29.35 2.59735 32.6C1.39857 34.4 0.599388 36.4 0.249745 38.5C-0.549439 42.95 0.49949 47.55 3.09684 51.2C8.59123 59.05 19.3802 61.35 27.1723 56.4L40.9083 47.65C44.6544 45.3 47.2518 41.45 48.001 37.1C48.6504 33.45 48.1009 29.7 46.3527 26.45C47.5515 24.65 48.3507 22.65 48.7003 20.55C49.5494 16.05 48.5005 11.45 45.8532 7.79996Z" fill="#FF3E00"/>
<path d="M20.4292 51.9501C15.9837 53.1001 11.3384 51.3501 8.74108 47.6001C7.14271 45.4001 6.54332 42.6501 6.99286 39.9501C7.09276 39.5001 7.19266 39.1001 7.29256 38.6501L7.5423 37.8501L8.24159 38.3501C9.88991 39.5501 11.6881 40.4501 13.6361 41.0501L14.1356 41.2001L14.0856 41.7001C14.0357 42.4001 14.2355 43.1501 14.6351 43.7501C15.4343 44.9001 16.8328 45.4501 18.1814 45.1001C18.4811 45.0001 18.7808 44.9001 19.0306 44.7501L32.7166 36.0001C33.4159 35.5501 33.8654 34.9001 34.0153 34.1001C34.1651 33.3001 33.9653 32.4501 33.5158 31.8001C32.7166 30.6501 31.318 30.1501 29.9694 30.5001C29.6697 30.6001 29.37 30.7001 29.1203 30.8501L23.8756 34.2001C23.0265 34.7501 22.0775 35.1501 21.0785 35.4001C16.633 36.5501 11.9878 34.8001 9.39042 31.0501C7.842 28.8501 7.19266 26.1001 7.69215 23.4001C8.14169 20.8001 9.74006 18.4501 11.9878 17.0501L25.7238 8.30007C26.5729 7.75007 27.5219 7.35007 28.5209 7.05007C32.9664 5.90007 37.6116 7.65007 40.209 11.4001C41.8073 13.6001 42.4067 16.3501 41.9572 19.0501C41.8573 19.5001 41.7574 19.9001 41.6075 20.3501L41.3578 21.1501L40.6585 20.6501C39.0102 19.4501 37.212 18.5501 35.264 17.9501L34.7645 17.8001L34.8145 17.3001C34.8644 16.6001 34.6646 15.8501 34.265 15.2501C33.4658 14.1001 32.0673 13.6001 30.7187 13.9501C30.419 14.0501 30.1193 14.1501 29.8695 14.3001L16.1835 23.0501C15.4842 23.5001 15.0347 24.1501 14.8848 24.9501C14.735 25.7501 14.9348 26.6001 15.3843 27.2501C16.1835 28.4001 17.5821 28.9001 18.9307 28.5501C19.2304 28.4501 19.5301 28.3501 19.7798 28.2001L25.0245 24.8501C25.8736 24.3001 26.8226 23.9001 27.8216 23.6001C32.2671 22.4501 36.9123 24.2001 39.5097 27.9501C41.1081 30.1501 41.7074 32.9001 41.2579 35.6001C40.8084 38.2001 39.21 40.5501 36.9623 41.9501L23.2263 50.7001C22.3772 51.2501 21.4281 51.6501 20.4292 51.9501Z" fill="white"/>
</g>
<defs>
<clipPath id="clip0_763_44">
<rect width="49" height="59" fill="white"/>
</clipPath>
</defs>
</svg>
