<svg width="54" height="54" viewBox="0 0 54 54" fill="none" xmlns="http://www.w3.org/2000/svg">
<path d="M51.5419 10.3701C51.5419 10.3701 50.3175 -1.80681 36.7096 0.22966C35.2097 0.44991 33.7376 0.876469 32.3892 1.57817C28.1514 3.77977 26.913 7.28799 26.913 7.28799C26.913 7.28799 18.6164 6.86143 14.0486 15.4332L7.89829 8.5673C7.89829 8.5673 4.74742 4.70084 1.45894 7.13656C0.000340819 8.20993 -0.164573 9.94356 0.110432 11.5393C0.440796 13.5067 1.45894 15.2818 2.91743 16.6441L14.7645 27.7199C14.7645 27.7199 15.3426 30.8707 18.4795 31.7239L34.6322 50.7392C34.6322 50.7392 38.9248 55.3074 43.9196 52.7345C48.9142 50.1616 35.7744 37.1735 35.7744 37.1735C35.7744 37.1735 38.7738 33.885 40.4936 26.3039C45.0617 21.1582 46.7815 19.5895 46.7815 19.5895C46.7815 19.5895 48.0337 21.2957 47.841 25.0796C46.4511 25.6985 44.8002 26.8546 44.6352 28.8908C44.3736 32.1105 46.7815 30.4594 46.7815 30.4594C58.9718 21.1717 51.542 10.37 51.542 10.37L51.5419 10.3701ZM9.94891 21.5977C8.86204 18.9286 13.4297 17.5936 13.4297 17.5936C9.90756 20.1665 14.7643 23.8815 14.7643 23.8815C14.7643 23.8815 11.0358 24.2667 9.94891 21.5977V21.5977ZM32.472 41.2046C31.4125 43.1446 28.5232 43.1033 27.5874 41.1084C26.5279 38.8655 29.3485 36.6504 29.3485 36.6504C27.3533 42.1265 32.7332 40.6545 32.7332 40.6545C32.7336 40.654 32.637 40.8882 32.472 41.2046L32.472 41.2046ZM30.0506 32.1785L23.7627 25.3126C26.9136 18.5981 30.6286 16.8784 30.6286 16.8784C30.6286 16.8784 32.3484 19.8779 34.9212 20.0293C31.4813 24.5974 30.0505 32.1783 30.0505 32.1783L30.0506 32.1785ZM37.7004 8.30712C37.7004 8.30712 36.7646 11.4993 32.6235 13.5216C27.3124 13.5356 28.7162 9.02227 28.7162 9.02227C28.7162 9.02227 29.6929 12.7099 33.6281 11.5952C36.5175 10.7834 37.701 7.23328 37.701 7.23328L37.7004 8.30712Z" fill="#1C1917"/>
</svg>
