<svg width="64" height="40" viewBox="0 0 64 40" fill="none" xmlns="http://www.w3.org/2000/svg">
<path fill-rule="evenodd" clip-rule="evenodd" d="M15.1296 38.8115C15.699 39.5207 16.5594 39.9333 17.4689 39.9333L60.0526 39.9333C61.7094 39.9333 63.0526 38.5902 63.0526 36.9333V3C63.0526 1.34315 61.7094 0 60.0526 0H17.4689C16.5594 0 15.699 0.412616 15.1296 1.12185L1.50782 18.0885C0.62695 19.1857 0.626949 20.7476 1.50782 21.8448L15.1296 38.8115ZM17.8648 25.2214C20.7667 25.2214 23.1192 22.8689 23.1192 19.967C23.1192 17.0651 20.7667 14.7126 17.8648 14.7126C14.9629 14.7126 12.6104 17.0651 12.6104 19.967C12.6104 22.8689 14.9629 25.2214 17.8648 25.2214Z" fill="#3D3834"/>
</svg>
