<svg width="106" height="106" viewBox="0 0 106 106" fill="none" xmlns="http://www.w3.org/2000/svg">
  <circle cx="53" cy="53" r="53" fill="#E6FAF8" />
  <path
    d="M60.462 49.1785C63.763 46.4485 65.226 30.3105 66.655 24.5095C68.085 18.7095 73.995 19.0025 73.995 19.0025C73.995 19.0025 72.461 21.6735 73.086 23.6665C73.712 25.6595 78 27.4405 78 27.4405L77.075 29.8785C77.075 29.8785 75.145 29.6315 73.995 31.9305C72.845 34.2285 74.734 56.9885 74.734 56.9885C74.734 56.9885 67.827 70.6115 67.827 76.3625C67.827 82.1145 70.55 86.9345 70.55 86.9345H66.73C66.73 86.9345 61.125 80.2645 59.976 76.9325C58.826 73.5995 59.286 70.2665 59.286 70.2665C59.286 70.2665 53.195 69.9215 47.793 70.2665C42.392 70.6115 38.789 75.2545 38.139 77.8515C37.489 80.4495 37.219 86.9345 37.219 86.9345H34.2C32.361 81.2605 30.9 79.2275 31.693 76.3625C33.887 68.4275 33.456 63.9265 32.948 61.9225C32.44 59.9175 29 58.1685 29 58.1685C30.685 54.7355 32.405 53.0855 39.803 52.9135C47.201 52.7415 57.161 51.9095 60.462 49.1785Z"
    fill="#ED4814" />
  <path
    d="M41.25 76.03C41.25 76.03 42.03 83.253 46.177 86.934H49.731C46.177 82.908 45.79 72.415 45.79 72.415C43.982 73.004 41.48 75.111 41.25 76.03Z"
    fill="#ED4814" />
</svg>
