<svg width="47" height="55" viewBox="0 0 47 55" fill="none" xmlns="http://www.w3.org/2000/svg">
<path d="M44.0963 7.32013C50.3666 7.66238 43.3995 2.18508 24.4145 5.43709C24.4145 5.43709 48.6245 4.58112 44.0963 7.32013ZM23.5436 54.2214C24.5887 53.5365 24.2405 52.6809 23.7178 51.8249C24.7628 50.9689 24.5887 50.2845 23.8919 49.2574C24.7629 48.2303 24.4143 47.5458 23.5436 47.0321C25.2853 47.0321 25.4597 45.8339 24.7629 44.8068C27.0272 45.3202 26.3304 43.2664 25.9821 42.7526C27.7238 43.7797 28.4206 42.4104 27.2014 40.8696C28.943 41.5544 29.4657 39.6714 28.943 38.6443C30.8591 39.5003 31.7298 38.1309 29.814 36.5901C30.685 36.9324 32.0783 37.6172 32.949 36.9324C31.3815 36.0764 29.814 35.7341 28.0721 35.9053C30.1623 35.2205 31.2071 35.0493 33.2972 35.5631C33.1231 35.0497 32.7749 34.536 32.6004 34.1938C35.7354 34.536 36.2581 34.0226 34.1679 31.284C35.0389 31.4551 36.7805 31.4551 37.1287 30.5992C34.6902 30.0858 31.7294 30.428 29.1168 30.428C31.2071 29.9146 33.6455 29.0587 35.7354 29.0587C38.3479 29.0587 39.3931 28.3739 37.477 26.149C37.8253 25.9778 38.1739 25.6356 38.5221 25.293C35.0386 25.1218 31.7295 25.293 28.2462 25.293C31.5556 24.7796 35.7357 23.9237 39.0449 24.2659C39.2191 23.2389 38.3481 22.5543 37.8257 22.0406C38.3481 21.5273 38.6967 21.1847 39.219 20.5002C32.9487 19.9868 26.5046 20.329 20.234 20.329C26.6783 19.6442 33.1224 18.6174 39.393 18.7886C39.0448 18.1037 37.8255 17.5904 37.1287 17.2481C39.5672 17.077 40.0895 17.077 38.8704 14.3383C39.5672 14.3383 40.612 14.3383 40.9606 13.4824C36.2578 11.7707 27.2005 12.1131 22.1495 12.1131C27.8974 10.9148 33.9931 10.5726 40.2638 11.086C40.2638 10.9149 40.0896 10.5726 39.9155 10.23C43.7473 9.5452 41.1348 7.6625 39.3931 6.12204C34.5162 5.95091 25.111 5.60866 20.9309 6.12204C25.2851 4.239 35.5618 3.38335 41.6576 4.239C37.8258 -6.54458 -12.3362 6.46428 7.34564 8.00475C6.82325 8.51813 6.1264 8.86072 5.60398 9.37405C9.60996 8.68922 13.79 8.51807 17.9704 8.17583C13.4418 9.03181 8.7393 9.54513 4.38515 11.0856C4.38515 11.599 4.73341 12.1127 5.082 12.2838C14.4871 9.20289 23.7191 8.68916 33.647 8.51807C25.2867 9.88738 15.7068 10.5723 7.86931 13.1398C9.26264 13.482 10.656 13.482 11.8753 13.6532C9.78505 14.6802 3.16618 16.5629 9.78505 17.4189C16.5777 14.6802 22.8483 14.338 29.9889 14.1666C24.0669 15.3648 16.5777 16.2208 11.3519 18.6171C9.26164 22.2118 15.0096 20.3288 16.4029 19.9864C15.8805 20.8424 15.1837 21.5269 14.6613 22.3829C18.6673 21.5269 21.8026 21.3558 25.4601 21.1847C21.9765 21.8695 17.7964 22.3829 14.4873 23.5811C14.8355 24.9504 18.3191 24.9504 19.5383 24.9504L19.0159 25.2927C23.0219 24.0944 27.0278 23.9234 31.2084 23.9234C27.3766 24.7793 22.3253 25.4638 18.6679 26.6621C19.3648 27.3469 20.9323 27.518 21.8029 27.6891C20.0613 28.8873 19.8869 29.5721 22.3253 30.0856C21.9771 30.2567 21.9771 30.4278 21.9771 30.5989C24.0673 30.4278 25.2865 30.7701 27.0281 32.1394C25.6348 31.626 24.0673 31.626 23.0221 31.7971C23.719 32.3105 24.2414 32.6531 25.1124 32.9954C23.0221 32.6531 20.5837 32.8242 23.0221 34.8784C21.2805 35.0495 20.7578 37.1037 22.4997 38.1307C20.0613 38.6441 20.4095 40.1849 22.3256 41.2117C20.584 40.5268 19.8871 42.0677 21.1064 43.0947C20.0613 43.9507 20.0613 44.6352 21.2805 45.8334C20.7581 46.8605 20.7581 47.545 21.6288 48.4009C20.9319 49.7702 21.4546 50.4551 22.6738 51.1396C21.977 52.3378 22.3256 53.5361 23.5448 54.2205L23.5436 54.2214ZM41.4839 6.29332H40.2646C40.6129 6.29332 40.9615 6.46445 41.4839 6.29332ZM23.8925 31.1127C23.3701 31.1127 21.6281 30.9416 20.7575 31.6261C21.6285 31.2839 23.0218 31.2839 23.8925 31.1127ZM33.9944 37.6172C35.0395 36.419 32.4269 35.9055 31.7301 35.9055C32.6011 36.0767 33.9944 36.5904 33.9944 37.6172ZM38.6972 31.455C41.3098 30.4279 36.9555 29.0585 34.5171 29.7434C35.214 29.7434 39.9164 30.0856 38.6972 31.455ZM40.9615 25.8062C43.0518 25.2928 39.7423 24.608 39.2199 24.7791C39.394 24.7791 41.3101 24.9503 40.9615 25.8062ZM22.1505 25.1214C19.5379 25.4636 11.3517 28.2023 15.8802 28.2023C15.1833 26.6618 19.8861 25.8059 22.1505 25.1214ZM15.0092 22.7249C13.9641 22.8961 9.26129 25.2925 12.0484 24.9502C11.7001 23.9232 14.3127 23.2386 15.0092 22.7249ZM21.8018 15.0223C13.964 15.3645 0.0302553 21.8693 8.73854 21.1845C6.6483 17.761 19.8861 15.5357 21.8018 15.0223ZM43.7473 22.0404C50.7145 20.1574 39.7414 18.6169 31.2069 19.644C31.5552 19.644 48.1015 19.644 43.7473 22.0404ZM42.354 14.3378C50.5401 12.1125 34.8645 10.572 28.5939 11.5991C29.639 11.5991 43.5728 11.7702 42.354 14.3378ZM22.847 9.54499C9.95853 9.88724 -8.15653 17.0765 4.0359 16.2205C1.24917 12.797 15.8795 10.7431 22.847 9.54499V9.54499ZM1.77142 11.5992C3.33891 10.9144 5.77739 10.0587 7.34488 9.71615C5.08056 9.71615 -0.492904 11.5992 1.77142 11.5992V11.5992Z" fill="#1C1917"/>
</svg>
