<svg width="91" height="55" viewBox="0 0 91 55" fill="none" xmlns="http://www.w3.org/2000/svg">
<path d="M44.451 54.5544C28.4625 54.0462 23.7105 42.6249 22.6215 36.4374C24.0404 38.7309 28.512 43.7633 35.0955 43.7633C42.768 43.7633 48.609 35.1998 52.173 32.5268C56.5029 29.2793 65.2036 24.9914 76.626 28.4678C85.734 31.2398 89.958 40.9089 90.882 45.4959C86.4765 39.5064 79.794 35.9088 71.5275 40.1499C65.835 43.0704 61.578 55.0988 44.451 54.5544Z" fill="#07B6D5"/>
<path d="M21.8295 27.3786C5.841 26.8704 1.089 15.4491 0 9.26158C1.419 11.5551 5.8905 16.5875 12.474 16.5875C20.1465 16.5875 25.9875 8.02398 29.5515 5.35098C33.8815 2.10348 42.5822 -2.18441 54.0045 1.29198C63.1125 4.06398 67.3365 13.7331 68.2605 18.3201C63.855 12.3306 57.1725 8.73302 48.906 12.9741C43.2135 15.8946 38.9565 27.923 21.8295 27.3786Z" fill="#07B6D5"/>
</svg>
