<?xml version="1.0" encoding="UTF-8" standalone="no"?>
<!DOCTYPE svg PUBLIC "-//W3C//DTD SVG 1.1//EN" "http://www.w3.org/Graphics/SVG/1.1/DTD/svg11.dtd">
<svg width="100%" height="100%" viewBox="0 0 114 26" version="1.1" xmlns="http://www.w3.org/2000/svg" xmlns:xlink="http://www.w3.org/1999/xlink" xml:space="preserve" xmlns:serif="http://www.serif.com/" style="fill-rule:evenodd;clip-rule:evenodd;stroke-linejoin:round;stroke-miterlimit:2;">
    <g transform="matrix(1,0,0,1,-85.456,-0.1)">
        <path d="M141.872,6.5C137.456,6.5 134.272,9.38 134.272,13.7C134.272,18.02 137.856,20.9 142.272,20.9C144.94,20.9 147.292,19.844 148.748,18.064L145.688,16.296C144.88,17.18 143.652,17.696 142.272,17.696C140.356,17.696 138.728,16.696 138.124,15.096L149.332,15.096C149.42,14.648 149.472,14.184 149.472,13.696C149.472,9.38 146.288,6.5 141.872,6.5ZM138.088,12.3C138.588,10.704 139.956,9.7 141.868,9.7C143.784,9.7 145.152,10.704 145.648,12.3L138.088,12.3ZM184.944,6.5C180.528,6.5 177.344,9.38 177.344,13.7C177.344,18.02 180.928,20.9 185.344,20.9C188.012,20.9 190.364,19.844 191.82,18.064L188.76,16.296C187.952,17.18 186.724,17.696 185.344,17.696C183.428,17.696 181.8,16.696 181.196,15.096L192.404,15.096C192.492,14.648 192.544,14.184 192.544,13.696C192.544,9.38 189.36,6.5 184.944,6.5ZM181.164,12.3C181.664,10.704 183.032,9.7 184.944,9.7C186.86,9.7 188.228,10.704 188.724,12.3L181.164,12.3ZM165.552,13.7C165.552,16.1 167.12,17.7 169.552,17.7C171.2,17.7 172.436,16.952 173.072,15.732L176.144,17.504C174.872,19.624 172.488,20.9 169.552,20.9C165.132,20.9 161.952,18.02 161.952,13.7C161.952,9.38 165.136,6.5 169.552,6.5C172.488,6.5 174.868,7.776 176.144,9.896L173.072,11.668C172.436,10.448 171.2,9.7 169.552,9.7C167.124,9.7 165.552,11.3 165.552,13.7ZM198.544,2.1L198.544,20.5L194.944,20.5L194.944,2.1L198.544,2.1ZM100.236,0.1L115.016,25.7L85.456,25.7L100.236,0.1ZM137.188,2.1L126.104,21.3L115.02,2.1L119.176,2.1L126.104,14.1L133.032,2.1L137.188,2.1ZM160.752,6.9L160.752,10.776C160.352,10.66 159.928,10.58 159.472,10.58C157.148,10.58 155.472,12.18 155.472,14.58L155.472,20.5L151.872,20.5L151.872,6.9L155.472,6.9L155.472,10.58C155.472,8.548 157.836,6.9 160.752,6.9Z" style="fill:rgb(28,25,23);fill-rule:nonzero;"/>
    </g>
</svg>
