<svg width="94" height="94" viewBox="0 0 94 94" fill="none" xmlns="http://www.w3.org/2000/svg">
<path d="M0 0H94V94H0V0Z" fill="#E42527"/>
<path d="M70.4352 74.363C69.8959 73.4631 69.0933 72.7342 68.0626 72.1797C67.0024 71.6104 65.6763 71.2072 64.079 70.9543C62.574 70.7159 60.8273 70.6111 58.8338 70.6363L35.9576 70.9153C36.4648 69.2362 37.6745 67.1153 39.6128 64.6044C41.7792 61.7903 44.8395 58.483 48.7904 54.6943L48.7924 54.6923C50.1515 53.371 51.1902 52.3616 51.908 51.6647C52.4168 51.2051 53.1321 50.5241 54.0621 49.6212C60.2158 43.7441 64.2314 38.8012 66.117 34.7212C67.1925 32.4089 68.0001 30.0351 68.5417 27.6013C68.6898 26.9351 68.8147 26.2703 68.9197 25.6073C69.1986 23.8462 69.3292 22.089 69.3078 20.3363C69.2888 18.739 69.1109 17.3846 68.762 16.2652C68.4127 15.148 67.886 14.2568 67.1604 13.6325C66.3407 12.9367 65.1016 12.5003 63.4327 12.2332C62.0544 12.0149 60.3749 11.9201 58.3878 11.9435L31.9504 12.271C28.7487 12.3113 26.3017 12.8642 24.6142 14.0143C23.2738 14.9244 22.4463 16.2471 22.1945 17.8759C22.1272 18.3008 22.0964 18.7465 22.1029 19.2139C22.1186 21.4583 23.0043 23.2427 24.7126 24.3496C25.7197 25.0107 26.9933 25.452 28.5229 25.6942C29.5648 25.8593 30.7266 25.9319 32.0109 25.917L54.13 25.696C54.1063 26.0824 54.0713 26.4665 54.0116 26.8433C53.7984 28.1894 53.357 29.4669 52.6851 30.6872C51.7633 32.3689 49.7617 34.665 46.702 37.5021C45.8405 38.2725 44.5169 39.4758 42.7319 41.1076C35.8074 47.2254 30.6958 52.5667 27.3873 57.1592L27.3849 57.1633L27.3841 57.1654C25.0526 60.3177 23.2759 63.5053 22.0679 66.7287C21.3637 68.6089 20.8678 70.4426 20.5843 72.2327C20.3813 73.5143 20.2874 74.7713 20.3031 76.0048C20.3251 77.7744 20.5254 79.2632 20.9199 80.48C21.3152 81.6918 21.9131 82.6458 22.7367 83.2845C23.5044 83.873 24.7099 84.2492 26.408 84.5232C28.5645 84.8648 31.5179 85.0067 35.2918 84.9618L59.2794 84.6674C63.5282 84.6109 66.5607 84.0802 68.4497 82.9721C69.9592 82.0866 70.8896 80.6901 71.1635 78.9147C71.2346 78.4658 71.2666 77.9956 71.2594 77.5002C71.2458 76.3174 70.9746 75.2618 70.4352 74.363ZM54.0629 49.6197L54.0648 49.6188L54.0621 49.6212L54.0605 49.621L54.0629 49.6197Z" fill="white"/>
</svg>
